<?xml version="1.0" encoding="UTF-8"?>
<svg width="100px" height="100px" viewBox="0 0 100 100" version="1.1" xmlns="http://www.w3.org/2000/svg" xmlns:xlink="http://www.w3.org/1999/xlink">
    <!-- Generator: Sketch 62 (91390) - https://sketch.com -->
    <title>1</title>
    <desc>Created with Sketch.</desc>
    <g id="Glyphs" stroke="none" stroke-width="1" fill="none" fill-rule="evenodd">
        <g id="GLYPHS-1" transform="translate(-394.000000, -526.000000)" fill="#FFFFFF">
            <path d="M490.153846,556.807692 C485.096154,544.653846 475.365385,534.903846 463.192308,529.846154 L490.153846,529.846154 L490.153846,556.807692 Z M444,622.153846 C418.557692,622.153846 397.846154,601.461538 397.846154,576 C397.846154,550.557692 418.557692,529.846154 444,529.846154 C469.461538,529.846154 490.153846,550.557692 490.153846,576 C490.153846,601.461538 469.461538,622.153846 444,622.153846 L444,622.153846 Z M490.153846,622.153846 L463.25,622.153846 C475.384615,617.057692 485.096154,607.346154 490.153846,595.192308 L490.153846,622.153846 Z M397.846154,622.153846 L397.846154,595.192308 C402.903846,607.346154 412.615385,617.057692 424.769231,622.153846 L397.846154,622.153846 Z M397.846154,529.846154 L424.826923,529.846154 C412.653846,534.903846 402.903846,544.653846 397.846154,556.807692 L397.846154,529.846154 Z M394,626 L494,626 L494,526 L394,526 L394,626 Z" id="1"></path>
        </g>
    </g>
</svg>