<svg id="Layer_1" data-name="Layer 1" xmlns="http://www.w3.org/2000/svg" viewBox="0 0 74 50"><defs><style>.cls-1{fill:#ccc;}</style></defs><path class="cls-1" d="M16.2,44.05A11.18,11.18,0,0,1,9.34,42,12.65,12.65,0,0,1,5.1,35.6a35.71,35.71,0,0,1-1.43-11,35.73,35.73,0,0,1,1.43-11A12.65,12.65,0,0,1,9.34,7.14,11.18,11.18,0,0,1,16.2,5.06a11.12,11.12,0,0,1,6.88,2.08,12.69,12.69,0,0,1,4.22,6.37,35.73,35.73,0,0,1,1.43,11A35.71,35.71,0,0,1,27.3,35.6,12.69,12.69,0,0,1,23.08,42,11.12,11.12,0,0,1,16.2,44.05Zm0-1.78A9.09,9.09,0,0,0,22,40.48a10.74,10.74,0,0,0,3.46-5.29,27.68,27.68,0,0,0,1.16-8.58V22.5a27.62,27.62,0,0,0-1.16-8.61A10.82,10.82,0,0,0,22,8.62,9.15,9.15,0,0,0,16.2,6.84a9.14,9.14,0,0,0-5.72,1.78A10.72,10.72,0,0,0,7,13.89,27.62,27.62,0,0,0,5.83,22.5v4.11A27.68,27.68,0,0,0,7,35.19a10.65,10.65,0,0,0,3.49,5.29A9.08,9.08,0,0,0,16.2,42.27Z"/><path class="cls-1" d="M58,41.62V43.4H34.24v-2l14-13.88a25.11,25.11,0,0,0,4.29-5.42,11.3,11.3,0,0,0,1.6-5.7V15A8.21,8.21,0,0,0,52,9.17q-2.16-2.32-6.43-2.33a9.34,9.34,0,0,0-6.32,2A10.9,10.9,0,0,0,36,14.08l-1.78-.54a13.22,13.22,0,0,1,2.13-4.32,10.43,10.43,0,0,1,3.73-3,12.49,12.49,0,0,1,5.54-1.13,12,12,0,0,1,5.83,1.3A8.53,8.53,0,0,1,55,10a12.16,12.16,0,0,1,1.21,5.62,13.77,13.77,0,0,1-.81,4.72,17.46,17.46,0,0,1-2.29,4.29,32.06,32.06,0,0,1-3.65,4.16l-13,12.8Z"/><path class="cls-1" d="M66.09,44.05a1.88,1.88,0,0,1-1.4-.49,1.74,1.74,0,0,1-.48-1.29v-.49a1.74,1.74,0,0,1,.48-1.32,2.42,2.42,0,0,1,2.84,0A1.8,1.8,0,0,1,68,41.78v.49a1.81,1.81,0,0,1-.45,1.29A1.89,1.89,0,0,1,66.09,44.05Z"/></svg>