<?xml version="1.0" encoding="UTF-8"?>
<svg width="149px" height="100px" viewBox="0 0 149 100" version="1.1" xmlns="http://www.w3.org/2000/svg" xmlns:xlink="http://www.w3.org/1999/xlink">
    <!-- Generator: Sketch 62 (91390) - https://sketch.com -->
    <title>3</title>
    <desc>Created with Sketch.</desc>
    <g id="Glyphs" stroke="none" stroke-width="1" fill="none" fill-rule="evenodd">
        <g id="GLYPHS-1" transform="translate(-988.000000, -526.000000)" fill="#dddddd">
            <path d="M1088.33962,622.113462 L1088.33962,529.882692 C1112.89731,530.901923 1132.57039,551.209615 1132.57039,576 C1132.57039,600.805769 1112.89731,621.094231 1088.33962,622.113462 L1088.33962,622.113462 Z M1084.49347,622.113462 C1059.93578,621.094231 1040.2627,600.805769 1040.2627,576 C1040.2627,551.209615 1059.93578,530.901923 1084.49347,529.882692 L1084.49347,622.113462 Z M992.185776,622.153846 L992.185776,529.846154 L1067.22424,529.846154 C1049.14731,537.382692 1036.41655,555.228846 1036.41655,576 C1036.41655,596.75 1049.12808,614.594231 1067.16655,622.153846 L992.185776,622.153846 Z M1088.33962,526.036538 C1087.70501,526.017308 988.339623,526 988.339623,526 L988.339623,626 C988.339623,626 1087.70501,625.978846 1088.33962,625.959615 C1115.03193,624.940385 1136.41655,602.940385 1136.41655,576 C1136.41655,549.076923 1115.03193,527.055769 1088.33962,526.036538 L1088.33962,526.036538 Z" id="3"></path>
        </g>
    </g>
</svg>