<svg id="Layer_1" data-name="Layer 1" xmlns="http://www.w3.org/2000/svg" viewBox="0 0 74 50"><defs><style>.cls-1{fill:#ccc;}</style></defs><path class="cls-1" d="M16.2,44.05A11.18,11.18,0,0,1,9.34,42,12.65,12.65,0,0,1,5.1,35.6a35.71,35.71,0,0,1-1.43-11,35.73,35.73,0,0,1,1.43-11A12.65,12.65,0,0,1,9.34,7.14,11.18,11.18,0,0,1,16.2,5.06a11.12,11.12,0,0,1,6.88,2.08,12.69,12.69,0,0,1,4.22,6.37,35.73,35.73,0,0,1,1.43,11A35.71,35.71,0,0,1,27.3,35.6,12.69,12.69,0,0,1,23.08,42,11.12,11.12,0,0,1,16.2,44.05Zm0-1.78A9.09,9.09,0,0,0,22,40.48a10.74,10.74,0,0,0,3.46-5.29,27.68,27.68,0,0,0,1.16-8.58V22.5a27.62,27.62,0,0,0-1.16-8.61A10.82,10.82,0,0,0,22,8.62,9.15,9.15,0,0,0,16.2,6.84a9.14,9.14,0,0,0-5.72,1.78A10.72,10.72,0,0,0,7,13.89,27.62,27.62,0,0,0,5.83,22.5v4.11A27.68,27.68,0,0,0,7,35.19a10.65,10.65,0,0,0,3.49,5.29A9.08,9.08,0,0,0,16.2,42.27Z"/><path class="cls-1" d="M45.9,44.05a11.76,11.76,0,0,1-6.64-1.73A10.38,10.38,0,0,1,35.4,37.6a17.18,17.18,0,0,1-1.27-6.78,27.84,27.84,0,0,1,4.32-15.23A29.43,29.43,0,0,1,43,10,34,34,0,0,1,48.6,5.71h2.7A41.94,41.94,0,0,0,44,11.51,27.46,27.46,0,0,0,39,18.21a28.62,28.62,0,0,0-2.7,8.07l.16.06a11.16,11.16,0,0,1,2.38-3.11,9.6,9.6,0,0,1,3.24-1.92,12.29,12.29,0,0,1,4.1-.64,12.52,12.52,0,0,1,6,1.37,9.61,9.61,0,0,1,4,4,12.82,12.82,0,0,1,1.4,6.16,13,13,0,0,1-1.43,6.21,10.13,10.13,0,0,1-4.05,4.18A12.29,12.29,0,0,1,45.9,44.05Zm0-1.78A10.86,10.86,0,0,0,51,41.11a7.92,7.92,0,0,0,3.29-3.27A9.94,9.94,0,0,0,55.46,33v-1.4a9.79,9.79,0,0,0-1.14-4.78A8.09,8.09,0,0,0,51,23.58a10.63,10.63,0,0,0-5.18-1.18,10.64,10.64,0,0,0-5.19,1.18,8.09,8.09,0,0,0-3.29,3.27,9.79,9.79,0,0,0-1.14,4.78v1.29a9.72,9.72,0,0,0,1.19,4.86,8.43,8.43,0,0,0,3.32,3.3A10.38,10.38,0,0,0,45.85,42.27Z"/><path class="cls-1" d="M66.09,44.05a1.88,1.88,0,0,1-1.4-.49,1.74,1.74,0,0,1-.48-1.29v-.49a1.74,1.74,0,0,1,.48-1.32,2.42,2.42,0,0,1,2.84,0A1.8,1.8,0,0,1,68,41.78v.49a1.81,1.81,0,0,1-.45,1.29A1.89,1.89,0,0,1,66.09,44.05Z"/></svg>