<svg id="Layer_1" data-name="Layer 1" xmlns="http://www.w3.org/2000/svg" viewBox="0 0 74 50"><defs><style>.cls-1{fill:#ccc;}</style></defs><path class="cls-1" d="M16.2,44.05A11.18,11.18,0,0,1,9.34,42,12.65,12.65,0,0,1,5.1,35.6a35.71,35.71,0,0,1-1.43-11,35.73,35.73,0,0,1,1.43-11A12.65,12.65,0,0,1,9.34,7.14,11.18,11.18,0,0,1,16.2,5.06a11.12,11.12,0,0,1,6.88,2.08,12.69,12.69,0,0,1,4.22,6.37,35.73,35.73,0,0,1,1.43,11A35.71,35.71,0,0,1,27.3,35.6,12.69,12.69,0,0,1,23.08,42,11.12,11.12,0,0,1,16.2,44.05Zm0-1.78A9.09,9.09,0,0,0,22,40.48a10.74,10.74,0,0,0,3.46-5.29,27.68,27.68,0,0,0,1.16-8.58V22.5a27.62,27.62,0,0,0-1.16-8.61A10.82,10.82,0,0,0,22,8.62,9.15,9.15,0,0,0,16.2,6.84a9.14,9.14,0,0,0-5.72,1.78A10.72,10.72,0,0,0,7,13.89,27.62,27.62,0,0,0,5.83,22.5v4.11A27.68,27.68,0,0,0,7,35.19a10.65,10.65,0,0,0,3.49,5.29A9.08,9.08,0,0,0,16.2,42.27Z"/><path class="cls-1" d="M45.9,44.05a15.64,15.64,0,0,1-6.7-1.32A10,10,0,0,1,34.91,39a10.11,10.11,0,0,1-1.48-5.46A9.66,9.66,0,0,1,35.64,27a10,10,0,0,1,5.94-3.26v-.27a8.56,8.56,0,0,1-5-3.08,9.28,9.28,0,0,1-1.86-5.89,8.54,8.54,0,0,1,3-6.88A12.29,12.29,0,0,1,45.9,5.06a12.29,12.29,0,0,1,8.21,2.57,8.57,8.57,0,0,1,3,6.88,9.28,9.28,0,0,1-1.86,5.89,8.56,8.56,0,0,1-5.05,3.08v.27A10,10,0,0,1,56.16,27a9.71,9.71,0,0,1,2.21,6.56A10.11,10.11,0,0,1,56.89,39a10,10,0,0,1-4.29,3.7A15.67,15.67,0,0,1,45.9,44.05Zm0-1.78A11.69,11.69,0,0,0,53.46,40a7.27,7.27,0,0,0,2.81-5.94V32.71a7.27,7.27,0,0,0-2.81-5.94A11.69,11.69,0,0,0,45.9,24.5a11.69,11.69,0,0,0-7.56,2.27,7.27,7.27,0,0,0-2.81,5.94v1.35A7.27,7.27,0,0,0,38.34,40,11.69,11.69,0,0,0,45.9,42.27Zm0-19.5a10.17,10.17,0,0,0,6.67-2A6.61,6.61,0,0,0,55,15.38V14.19a6.54,6.54,0,0,0-2.46-5.35,10.28,10.28,0,0,0-6.67-2,10.28,10.28,0,0,0-6.67,2,6.54,6.54,0,0,0-2.46,5.35v1.19a6.61,6.61,0,0,0,2.46,5.37A10.17,10.17,0,0,0,45.9,22.77Z"/><path class="cls-1" d="M66.09,44.05a1.88,1.88,0,0,1-1.4-.49,1.74,1.74,0,0,1-.48-1.29v-.49a1.74,1.74,0,0,1,.48-1.32,2.42,2.42,0,0,1,2.84,0A1.8,1.8,0,0,1,68,41.78v.49a1.81,1.81,0,0,1-.45,1.29A1.89,1.89,0,0,1,66.09,44.05Z"/></svg>