<svg id="Layer_1" data-name="Layer 1" xmlns="http://www.w3.org/2000/svg" viewBox="0 0 390 602.55"><defs><style>.cls-1{fill:#f3f4f3;}.cls-2{fill:#231f20;}.cls-3{fill:none;stroke:#ff0048;stroke-miterlimit:10;stroke-width:7px;}</style></defs><title>Artboard 1</title><rect class="cls-1" width="390" height="602.55"/><path class="cls-2" d="M45,85.85V48.15h13.4a16.75,16.75,0,0,1,8.47,2.08,13.59,13.59,0,0,1,5.57,6.27A25,25,0,0,1,74.42,67a25,25,0,0,1-1.94,10.5,13.59,13.59,0,0,1-5.57,6.27,16.75,16.75,0,0,1-8.47,2.08Zm6.32-5.57h7.08a9.66,9.66,0,0,0,4.88-1.18,8.16,8.16,0,0,0,3.24-3.46A12.15,12.15,0,0,0,67.72,70V64a12.34,12.34,0,0,0-1.16-5.65,7.86,7.86,0,0,0-3.24-3.45,9.76,9.76,0,0,0-4.88-1.16H51.36Z"/><path class="cls-2" d="M90.24,86.49A13,13,0,0,1,83.3,84.7a11.78,11.78,0,0,1-4.51-5.07,17.75,17.75,0,0,1-1.56-7.72,17.89,17.89,0,0,1,1.54-7.71,11.65,11.65,0,0,1,4.42-5.07,12.79,12.79,0,0,1,6.89-1.8,12.44,12.44,0,0,1,7,1.86,11.34,11.34,0,0,1,4.21,5,17.07,17.07,0,0,1,1.41,7v2.2H83.55v.9a7.34,7.34,0,0,0,1.86,5.17,7,7,0,0,0,5.43,2,8,8,0,0,0,4.34-1.12,10.17,10.17,0,0,0,3-3L101.69,81a11.8,11.8,0,0,1-4.56,4A14.77,14.77,0,0,1,90.24,86.49Zm0-24.46a6.47,6.47,0,0,0-3.48.91,6.18,6.18,0,0,0-2.33,2.5,7.76,7.76,0,0,0-.83,3.67v.37H96.29V69a8.36,8.36,0,0,0-.73-3.62,5.72,5.72,0,0,0-2.08-2.42A6,6,0,0,0,90.19,62Z"/><path class="cls-2" d="M115.62,86.49a14.4,14.4,0,0,1-6.67-1.4,15.18,15.18,0,0,1-4.78-3.89l3.89-3.56a12.71,12.71,0,0,0,3.48,2.89,9,9,0,0,0,4.41,1,6.27,6.27,0,0,0,3.8-.93A3.13,3.13,0,0,0,121,78a3,3,0,0,0-.87-2.21,5,5,0,0,0-3-1.15l-2.59-.37a16.74,16.74,0,0,1-5-1.37,7.44,7.44,0,0,1-3.21-2.71A7.65,7.65,0,0,1,105.2,66a7.58,7.58,0,0,1,2.92-6.38,12,12,0,0,1,7.56-2.26,17.34,17.34,0,0,1,4.48.52,11.12,11.12,0,0,1,3.37,1.51,14.69,14.69,0,0,1,2.73,2.4l-3.67,3.62a10.36,10.36,0,0,0-2.89-2.24,8.23,8.23,0,0,0-4-1,5.63,5.63,0,0,0-3.51.91,2.94,2.94,0,0,0-1.13,2.44,2.76,2.76,0,0,0,1,2.32A7.38,7.38,0,0,0,115.24,69l2.7.38q4.65.65,6.78,2.68a7.16,7.16,0,0,1,2.13,5.42,8.28,8.28,0,0,1-1.37,4.72,9,9,0,0,1-3.89,3.17A14.56,14.56,0,0,1,115.62,86.49Z"/><path class="cls-2" d="M134,53.12a3.68,3.68,0,0,1-2.76-.89,3.1,3.1,0,0,1-.86-2.24V49a3.09,3.09,0,0,1,.86-2.27,4.84,4.84,0,0,1,5.51,0,3.09,3.09,0,0,1,.86,2.27v1a3.1,3.1,0,0,1-.86,2.24A3.68,3.68,0,0,1,134,53.12ZM131,85.85V58h6.1V85.85Z"/><path class="cls-2" d="M167.79,88.35a8.05,8.05,0,0,1-1.49,4.94,9.09,9.09,0,0,1-4.64,3,28.09,28.09,0,0,1-8.29,1,27.38,27.38,0,0,1-7.43-.82,8,8,0,0,1-4.1-2.35,5.53,5.53,0,0,1-1.27-3.66,5.05,5.05,0,0,1,1.3-3.69A6.45,6.45,0,0,1,145.43,85v-.6a4.62,4.62,0,0,1-2.46-1.6,4.43,4.43,0,0,1-.83-2.73,3.9,3.9,0,0,1,1.48-3.28,9.16,9.16,0,0,1,3.54-1.63v-.21a8.76,8.76,0,0,1-3.81-3.27A9,9,0,0,1,142,66.75a9.2,9.2,0,0,1,1.32-5,8.67,8.67,0,0,1,3.86-3.3,14.49,14.49,0,0,1,6.1-1.17,19.1,19.1,0,0,1,2.68.19,12.42,12.42,0,0,1,2.4.62v-.79a4.59,4.59,0,0,1,.92-3.1,3.47,3.47,0,0,1,2.81-1.07h4.32V58h-5.78v1.3a7.88,7.88,0,0,1,3,3.16,9.27,9.27,0,0,1,1,4.33,9.07,9.07,0,0,1-1.32,4.89A8.7,8.7,0,0,1,159.5,75a14.64,14.64,0,0,1-6.19,1.17,18.71,18.71,0,0,1-2-.11,11.28,11.28,0,0,1-1.78-.33,6.64,6.64,0,0,0-1.75,1,2,2,0,0,0-.78,1.68A1.62,1.62,0,0,0,148,80a6.89,6.89,0,0,0,2.89.48h7q5.19,0,7.54,2.07A7.38,7.38,0,0,1,167.79,88.35Zm-5.73.7a2.76,2.76,0,0,0-1.13-2.37,6.88,6.88,0,0,0-3.94-.83h-9.51a3.27,3.27,0,0,0-1.4,1.38,4,4,0,0,0-.43,1.88A3.3,3.3,0,0,0,147,91.87c.89.7,2.44,1,4.64,1h3.62a10.52,10.52,0,0,0,5.13-1A3.14,3.14,0,0,0,162.06,89.05Zm-8.75-17.24a6.27,6.27,0,0,0,4-1.13,4.13,4.13,0,0,0,1.4-3.4v-1a4.16,4.16,0,0,0-1.4-3.44,6.21,6.21,0,0,0-4-1.14,6.1,6.1,0,0,0-3.94,1.14,4.13,4.13,0,0,0-1.4,3.44v1a4.1,4.1,0,0,0,1.4,3.4A6.16,6.16,0,0,0,153.31,71.81Z"/><path class="cls-2" d="M175.78,85.85h-6.1V58h6.1v4.65h.27a9.15,9.15,0,0,1,2.78-3.78,7.85,7.85,0,0,1,5.1-1.52,8.3,8.3,0,0,1,6.72,2.85q2.41,2.84,2.41,8V85.85H187v-17a7.8,7.8,0,0,0-1.25-4.82,4.67,4.67,0,0,0-3.94-1.61,8.26,8.26,0,0,0-2.89.51,5.23,5.23,0,0,0-2.24,1.55,4,4,0,0,0-.86,2.65Z"/><path class="cls-2" d="M201.75,53.12a3.65,3.65,0,0,1-2.75-.89,3.07,3.07,0,0,1-.87-2.24V49a3.06,3.06,0,0,1,.87-2.27,4.83,4.83,0,0,1,5.5,0,3.06,3.06,0,0,1,.87,2.27v1a3.07,3.07,0,0,1-.87,2.24A3.65,3.65,0,0,1,201.75,53.12Zm-3.08,32.73V58h6.1V85.85Z"/><path class="cls-2" d="M216.76,85.85h-6.1V58h6.1v4.65H217a9.15,9.15,0,0,1,2.78-3.78,7.9,7.9,0,0,1,5.11-1.52,8.3,8.3,0,0,1,6.72,2.85q2.4,2.84,2.4,8V85.85h-6.1v-17a7.8,7.8,0,0,0-1.24-4.82,4.67,4.67,0,0,0-3.94-1.61,8.26,8.26,0,0,0-2.89.51,5.17,5.17,0,0,0-2.24,1.55,4,4,0,0,0-.87,2.65Z"/><path class="cls-2" d="M264.5,88.35A8.05,8.05,0,0,1,263,93.29a9.09,9.09,0,0,1-4.64,3,28.09,28.09,0,0,1-8.29,1,27.38,27.38,0,0,1-7.43-.82,8.06,8.06,0,0,1-4.1-2.35,5.53,5.53,0,0,1-1.27-3.66,5.05,5.05,0,0,1,1.3-3.69A6.45,6.45,0,0,1,242.14,85v-.6a4.62,4.62,0,0,1-2.46-1.6,4.49,4.49,0,0,1-.83-2.73,3.9,3.9,0,0,1,1.48-3.28,9.16,9.16,0,0,1,3.54-1.63v-.21a8.76,8.76,0,0,1-3.81-3.27,9,9,0,0,1-1.32-4.92,9.2,9.2,0,0,1,1.32-5,8.67,8.67,0,0,1,3.86-3.3A14.54,14.54,0,0,1,250,57.33a19.07,19.07,0,0,1,2.67.19,12.24,12.24,0,0,1,2.4.62v-.79a4.64,4.64,0,0,1,.92-3.1,3.48,3.48,0,0,1,2.81-1.07h4.32V58h-5.78v1.3a8,8,0,0,1,3,3.16,9.39,9.39,0,0,1,1,4.33A9.07,9.07,0,0,1,260,71.66a8.7,8.7,0,0,1-3.83,3.3A14.62,14.62,0,0,1,250,76.13a18.56,18.56,0,0,1-2-.11,11.07,11.07,0,0,1-1.78-.33,6.54,6.54,0,0,0-1.76,1,2,2,0,0,0-.78,1.68,1.61,1.61,0,0,0,1,1.58,6.83,6.83,0,0,0,2.89.48h7q5.17,0,7.53,2.07A7.38,7.38,0,0,1,264.5,88.35Zm-5.73.7a2.74,2.74,0,0,0-1.13-2.37,6.88,6.88,0,0,0-3.94-.83h-9.51a3.39,3.39,0,0,0-1.4,1.38,4,4,0,0,0-.43,1.88,3.33,3.33,0,0,0,1.35,2.76c.9.7,2.45,1,4.64,1H252a10.52,10.52,0,0,0,5.13-1A3.14,3.14,0,0,0,258.77,89.05ZM250,71.81a6.25,6.25,0,0,0,4-1.13,4.11,4.11,0,0,0,1.41-3.4v-1A4.14,4.14,0,0,0,254,62.79a6.2,6.2,0,0,0-4-1.14,6.11,6.11,0,0,0-3.95,1.14,4.16,4.16,0,0,0-1.4,3.44v1a4.13,4.13,0,0,0,1.4,3.4A6.17,6.17,0,0,0,250,71.81Z"/><path class="cls-2" d="M75.07,139.85H68.48l-3.24-10.1h-14L48,139.85H41.64l12.8-37.7h7.88Zm-11.4-15.5-3.56-10.86-1.78-5.56h-.27l-1.73,5.56-3.56,10.86Z"/><path class="cls-2" d="M95.53,139.85V135.2h-.21a7.8,7.8,0,0,1-3,3.89,8.49,8.49,0,0,1-4.89,1.4,10.32,10.32,0,0,1-6-1.74,10.67,10.67,0,0,1-3.8-5,24.38,24.38,0,0,1,0-15.71,9.94,9.94,0,0,1,9.82-6.7,8.78,8.78,0,0,1,4.92,1.38,7.38,7.38,0,0,1,3,3.92h.21V99.89h6.11v40Zm-6.21-4.49a8.23,8.23,0,0,0,3.16-.58,5.08,5.08,0,0,0,2.24-1.68,4.32,4.32,0,0,0,.81-2.65v-9.29a3.94,3.94,0,0,0-.81-2.45,5.12,5.12,0,0,0-2.24-1.66,8.24,8.24,0,0,0-3.16-.59,6.33,6.33,0,0,0-4.8,1.93,7.08,7.08,0,0,0-1.84,5.12v4.81a7.11,7.11,0,0,0,1.84,5.1A6.27,6.27,0,0,0,89.32,135.36Z"/><path class="cls-2" d="M125.18,139.85V135.2H125a7.84,7.84,0,0,1-3,3.89,8.51,8.51,0,0,1-4.89,1.4,10.3,10.3,0,0,1-6-1.74,10.68,10.68,0,0,1-3.81-5,24.56,24.56,0,0,1,0-15.71,10,10,0,0,1,9.83-6.7,8.74,8.74,0,0,1,4.91,1.38,7.28,7.28,0,0,1,3,3.92h.22V99.89h6.1v40ZM119,135.36a8.31,8.31,0,0,0,3.16-.58,5.14,5.14,0,0,0,2.24-1.68,4.32,4.32,0,0,0,.81-2.65v-9.29a3.94,3.94,0,0,0-.81-2.45,5.18,5.18,0,0,0-2.24-1.66,8.31,8.31,0,0,0-3.16-.59,6.37,6.37,0,0,0-4.81,1.93,7.12,7.12,0,0,0-1.83,5.12v4.81a7.15,7.15,0,0,0,1.83,5.1A6.31,6.31,0,0,0,119,135.36Z"/><path class="cls-2" d="M140.3,107.12a3.65,3.65,0,0,1-2.75-.89,3.07,3.07,0,0,1-.87-2.24v-1a3.06,3.06,0,0,1,.87-2.27,4.83,4.83,0,0,1,5.5,0,3.06,3.06,0,0,1,.87,2.27v1a3.07,3.07,0,0,1-.87,2.24A3.65,3.65,0,0,1,140.3,107.12Zm-3.08,32.73V112h6.1v27.87Z"/><path class="cls-2" d="M160.12,140.49q-6.1,0-9.45-3.94t-3.35-10.64q0-6.69,3.35-10.64t9.45-3.94a11.91,11.91,0,0,1,6.94,1.89,10.54,10.54,0,0,1,3.91,5l-5,2.32a6,6,0,0,0-2.08-3,6,6,0,0,0-3.8-1.16,5.8,5.8,0,0,0-4.78,2,7.87,7.87,0,0,0-1.59,5.15v4.91a7.94,7.94,0,0,0,1.59,5.13,5.78,5.78,0,0,0,4.78,2,6.08,6.08,0,0,0,4-1.27,9.33,9.33,0,0,0,2.43-3.26l4.59,2.37a10.78,10.78,0,0,1-4.19,5.35A12.41,12.41,0,0,1,160.12,140.49Z"/><path class="cls-2" d="M187.39,139.85h-5.08a6.47,6.47,0,0,1-4.78-1.66,6.32,6.32,0,0,1-1.64-4.66V116.9h-4.33V112h2.33a2.53,2.53,0,0,0,2.05-.67,3.41,3.41,0,0,0,.54-2.14v-4.91H182V112h5.83v4.92H182v18h5.4Z"/><path class="cls-2" d="M194.73,107.12a3.65,3.65,0,0,1-2.75-.89,3.07,3.07,0,0,1-.87-2.24v-1a3.06,3.06,0,0,1,.87-2.27,4.83,4.83,0,0,1,5.5,0,3.06,3.06,0,0,1,.87,2.27v1a3.07,3.07,0,0,1-.87,2.24A3.65,3.65,0,0,1,194.73,107.12Zm-3.08,32.73V112h6.1v27.87Z"/><path class="cls-2" d="M214.66,140.49a12.63,12.63,0,0,1-6.83-1.79,12,12,0,0,1-4.49-5.07,19.59,19.59,0,0,1,0-15.46,12,12,0,0,1,4.49-5,13.86,13.86,0,0,1,13.66,0,12.07,12.07,0,0,1,4.48,5,19.59,19.59,0,0,1,0,15.46,12,12,0,0,1-4.48,5.07A12.67,12.67,0,0,1,214.66,140.49Zm0-5a6.25,6.25,0,0,0,4.72-1.81,7.39,7.39,0,0,0,1.76-5.34v-4.81a7.36,7.36,0,0,0-1.76-5.36,7.09,7.09,0,0,0-9.42,0,7.28,7.28,0,0,0-1.78,5.36v4.81a7.31,7.31,0,0,0,1.78,5.34A6.28,6.28,0,0,0,214.66,135.47Z"/><path class="cls-2" d="M237.66,139.85h-6.1V112h6.1v4.65h.27a9.15,9.15,0,0,1,2.78-3.78,7.85,7.85,0,0,1,5.1-1.52,8.33,8.33,0,0,1,6.73,2.85q2.4,2.83,2.4,8v17.69h-6.1v-17a7.87,7.87,0,0,0-1.24-4.82,4.69,4.69,0,0,0-3.95-1.61,8.2,8.2,0,0,0-2.88.51,5.26,5.26,0,0,0-2.25,1.55,4.06,4.06,0,0,0-.86,2.65Z"/><path class="cls-2" d="M69.24,193.85v-5.73H69a7.22,7.22,0,0,1-3.16,4.54,11.88,11.88,0,0,1-6.94,1.83,14.49,14.49,0,0,1-8-2.24,15.06,15.06,0,0,1-5.56-6.56,25,25,0,0,1-2-10.64,24.53,24.53,0,0,1,2.08-10.66,15.18,15.18,0,0,1,5.8-6.62,16.33,16.33,0,0,1,8.64-2.26A14.89,14.89,0,0,1,74,164l-5.18,3a9.94,9.94,0,0,0-3.3-4.24,9.21,9.21,0,0,0-5.67-1.65,10.22,10.22,0,0,0-5.13,1.27,8.77,8.77,0,0,0-3.45,3.7,12.64,12.64,0,0,0-1.24,5.83V178a12.6,12.6,0,0,0,1.24,5.86,8.78,8.78,0,0,0,3.51,3.7,10.4,10.4,0,0,0,5.29,1.3,11.27,11.27,0,0,0,4.29-.78,7.34,7.34,0,0,0,3.11-2.35,6.21,6.21,0,0,0,1.19-3.84v-2.86H61V173.7H74.74v20.15Z"/><path class="cls-2" d="M86.46,193.85h-6.1V166h6.1v5.62h.27a8.79,8.79,0,0,1,1.38-2.73,7.35,7.35,0,0,1,2.48-2.08A8.13,8.13,0,0,1,94.4,166h1.51v5.83H93.64a13,13,0,0,0-3.91.51,5.29,5.29,0,0,0-2.43,1.47,3.62,3.62,0,0,0-.84,2.46Z"/><path class="cls-2" d="M109.57,194.49a13.06,13.06,0,0,1-6.94-1.79,11.69,11.69,0,0,1-4.5-5.07,17.61,17.61,0,0,1-1.57-7.72,17.89,17.89,0,0,1,1.54-7.71,11.61,11.61,0,0,1,4.43-5.07,12.73,12.73,0,0,1,6.88-1.8,12.44,12.44,0,0,1,7,1.86,11.34,11.34,0,0,1,4.21,5,17.07,17.07,0,0,1,1.41,7v2.2H102.88v.9a7.34,7.34,0,0,0,1.86,5.17,7,7,0,0,0,5.43,2,8,8,0,0,0,4.35-1.12,10.26,10.26,0,0,0,3-3L121,189a11.8,11.8,0,0,1-4.56,4A14.74,14.74,0,0,1,109.57,194.49Zm0-24.46a6.5,6.5,0,0,0-3.48.91,6.25,6.25,0,0,0-2.33,2.5,7.88,7.88,0,0,0-.83,3.67v.37h12.74V177a8.36,8.36,0,0,0-.73-3.62,5.72,5.72,0,0,0-2.08-2.42A5.93,5.93,0,0,0,109.52,170Z"/><path class="cls-2" d="M137.11,194.49a13.06,13.06,0,0,1-6.94-1.79,11.69,11.69,0,0,1-4.5-5.07,17.61,17.61,0,0,1-1.57-7.72,17.89,17.89,0,0,1,1.54-7.71,11.61,11.61,0,0,1,4.43-5.07,12.73,12.73,0,0,1,6.88-1.8,12.44,12.44,0,0,1,7,1.86,11.34,11.34,0,0,1,4.21,5,17.07,17.07,0,0,1,1.41,7v2.2H130.42v.9a7.34,7.34,0,0,0,1.86,5.17,7,7,0,0,0,5.43,2,8,8,0,0,0,4.34-1.12,10.17,10.17,0,0,0,3-3l3.51,3.55a11.8,11.8,0,0,1-4.56,4A14.74,14.74,0,0,1,137.11,194.49ZM137.06,170a6.5,6.5,0,0,0-3.48.91,6.25,6.25,0,0,0-2.33,2.5,7.88,7.88,0,0,0-.83,3.67v.37h12.74V177a8.36,8.36,0,0,0-.73-3.62,5.72,5.72,0,0,0-2.08-2.42A5.93,5.93,0,0,0,137.06,170Z"/><path class="cls-2" d="M171.13,193.85V189.2h-.21a7.86,7.86,0,0,1-3,3.89,8.51,8.51,0,0,1-4.89,1.4,10.32,10.32,0,0,1-6-1.74,10.67,10.67,0,0,1-3.8-5,24.38,24.38,0,0,1,0-15.71,9.94,9.94,0,0,1,9.82-6.7,8.8,8.8,0,0,1,4.92,1.38,7.38,7.38,0,0,1,3,3.92h.21V153.89h6.1v40Zm-6.21-4.49a8.27,8.27,0,0,0,3.16-.58,5.08,5.08,0,0,0,2.24-1.68,4.32,4.32,0,0,0,.81-2.65v-9.29a3.94,3.94,0,0,0-.81-2.45,5.12,5.12,0,0,0-2.24-1.66,8.27,8.27,0,0,0-3.16-.59,6.33,6.33,0,0,0-4.8,1.93,7.08,7.08,0,0,0-1.84,5.12v4.81a7.11,7.11,0,0,0,1.84,5.1A6.27,6.27,0,0,0,164.92,189.36Z"/><path class="cls-2" d="M45,247.85v-37.7h13.4a16.75,16.75,0,0,1,8.47,2.08,13.59,13.59,0,0,1,5.57,6.27,29.38,29.38,0,0,1,0,21,13.59,13.59,0,0,1-5.57,6.27,16.75,16.75,0,0,1-8.47,2.08Zm6.32-5.57h7.08a9.66,9.66,0,0,0,4.88-1.18,8.16,8.16,0,0,0,3.24-3.46A12.15,12.15,0,0,0,67.72,232v-6a12.34,12.34,0,0,0-1.16-5.65,7.86,7.86,0,0,0-3.24-3.45,9.76,9.76,0,0,0-4.88-1.16H51.36Z"/><path class="cls-2" d="M82.2,215.12a3.69,3.69,0,0,1-2.76-.89,3.1,3.1,0,0,1-.86-2.24v-1a3.09,3.09,0,0,1,.86-2.27,4.84,4.84,0,0,1,5.51,0,3.05,3.05,0,0,1,.86,2.27v1a3.06,3.06,0,0,1-.86,2.24A3.67,3.67,0,0,1,82.2,215.12Zm-3.08,32.73V220h6.1v27.87Z"/><path class="cls-2" d="M100.07,248.49a14.4,14.4,0,0,1-6.67-1.4,15.18,15.18,0,0,1-4.78-3.89l3.89-3.56A12.42,12.42,0,0,0,96,242.53a9,9,0,0,0,4.4,1.05,6.28,6.28,0,0,0,3.81-.93,3.13,3.13,0,0,0,1.22-2.63,3,3,0,0,0-.87-2.21,5,5,0,0,0-3-1.15l-2.59-.37a16.74,16.74,0,0,1-5-1.37,7.46,7.46,0,0,1-3.22-2.71,7.73,7.73,0,0,1-1.1-4.24,7.6,7.6,0,0,1,2.91-6.38,12.05,12.05,0,0,1,7.56-2.26,17.37,17.37,0,0,1,4.49.52,11.12,11.12,0,0,1,3.37,1.51,14.69,14.69,0,0,1,2.73,2.4L107,227.38a10.36,10.36,0,0,0-2.89-2.24,8.26,8.26,0,0,0-4-.95,5.59,5.59,0,0,0-3.51.91,3,3,0,0,0-1.14,2.44,2.76,2.76,0,0,0,1,2.32A7.38,7.38,0,0,0,99.69,231l2.7.38q4.65.65,6.78,2.68a7.16,7.16,0,0,1,2.13,5.42,8.22,8.22,0,0,1-1.38,4.72,9,9,0,0,1-3.88,3.17A14.56,14.56,0,0,1,100.07,248.49Z"/><path class="cls-2" d="M115.41,247.85v-40h6.1v16.74h.27a9.15,9.15,0,0,1,2.78-3.78,7.85,7.85,0,0,1,5.1-1.52,8.3,8.3,0,0,1,6.72,2.85q2.42,2.83,2.41,8v17.69h-6.1v-17a7.8,7.8,0,0,0-1.25-4.82,4.66,4.66,0,0,0-3.94-1.61,8.26,8.26,0,0,0-2.89.51,5.23,5.23,0,0,0-2.24,1.55,4.06,4.06,0,0,0-.86,2.65v18.68Z"/><path class="cls-2" d="M155.42,248.49a12.63,12.63,0,0,1-6.83-1.79,12,12,0,0,1-4.48-5.07,19.47,19.47,0,0,1,0-15.46,12,12,0,0,1,4.48-5,13.86,13.86,0,0,1,13.66,0,12,12,0,0,1,4.48,5,19.47,19.47,0,0,1,0,15.46,12,12,0,0,1-4.48,5.07A12.65,12.65,0,0,1,155.42,248.49Zm0-5a6.25,6.25,0,0,0,4.72-1.81,7.39,7.39,0,0,0,1.76-5.34v-4.81a7.36,7.36,0,0,0-1.76-5.36,7.09,7.09,0,0,0-9.42,0,7.28,7.28,0,0,0-1.78,5.36v4.81a7.31,7.31,0,0,0,1.78,5.34A6.3,6.3,0,0,0,155.42,243.47Z"/><path class="cls-2" d="M178.42,247.85h-6.1V220h6.1v4.65h.27a9.15,9.15,0,0,1,2.78-3.78,7.9,7.9,0,0,1,5.11-1.52,8.3,8.3,0,0,1,6.72,2.85q2.4,2.83,2.4,8v17.69h-6.1v-17a7.8,7.8,0,0,0-1.24-4.82,4.67,4.67,0,0,0-3.94-1.61,8.26,8.26,0,0,0-2.89.51,5.17,5.17,0,0,0-2.24,1.55,4,4,0,0,0-.87,2.65Z"/><path class="cls-2" d="M212.44,248.49a13,13,0,0,1-6.94-1.79,11.78,11.78,0,0,1-4.51-5.07,20,20,0,0,1,0-15.43,11.61,11.61,0,0,1,4.43-5.07,12.73,12.73,0,0,1,6.88-1.8,12.44,12.44,0,0,1,7,1.86,11.34,11.34,0,0,1,4.21,5,17.07,17.07,0,0,1,1.41,7v2.2H205.75v.9a7.34,7.34,0,0,0,1.86,5.17,7,7,0,0,0,5.43,2,8,8,0,0,0,4.34-1.12,10.17,10.17,0,0,0,3-3l3.51,3.55a11.8,11.8,0,0,1-4.56,4A14.77,14.77,0,0,1,212.44,248.49ZM212.39,224a6.5,6.5,0,0,0-3.48.91,6.18,6.18,0,0,0-2.33,2.5,7.76,7.76,0,0,0-.83,3.67v.37h12.74V231a8.36,8.36,0,0,0-.73-3.62,5.72,5.72,0,0,0-2.08-2.42A6,6,0,0,0,212.39,224Z"/><path class="cls-2" d="M237.82,248.49a14.4,14.4,0,0,1-6.67-1.4,15.18,15.18,0,0,1-4.78-3.89l3.89-3.56a12.71,12.71,0,0,0,3.48,2.89,9,9,0,0,0,4.41,1.05,6.27,6.27,0,0,0,3.8-.93,3.13,3.13,0,0,0,1.22-2.63,3,3,0,0,0-.87-2.21,5,5,0,0,0-3-1.15l-2.59-.37a16.74,16.74,0,0,1-5-1.37,7.44,7.44,0,0,1-3.21-2.71,8.51,8.51,0,0,1,1.81-10.62,12,12,0,0,1,7.56-2.26,17.34,17.34,0,0,1,4.48.52,11.12,11.12,0,0,1,3.37,1.51,14.69,14.69,0,0,1,2.73,2.4l-3.67,3.62a10.36,10.36,0,0,0-2.89-2.24,8.23,8.23,0,0,0-4-.95,5.63,5.63,0,0,0-3.51.91,2.94,2.94,0,0,0-1.13,2.44,2.76,2.76,0,0,0,1,2.32,7.38,7.38,0,0,0,3.16,1.14l2.7.38q4.65.65,6.78,2.68a7.16,7.16,0,0,1,2.13,5.42,8.28,8.28,0,0,1-1.37,4.72,9,9,0,0,1-3.89,3.17A14.56,14.56,0,0,1,237.82,248.49Z"/><path class="cls-2" d="M265.85,247.85h-5.08a6.47,6.47,0,0,1-4.78-1.66,6.32,6.32,0,0,1-1.64-4.66V224.9H250V220h2.32a2.52,2.52,0,0,0,2.05-.67,3.41,3.41,0,0,0,.54-2.14v-4.91h5.51V220h5.83v4.92h-5.83v18h5.4Z"/><path class="cls-2" d="M281.89,235.6l5.5-15.62h5.78l-11.72,33.35a10.12,10.12,0,0,1-1.56,3.09,5.44,5.44,0,0,1-2.32,1.69,10.44,10.44,0,0,1-3.68.54h-3.51v-5h4.81l1.57-5.19L266.6,220h6l5.46,15.62,1.67,6h.32Z"/><path class="cls-2" d="M51.36,301.85H45v-37.7H61.41a11.7,11.7,0,0,1,5.91,1.41,9.41,9.41,0,0,1,3.78,4,13,13,0,0,1,1.32,6,12.81,12.81,0,0,1-1.32,6,9.64,9.64,0,0,1-3.78,4,11.5,11.5,0,0,1-5.91,1.43h-10Zm0-32.19v11.77H61a6.06,6.06,0,0,0,2.6-.51,3.47,3.47,0,0,0,1.64-1.57,5.17,5.17,0,0,0,.57-2.51v-2.59a5,5,0,0,0-.57-2.51,3.77,3.77,0,0,0-1.64-1.54,5.77,5.77,0,0,0-2.6-.54Z"/><path class="cls-2" d="M81.76,301.85h-6.1V274h6.1v5.62H82a8.79,8.79,0,0,1,1.38-2.73,7.3,7.3,0,0,1,2.49-2.08,8.06,8.06,0,0,1,3.8-.81h1.51v5.83H89a13,13,0,0,0-3.92.51,5.29,5.29,0,0,0-2.43,1.47,3.62,3.62,0,0,0-.84,2.46Z"/><path class="cls-2" d="M97.1,269.12a3.65,3.65,0,0,1-2.75-.89,3.07,3.07,0,0,1-.87-2.24v-1a3.06,3.06,0,0,1,.87-2.27,4.83,4.83,0,0,1,5.5,0,3.06,3.06,0,0,1,.87,2.27v1a3.07,3.07,0,0,1-.87,2.24A3.65,3.65,0,0,1,97.1,269.12ZM94,301.85V274h6.1v27.87Z"/><path class="cls-2" d="M123.61,301.85V297.2h-.21a7.8,7.8,0,0,1-3,3.89,8.49,8.49,0,0,1-4.89,1.4,10.32,10.32,0,0,1-6-1.74,10.67,10.67,0,0,1-3.8-5,24.38,24.38,0,0,1,0-15.71,9.94,9.94,0,0,1,9.82-6.7,8.78,8.78,0,0,1,4.92,1.38,7.38,7.38,0,0,1,3,3.92h.21V261.89h6.11v40Zm-6.21-4.49a8.23,8.23,0,0,0,3.16-.58,5.08,5.08,0,0,0,2.24-1.68,4.32,4.32,0,0,0,.81-2.65v-9.29a3.94,3.94,0,0,0-.81-2.45,5.12,5.12,0,0,0-2.24-1.66,8.24,8.24,0,0,0-3.16-.59,6.33,6.33,0,0,0-4.8,1.93,7.08,7.08,0,0,0-1.84,5.12v4.81a7.11,7.11,0,0,0,1.84,5.1A6.27,6.27,0,0,0,117.4,297.36Z"/><path class="cls-2" d="M146.78,302.49a13,13,0,0,1-6.94-1.79,11.78,11.78,0,0,1-4.51-5.07,17.75,17.75,0,0,1-1.56-7.72,18,18,0,0,1,1.53-7.71,11.73,11.73,0,0,1,4.43-5.07,12.77,12.77,0,0,1,6.89-1.8,12.44,12.44,0,0,1,7,1.86,11.41,11.41,0,0,1,4.21,5,17.07,17.07,0,0,1,1.4,7v2.2H140.08v.9A7.3,7.3,0,0,0,142,295.5a7,7,0,0,0,5.42,2,8,8,0,0,0,4.35-1.12,10.17,10.17,0,0,0,3-3l3.51,3.55a11.76,11.76,0,0,1-4.57,4A14.69,14.69,0,0,1,146.78,302.49ZM146.73,278a6.51,6.51,0,0,0-3.49.91,6.23,6.23,0,0,0-2.32,2.5,7.76,7.76,0,0,0-.84,3.67v.37h12.75V285a8.5,8.5,0,0,0-.73-3.62,5.79,5.79,0,0,0-2.08-2.42A6,6,0,0,0,146.73,278Z"/><path class="cls-2" d="M75.07,355.85H68.48l-3.24-10.1h-14L48,355.85H41.64l12.8-37.7h7.88Zm-11.4-15.5-3.56-10.86-1.78-5.56h-.27l-1.73,5.56-3.56,10.86Z"/><path class="cls-2" d="M84,355.85h-6.1V328H84v4.65h.27a9.15,9.15,0,0,1,2.78-3.78,7.9,7.9,0,0,1,5.11-1.52,8.3,8.3,0,0,1,6.72,2.85q2.4,2.83,2.4,8v17.69h-6.1v-17A7.8,7.8,0,0,0,94,334.07,4.67,4.67,0,0,0,90,332.46a8.26,8.26,0,0,0-2.89.51,5.17,5.17,0,0,0-2.24,1.55,4,4,0,0,0-.87,2.65Z"/><path class="cls-2" d="M103.85,355.85l9.83-14.1L104.12,328h7l6.21,9.59h.22l6.26-9.59h6.54L120.7,341.7l9.77,14.15h-7l-6.37-10h-.16l-6.59,10Z"/><path class="cls-2" d="M136.36,323.12a3.69,3.69,0,0,1-2.76-.89,3.1,3.1,0,0,1-.86-2.24v-1a3.09,3.09,0,0,1,.86-2.27,4.84,4.84,0,0,1,5.51,0A3.05,3.05,0,0,1,140,319v1a3.06,3.06,0,0,1-.86,2.24A3.67,3.67,0,0,1,136.36,323.12Zm-3.08,32.73V328h6.1v27.87Z"/><path class="cls-2" d="M156.39,356.49a13,13,0,0,1-6.94-1.79,11.78,11.78,0,0,1-4.51-5.07,20,20,0,0,1,0-15.43,11.65,11.65,0,0,1,4.42-5.07,12.77,12.77,0,0,1,6.89-1.8,12.44,12.44,0,0,1,7,1.86,11.41,11.41,0,0,1,4.21,5,17.07,17.07,0,0,1,1.4,7v2.2H149.69v.9a7.35,7.35,0,0,0,1.87,5.17,7,7,0,0,0,5.42,2,8,8,0,0,0,4.35-1.12,10.17,10.17,0,0,0,3-3l3.51,3.55a11.8,11.8,0,0,1-4.56,4A14.77,14.77,0,0,1,156.39,356.49Zm0-24.46a6.51,6.51,0,0,0-3.49.91,6.23,6.23,0,0,0-2.32,2.5,7.76,7.76,0,0,0-.84,3.67v.37h12.75V339a8.36,8.36,0,0,0-.73-3.62,5.79,5.79,0,0,0-2.08-2.42A6,6,0,0,0,156.34,332Z"/><path class="cls-2" d="M185.87,355.85H180.8a6.47,6.47,0,0,1-4.78-1.66,6.33,6.33,0,0,1-1.65-4.66V332.9h-4.32V328h2.32a2.54,2.54,0,0,0,2.06-.67,3.41,3.41,0,0,0,.54-2.14v-4.91h5.5V328h5.84v4.92h-5.84v18h5.4Z"/><path class="cls-2" d="M201.91,343.6,207.42,328h5.78l-11.72,33.35a9.9,9.9,0,0,1-1.57,3.09,5.32,5.32,0,0,1-2.32,1.69,10.38,10.38,0,0,1-3.67.54h-3.51v-5h4.81l1.56-5.19L186.63,328h6.05l5.45,15.62,1.68,6h.32Z"/><path class="cls-2" d="M59.89,409.85H43.42v-5.13H48.5V377.28H43.42v-5.13H59.89v5.13H54.82v27.44h5.07Z"/><path class="cls-2" d="M73.45,410.49a14.4,14.4,0,0,1-6.67-1.4A15.18,15.18,0,0,1,62,405.2l3.89-3.56a12.42,12.42,0,0,0,3.48,2.89,9,9,0,0,0,4.4,1.05,6.28,6.28,0,0,0,3.81-.93A3.12,3.12,0,0,0,78.79,402a3,3,0,0,0-.86-2.21,5.07,5.07,0,0,0-3-1.15l-2.6-.37a16.76,16.76,0,0,1-5-1.37,7.46,7.46,0,0,1-3.22-2.71A7.73,7.73,0,0,1,63,390a7.6,7.6,0,0,1,2.91-6.38,12.05,12.05,0,0,1,7.56-2.26,17.29,17.29,0,0,1,4.48.52,11.17,11.17,0,0,1,3.38,1.51,14.69,14.69,0,0,1,2.73,2.4l-3.68,3.62a10.31,10.31,0,0,0-2.88-2.24,8.29,8.29,0,0,0-4-.95,5.59,5.59,0,0,0-3.51.91,3,3,0,0,0-1.14,2.44,2.74,2.74,0,0,0,1,2.32A7.38,7.38,0,0,0,73.07,393l2.7.38c3.1.43,5.35,1.32,6.78,2.68a7.16,7.16,0,0,1,2.13,5.42,8.22,8.22,0,0,1-1.38,4.72,9,9,0,0,1-3.88,3.17A14.56,14.56,0,0,1,73.45,410.49Z"/><path class="cls-2" d="M99.8,410.49A12.63,12.63,0,0,1,93,408.7a12,12,0,0,1-4.48-5.07,19.47,19.47,0,0,1,0-15.46,12,12,0,0,1,4.48-5,13.86,13.86,0,0,1,13.66,0,12,12,0,0,1,4.48,5,19.47,19.47,0,0,1,0,15.46,12,12,0,0,1-4.48,5.07A12.65,12.65,0,0,1,99.8,410.49Zm0-5a6.25,6.25,0,0,0,4.72-1.81,7.39,7.39,0,0,0,1.76-5.34v-4.81a7.36,7.36,0,0,0-1.76-5.36,7.09,7.09,0,0,0-9.42,0,7.28,7.28,0,0,0-1.78,5.36v4.81a7.31,7.31,0,0,0,1.78,5.34A6.3,6.3,0,0,0,99.8,405.47Z"/><path class="cls-2" d="M126.64,409.85h-3.73a5.52,5.52,0,0,1-6.21-6.05V369.89h6.1v35h3.84Z"/><path class="cls-2" d="M153.75,409.85H150.4a5.16,5.16,0,0,1-2.78-.73,4.75,4.75,0,0,1-1.79-2.08,7.63,7.63,0,0,1-.62-3.19v-.54l1.68,1.78H145a6.79,6.79,0,0,1-2.95,4,9.63,9.63,0,0,1-5.26,1.37,9.38,9.38,0,0,1-6.7-2.25,8,8,0,0,1-2.37-6.06,7.42,7.42,0,0,1,1.4-4.64,8.61,8.61,0,0,1,4-2.82,19.46,19.46,0,0,1,6.59-1h5v-2.23a5.35,5.35,0,0,0-1.35-3.89,5.83,5.83,0,0,0-4.32-1.38,7,7,0,0,0-4,1.06,9.24,9.24,0,0,0-2.59,2.66l-3.62-3.27a11,11,0,0,1,4-3.86,13.09,13.09,0,0,1,6.67-1.51q5.44,0,8.4,2.55a9,9,0,0,1,2.94,7.19v13.81h2.92Zm-9-12.21h-4.81a8.37,8.37,0,0,0-4.48.94,3,3,0,0,0-1.46,2.74v1a3.15,3.15,0,0,0,1.24,2.69,5.59,5.59,0,0,0,3.41.93,8.44,8.44,0,0,0,3.1-.53,5.23,5.23,0,0,0,2.19-1.49,3.43,3.43,0,0,0,.81-2.29Z"/><path class="cls-2" d="M170,409.85h-5.08a6.47,6.47,0,0,1-4.78-1.66,6.36,6.36,0,0,1-1.64-4.66V386.9h-4.32V382h2.32a2.52,2.52,0,0,0,2.05-.67,3.41,3.41,0,0,0,.54-2.14v-4.91h5.51V382h5.83v4.92H164.6v18H170Z"/><path class="cls-2" d="M177.34,377.12a3.67,3.67,0,0,1-2.75-.89,3.06,3.06,0,0,1-.86-2.24v-1a3.05,3.05,0,0,1,.86-2.27,4.84,4.84,0,0,1,5.51,0A3.09,3.09,0,0,1,181,373v1a3.1,3.1,0,0,1-.86,2.24A3.69,3.69,0,0,1,177.34,377.12Zm-3.07,32.73V382h6.1v27.87Z"/><path class="cls-2" d="M197.27,410.49a12.63,12.63,0,0,1-6.83-1.79,12,12,0,0,1-4.48-5.07,19.47,19.47,0,0,1,0-15.46,12,12,0,0,1,4.48-5,13.86,13.86,0,0,1,13.66,0,12,12,0,0,1,4.48,5,19.47,19.47,0,0,1,0,15.46,12,12,0,0,1-4.48,5.07A12.65,12.65,0,0,1,197.27,410.49Zm0-5a6.25,6.25,0,0,0,4.72-1.81,7.39,7.39,0,0,0,1.76-5.34v-4.81a7.36,7.36,0,0,0-1.76-5.36,7.09,7.09,0,0,0-9.42,0,7.28,7.28,0,0,0-1.78,5.36v4.81a7.31,7.31,0,0,0,1.78,5.34A6.3,6.3,0,0,0,197.27,405.47Z"/><path class="cls-2" d="M220.27,409.85h-6.1V382h6.1v4.65h.27a9.15,9.15,0,0,1,2.78-3.78,7.9,7.9,0,0,1,5.11-1.52,8.3,8.3,0,0,1,6.72,2.85q2.4,2.83,2.4,8v17.69h-6.1v-17a7.8,7.8,0,0,0-1.24-4.82,4.67,4.67,0,0,0-3.94-1.61,8.26,8.26,0,0,0-2.89.51,5.17,5.17,0,0,0-2.24,1.55,4,4,0,0,0-.87,2.65Z"/><path class="cls-2" d="M68.16,463.85V447.54H51.36v16.31H45v-37.7h6.32V442h16.8V426.15h6.31v37.7Z"/><path class="cls-2" d="M91.81,464.49A12.63,12.63,0,0,1,85,462.7a12,12,0,0,1-4.48-5.07,19.47,19.47,0,0,1,0-15.46,12,12,0,0,1,4.48-5,13.86,13.86,0,0,1,13.66,0,12.07,12.07,0,0,1,4.48,5,19.59,19.59,0,0,1,0,15.46,12,12,0,0,1-4.48,5.07A12.65,12.65,0,0,1,91.81,464.49Zm0-5a6.25,6.25,0,0,0,4.72-1.81,7.39,7.39,0,0,0,1.76-5.34v-4.81a7.36,7.36,0,0,0-1.76-5.36,7.09,7.09,0,0,0-9.42,0,7.28,7.28,0,0,0-1.78,5.36v4.81a7.31,7.31,0,0,0,1.78,5.34A6.28,6.28,0,0,0,91.81,459.47Z"/><path class="cls-2" d="M108.71,474.65V436h6.1v4.65h.27a7,7,0,0,1,3-3.92,8.87,8.87,0,0,1,4.94-1.38,10.3,10.3,0,0,1,6,1.72,10.9,10.9,0,0,1,3.78,5,24,24,0,0,1,0,15.71,11.1,11.1,0,0,1-3.78,5,10.17,10.17,0,0,1-6,1.74,8.47,8.47,0,0,1-4.89-1.4,7.8,7.8,0,0,1-3-3.89h-.27v15.45Zm12.37-15.29a6.21,6.21,0,0,0,4.78-1.94,7.22,7.22,0,0,0,1.8-5.1v-4.81a7.19,7.19,0,0,0-1.8-5.12,6.27,6.27,0,0,0-4.78-1.93,8.24,8.24,0,0,0-3.16.59,5.33,5.33,0,0,0-2.27,1.66,3.85,3.85,0,0,0-.84,2.45v9.29a4.22,4.22,0,0,0,.84,2.65,5.29,5.29,0,0,0,2.27,1.68A8.23,8.23,0,0,0,121.08,459.36Z"/><path class="cls-2" d="M149.48,464.49a13,13,0,0,1-6.94-1.79,11.78,11.78,0,0,1-4.51-5.07,17.75,17.75,0,0,1-1.56-7.72A18,18,0,0,1,138,442.2a11.73,11.73,0,0,1,4.43-5.07,12.77,12.77,0,0,1,6.89-1.8,12.44,12.44,0,0,1,7,1.86,11.41,11.41,0,0,1,4.21,5,17.07,17.07,0,0,1,1.4,7v2.2H142.78v.9a7.3,7.3,0,0,0,1.87,5.17,7,7,0,0,0,5.42,2,8,8,0,0,0,4.35-1.12,10.17,10.17,0,0,0,3-3l3.51,3.55a11.76,11.76,0,0,1-4.57,4A14.69,14.69,0,0,1,149.48,464.49Zm0-24.46a6.51,6.51,0,0,0-3.49.91,6.23,6.23,0,0,0-2.32,2.5,7.76,7.76,0,0,0-.84,3.67v.37h12.75V447a8.5,8.5,0,0,0-.73-3.62,5.79,5.79,0,0,0-2.08-2.42A6,6,0,0,0,149.43,440Z"/><line class="cls-3" x1="36.52" y1="126.35" x2="264.71" y2="126.54"/><line class="cls-3" x1="36.52" y1="180.67" x2="185.4" y2="180.13"/><line class="cls-3" x1="36.52" y1="234.26" x2="299" y2="234.26"/><line class="cls-3" x1="36.52" y1="287.85" x2="167.5" y2="287.85"/><line class="cls-3" x1="36.52" y1="341.85" x2="219.85" y2="341.85"/><line class="cls-3" x1="36.52" y1="395.44" x2="246.74" y2="395.44"/><path d="M274.49,556.66h3.75v5.59a2.3,2.3,0,0,1-.28,1.17,2.12,2.12,0,0,1-.82.78,2.65,2.65,0,0,1-1.23.27,2.27,2.27,0,0,1-1.58-.53,2.44,2.44,0,0,1-.73-1.39l1.14-.25a1.59,1.59,0,0,0,.38.78,1.07,1.07,0,0,0,.79.29,1,1,0,0,0,.79-.31,1.29,1.29,0,0,0,.3-.94v-4.43h-2.51Z"/><path d="M281.87,564.47a2.6,2.6,0,0,1-1.41-.37,2.43,2.43,0,0,1-.92-1,4,4,0,0,1,0-3.14,2.44,2.44,0,0,1,.9-1,2.54,2.54,0,0,1,1.4-.37,2.51,2.51,0,0,1,1.41.38,2.3,2.3,0,0,1,.85,1,3.51,3.51,0,0,1,.29,1.43v.45h-3.92V562a1.46,1.46,0,0,0,.4,1.07,1.44,1.44,0,0,0,1.11.42,1.66,1.66,0,0,0,.89-.23,1.81,1.81,0,0,0,.61-.62l.71.69a2.35,2.35,0,0,1-.93.83A2.83,2.83,0,0,1,281.87,564.47Zm0-5a1.35,1.35,0,0,0-.73.19,1.21,1.21,0,0,0-.48.52,1.55,1.55,0,0,0-.18.76V561h2.67v-.11a1.81,1.81,0,0,0-.16-.76,1.08,1.08,0,0,0-.44-.5A1.25,1.25,0,0,0,281.86,559.47Z"/><path d="M286.54,564.34h-1.2v-5.68h1.2v1.14h0a1.79,1.79,0,0,1,.28-.55,1.51,1.51,0,0,1,.51-.42,1.7,1.7,0,0,1,.78-.17h.32v1.16H288a2.34,2.34,0,0,0-.8.11,1.06,1.06,0,0,0-.5.3.7.7,0,0,0-.17.49Z"/><path d="M291.42,564.47a2.6,2.6,0,0,1-1.41-.37,2.43,2.43,0,0,1-.92-1,4,4,0,0,1,0-3.14,2.44,2.44,0,0,1,.9-1,2.82,2.82,0,0,1,2.81,0,2.3,2.3,0,0,1,.85,1,3.51,3.51,0,0,1,.29,1.43v.45H290V562a1.5,1.5,0,0,0,.39,1.07,1.46,1.46,0,0,0,1.12.42,1.66,1.66,0,0,0,.89-.23,2,2,0,0,0,.61-.62l.71.69a2.35,2.35,0,0,1-.93.83A2.83,2.83,0,0,1,291.42,564.47Zm0-5a1.35,1.35,0,0,0-.73.19,1.29,1.29,0,0,0-.49.52,1.67,1.67,0,0,0-.17.76V561h2.66v-.11a1.81,1.81,0,0,0-.15-.76,1.08,1.08,0,0,0-.44-.5A1.25,1.25,0,0,0,291.41,559.47Z"/><path d="M296.08,564.34h-1.2v-5.68h1.2v1h.06a2,2,0,0,1,.53-.77,1.54,1.54,0,0,1,1-.31,1.86,1.86,0,0,1,1,.28,1.62,1.62,0,0,1,.66.89h0a1.75,1.75,0,0,1,1.74-1.17,1.6,1.6,0,0,1,1.33.58,2.55,2.55,0,0,1,.47,1.63v3.6h-1.2v-3.46a1.6,1.6,0,0,0-.26-1,.91.91,0,0,0-.79-.34,1.56,1.56,0,0,0-.57.11,1,1,0,0,0-.44.32.87.87,0,0,0-.17.54v3.82h-1.19v-3.46a1.6,1.6,0,0,0-.26-1,.9.9,0,0,0-.78-.34,1.56,1.56,0,0,0-.57.11,1,1,0,0,0-.45.32.87.87,0,0,0-.17.54Z"/><path d="M306.57,561.91l1.14-3.25h1.16l-2.41,6.82a2.39,2.39,0,0,1-.32.62,1,1,0,0,1-.46.34,2.42,2.42,0,0,1-.73.1h-.69v-1h1l.33-1.09-2.07-5.81h1.19l1.15,3.25.33,1.2h.05Z"/><path d="M311.77,564.34v-7.68h2.72a3.39,3.39,0,0,1,1.71.42,2.9,2.9,0,0,1,1.13,1.28,5.92,5.92,0,0,1,0,4.28,2.9,2.9,0,0,1-1.13,1.28,3.39,3.39,0,0,1-1.71.42Zm1.24-1.1h1.48a2,2,0,0,0,1-.24,1.56,1.56,0,0,0,.67-.72,2.52,2.52,0,0,0,.24-1.16v-1.24a2.52,2.52,0,0,0-.24-1.16,1.56,1.56,0,0,0-.67-.72,2,2,0,0,0-1-.24H313Z"/><path d="M319.52,564.47a.78.78,0,0,1-.6-.21.83.83,0,0,1-.19-.54v-.17a.81.81,0,0,1,.19-.54,1,1,0,0,1,1.21,0,.77.77,0,0,1,.2.54v.17a.71.71,0,0,1-.81.75Z"/><path d="M326.76,564.47A3.32,3.32,0,0,1,325,564a2.91,2.91,0,0,1-1.11-1.32,5.48,5.48,0,0,1-.38-2.17,5.67,5.67,0,0,1,.38-2.18A3,3,0,0,1,325,557a3.07,3.07,0,0,1,1.73-.47,3,3,0,0,1,1.67.44,2.91,2.91,0,0,1,1.07,1.3l-1,.57a2,2,0,0,0-.62-.88,1.93,1.93,0,0,0-2.48.3,2.61,2.61,0,0,0-.5,1.68v1.18a2.52,2.52,0,0,0,.5,1.65,1.77,1.77,0,0,0,1.4.59,1.69,1.69,0,0,0,1.12-.36,2,2,0,0,0,.65-.92l1,.61a3.07,3.07,0,0,1-1.08,1.3A2.92,2.92,0,0,1,326.76,564.47Z"/><path d="M330.38,564.34V556.2h1.2v3.41h.05a1.92,1.92,0,0,1,.57-.77,1.57,1.57,0,0,1,1-.31,1.69,1.69,0,0,1,1.37.58,2.44,2.44,0,0,1,.49,1.63v3.6h-1.2v-3.46a1.6,1.6,0,0,0-.26-1,1,1,0,0,0-.82-.34,1.71,1.71,0,0,0-.59.11,1,1,0,0,0-.47.32.82.82,0,0,0-.18.54v3.82Z"/><path d="M338.63,564.47a2.6,2.6,0,0,1-1.41-.37,2.43,2.43,0,0,1-.92-1,4,4,0,0,1,0-3.14,2.44,2.44,0,0,1,.9-1,2.82,2.82,0,0,1,2.81,0,2.3,2.3,0,0,1,.85,1,3.51,3.51,0,0,1,.29,1.43v.45h-3.92V562a1.5,1.5,0,0,0,.39,1.07,1.46,1.46,0,0,0,1.12.42,1.66,1.66,0,0,0,.89-.23,1.9,1.9,0,0,0,.61-.62l.71.69a2.35,2.35,0,0,1-.93.83A2.83,2.83,0,0,1,338.63,564.47Zm0-5a1.35,1.35,0,0,0-.73.19,1.29,1.29,0,0,0-.49.52,1.67,1.67,0,0,0-.17.76V561h2.67v-.11a1.81,1.81,0,0,0-.16-.76,1.08,1.08,0,0,0-.44-.5A1.25,1.25,0,0,0,338.62,559.47Z"/><path d="M343.29,564.34H342.1v-5.68h1.19v1.14h.06a1.79,1.79,0,0,1,.28-.55,1.51,1.51,0,0,1,.51-.42,1.67,1.67,0,0,1,.78-.17h.32v1.16h-.47a2.44,2.44,0,0,0-.81.11,1.17,1.17,0,0,0-.5.3.75.75,0,0,0-.17.49Z"/><path d="M347.12,564.34h-1.2v-5.68h1.2v1.14h.06a1.79,1.79,0,0,1,.28-.55,1.51,1.51,0,0,1,.51-.42,1.67,1.67,0,0,1,.78-.17h.32v1.16h-.47a2.4,2.4,0,0,0-.81.11,1.12,1.12,0,0,0-.5.3.75.75,0,0,0-.17.49Z"/><path d="M352.12,561.91l1.14-3.25h1.16L352,565.48a2.39,2.39,0,0,1-.32.62,1,1,0,0,1-.46.34,2.42,2.42,0,0,1-.73.1h-.69v-1h1l.33-1.09L349,558.66h1.19l1.15,3.25.33,1.2h.05Z"/><path d="M47.6,498.05a3.73,3.73,0,0,1-2.09-.56,3.63,3.63,0,0,1-1.35-1.68,7.14,7.14,0,0,1-.47-2.75,7.45,7.45,0,0,1,.47-2.8,3.77,3.77,0,0,1,1.35-1.73A3.66,3.66,0,0,1,47.6,488a3.54,3.54,0,0,1,2,.56,3.61,3.61,0,0,1,1.28,1.56l-.87.52a2.77,2.77,0,0,0-.92-1.22,2.69,2.69,0,0,0-3.55.48,4.05,4.05,0,0,0-.72,2.52v1.36a3.82,3.82,0,0,0,.72,2.47,2.48,2.48,0,0,0,2,.89,2.59,2.59,0,0,0,1.59-.48,2.9,2.9,0,0,0,.94-1.3l.86.53a3.8,3.8,0,0,1-1.32,1.61A3.56,3.56,0,0,1,47.6,498.05Z"/><path d="M53.37,497.89h-1v-7.23h1V492h.07a2.33,2.33,0,0,1,.4-.65,2.23,2.23,0,0,1,.69-.48,2.56,2.56,0,0,1,1-.19H56v1h-.65a2.94,2.94,0,0,0-1,.17,1.67,1.67,0,0,0-.69.46,1,1,0,0,0-.24.67Z"/><path d="M59.7,498.05a3,3,0,0,1-1.69-.46,3.07,3.07,0,0,1-1.12-1.31,5.23,5.23,0,0,1,0-4A3.12,3.12,0,0,1,58,491a3.05,3.05,0,0,1,1.7-.47,3,3,0,0,1,1.64.46,3,3,0,0,1,1.07,1.26,4.23,4.23,0,0,1,.38,1.82v.5H57.55v.33a2.4,2.4,0,0,0,.59,1.65,2.07,2.07,0,0,0,1.63.65,2.18,2.18,0,0,0,1.22-.34,2.14,2.14,0,0,0,.81-1l.74.51a3,3,0,0,1-1.09,1.22A3.19,3.19,0,0,1,59.7,498.05Zm0-6.69a2.2,2.2,0,0,0-1.12.29,2,2,0,0,0-.75.82,2.58,2.58,0,0,0-.28,1.19v.1h4.13v-.14a2.72,2.72,0,0,0-.24-1.19,1.86,1.86,0,0,0-.7-.79A2,2,0,0,0,59.7,491.36Z"/><path d="M70.1,497.89h-.67a1.16,1.16,0,0,1-.68-.18.9.9,0,0,1-.37-.47,2,2,0,0,1-.12-.71v-.18l.4.37h-.45a1.9,1.9,0,0,1-.79,1,2.41,2.41,0,0,1-1.33.34,2.5,2.5,0,0,1-1.77-.58,2,2,0,0,1-.63-1.57A1.82,1.82,0,0,1,65,494a4.88,4.88,0,0,1,1.71-.26h1.5V493a1.64,1.64,0,0,0-.43-1.24,1.79,1.79,0,0,0-1.31-.42,2,2,0,0,0-1.12.3,2.25,2.25,0,0,0-.75.81l-.62-.56a2.6,2.6,0,0,1,.92-1,2.78,2.78,0,0,1,1.61-.43,3,3,0,0,1,2,.64,2.3,2.3,0,0,1,.71,1.79V497h.87Zm-1.89-3.34H66.67a2.57,2.57,0,0,0-1.44.31,1,1,0,0,0-.47.84V496a1,1,0,0,0,.42.87,1.76,1.76,0,0,0,1.07.31,2.46,2.46,0,0,0,1-.19,1.67,1.67,0,0,0,.7-.49,1.17,1.17,0,0,0,.25-.72Z"/><path d="M74.19,497.89h-1.4a1.08,1.08,0,0,1-.82-.31,1.13,1.13,0,0,1-.29-.79v-5.23h-1.2v-.9h.71a.59.59,0,0,0,.47-.14.72.72,0,0,0,.12-.47v-1.39h.92v2h1.6v.9H72.7V497h1.49Z"/><path d="M76.23,488.9a.65.65,0,0,1-.49-.17.6.6,0,0,1-.15-.42v-.18a.6.6,0,0,1,.15-.42.79.79,0,0,1,1,0,.6.6,0,0,1,.15.42v.18a.6.6,0,0,1-.15.42A.65.65,0,0,1,76.23,488.9Zm-.52,9v-7.23h1v7.23Z"/><path d="M79.79,497.89h-1v-7.23h1v1.16h0a2.34,2.34,0,0,1,.76-1,2.14,2.14,0,0,1,1.31-.37,2.26,2.26,0,0,1,1.78.73,3,3,0,0,1,.65,2v4.63h-1v-4.45a2.3,2.3,0,0,0-.43-1.52,1.6,1.6,0,0,0-1.27-.5,2.64,2.64,0,0,0-.89.15,1.59,1.59,0,0,0-.68.48,1.26,1.26,0,0,0-.25.81Z"/><path d="M92.32,498.76a1.77,1.77,0,0,1-.4,1.18,2.32,2.32,0,0,1-1.17.69,7,7,0,0,1-1.92.22,6.51,6.51,0,0,1-1.81-.2,2,2,0,0,1-1-.59,1.39,1.39,0,0,1-.32-.92,1.28,1.28,0,0,1,.31-.92,1.83,1.83,0,0,1,.87-.48v-.13a1.15,1.15,0,0,1-.49-.39,1,1,0,0,1-.17-.62,1,1,0,0,1,.35-.84,2.25,2.25,0,0,1,.89-.44v-.05a2.28,2.28,0,0,1-1-.89,2.53,2.53,0,0,1-.35-1.36,2.59,2.59,0,0,1,.33-1.32,2.42,2.42,0,0,1,.94-.88,2.88,2.88,0,0,1,1.41-.33,3.67,3.67,0,0,1,.75.08,2.71,2.71,0,0,1,.64.23v-.19a1,1,0,0,1,.19-.64.7.7,0,0,1,.59-.25h1.12v.9H90.68v.52a2.42,2.42,0,0,1,.59.82,2.77,2.77,0,0,1-.12,2.37,2.4,2.4,0,0,1-.94.9,3.06,3.06,0,0,1-1.42.32l-.38,0-.34,0a2.2,2.2,0,0,0-.68.3.64.64,0,0,0-.31.55.46.46,0,0,0,.3.46,2,2,0,0,0,.82.13h1.58a3,3,0,0,1,1.93.49A1.66,1.66,0,0,1,92.32,498.76Zm-1,.07a.83.83,0,0,0-.34-.69,2.14,2.14,0,0,0-1.21-.25H87.42a1.18,1.18,0,0,0-.59.39,1,1,0,0,0-.18.6,1,1,0,0,0,.38.81,2,2,0,0,0,1.27.32h1a3.14,3.14,0,0,0,1.51-.29A.94.94,0,0,0,91.35,498.83Zm-2.56-4.11a1.73,1.73,0,0,0,1.17-.37,1.39,1.39,0,0,0,.44-1.11v-.42A1.38,1.38,0,0,0,90,491.7a1.73,1.73,0,0,0-1.17-.38,1.75,1.75,0,0,0-1.19.38,1.38,1.38,0,0,0-.44,1.12v.42a1.39,1.39,0,0,0,.44,1.11A1.75,1.75,0,0,0,88.79,494.72Z"/><path d="M98.78,498.05a2.84,2.84,0,0,1-2.34-1,5,5,0,0,1,0-5.53,3.24,3.24,0,0,1,4-.55,2.74,2.74,0,0,1,1,1.2l-.85.43a1.89,1.89,0,0,0-.68-.88,2,2,0,0,0-1.13-.31,1.91,1.91,0,0,0-1.55.64,2.48,2.48,0,0,0-.53,1.65v1.17a2.47,2.47,0,0,0,.53,1.64,1.88,1.88,0,0,0,1.55.64,2.11,2.11,0,0,0,1.2-.32,2.17,2.17,0,0,0,.79-.94l.74.51a2.82,2.82,0,0,1-1,1.21A3,3,0,0,1,98.78,498.05Z"/><path d="M105.42,498.05a3.06,3.06,0,0,1-1.69-.46,3,3,0,0,1-1.13-1.31,5.23,5.23,0,0,1,0-4,3,3,0,0,1,1.13-1.31,3.09,3.09,0,0,1,4.5,1.31,5.11,5.11,0,0,1,0,4,3,3,0,0,1-2.81,1.77Zm0-.91a2.06,2.06,0,0,0,1.54-.59,2.45,2.45,0,0,0,.59-1.78v-1A2.45,2.45,0,0,0,107,492a2.06,2.06,0,0,0-1.54-.6,2,2,0,0,0-1.53.6,2.41,2.41,0,0,0-.6,1.78v1a2.41,2.41,0,0,0,.6,1.78A2,2,0,0,0,105.42,497.14Z"/><path d="M111.15,497.89h-1v-7.23h1v1.16h0a2.73,2.73,0,0,1,.68-.93,1.86,1.86,0,0,1,1.3-.4,2.67,2.67,0,0,1,1.33.35,2.11,2.11,0,0,1,.88,1.14h0a2.14,2.14,0,0,1,.74-1,2.23,2.23,0,0,1,1.47-.45,2.15,2.15,0,0,1,1.74.73,3,3,0,0,1,.62,2v4.63h-1v-4.47a2.36,2.36,0,0,0-.4-1.49,1.48,1.48,0,0,0-1.25-.51,2.41,2.41,0,0,0-.85.15,1.47,1.47,0,0,0-.66.48,1.32,1.32,0,0,0-.24.81v5h-1v-4.47a2.44,2.44,0,0,0-.4-1.5,1.5,1.5,0,0,0-1.23-.5,2.51,2.51,0,0,0-.86.15,1.53,1.53,0,0,0-.66.48,1.26,1.26,0,0,0-.25.81Z"/><path d="M121.94,500.69v-10h1v1.16H123a2.07,2.07,0,0,1,.82-1,2.54,2.54,0,0,1,1.32-.34,2.72,2.72,0,0,1,1.57.46,2.9,2.9,0,0,1,1,1.3,5.22,5.22,0,0,1,.36,2,5.15,5.15,0,0,1-.36,2,2.93,2.93,0,0,1-1,1.31,2.71,2.71,0,0,1-1.57.45,2.33,2.33,0,0,1-1.3-.34,2.42,2.42,0,0,1-.84-1H123v4Zm2.94-3.56a2,2,0,0,0,1.55-.62,2.36,2.36,0,0,0,.56-1.65v-1.17a2.36,2.36,0,0,0-.56-1.65,2,2,0,0,0-1.55-.62,2.27,2.27,0,0,0-.95.19,1.68,1.68,0,0,0-.7.51,1.13,1.13,0,0,0-.27.74v2.75a1.28,1.28,0,0,0,.27.81,1.63,1.63,0,0,0,.7.53A2.44,2.44,0,0,0,124.88,497.13Z"/><path d="M135.45,497.89h-.67a1.16,1.16,0,0,1-.68-.18,1,1,0,0,1-.37-.47,2,2,0,0,1-.11-.71v-.18l.39.37h-.45a1.9,1.9,0,0,1-.79,1,2.41,2.41,0,0,1-1.33.34,2.5,2.5,0,0,1-1.77-.58,2,2,0,0,1-.63-1.57,1.93,1.93,0,0,1,.32-1.15,2,2,0,0,1,1-.71,4.88,4.88,0,0,1,1.71-.26h1.5V493a1.64,1.64,0,0,0-.43-1.24,1.79,1.79,0,0,0-1.31-.42,2,2,0,0,0-1.12.3,2.25,2.25,0,0,0-.75.81l-.62-.56a2.6,2.6,0,0,1,.92-1,2.81,2.81,0,0,1,1.62-.43,3,3,0,0,1,2,.64,2.3,2.3,0,0,1,.71,1.79V497h.87Zm-1.89-3.34H132a2.61,2.61,0,0,0-1.44.31.94.94,0,0,0-.46.84V496a1,1,0,0,0,.41.87,1.76,1.76,0,0,0,1.07.31,2.46,2.46,0,0,0,1-.19,1.67,1.67,0,0,0,.7-.49,1.11,1.11,0,0,0,.25-.72Z"/><path d="M138.78,498.05a3.39,3.39,0,0,1-1.66-.37,4,4,0,0,1-1.17-1l.73-.58a3.44,3.44,0,0,0,.95.82,2.4,2.4,0,0,0,1.22.3,1.82,1.82,0,0,0,1.16-.33,1.19,1.19,0,0,0,.11-1.69,1.73,1.73,0,0,0-1-.43l-.58-.08a5,5,0,0,1-1.17-.33,1.75,1.75,0,0,1-1.12-1.75A1.82,1.82,0,0,1,137,491a3.09,3.09,0,0,1,1.81-.52,3.64,3.64,0,0,1,1,.14,3.06,3.06,0,0,1,.81.4,3.76,3.76,0,0,1,.65.61l-.68.62a2.49,2.49,0,0,0-.72-.62,2.3,2.3,0,0,0-1.17-.28,1.7,1.7,0,0,0-1.1.32,1.06,1.06,0,0,0-.37.86.92.92,0,0,0,.36.81,2.52,2.52,0,0,0,1.06.37l.56.09a3.06,3.06,0,0,1,1.69.68,1.82,1.82,0,0,1,.51,1.35,2.07,2.07,0,0,1-.32,1.18,2,2,0,0,1-.91.77A3.33,3.33,0,0,1,138.78,498.05Z"/><path d="M145.14,498.05a3.37,3.37,0,0,1-1.66-.37,3.83,3.83,0,0,1-1.17-1l.73-.58a3.3,3.3,0,0,0,1,.82,2.37,2.37,0,0,0,1.22.3,1.79,1.79,0,0,0,1.15-.33,1.21,1.21,0,0,0,.12-1.69,1.8,1.8,0,0,0-1-.43l-.59-.08a5,5,0,0,1-1.17-.33,1.91,1.91,0,0,1-.82-.65,1.93,1.93,0,0,1-.29-1.1,1.8,1.8,0,0,1,.73-1.57,3,3,0,0,1,1.8-.52,3.76,3.76,0,0,1,1,.14,3.06,3.06,0,0,1,.81.4,4.16,4.16,0,0,1,.65.61l-.69.62a2.44,2.44,0,0,0-.71-.62,2.31,2.31,0,0,0-1.18-.28,1.67,1.67,0,0,0-1.09.32,1.07,1.07,0,0,0-.38.86.91.91,0,0,0,.37.81,2.46,2.46,0,0,0,1.06.37l.56.09a3.09,3.09,0,0,1,1.69.68,1.82,1.82,0,0,1,.51,1.35,2.15,2.15,0,0,1-.32,1.18,2.09,2.09,0,0,1-.91.77A3.33,3.33,0,0,1,145.14,498.05Z"/><path d="M149.87,488.9a.65.65,0,0,1-.49-.17.61.61,0,0,1-.16-.42v-.18a.61.61,0,0,1,.16-.42.79.79,0,0,1,1,0,.6.6,0,0,1,.15.42v.18a.6.6,0,0,1-.15.42A.65.65,0,0,1,149.87,488.9Zm-.52,9v-7.23h1v7.23Z"/><path d="M155.09,498.05a3.06,3.06,0,0,1-1.69-.46,3,3,0,0,1-1.13-1.31,5.23,5.23,0,0,1,0-4A3,3,0,0,1,153.4,491a3.06,3.06,0,0,1,1.69-.47,3,3,0,0,1,2.81,1.78,5.11,5.11,0,0,1,0,4,3,3,0,0,1-2.81,1.77Zm0-.91a2,2,0,0,0,1.54-.59,2.45,2.45,0,0,0,.59-1.78v-1a2.45,2.45,0,0,0-.59-1.78,2.26,2.26,0,0,0-3.07,0,2.41,2.41,0,0,0-.6,1.78v1a2.41,2.41,0,0,0,.6,1.78A2,2,0,0,0,155.09,497.14Z"/><path d="M160.82,497.89h-1v-7.23h1v1.16h.05a2.34,2.34,0,0,1,.76-1,2.17,2.17,0,0,1,1.31-.37,2.26,2.26,0,0,1,1.78.73,3,3,0,0,1,.65,2v4.63h-1v-4.45a2.3,2.3,0,0,0-.43-1.52,1.6,1.6,0,0,0-1.27-.5,2.64,2.64,0,0,0-.89.15,1.5,1.5,0,0,0-.67.48,1.21,1.21,0,0,0-.26.81Z"/><path d="M173.15,497.89h-.67a1.16,1.16,0,0,1-.68-.18,1,1,0,0,1-.37-.47,2,2,0,0,1-.11-.71v-.18l.39.37h-.45a1.94,1.94,0,0,1-.78,1,2.46,2.46,0,0,1-1.33.34,2.51,2.51,0,0,1-1.78-.58,2,2,0,0,1-.63-1.57,2,2,0,0,1,.32-1.15,2,2,0,0,1,1-.71,4.88,4.88,0,0,1,1.71-.26h1.5V493a1.64,1.64,0,0,0-.43-1.24,1.79,1.79,0,0,0-1.31-.42,2,2,0,0,0-1.12.3,2.25,2.25,0,0,0-.75.81l-.62-.56a2.63,2.63,0,0,1,.93-1,2.76,2.76,0,0,1,1.61-.43,3,3,0,0,1,2,.64,2.3,2.3,0,0,1,.71,1.79V497h.87Zm-1.89-3.34h-1.54a2.61,2.61,0,0,0-1.44.31.94.94,0,0,0-.46.84V496a1,1,0,0,0,.41.87,1.76,1.76,0,0,0,1.07.31,2.54,2.54,0,0,0,1-.19,1.7,1.7,0,0,0,.69-.49,1.11,1.11,0,0,0,.25-.72Z"/><path d="M177.24,497.89h-1.4a1.08,1.08,0,0,1-.82-.31,1.13,1.13,0,0,1-.29-.79v-5.23h-1.2v-.9h.71c.24,0,.39,0,.47-.14a.72.72,0,0,0,.12-.47v-1.39h.92v2h1.6v.9h-1.6V497h1.49Z"/><path d="M181.44,498.05a3,3,0,0,1-1.69-.46,3.07,3.07,0,0,1-1.12-1.31,5.23,5.23,0,0,1,0-4,3.12,3.12,0,0,1,1.11-1.31,3.07,3.07,0,0,1,1.7-.47,2.87,2.87,0,0,1,2.71,1.72,4.09,4.09,0,0,1,.38,1.82v.5H179.3v.33a2.39,2.39,0,0,0,.58,1.65,2.07,2.07,0,0,0,1.63.65,2.14,2.14,0,0,0,2-1.3l.74.51a2.88,2.88,0,0,1-1.08,1.22A3.23,3.23,0,0,1,181.44,498.05Zm0-6.69a2.14,2.14,0,0,0-1.11.29,2,2,0,0,0-.76.82,2.57,2.57,0,0,0-.27,1.19v.1h4.13v-.14a2.71,2.71,0,0,0-.25-1.19,1.86,1.86,0,0,0-.7-.79A2,2,0,0,0,181.44,491.36Z"/><path d="M45.26,515.89l-2-7.23h1l.84,3.29.76,3.07h0L46.8,512l1-3.29h.93l1,3.29.88,3.07h0L51.3,512l.85-3.29h1l-1.95,7.23H49.9l-1-3.58-.63-2.22h0l-.63,2.22-1.05,3.58Z"/><path d="M57,516.05a3,3,0,0,1-2.83-1.77,5.35,5.35,0,0,1,0-4,3.1,3.1,0,0,1,5.64,0,5.11,5.11,0,0,1,0,4A3,3,0,0,1,57,516.05Zm0-.91a2.07,2.07,0,0,0,1.54-.59,2.45,2.45,0,0,0,.58-1.78v-1a2.45,2.45,0,0,0-.58-1.78,2.28,2.28,0,0,0-3.08,0,2.45,2.45,0,0,0-.59,1.78v1a2.45,2.45,0,0,0,.59,1.78A2.07,2.07,0,0,0,57,515.14Z"/><path d="M62.76,515.89h-1v-7.23h1V510h.07a2.37,2.37,0,0,1,.41-.65,2.18,2.18,0,0,1,.68-.48,2.56,2.56,0,0,1,1-.19h.45v1h-.64a3,3,0,0,0-1,.17,1.64,1.64,0,0,0-.68.46,1,1,0,0,0-.25.67Z"/><path d="M66.42,515.89V505.53h1v6.64h0L68.6,511l2.16-2.29H72l-2.71,2.88,3,4.35H71l-2.5-3.72-1.1,1.12v2.6Z"/><path d="M76.58,515.89v-6.33H75.39v-.9h1.19v-1.61a1.64,1.64,0,0,1,.36-1.1,1.33,1.33,0,0,1,1.08-.42h1.15v.89H77.6v2.24h1.57v.9H77.6v6.33Z"/><path d="M82.94,516.05a3,3,0,0,1-2.83-1.77,5.35,5.35,0,0,1,0-4,3.1,3.1,0,0,1,5.64,0,5.11,5.11,0,0,1,0,4,3,3,0,0,1-2.81,1.77Zm0-.91a2.07,2.07,0,0,0,1.54-.59,2.45,2.45,0,0,0,.58-1.78v-1a2.45,2.45,0,0,0-.58-1.78,2.28,2.28,0,0,0-3.08,0,2.45,2.45,0,0,0-.59,1.78v1a2.45,2.45,0,0,0,.59,1.78A2.07,2.07,0,0,0,82.94,515.14Z"/><path d="M88.66,515.89h-1v-7.23h1V510h.07a2.15,2.15,0,0,1,.41-.65,2.07,2.07,0,0,1,.68-.48,2.56,2.56,0,0,1,1-.19h.45v1h-.64a3,3,0,0,0-1,.17,1.64,1.64,0,0,0-.68.46,1,1,0,0,0-.25.67Z"/><path d="M95.2,515.89V505.53h1v4.29h.06a2.32,2.32,0,0,1,.75-1,2.2,2.2,0,0,1,1.32-.37,2.23,2.23,0,0,1,1.77.73,3,3,0,0,1,.65,2v4.63h-1v-4.45a2.35,2.35,0,0,0-.43-1.52,1.62,1.62,0,0,0-1.28-.5,2.58,2.58,0,0,0-.88.15,1.53,1.53,0,0,0-.68.48,1.27,1.27,0,0,0-.26.81v5Z"/><path d="M107.18,515.89v-1.17h-.05a2.31,2.31,0,0,1-.67.93,2,2,0,0,1-1.38.4,2.27,2.27,0,0,1-1.77-.72,2.91,2.91,0,0,1-.66-2v-4.63h1v4.46a2.22,2.22,0,0,0,.43,1.5,1.59,1.59,0,0,0,1.28.51,2.49,2.49,0,0,0,.87-.15,1.58,1.58,0,0,0,.67-.48,1.23,1.23,0,0,0,.26-.81v-5h1v7.23Z"/><path d="M111.26,515.89h-1v-7.23h1v1.16h0a2.73,2.73,0,0,1,.68-.93,1.87,1.87,0,0,1,1.3-.4,2.64,2.64,0,0,1,1.33.35,2.11,2.11,0,0,1,.88,1.14h0a2.19,2.19,0,0,1,2.21-1.49,2.14,2.14,0,0,1,1.74.73,3,3,0,0,1,.62,2v4.63h-1v-4.47a2.36,2.36,0,0,0-.4-1.49,1.48,1.48,0,0,0-1.25-.51,2.41,2.41,0,0,0-.85.15,1.44,1.44,0,0,0-.65.48,1.26,1.26,0,0,0-.25.81v5h-1v-4.47a2.37,2.37,0,0,0-.4-1.5,1.48,1.48,0,0,0-1.22-.5,2.57,2.57,0,0,0-.87.15,1.53,1.53,0,0,0-.66.48,1.26,1.26,0,0,0-.25.81Z"/><path d="M127.89,515.89h-.67a1.16,1.16,0,0,1-.68-.18,1,1,0,0,1-.37-.47,2,2,0,0,1-.11-.71v-.18l.39.37H126a1.9,1.9,0,0,1-.79,1,2.41,2.41,0,0,1-1.33.34,2.5,2.5,0,0,1-1.77-.58,2,2,0,0,1-.63-1.57,1.93,1.93,0,0,1,.32-1.15,2,2,0,0,1,1-.71,4.88,4.88,0,0,1,1.71-.26H126V511a1.64,1.64,0,0,0-.43-1.24,1.79,1.79,0,0,0-1.31-.42,2,2,0,0,0-1.12.3,2.25,2.25,0,0,0-.75.81l-.62-.56a2.6,2.6,0,0,1,.92-1,2.81,2.81,0,0,1,1.62-.43,3,3,0,0,1,2,.64,2.3,2.3,0,0,1,.71,1.79V515h.87ZM126,512.55h-1.54a2.61,2.61,0,0,0-1.44.31.94.94,0,0,0-.46.84V514a1,1,0,0,0,.41.87,1.76,1.76,0,0,0,1.07.31,2.46,2.46,0,0,0,1-.19,1.67,1.67,0,0,0,.7-.49,1.11,1.11,0,0,0,.25-.72Z"/><path d="M130.1,515.89h-1v-7.23h1v1.16h.06a2.32,2.32,0,0,1,.75-1,2.2,2.2,0,0,1,1.32-.37,2.23,2.23,0,0,1,1.77.73,3,3,0,0,1,.65,2v4.63h-1v-4.45a2.3,2.3,0,0,0-.44-1.52,1.58,1.58,0,0,0-1.27-.5,2.58,2.58,0,0,0-.88.15,1.53,1.53,0,0,0-.68.48,1.27,1.27,0,0,0-.26.81Z"/><path d="M138.74,516.05a3.39,3.39,0,0,1-1.66-.37,4,4,0,0,1-1.17-1l.73-.58a3.44,3.44,0,0,0,1,.82,2.4,2.4,0,0,0,1.22.3,1.79,1.79,0,0,0,1.15-.33,1.08,1.08,0,0,0,.42-.91,1.09,1.09,0,0,0-.3-.78,1.73,1.73,0,0,0-1-.43l-.59-.08a5,5,0,0,1-1.17-.33,1.91,1.91,0,0,1-.82-.65,1.93,1.93,0,0,1-.29-1.1,1.8,1.8,0,0,1,.73-1.57,3.07,3.07,0,0,1,1.81-.52,3.69,3.69,0,0,1,1,.14,3.06,3.06,0,0,1,.81.4,4.16,4.16,0,0,1,.65.61l-.69.62a2.25,2.25,0,0,0-1.89-.9,1.67,1.67,0,0,0-1.09.32,1.06,1.06,0,0,0-.37.86.92.92,0,0,0,.36.81,2.52,2.52,0,0,0,1.06.37l.56.09a3.06,3.06,0,0,1,1.69.68,1.82,1.82,0,0,1,.51,1.35,2.15,2.15,0,0,1-.32,1.18,2.09,2.09,0,0,1-.91.77A3.33,3.33,0,0,1,138.74,516.05Z"/></svg>