<svg id="Layer_1" data-name="Layer 1" xmlns="http://www.w3.org/2000/svg" viewBox="0 0 390 602.55"><defs><style>.cls-1{fill:#f3f4f3;}.cls-2{fill:#231f20;}.cls-3{fill:none;stroke:#ed1c4d;stroke-miterlimit:10;stroke-width:6px;}</style></defs><title>Artboard 1</title><rect class="cls-1" width="390" height="602.55"/><path class="cls-2" d="M44.58,90.13V56.63H56.44a14.64,14.64,0,0,1,7.46,1.85,12.24,12.24,0,0,1,4.95,5.57,22,22,0,0,1,1.75,9.33,22,22,0,0,1-1.75,9.34,12.29,12.29,0,0,1-4.95,5.57,14.63,14.63,0,0,1-7.46,1.84ZM50,85.33h6.43a8.91,8.91,0,0,0,4.39-1,7.2,7.2,0,0,0,2.93-3.12,11.29,11.29,0,0,0,1-5.09V70.69a11.24,11.24,0,0,0-1-5.08,7.09,7.09,0,0,0-2.93-3.12,8.81,8.81,0,0,0-4.39-1.06H50Z"/><path class="cls-2" d="M84.85,90.71a11.44,11.44,0,0,1-6.14-1.6,10.59,10.59,0,0,1-4-4.5,15.56,15.56,0,0,1-1.41-6.86,15.55,15.55,0,0,1,1.39-6.84,10.78,10.78,0,0,1,3.93-4.5,11.13,11.13,0,0,1,6.1-1.62,10.89,10.89,0,0,1,6.17,1.65,10.14,10.14,0,0,1,3.72,4.45,15.3,15.3,0,0,1,1.25,6.25v2H78.76v.81a6.61,6.61,0,0,0,1.7,4.67,6.37,6.37,0,0,0,4.87,1.82,7.18,7.18,0,0,0,3.89-1,8.25,8.25,0,0,0,2.64-2.71l3.12,3a10.6,10.6,0,0,1-4,3.63A12.86,12.86,0,0,1,84.85,90.71Zm0-21.84a6.1,6.1,0,0,0-3.2.83A5.63,5.63,0,0,0,79.5,72a7.27,7.27,0,0,0-.74,3.34v.33H90.37v-.47a7.66,7.66,0,0,0-.67-3.32,5.16,5.16,0,0,0-1.92-2.2A5.48,5.48,0,0,0,84.81,68.87Z"/><path class="cls-2" d="M107.65,90.71A12.09,12.09,0,0,1,97.53,86l3.36-3.08a11.42,11.42,0,0,0,3.09,2.6,8,8,0,0,0,4,1,5.56,5.56,0,0,0,3.43-.88,2.88,2.88,0,0,0,1.13-2.44,2.7,2.7,0,0,0-.79-2A4.81,4.81,0,0,0,109,80.1l-2.3-.29a16.32,16.32,0,0,1-4.37-1.23,6.62,6.62,0,0,1-2.86-2.37,6.82,6.82,0,0,1-1-3.79A6.71,6.71,0,0,1,101,66.79a10.59,10.59,0,0,1,6.69-2,14.4,14.4,0,0,1,3.94.48,10.13,10.13,0,0,1,3,1.37,12.65,12.65,0,0,1,2.4,2.13l-3.21,3.08a8.41,8.41,0,0,0-2.52-2A7.42,7.42,0,0,0,107.7,69a5.11,5.11,0,0,0-3.17.83,2.71,2.71,0,0,0-1,2.25,2.52,2.52,0,0,0,.93,2.13,6.82,6.82,0,0,0,2.91,1l2.3.28q4.13.63,6,2.41a6.29,6.29,0,0,1,1.89,4.8,7.23,7.23,0,0,1-1.22,4.17,8.16,8.16,0,0,1-3.43,2.79A12.59,12.59,0,0,1,107.65,90.71Z"/><path class="cls-2" d="M124.17,60.9a3.17,3.17,0,0,1-2.38-.77,2.67,2.67,0,0,1-.74-2v-.82a2.69,2.69,0,0,1,.74-2,3.21,3.21,0,0,1,2.38-.77,3.12,3.12,0,0,1,2.35.77,2.76,2.76,0,0,1,.72,2v.82a2.74,2.74,0,0,1-.72,2A3.08,3.08,0,0,1,124.17,60.9Zm-2.64,29.23V65.37h5.23V90.13Z"/><path class="cls-2" d="M154.26,92.44a7.11,7.11,0,0,1-1.32,4.37,7.9,7.9,0,0,1-4.1,2.63,25.14,25.14,0,0,1-7.3.87,24,24,0,0,1-6.55-.73,7.13,7.13,0,0,1-3.65-2.08,4.9,4.9,0,0,1-1.13-3.24A4.56,4.56,0,0,1,131.34,91a5.68,5.68,0,0,1,3.15-1.57v-.53a3.78,3.78,0,0,1-2.84-3.82A3.52,3.52,0,0,1,133,82.13a8,8,0,0,1,3.15-1.45v-.19a7.7,7.7,0,0,1-3.43-2.93,8.7,8.7,0,0,1,0-8.75,7.9,7.9,0,0,1,3.4-3,12.53,12.53,0,0,1,5.36-1.06,14.22,14.22,0,0,1,2.42.19,11.42,11.42,0,0,1,2.14.58v-.7a4.09,4.09,0,0,1,.81-2.72,3.07,3.07,0,0,1,2.45-1h3.79v4.18h-5v1.2a7.64,7.64,0,0,1,2.57,2.83,8.19,8.19,0,0,1,.89,3.83,8,8,0,0,1-1.18,4.34,7.69,7.69,0,0,1-3.41,2.93,12.57,12.57,0,0,1-5.4,1,16.52,16.52,0,0,1-1.75-.09,9.88,9.88,0,0,1-1.51-.29,5.36,5.36,0,0,0-1.63.93,1.9,1.9,0,0,0-.72,1.54,1.45,1.45,0,0,0,.89,1.42,6,6,0,0,0,2.56.43h6.15q4.61,0,6.69,1.83A6.46,6.46,0,0,1,154.26,92.44Zm-4.89.57a2.47,2.47,0,0,0-1-2.12,6.28,6.28,0,0,0-3.57-.76h-8.45A3.12,3.12,0,0,0,135,91.38a3.48,3.48,0,0,0-.41,1.68,3.06,3.06,0,0,0,1.2,2.48,6.67,6.67,0,0,0,4.13,1h3.26a9.46,9.46,0,0,0,4.61-.88A2.85,2.85,0,0,0,149.37,93ZM141.49,77.8a5.53,5.53,0,0,0,3.58-1,3.74,3.74,0,0,0,1.27-3.09v-1a3.74,3.74,0,0,0-1.27-3.09,6.72,6.72,0,0,0-7.15,0,3.74,3.74,0,0,0-1.27,3.09v1a3.74,3.74,0,0,0,1.27,3.09A5.52,5.52,0,0,0,141.49,77.8Z"/><path class="cls-2" d="M161.46,90.13h-5.23V65.37h5.23v4.12h.24a8.37,8.37,0,0,1,2.47-3.36,7.06,7.06,0,0,1,4.54-1.34,7.4,7.4,0,0,1,6,2.53q2.13,2.52,2.13,7.09V90.13h-5.23V75.06a7.05,7.05,0,0,0-1.13-4.36,4.26,4.26,0,0,0-3.57-1.45,7.38,7.38,0,0,0-2.6.46,4.7,4.7,0,0,0-2,1.4,3.63,3.63,0,0,0-.79,2.38Z"/><path class="cls-2" d="M184.79,60.9a3.17,3.17,0,0,1-2.38-.77,2.71,2.71,0,0,1-.74-2v-.82a2.73,2.73,0,0,1,.74-2,3.21,3.21,0,0,1,2.38-.77,3.1,3.1,0,0,1,2.35.77,2.76,2.76,0,0,1,.72,2v.82a2.74,2.74,0,0,1-.72,2A3.06,3.06,0,0,1,184.79,60.9Zm-2.64,29.23V65.37h5.23V90.13Z"/><path class="cls-2" d="M198.18,90.13H193V65.37h5.23v4.12h.24a8.28,8.28,0,0,1,2.47-3.36,7.06,7.06,0,0,1,4.54-1.34,7.37,7.37,0,0,1,6,2.53q2.15,2.52,2.14,7.09V90.13h-5.23V75.06a7.05,7.05,0,0,0-1.13-4.36,4.26,4.26,0,0,0-3.57-1.45,7.38,7.38,0,0,0-2.6.46,4.7,4.7,0,0,0-2,1.4,3.58,3.58,0,0,0-.79,2.38Z"/><path class="cls-2" d="M240.8,92.44a7.11,7.11,0,0,1-1.32,4.37,7.86,7.86,0,0,1-4.1,2.63,25.14,25.14,0,0,1-7.3.87,24.06,24.06,0,0,1-6.55-.73,7.18,7.18,0,0,1-3.65-2.08,4.89,4.89,0,0,1-1.12-3.24A4.55,4.55,0,0,1,217.88,91,5.72,5.72,0,0,1,221,89.42v-.53a3.79,3.79,0,0,1-2.83-3.82,3.52,3.52,0,0,1,1.32-2.94,8,8,0,0,1,3.14-1.45v-.19a7.75,7.75,0,0,1-3.43-2.93,8.7,8.7,0,0,1,0-8.75,7.88,7.88,0,0,1,3.41-3A12.45,12.45,0,0,1,228,64.79a14.22,14.22,0,0,1,2.42.19,11.22,11.22,0,0,1,2.14.58v-.7a4.09,4.09,0,0,1,.81-2.72,3.07,3.07,0,0,1,2.45-1h3.79v4.18h-5v1.2a7.64,7.64,0,0,1,2.57,2.83,8.19,8.19,0,0,1,.89,3.83,8,8,0,0,1-1.18,4.34,7.72,7.72,0,0,1-3.4,2.93,12.63,12.63,0,0,1-5.4,1,16.58,16.58,0,0,1-1.76-.09,9.88,9.88,0,0,1-1.51-.29,5.36,5.36,0,0,0-1.63.93,1.9,1.9,0,0,0-.72,1.54,1.47,1.47,0,0,0,.89,1.42,6,6,0,0,0,2.57.43H232q4.6,0,6.7,1.83A6.49,6.49,0,0,1,240.8,92.44Zm-4.89.57a2.49,2.49,0,0,0-1-2.12,6.32,6.32,0,0,0-3.58-.76h-8.45a3.18,3.18,0,0,0-1.27,1.25,3.48,3.48,0,0,0-.41,1.68,3.06,3.06,0,0,0,1.2,2.48,6.67,6.67,0,0,0,4.13,1h3.26a9.46,9.46,0,0,0,4.61-.88A2.83,2.83,0,0,0,235.91,93ZM228,77.8a5.52,5.52,0,0,0,3.57-1,3.74,3.74,0,0,0,1.27-3.09v-1a3.74,3.74,0,0,0-1.27-3.09,6.72,6.72,0,0,0-7.15,0,3.74,3.74,0,0,0-1.27,3.09v1a3.74,3.74,0,0,0,1.27,3.09A5.53,5.53,0,0,0,228,77.8Z"/><path class="cls-2" d="M71.08,138.13H65.42l-2.93-9.07H50l-3,9.07H41.51l11.43-33.5H59.7Zm-9.94-13.72-3.31-9.94-1.54-4.85h-.23l-1.54,4.85-3.31,9.94Z"/><path class="cls-2" d="M89.65,138.13V134h-.24a7.25,7.25,0,0,1-2.68,3.45,7.5,7.5,0,0,1-4.32,1.25,9.2,9.2,0,0,1-5.36-1.55,9.62,9.62,0,0,1-3.4-4.45,21.18,21.18,0,0,1,0-13.94,9.67,9.67,0,0,1,3.4-4.43,9.2,9.2,0,0,1,5.36-1.55A7.81,7.81,0,0,1,86.77,114a6.54,6.54,0,0,1,2.64,3.48h.24V102.61h5.24v35.52ZM84,134.29a7.25,7.25,0,0,0,2.86-.54,5.26,5.26,0,0,0,2-1.52,3.77,3.77,0,0,0,.76-2.4v-8.35a3.43,3.43,0,0,0-.76-2.23,5,5,0,0,0-2-1.47,7.44,7.44,0,0,0-2.86-.53A5.69,5.69,0,0,0,79.65,119a6.42,6.42,0,0,0-1.66,4.6v4.28a6.47,6.47,0,0,0,1.66,4.62A5.63,5.63,0,0,0,84,134.29Z"/><path class="cls-2" d="M116.15,138.13V134h-.24a7.27,7.27,0,0,1-2.69,3.45,7.45,7.45,0,0,1-4.32,1.25,9.17,9.17,0,0,1-5.35-1.55,9.64,9.64,0,0,1-3.41-4.45,21.35,21.35,0,0,1,0-13.94,9.68,9.68,0,0,1,3.41-4.43,9.17,9.17,0,0,1,5.35-1.55,7.84,7.84,0,0,1,4.37,1.22,6.54,6.54,0,0,1,2.64,3.48h.24V102.61h5.23v35.52Zm-5.66-3.84a7.24,7.24,0,0,0,2.85-.54,5.12,5.12,0,0,0,2-1.52,3.77,3.77,0,0,0,.77-2.4v-8.35a3.43,3.43,0,0,0-.77-2.23,4.85,4.85,0,0,0-2-1.47,7.42,7.42,0,0,0-2.85-.53,5.71,5.71,0,0,0-4.35,1.76,6.45,6.45,0,0,0-1.65,4.6v4.28a6.5,6.5,0,0,0,1.65,4.62A5.65,5.65,0,0,0,110.49,134.29Z"/><path class="cls-2" d="M129.59,108.9a3.17,3.17,0,0,1-2.38-.77,2.71,2.71,0,0,1-.74-2v-.82a2.73,2.73,0,0,1,.74-2,3.21,3.21,0,0,1,2.38-.77,3.1,3.1,0,0,1,2.35.77,2.76,2.76,0,0,1,.72,2v.82a2.74,2.74,0,0,1-.72,2A3.06,3.06,0,0,1,129.59,108.9ZM127,138.13V113.37h5.23v24.76Z"/><path class="cls-2" d="M147.4,138.71q-5.43,0-8.4-3.5t-3-9.46q0-6,3-9.46t8.4-3.5a10.47,10.47,0,0,1,6.14,1.68,9.45,9.45,0,0,1,3.46,4.46l-4.32,2a5.39,5.39,0,0,0-1.87-2.76,5.45,5.45,0,0,0-3.41-1,5.36,5.36,0,0,0-4.37,1.78,7,7,0,0,0-1.49,4.63v4.36a7.12,7.12,0,0,0,1.49,4.66,5.34,5.34,0,0,0,4.37,1.8,5.64,5.64,0,0,0,3.65-1.13,7.77,7.77,0,0,0,2.2-3l3.94,2.11a9.6,9.6,0,0,1-3.7,4.71A10.85,10.85,0,0,1,147.4,138.71Z"/><path class="cls-2" d="M171.73,138.13h-4.56a5,5,0,0,1-5.52-5.42V117.64h-3.88v-4.27h2.11a2.31,2.31,0,0,0,1.82-.58,2.91,2.91,0,0,0,.48-1.87v-4.37h4.71v6.82h5.23v4.27h-5.23v16.22h4.84Z"/><path class="cls-2" d="M178.5,108.9a3.17,3.17,0,0,1-2.38-.77,2.71,2.71,0,0,1-.74-2v-.82a2.73,2.73,0,0,1,.74-2,3.21,3.21,0,0,1,2.38-.77,3.1,3.1,0,0,1,2.35.77,2.76,2.76,0,0,1,.72,2v.82a2.74,2.74,0,0,1-.72,2A3.06,3.06,0,0,1,178.5,108.9Zm-2.64,29.23V113.37h5.23v24.76Z"/><path class="cls-2" d="M196.4,138.71a11.22,11.22,0,0,1-6.07-1.6,10.59,10.59,0,0,1-4-4.5,17.28,17.28,0,0,1,0-13.72,10.59,10.59,0,0,1,4-4.5,12.24,12.24,0,0,1,12.1,0,10.59,10.59,0,0,1,4,4.5,17.28,17.28,0,0,1,0,13.72,10.59,10.59,0,0,1-4,4.5A11.13,11.13,0,0,1,196.4,138.71Zm0-4.37a5.74,5.74,0,0,0,4.3-1.63,6.71,6.71,0,0,0,1.61-4.87v-4.18a6.67,6.67,0,0,0-1.61-4.86,5.71,5.71,0,0,0-4.3-1.64,5.8,5.8,0,0,0-4.29,1.64,6.52,6.52,0,0,0-1.66,4.86v4.18a6.56,6.56,0,0,0,1.66,4.87A5.83,5.83,0,0,0,196.4,134.34Z"/><path class="cls-2" d="M217,138.13h-5.23V113.37H217v4.12h.24a8.28,8.28,0,0,1,2.47-3.36,7,7,0,0,1,4.54-1.34,7.37,7.37,0,0,1,6,2.53q2.15,2.52,2.14,7.09v15.72h-5.23V123.06A7.05,7.05,0,0,0,226,118.7a4.28,4.28,0,0,0-3.58-1.45,7.37,7.37,0,0,0-2.59.46,4.7,4.7,0,0,0-2,1.4,3.58,3.58,0,0,0-.79,2.38Z"/><path class="cls-2" d="M66.09,186.13v-5.08H65.9a6.43,6.43,0,0,1-2.84,4,10.54,10.54,0,0,1-6.14,1.63,13,13,0,0,1-7.13-2,13.23,13.23,0,0,1-4.92-5.83,22.56,22.56,0,0,1-1.77-9.46A22.08,22.08,0,0,1,44.92,160a13.3,13.3,0,0,1,5.14-5.88,14.46,14.46,0,0,1,7.67-2,13.82,13.82,0,0,1,7.61,2,13.4,13.4,0,0,1,4.87,5.52l-4.41,2.59a9,9,0,0,0-3-3.81,8.32,8.32,0,0,0-5.07-1.47,9.27,9.27,0,0,0-4.65,1.15A7.71,7.71,0,0,0,50,161.39a11.51,11.51,0,0,0-1.11,5.26v5.42A11.51,11.51,0,0,0,50,177.33a7.91,7.91,0,0,0,3.14,3.36,9.55,9.55,0,0,0,4.83,1.17,10.36,10.36,0,0,0,3.88-.69,6.32,6.32,0,0,0,2.79-2.12,5.75,5.75,0,0,0,1.06-3.52v-2.6H58.74v-4.65H70.89v17.85Z"/><path class="cls-2" d="M81.35,186.13H76.12V161.37h5.23v4.94h.24a8,8,0,0,1,1.22-2.38,6.39,6.39,0,0,1,2.24-1.84,7.31,7.31,0,0,1,3.4-.72h1.4v5H87.78a11.49,11.49,0,0,0-3.5.47,4.89,4.89,0,0,0-2.19,1.33,3.18,3.18,0,0,0-.74,2.14Z"/><path class="cls-2" d="M102.18,186.71a11.42,11.42,0,0,1-6.14-1.6,10.52,10.52,0,0,1-4-4.5,17.34,17.34,0,0,1,0-13.7,10.72,10.72,0,0,1,3.93-4.5,11.13,11.13,0,0,1,6.1-1.62,10.89,10.89,0,0,1,6.17,1.65,10.27,10.27,0,0,1,3.72,4.45,15.3,15.3,0,0,1,1.24,6.25v2H96.09v.81a6.57,6.57,0,0,0,1.7,4.67,6.37,6.37,0,0,0,4.87,1.82,7.21,7.21,0,0,0,3.89-1,8.25,8.25,0,0,0,2.64-2.71l3.12,3a10.56,10.56,0,0,1-4.06,3.63A12.79,12.79,0,0,1,102.18,186.71Zm-.05-21.84a6.07,6.07,0,0,0-3.19.83A5.63,5.63,0,0,0,96.83,168a7.15,7.15,0,0,0-.74,3.34v.33H107.7v-.47a7.66,7.66,0,0,0-.67-3.32,5.16,5.16,0,0,0-1.92-2.2A5.49,5.49,0,0,0,102.13,164.87Z"/><path class="cls-2" d="M126.9,186.71a11.42,11.42,0,0,1-6.14-1.6,10.52,10.52,0,0,1-4-4.5,17.34,17.34,0,0,1,0-13.7,10.72,10.72,0,0,1,3.93-4.5,11.13,11.13,0,0,1,6.1-1.62,10.89,10.89,0,0,1,6.17,1.65,10.27,10.27,0,0,1,3.72,4.45,15.3,15.3,0,0,1,1.24,6.25v2H120.81v.81a6.57,6.57,0,0,0,1.7,4.67,6.37,6.37,0,0,0,4.87,1.82,7.21,7.21,0,0,0,3.89-1,8.25,8.25,0,0,0,2.64-2.71l3.12,3a10.56,10.56,0,0,1-4.06,3.63A12.79,12.79,0,0,1,126.9,186.71Zm-.05-21.84a6.07,6.07,0,0,0-3.19.83,5.63,5.63,0,0,0-2.11,2.27,7.15,7.15,0,0,0-.74,3.34v.33h11.61v-.47a7.66,7.66,0,0,0-.67-3.32,5.16,5.16,0,0,0-1.92-2.2A5.49,5.49,0,0,0,126.85,164.87Z"/><path class="cls-2" d="M157.48,186.13V182h-.24a7.27,7.27,0,0,1-2.69,3.45,7.5,7.5,0,0,1-4.32,1.25,9.17,9.17,0,0,1-5.35-1.55,9.57,9.57,0,0,1-3.41-4.45,21.18,21.18,0,0,1,0-13.94,9.62,9.62,0,0,1,3.41-4.43,9.17,9.17,0,0,1,5.35-1.55A7.87,7.87,0,0,1,154.6,162a6.54,6.54,0,0,1,2.64,3.48h.24V150.61h5.23v35.52Zm-5.67-3.84a7.25,7.25,0,0,0,2.86-.54,5.12,5.12,0,0,0,2-1.52,3.77,3.77,0,0,0,.77-2.4v-8.35a3.43,3.43,0,0,0-.77-2.23,4.85,4.85,0,0,0-2-1.47,7.44,7.44,0,0,0-2.86-.53,5.69,5.69,0,0,0-4.34,1.76,6.46,6.46,0,0,0-1.66,4.6v4.28a6.51,6.51,0,0,0,1.66,4.62A5.63,5.63,0,0,0,151.81,182.29Z"/><path class="cls-2" d="M44.58,234.13v-33.5H56.44a14.64,14.64,0,0,1,7.46,1.85,12.24,12.24,0,0,1,4.95,5.57,25.77,25.77,0,0,1,0,18.67,12.29,12.29,0,0,1-4.95,5.57,14.63,14.63,0,0,1-7.46,1.84Zm5.43-4.8h6.43a8.91,8.91,0,0,0,4.39-1.05,7.2,7.2,0,0,0,2.93-3.12,11.29,11.29,0,0,0,1-5.09v-5.38a11.24,11.24,0,0,0-1-5.08,7.09,7.09,0,0,0-2.93-3.12,8.81,8.81,0,0,0-4.39-1.06H50Z"/><path class="cls-2" d="M77.65,204.9a3.14,3.14,0,0,1-2.37-.77,2.68,2.68,0,0,1-.75-2v-.82a2.7,2.7,0,0,1,.75-2,3.18,3.18,0,0,1,2.37-.77,3.13,3.13,0,0,1,2.36.77,2.76,2.76,0,0,1,.72,2v.82a2.74,2.74,0,0,1-.72,2A3.09,3.09,0,0,1,77.65,204.9ZM75,234.13V209.37h5.24v24.76Z"/><path class="cls-2" d="M93.73,234.71A12.09,12.09,0,0,1,83.61,230L87,226.93a11.42,11.42,0,0,0,3.09,2.6,8,8,0,0,0,4,1,5.56,5.56,0,0,0,3.43-.88,2.88,2.88,0,0,0,1.13-2.44,2.7,2.7,0,0,0-.79-2A4.81,4.81,0,0,0,95,224.1l-2.3-.29a16.32,16.32,0,0,1-4.37-1.23,6.62,6.62,0,0,1-2.86-2.37,6.82,6.82,0,0,1-1-3.79,6.71,6.71,0,0,1,2.57-5.63,10.59,10.59,0,0,1,6.69-2,14.4,14.4,0,0,1,3.94.48,10.13,10.13,0,0,1,3,1.37,12.65,12.65,0,0,1,2.4,2.13l-3.21,3.08a8.41,8.41,0,0,0-2.52-2,7.42,7.42,0,0,0-3.58-.84,5.11,5.11,0,0,0-3.17.83,2.71,2.71,0,0,0-1,2.25,2.52,2.52,0,0,0,.93,2.13,6.82,6.82,0,0,0,2.91,1l2.3.28q4.13.63,6,2.41a6.29,6.29,0,0,1,1.89,4.8,7.23,7.23,0,0,1-1.22,4.17A8.16,8.16,0,0,1,99,233.71,12.59,12.59,0,0,1,93.73,234.71Z"/><path class="cls-2" d="M107.61,234.13V198.61h5.23v14.88h.24a8.28,8.28,0,0,1,2.47-3.36,7,7,0,0,1,4.54-1.34,7.37,7.37,0,0,1,6,2.53q2.14,2.52,2.14,7.09v15.72H123V219.06a7.05,7.05,0,0,0-1.13-4.36,4.28,4.28,0,0,0-3.58-1.45,7.37,7.37,0,0,0-2.59.46,4.7,4.7,0,0,0-2,1.4,3.58,3.58,0,0,0-.79,2.38v16.64Z"/><path class="cls-2" d="M143.27,234.71a11.2,11.2,0,0,1-6.07-1.6,10.61,10.61,0,0,1-4-4.5,17.39,17.39,0,0,1,0-13.72,10.61,10.61,0,0,1,4-4.5,12.22,12.22,0,0,1,12.09,0,10.67,10.67,0,0,1,4,4.5,17.39,17.39,0,0,1,0,13.72,10.67,10.67,0,0,1-4,4.5A11.12,11.12,0,0,1,143.27,234.71Zm0-4.37a5.77,5.77,0,0,0,4.3-1.63,6.71,6.71,0,0,0,1.6-4.87v-4.18a6.67,6.67,0,0,0-1.6-4.86,5.74,5.74,0,0,0-4.3-1.64,5.84,5.84,0,0,0-4.3,1.64,6.56,6.56,0,0,0-1.65,4.86v4.18a6.6,6.6,0,0,0,1.65,4.87A5.87,5.87,0,0,0,143.27,230.34Z"/><path class="cls-2" d="M163.81,234.13h-5.23V209.37h5.23v4.12h.24a8.3,8.3,0,0,1,2.48-3.36,7,7,0,0,1,4.53-1.34,7.4,7.4,0,0,1,6,2.53q2.13,2.52,2.13,7.09v15.72h-5.23V219.06a7.05,7.05,0,0,0-1.13-4.36,4.26,4.26,0,0,0-3.57-1.45,7.32,7.32,0,0,0-2.59.46,4.59,4.59,0,0,0-2,1.4,3.59,3.59,0,0,0-.8,2.38Z"/><path class="cls-2" d="M194.34,234.71a11.39,11.39,0,0,1-6.14-1.6,10.52,10.52,0,0,1-4-4.5,17.34,17.34,0,0,1,0-13.7,10.65,10.65,0,0,1,3.93-4.5,11.13,11.13,0,0,1,6.1-1.62,10.84,10.84,0,0,1,6.16,1.65,10.14,10.14,0,0,1,3.72,4.45,15.14,15.14,0,0,1,1.25,6.25v2H188.24v.81a6.57,6.57,0,0,0,1.71,4.67,6.35,6.35,0,0,0,4.87,1.82,7.21,7.21,0,0,0,3.89-1,8.45,8.45,0,0,0,2.64-2.71l3.12,3a10.56,10.56,0,0,1-4.06,3.63A12.79,12.79,0,0,1,194.34,234.71Zm-.05-21.84a6.07,6.07,0,0,0-3.19.83A5.57,5.57,0,0,0,189,216a7.15,7.15,0,0,0-.75,3.34v.33h11.62v-.47a7.66,7.66,0,0,0-.67-3.32,5.16,5.16,0,0,0-1.92-2.2A5.51,5.51,0,0,0,194.29,212.87Z"/><path class="cls-2" d="M217.14,234.71a12.87,12.87,0,0,1-5.93-1.25A13.08,13.08,0,0,1,207,230l3.36-3.08a11.46,11.46,0,0,0,3.1,2.6,7.9,7.9,0,0,0,4,1,5.59,5.59,0,0,0,3.43-.88,2.91,2.91,0,0,0,1.13-2.44,2.74,2.74,0,0,0-.79-2,4.81,4.81,0,0,0-2.76-1.09l-2.31-.29a16.43,16.43,0,0,1-4.37-1.23,6.59,6.59,0,0,1-2.85-2.37,7.56,7.56,0,0,1,1.58-9.42,10.62,10.62,0,0,1,6.7-2,14.38,14.38,0,0,1,3.93.48,10.19,10.19,0,0,1,3,1.37,13.29,13.29,0,0,1,2.4,2.13l-3.22,3.08a8.41,8.41,0,0,0-2.52-2,7.41,7.41,0,0,0-3.57-.84,5.09,5.09,0,0,0-3.17.83,2.72,2.72,0,0,0-1.06,2.25,2.52,2.52,0,0,0,.94,2.13,6.72,6.72,0,0,0,2.9,1l2.31.28q4.13.63,6,2.41a6.26,6.26,0,0,1,1.9,4.8,7.17,7.17,0,0,1-1.23,4.17,8.09,8.09,0,0,1-3.43,2.79A12.51,12.51,0,0,1,217.14,234.71Z"/><path class="cls-2" d="M242.15,234.13h-4.56a5,5,0,0,1-5.52-5.42V213.64h-3.89v-4.27h2.11a2.33,2.33,0,0,0,1.83-.58,2.91,2.91,0,0,0,.48-1.87v-4.37h4.7v6.82h5.23v4.27H237.3v16.22h4.85Z"/><path class="cls-2" d="M256.6,223.53l5-14.16h5L256.12,239.1a9.43,9.43,0,0,1-1.37,2.7,4.46,4.46,0,0,1-2,1.48,9.39,9.39,0,0,1-3.19.45h-3v-4.27h4.22l1.44-4.75-9.07-25.34h5.23l5,14.16,1.44,5.23H255Z"/><path class="cls-2" d="M50,282.13H44.58v-33.5H59a10.47,10.47,0,0,1,5.26,1.25,8.35,8.35,0,0,1,3.34,3.5,11.7,11.7,0,0,1,1.15,5.33A11.54,11.54,0,0,1,67.58,264a8.54,8.54,0,0,1-3.34,3.53A10.27,10.27,0,0,1,59,268.79H50Zm0-28.75V264h8.64a5.3,5.3,0,0,0,2.33-.48,3.45,3.45,0,0,0,1.51-1.42,4.58,4.58,0,0,0,.53-2.28v-2.3a4.59,4.59,0,0,0-.53-2.31A3.56,3.56,0,0,0,61,253.86a5.3,5.3,0,0,0-2.33-.48Z"/><path class="cls-2" d="M77.13,282.13H71.9V257.37h5.23v4.94h.24a7.8,7.8,0,0,1,1.22-2.38,6.45,6.45,0,0,1,2.23-1.84,7.38,7.38,0,0,1,3.41-.72h1.39v5H83.56a11.44,11.44,0,0,0-3.5.47,4.89,4.89,0,0,0-2.19,1.33,3.18,3.18,0,0,0-.74,2.14Z"/><path class="cls-2" d="M91,252.9a3.17,3.17,0,0,1-2.38-.77,2.71,2.71,0,0,1-.74-2v-.82a2.73,2.73,0,0,1,.74-2,3.21,3.21,0,0,1,2.38-.77,3.1,3.1,0,0,1,2.35.77,2.76,2.76,0,0,1,.72,2v.82a2.74,2.74,0,0,1-.72,2A3.06,3.06,0,0,1,91,252.9Zm-2.64,29.23V257.37h5.23v24.76Z"/><path class="cls-2" d="M114.85,282.13V278h-.23a7.33,7.33,0,0,1-2.69,3.45,7.5,7.5,0,0,1-4.32,1.25,9.2,9.2,0,0,1-5.36-1.55,9.62,9.62,0,0,1-3.4-4.45,21.18,21.18,0,0,1,0-13.94,9.67,9.67,0,0,1,3.4-4.43,9.2,9.2,0,0,1,5.36-1.55A7.87,7.87,0,0,1,112,258a6.64,6.64,0,0,1,2.64,3.48h.23V246.61h5.24v35.52Zm-5.66-3.84a7.25,7.25,0,0,0,2.86-.54,5.26,5.26,0,0,0,2-1.52,3.77,3.77,0,0,0,.76-2.4v-8.35a3.43,3.43,0,0,0-.76-2.23,5,5,0,0,0-2-1.47,7.44,7.44,0,0,0-2.86-.53,5.69,5.69,0,0,0-4.34,1.76,6.42,6.42,0,0,0-1.66,4.6v4.28a6.47,6.47,0,0,0,1.66,4.62A5.63,5.63,0,0,0,109.19,278.29Z"/><path class="cls-2" d="M135.49,282.71a11.44,11.44,0,0,1-6.14-1.6,10.59,10.59,0,0,1-4-4.5,17.46,17.46,0,0,1,0-13.7,10.78,10.78,0,0,1,3.93-4.5,11.13,11.13,0,0,1,6.1-1.62,10.89,10.89,0,0,1,6.17,1.65,10.14,10.14,0,0,1,3.72,4.45,15.3,15.3,0,0,1,1.25,6.25v1.95H129.4v.81a6.61,6.61,0,0,0,1.7,4.67,6.37,6.37,0,0,0,4.87,1.82,7.18,7.18,0,0,0,3.89-1,8.25,8.25,0,0,0,2.64-2.71l3.12,3a10.6,10.6,0,0,1-4.05,3.63A12.86,12.86,0,0,1,135.49,282.71Zm0-21.84a6.1,6.1,0,0,0-3.2.83,5.63,5.63,0,0,0-2.11,2.27,7.27,7.27,0,0,0-.74,3.34v.33H141v-.47a7.66,7.66,0,0,0-.67-3.32,5.16,5.16,0,0,0-1.92-2.2A5.48,5.48,0,0,0,135.45,260.87Z"/><path class="cls-2" d="M71.08,330.13H65.42l-2.93-9.07H50l-3,9.07H41.51l11.43-33.5H59.7Zm-9.94-13.72-3.31-9.94-1.54-4.85h-.23l-1.54,4.85-3.31,9.94Z"/><path class="cls-2" d="M79.19,330.13H74V305.37h5.23v4.12h.24a8.28,8.28,0,0,1,2.47-3.36,7.06,7.06,0,0,1,4.54-1.34,7.37,7.37,0,0,1,6,2.53q2.15,2.52,2.14,7.09v15.72H89.32V315.06a7.05,7.05,0,0,0-1.13-4.36,4.26,4.26,0,0,0-3.58-1.45,7.37,7.37,0,0,0-2.59.46,4.7,4.7,0,0,0-2,1.4,3.58,3.58,0,0,0-.79,2.38Z"/><path class="cls-2" d="M97.09,330.13l8.79-12.52-8.55-12.24h6L109,314h.14l5.71-8.62h5.62l-8.54,12.19,8.68,12.57h-6l-5.76-9h-.15l-6,9Z"/><path class="cls-2" d="M126,300.9a3.17,3.17,0,0,1-2.38-.77,2.71,2.71,0,0,1-.74-2v-.82a2.73,2.73,0,0,1,.74-2,3.21,3.21,0,0,1,2.38-.77,3.1,3.1,0,0,1,2.35.77,2.76,2.76,0,0,1,.72,2v.82a2.74,2.74,0,0,1-.72,2A3.06,3.06,0,0,1,126,300.9Zm-2.64,29.23V305.37h5.23v24.76Z"/><path class="cls-2" d="M144,330.71a11.45,11.45,0,0,1-6.15-1.6,10.56,10.56,0,0,1-4-4.5,17.4,17.4,0,0,1,0-13.7,10.74,10.74,0,0,1,3.94-4.5,11.07,11.07,0,0,1,6.09-1.62,10.87,10.87,0,0,1,6.17,1.65,10.14,10.14,0,0,1,3.72,4.45,15.3,15.3,0,0,1,1.25,6.25v1.95H137.94v.81a6.57,6.57,0,0,0,1.71,4.67,6.35,6.35,0,0,0,4.87,1.82,7.23,7.23,0,0,0,3.89-1,8.45,8.45,0,0,0,2.64-2.71l3.12,3a10.63,10.63,0,0,1-4.06,3.63A12.82,12.82,0,0,1,144,330.71Zm0-21.84a6,6,0,0,0-3.19.83,5.57,5.57,0,0,0-2.11,2.27,7.15,7.15,0,0,0-.75,3.34v.33h11.62v-.47a7.8,7.8,0,0,0-.67-3.32,5.16,5.16,0,0,0-1.92-2.2A5.54,5.54,0,0,0,144,308.87Z"/><path class="cls-2" d="M170.39,330.13h-4.56a5,5,0,0,1-5.52-5.42V309.64h-3.89v-4.27h2.11a2.33,2.33,0,0,0,1.83-.58,2.91,2.91,0,0,0,.48-1.87v-4.37h4.7v6.82h5.23v4.27h-5.23v16.22h4.85Z"/><path class="cls-2" d="M184.84,319.53l5-14.16h5L184.36,335.1a9.43,9.43,0,0,1-1.37,2.7,4.46,4.46,0,0,1-2,1.48,9.39,9.39,0,0,1-3.19.45h-3v-4.27H179l1.44-4.75-9.07-25.34h5.23l5,14.16,1.44,5.23h.24Z"/><path class="cls-2" d="M57.64,378.13H43.14v-4.41h4.52V349.05H43.14v-4.42h14.5v4.42H53.08v24.67h4.56Z"/><path class="cls-2" d="M70,378.71A12.09,12.09,0,0,1,59.85,374l3.36-3.08a11.42,11.42,0,0,0,3.09,2.6,8,8,0,0,0,4,1,5.56,5.56,0,0,0,3.43-.88,2.88,2.88,0,0,0,1.13-2.44,2.7,2.7,0,0,0-.79-2,4.81,4.81,0,0,0-2.76-1.09l-2.3-.29a16.32,16.32,0,0,1-4.37-1.23,6.62,6.62,0,0,1-2.86-2.37,6.82,6.82,0,0,1-1-3.79,6.71,6.71,0,0,1,2.57-5.63,10.59,10.59,0,0,1,6.69-2,14.4,14.4,0,0,1,3.94.48,10.13,10.13,0,0,1,3,1.37,12.65,12.65,0,0,1,2.4,2.13l-3.21,3.08a8.41,8.41,0,0,0-2.52-2A7.42,7.42,0,0,0,70,357a5.11,5.11,0,0,0-3.17.83,2.71,2.71,0,0,0-1,2.25,2.52,2.52,0,0,0,.93,2.13,6.82,6.82,0,0,0,2.91,1l2.3.28q4.13.63,6,2.41a6.29,6.29,0,0,1,1.89,4.8,7.23,7.23,0,0,1-1.22,4.17,8.16,8.16,0,0,1-3.43,2.79A12.59,12.59,0,0,1,70,378.71Z"/><path class="cls-2" d="M93.59,378.71a11.2,11.2,0,0,1-6.07-1.6,10.67,10.67,0,0,1-4-4.5,17.39,17.39,0,0,1,0-13.72,10.67,10.67,0,0,1,4-4.5,12.22,12.22,0,0,1,12.09,0,10.61,10.61,0,0,1,4,4.5,17.39,17.39,0,0,1,0,13.72,10.61,10.61,0,0,1-4,4.5A11.12,11.12,0,0,1,93.59,378.71Zm0-4.37a5.77,5.77,0,0,0,4.3-1.63,6.71,6.71,0,0,0,1.6-4.87v-4.18a6.67,6.67,0,0,0-1.6-4.86,5.74,5.74,0,0,0-4.3-1.64,5.84,5.84,0,0,0-4.3,1.64,6.56,6.56,0,0,0-1.65,4.86v4.18a6.6,6.6,0,0,0,1.65,4.87A5.87,5.87,0,0,0,93.59,374.34Z"/><path class="cls-2" d="M117.59,378.13h-3.31a4.81,4.81,0,0,1-5.38-5.23V342.61h5.23v31.25h3.46Z"/><path class="cls-2" d="M141.88,378.13H139a4.54,4.54,0,0,1-2.47-.64,4.06,4.06,0,0,1-1.56-1.85,6.87,6.87,0,0,1-.53-2.83v-.44l1.49,1.59H134.2a6.28,6.28,0,0,1-2.64,3.53,8.53,8.53,0,0,1-4.66,1.22,8.33,8.33,0,0,1-6-2,7.07,7.07,0,0,1-2.11-5.39,6.79,6.79,0,0,1,1.22-4.13,7.47,7.47,0,0,1,3.58-2.48,17.82,17.82,0,0,1,5.85-.83H134V361.8a4.7,4.7,0,0,0-1.24-3.48,5.29,5.29,0,0,0-3.89-1.26,6.27,6.27,0,0,0-3.58,1,9.13,9.13,0,0,0-2.37,2.39l-3.12-2.81a9.85,9.85,0,0,1,3.53-3.46,11.3,11.3,0,0,1,5.88-1.36c3.19,0,5.67.75,7.41,2.26a8,8,0,0,1,2.62,6.4v12.41h2.64ZM134,367.24h-4.41a7.73,7.73,0,0,0-4.08.85,2.74,2.74,0,0,0-1.34,2.47v.85a2.86,2.86,0,0,0,1.15,2.46,5,5,0,0,0,3.07.86,8,8,0,0,0,2.88-.48,4.64,4.64,0,0,0,2-1.37,3.16,3.16,0,0,0,.74-2.09Z"/><path class="cls-2" d="M156.42,378.13h-4.56a5,5,0,0,1-5.52-5.42V357.64h-3.89v-4.27h2.12a2.31,2.31,0,0,0,1.82-.58,2.91,2.91,0,0,0,.48-1.87v-4.37h4.7v6.82h5.24v4.27h-5.24v16.22h4.85Z"/><path class="cls-2" d="M163.19,348.9a3.17,3.17,0,0,1-2.38-.77,2.71,2.71,0,0,1-.74-2v-.82a2.73,2.73,0,0,1,.74-2,3.21,3.21,0,0,1,2.38-.77,3.1,3.1,0,0,1,2.35.77,2.76,2.76,0,0,1,.72,2v.82a2.74,2.74,0,0,1-.72,2A3.06,3.06,0,0,1,163.19,348.9Zm-2.64,29.23V353.37h5.23v24.76Z"/><path class="cls-2" d="M181.09,378.71a11.22,11.22,0,0,1-6.07-1.6,10.59,10.59,0,0,1-4-4.5,17.28,17.28,0,0,1,0-13.72,10.59,10.59,0,0,1,4-4.5,12.24,12.24,0,0,1,12.1,0,10.59,10.59,0,0,1,4,4.5,17.28,17.28,0,0,1,0,13.72,10.59,10.59,0,0,1-4,4.5A11.15,11.15,0,0,1,181.09,378.71Zm0-4.37a5.76,5.76,0,0,0,4.3-1.63,6.71,6.71,0,0,0,1.61-4.87v-4.18a6.67,6.67,0,0,0-1.61-4.86,5.73,5.73,0,0,0-4.3-1.64,5.8,5.8,0,0,0-4.29,1.64,6.52,6.52,0,0,0-1.66,4.86v4.18a6.56,6.56,0,0,0,1.66,4.87A5.83,5.83,0,0,0,181.09,374.34Z"/><path class="cls-2" d="M201.64,378.13H196.4V353.37h5.24v4.12h.24a8.19,8.19,0,0,1,2.47-3.36,7,7,0,0,1,4.53-1.34,7.37,7.37,0,0,1,6,2.53c1.42,1.68,2.14,4,2.14,7.09v15.72h-5.24V363.06a7.06,7.06,0,0,0-1.12-4.36,4.29,4.29,0,0,0-3.58-1.45,7.32,7.32,0,0,0-2.59.46,4.7,4.7,0,0,0-2,1.4,3.58,3.58,0,0,0-.79,2.38Z"/><path class="cls-2" d="M65.18,426.13V411.59H50v14.54H44.58v-33.5H50v14.16H65.18V392.63H70.6v33.5Z"/><path class="cls-2" d="M86.29,426.71a11.22,11.22,0,0,1-6.07-1.6,10.59,10.59,0,0,1-4-4.5,17.28,17.28,0,0,1,0-13.72,10.59,10.59,0,0,1,4-4.5,12.24,12.24,0,0,1,12.1,0,10.59,10.59,0,0,1,4,4.5,17.28,17.28,0,0,1,0,13.72,10.59,10.59,0,0,1-4,4.5A11.13,11.13,0,0,1,86.29,426.71Zm0-4.37a5.74,5.74,0,0,0,4.3-1.63,6.71,6.71,0,0,0,1.61-4.87v-4.18a6.67,6.67,0,0,0-1.61-4.86,5.71,5.71,0,0,0-4.3-1.64A5.8,5.8,0,0,0,82,406.8a6.52,6.52,0,0,0-1.66,4.86v4.18A6.56,6.56,0,0,0,82,420.71,5.83,5.83,0,0,0,86.29,422.34Z"/><path class="cls-2" d="M101.61,435.73V401.37h5.23v4.12h.24a6.54,6.54,0,0,1,2.64-3.48,7.84,7.84,0,0,1,4.37-1.22,9.12,9.12,0,0,1,5.37,1.55,9.78,9.78,0,0,1,3.39,4.43,21.35,21.35,0,0,1,0,13.94,9.74,9.74,0,0,1-3.39,4.45,9.12,9.12,0,0,1-5.37,1.55,7.45,7.45,0,0,1-4.32-1.25,7.21,7.21,0,0,1-2.69-3.45h-.24v13.72Zm10.89-13.44a5.63,5.63,0,0,0,4.37-1.78,6.54,6.54,0,0,0,1.63-4.62v-4.28a6.49,6.49,0,0,0-1.63-4.6,5.68,5.68,0,0,0-4.37-1.76,7.39,7.39,0,0,0-2.85.53,4.85,4.85,0,0,0-2,1.47,3.38,3.38,0,0,0-.77,2.23v8.35a3.71,3.71,0,0,0,.77,2.4,5.12,5.12,0,0,0,2,1.52A7.2,7.2,0,0,0,112.5,422.29Z"/><path class="cls-2" d="M137.94,426.71a11.42,11.42,0,0,1-6.14-1.6,10.52,10.52,0,0,1-4-4.5,17.34,17.34,0,0,1,0-13.7,10.72,10.72,0,0,1,3.93-4.5,11.13,11.13,0,0,1,6.1-1.62,10.89,10.89,0,0,1,6.17,1.65,10.27,10.27,0,0,1,3.72,4.45,15.3,15.3,0,0,1,1.24,6.25v1.95H131.85v.81a6.57,6.57,0,0,0,1.7,4.67,6.37,6.37,0,0,0,4.87,1.82,7.21,7.21,0,0,0,3.89-1,8.25,8.25,0,0,0,2.64-2.71l3.12,3a10.56,10.56,0,0,1-4.06,3.63A12.79,12.79,0,0,1,137.94,426.71Zm-.05-21.84a6.07,6.07,0,0,0-3.19.83,5.63,5.63,0,0,0-2.11,2.27,7.15,7.15,0,0,0-.74,3.34v.33h11.61v-.47a7.66,7.66,0,0,0-.67-3.32,5.16,5.16,0,0,0-1.92-2.2A5.49,5.49,0,0,0,137.89,404.87Z"/><line class="cls-3" x1="36.52" y1="125.59" x2="242.62" y2="125.59"/><line class="cls-3" x1="36.52" y1="173.56" x2="172.64" y2="173.56"/><line class="cls-3" x1="36.52" y1="221.53" x2="274.74" y2="221.53"/><line class="cls-3" x1="36.52" y1="269.5" x2="155.63" y2="269.5"/><line class="cls-3" x1="36.52" y1="317.47" x2="200" y2="317.47"/><line class="cls-3" x1="36.52" y1="365.44" x2="225.12" y2="365.44"/><path d="M267,559H271v6.06a2.35,2.35,0,0,1-.31,1.24,2.07,2.07,0,0,1-.85.81,2.72,2.72,0,0,1-1.28.28,2.3,2.3,0,0,1-1.6-.54,2.54,2.54,0,0,1-.77-1.42l1.05-.23a1.64,1.64,0,0,0,.43.85,1.22,1.22,0,0,0,.91.33,1.2,1.2,0,0,0,.93-.36,1.55,1.55,0,0,0,.34-1.11V560H267Z"/><path d="M275.05,567.41a2.75,2.75,0,0,1-1.48-.39,2.57,2.57,0,0,1-1-1.11,4.35,4.35,0,0,1,0-3.37A2.56,2.56,0,0,1,275,561a2.47,2.47,0,0,1,2.35,1.47,3.64,3.64,0,0,1,.32,1.53v.46H273.4v.25a1.8,1.8,0,0,0,.45,1.26,1.64,1.64,0,0,0,1.28.49,1.87,1.87,0,0,0,1-.26,1.74,1.74,0,0,0,.65-.74l.72.6a2.48,2.48,0,0,1-.95.95A2.92,2.92,0,0,1,275.05,567.41Zm0-5.49a1.62,1.62,0,0,0-.86.22,1.6,1.6,0,0,0-.57.61,1.86,1.86,0,0,0-.21.89v.09h3.15v-.12a2,2,0,0,0-.18-.89,1.45,1.45,0,0,0-.53-.59A1.52,1.52,0,0,0,275,561.92Z"/><path d="M280.07,567.27H279v-6.1h1.1v1.17h.06a1.77,1.77,0,0,1,.31-.57,1.65,1.65,0,0,1,.57-.43,1.93,1.93,0,0,1,.84-.17h.36v1.08h-.53a2.49,2.49,0,0,0-.87.13,1.16,1.16,0,0,0-.55.35.73.73,0,0,0-.19.52Z"/><path d="M285.51,567.41A2.75,2.75,0,0,1,284,567a2.57,2.57,0,0,1-1-1.11,4.35,4.35,0,0,1,0-3.37A2.56,2.56,0,0,1,285.5,561a2.47,2.47,0,0,1,2.35,1.47,3.64,3.64,0,0,1,.32,1.53v.46h-4.31v.25a1.8,1.8,0,0,0,.45,1.26,1.64,1.64,0,0,0,1.28.49,1.87,1.87,0,0,0,1-.26,1.8,1.8,0,0,0,.65-.74l.72.6a2.48,2.48,0,0,1-.95.95A2.92,2.92,0,0,1,285.51,567.41Zm0-5.49a1.62,1.62,0,0,0-.86.22,1.6,1.6,0,0,0-.57.61,1.86,1.86,0,0,0-.21.89v.09H287v-.12a1.89,1.89,0,0,0-.19-.89,1.36,1.36,0,0,0-.52-.59A1.52,1.52,0,0,0,285.5,561.92Z"/><path d="M290.53,567.27h-1.1v-6.1h1.1v1h.05a2,2,0,0,1,.56-.81,1.56,1.56,0,0,1,1.08-.34,2.1,2.1,0,0,1,1.11.3,1.67,1.67,0,0,1,.73.95h0a1.9,1.9,0,0,1,.63-.88A2,2,0,0,1,296,561a1.83,1.83,0,0,1,1.45.61,2.65,2.65,0,0,1,.52,1.73v3.9h-1.09v-3.73a1.91,1.91,0,0,0-.3-1.16,1.13,1.13,0,0,0-.95-.39,1.84,1.84,0,0,0-.66.12,1.13,1.13,0,0,0-.51.37,1,1,0,0,0-.19.61v4.18h-1.09v-3.73a1.87,1.87,0,0,0-.3-1.16,1.1,1.1,0,0,0-.93-.39,1.84,1.84,0,0,0-.66.12,1.16,1.16,0,0,0-.52.37,1,1,0,0,0-.19.61Z"/><path d="M302,565l1.38-3.83h1.05l-2.66,7.44a2.3,2.3,0,0,1-.31.61,1,1,0,0,1-.45.32,2.52,2.52,0,0,1-.75.1h-.59v-.93h1l.41-1.3-2.25-6.24h1.08l1.37,3.83.31,1.1h.06Z"/><path d="M307.94,567.27V559h2.82a3.49,3.49,0,0,1,1.82.46,3,3,0,0,1,1.19,1.37,6.51,6.51,0,0,1,0,4.6,3,3,0,0,1-1.19,1.37,3.59,3.59,0,0,1-1.82.45Zm1.14-1h1.68a2.29,2.29,0,0,0,1.16-.29,2,2,0,0,0,.77-.84,2.82,2.82,0,0,0,.28-1.33v-1.32a2.93,2.93,0,0,0-.28-1.35,1.94,1.94,0,0,0-.77-.83,2.29,2.29,0,0,0-1.16-.28h-1.68Z"/><path d="M316.27,567.41a.75.75,0,0,1-.58-.21.73.73,0,0,1-.19-.52v-.16a.69.69,0,0,1,.77-.75.68.68,0,0,1,.78.75v.16a.77.77,0,0,1-.18.52A.78.78,0,0,1,316.27,567.41Z"/><path d="M324.29,567.41a3.33,3.33,0,0,1-1.81-.48,3,3,0,0,1-1.17-1.41,6.09,6.09,0,0,1-.4-2.33,6.21,6.21,0,0,1,.4-2.34,3.21,3.21,0,0,1,1.17-1.47,3.25,3.25,0,0,1,1.81-.5,3,3,0,0,1,2.89,1.83l-.95.55a2.34,2.34,0,0,0-.71-1,2.16,2.16,0,0,0-2.82.35,3.1,3.1,0,0,0-.57,2v1.24a2.93,2.93,0,0,0,.57,1.9,2,2,0,0,0,1.59.69,2,2,0,0,0,1.27-.4,2.39,2.39,0,0,0,.75-1l.91.56a3.26,3.26,0,0,1-1.14,1.39A3.16,3.16,0,0,1,324.29,567.41Z"/><path d="M328.37,567.27v-8.74h1.1v3.65h0a2,2,0,0,1,.62-.83,1.75,1.75,0,0,1,1.1-.32,1.91,1.91,0,0,1,1.49.61,2.59,2.59,0,0,1,.53,1.73v3.9h-1.08v-3.73a1.8,1.8,0,0,0-.32-1.16,1.19,1.19,0,0,0-1-.39,1.92,1.92,0,0,0-.69.12,1.19,1.19,0,0,0-.53.36,1,1,0,0,0-.2.62v4.18Z"/><path d="M337.26,567.41a2.75,2.75,0,0,1-1.48-.39,2.57,2.57,0,0,1-1-1.11,4.35,4.35,0,0,1,0-3.37,2.56,2.56,0,0,1,2.44-1.51,2.47,2.47,0,0,1,2.35,1.47,3.64,3.64,0,0,1,.32,1.53v.46h-4.31v.25a1.8,1.8,0,0,0,.45,1.26,1.64,1.64,0,0,0,1.28.49,1.87,1.87,0,0,0,1-.26,1.74,1.74,0,0,0,.65-.74l.72.6a2.48,2.48,0,0,1-.95.95A2.92,2.92,0,0,1,337.26,567.41Zm0-5.49a1.62,1.62,0,0,0-.86.22,1.6,1.6,0,0,0-.57.61,1.86,1.86,0,0,0-.21.89v.09h3.15v-.12a2,2,0,0,0-.18-.89,1.45,1.45,0,0,0-.53-.59A1.52,1.52,0,0,0,337.25,561.92Z"/><path d="M342.28,567.27h-1.1v-6.1h1.1v1.17h.06a1.77,1.77,0,0,1,.31-.57,1.65,1.65,0,0,1,.57-.43,1.93,1.93,0,0,1,.84-.17h.36v1.08h-.53a2.49,2.49,0,0,0-.87.13,1.16,1.16,0,0,0-.55.35.73.73,0,0,0-.19.52Z"/><path d="M346.46,567.27h-1.1v-6.1h1.1v1.17h.06a1.8,1.8,0,0,1,.32-.57,1.53,1.53,0,0,1,.56-.43,2,2,0,0,1,.85-.17h.35v1.08h-.53a2.49,2.49,0,0,0-.87.13,1.22,1.22,0,0,0-.55.35.77.77,0,0,0-.19.52Z"/><path d="M351.94,565l1.38-3.83h1.05l-2.66,7.44a2.3,2.3,0,0,1-.31.61,1,1,0,0,1-.45.32,2.52,2.52,0,0,1-.75.1h-.59v-.93h1l.41-1.3-2.25-6.24h1.08l1.37,3.83.31,1.1h.06Z"/><path d="M48.6,462.05a3.79,3.79,0,0,1-2.1-.56,3.49,3.49,0,0,1-1.34-1.68,7.14,7.14,0,0,1-.47-2.75,7.34,7.34,0,0,1,.47-2.78A3.48,3.48,0,0,1,48.6,452a3.53,3.53,0,0,1,2,.56,3.65,3.65,0,0,1,1.3,1.56l-.91.55a2.68,2.68,0,0,0-.91-1.22,2.68,2.68,0,0,0-3.53.47,4,4,0,0,0-.72,2.49v1.4a3.73,3.73,0,0,0,.72,2.42,2.45,2.45,0,0,0,2,.88,2.53,2.53,0,0,0,1.59-.49,2.91,2.91,0,0,0,.93-1.29l.9.55a3.94,3.94,0,0,1-1.33,1.62A3.6,3.6,0,0,1,48.6,462.05Z"/><path d="M54.4,461.89H53.33v-7.23H54.4V456h.07a1.91,1.91,0,0,1,.39-.65,2.05,2.05,0,0,1,.68-.49,2.6,2.6,0,0,1,1-.18H57v1h-.64a3,3,0,0,0-1,.17,1.62,1.62,0,0,0-.68.45,1,1,0,0,0-.23.65Z"/><path d="M60.72,462.05a3,3,0,0,1-2.83-1.78,5.2,5.2,0,0,1,0-4A3,3,0,0,1,59,455a3.06,3.06,0,0,1,1.69-.47,2.86,2.86,0,0,1,2.73,1.7,4.32,4.32,0,0,1,.38,1.84v.51H58.61v.34a2.35,2.35,0,0,0,.57,1.61,2,2,0,0,0,1.6.64,2.15,2.15,0,0,0,1.22-.34,2.21,2.21,0,0,0,.8-1l.77.55a3,3,0,0,1-1.09,1.2A3.21,3.21,0,0,1,60.72,462.05Zm0-6.67a2,2,0,0,0-1.09.29,1.85,1.85,0,0,0-.74.8,2.46,2.46,0,0,0-.27,1.17v.1h4.06v-.15a2.64,2.64,0,0,0-.24-1.16,1.89,1.89,0,0,0-.68-.77A1.91,1.91,0,0,0,60.71,455.38Z"/><path d="M71.14,461.89h-.67a1.15,1.15,0,0,1-.69-.19,1,1,0,0,1-.38-.49,2.09,2.09,0,0,1-.12-.74v-.14l.4.38h-.46a1.92,1.92,0,0,1-.78,1,2.46,2.46,0,0,1-1.33.34,2.5,2.5,0,0,1-1.77-.58,2,2,0,0,1-.64-1.59,1.9,1.9,0,0,1,.33-1.14,2.08,2.08,0,0,1,1-.72,4.92,4.92,0,0,1,1.72-.25h1.47V457a1.61,1.61,0,0,0-.43-1.22,1.78,1.78,0,0,0-1.3-.42,2,2,0,0,0-1.1.3,2.3,2.3,0,0,0-.75.8l-.65-.59a2.67,2.67,0,0,1,.93-1,2.91,2.91,0,0,1,1.62-.42,3,3,0,0,1,2,.64,2.28,2.28,0,0,1,.73,1.79v4h.85Zm-1.92-3.32H67.7a2.78,2.78,0,0,0-1.43.29,1,1,0,0,0-.45.84v.3a1,1,0,0,0,.41.84,1.73,1.73,0,0,0,1.06.3,2.57,2.57,0,0,0,1-.17,1.78,1.78,0,0,0,.69-.48,1.07,1.07,0,0,0,.25-.7Z"/><path d="M75.26,461.89h-1.4a1,1,0,0,1-.84-.33,1.13,1.13,0,0,1-.3-.81v-5.16h-1.2v-.93h.7a.63.63,0,0,0,.47-.14.75.75,0,0,0,.13-.5v-1.36h1v2h1.58v.93H73.79V461h1.47Z"/><path d="M77.3,452.91a.65.65,0,0,1-.5-.17.61.61,0,0,1-.16-.43v-.17a.57.57,0,0,1,.66-.61.65.65,0,0,1,.5.16.64.64,0,0,1,.16.45v.17a.57.57,0,0,1-.16.43A.62.62,0,0,1,77.3,452.91Zm-.53,9v-7.23h1.06v7.23Z"/><path d="M80.9,461.89H79.83v-7.23H80.9v1.16h0a2.41,2.41,0,0,1,.75-1,2.14,2.14,0,0,1,1.31-.37,2.26,2.26,0,0,1,1.77.72,2.88,2.88,0,0,1,.65,2v4.65H84.37v-4.45a2.29,2.29,0,0,0-.42-1.5,1.55,1.55,0,0,0-1.25-.49,2.53,2.53,0,0,0-.87.15,1.49,1.49,0,0,0-.67.47,1.18,1.18,0,0,0-.26.79Z"/><path d="M93.41,462.75a1.79,1.79,0,0,1-.39,1.18,2.26,2.26,0,0,1-1.17.7,7.1,7.1,0,0,1-1.94.22,6.56,6.56,0,0,1-1.81-.2,2.08,2.08,0,0,1-1-.59,1.44,1.44,0,0,1-.32-.93,1.29,1.29,0,0,1,.31-.91,1.83,1.83,0,0,1,.87-.48v-.13a1.19,1.19,0,0,1-.49-.41,1.17,1.17,0,0,1,.18-1.44,2.25,2.25,0,0,1,.89-.44v-.05a2.36,2.36,0,0,1-1-.9,2.52,2.52,0,0,1-.35-1.35,2.6,2.6,0,0,1,.33-1.33,2.31,2.31,0,0,1,1-.88,3,3,0,0,1,1.42-.32,4.32,4.32,0,0,1,.74.07,2.55,2.55,0,0,1,.64.23v-.17a1.11,1.11,0,0,1,.19-.65.72.72,0,0,1,.61-.26h1.11v.92H91.76v.49a2.42,2.42,0,0,1,.6.82,2.82,2.82,0,0,1-.12,2.39,2.25,2.25,0,0,1-.94.89,3.1,3.1,0,0,1-1.43.31,2.17,2.17,0,0,1-.36,0l-.35-.05a2.75,2.75,0,0,0-.67.31.62.62,0,0,0-.3.55.45.45,0,0,0,.3.45,2.23,2.23,0,0,0,.81.12h1.57a3.1,3.1,0,0,1,1.93.49A1.66,1.66,0,0,1,93.41,462.75Zm-1,.07a.83.83,0,0,0-.34-.68,2,2,0,0,0-1.19-.25H88.49a1.15,1.15,0,0,0-.56.39,1,1,0,0,0-.17.58,1,1,0,0,0,.38.8,1.86,1.86,0,0,0,1.24.33h1a3.16,3.16,0,0,0,1.48-.29A.94.94,0,0,0,92.41,462.82Zm-2.54-4.13a1.75,1.75,0,0,0,1.16-.36,1.42,1.42,0,0,0,.42-1.12v-.4a1.36,1.36,0,0,0-.42-1.1,1.75,1.75,0,0,0-1.16-.36,1.78,1.78,0,0,0-1.17.36,1.36,1.36,0,0,0-.42,1.1v.4a1.42,1.42,0,0,0,.42,1.12A1.78,1.78,0,0,0,89.87,458.69Z"/><path d="M99.88,462.05a2.86,2.86,0,0,1-2.36-1,4.92,4.92,0,0,1,0-5.53,3.27,3.27,0,0,1,4.06-.55,2.83,2.83,0,0,1,1,1.2l-.89.45a1.73,1.73,0,0,0-.67-.87,2,2,0,0,0-1.11-.31,1.91,1.91,0,0,0-1.55.63,2.41,2.41,0,0,0-.52,1.62v1.19a2.45,2.45,0,0,0,.52,1.61,1.91,1.91,0,0,0,1.55.64,2.09,2.09,0,0,0,2-1.26l.77.51a2.85,2.85,0,0,1-1,1.22A3,3,0,0,1,99.88,462.05Z"/><path d="M106.52,462.05a3,3,0,0,1-1.69-.47,3.11,3.11,0,0,1-1.14-1.31,5.08,5.08,0,0,1,0-4,3,3,0,0,1,1.14-1.31,3.27,3.27,0,0,1,3.38,0,3,3,0,0,1,1.14,1.31,5,5,0,0,1,0,4,3.11,3.11,0,0,1-1.14,1.31A3,3,0,0,1,106.52,462.05Zm0-.93a2.07,2.07,0,0,0,1.52-.59,2.41,2.41,0,0,0,.58-1.76v-1A2.43,2.43,0,0,0,108,456a2.1,2.1,0,0,0-1.52-.58A2.07,2.07,0,0,0,105,456a2.35,2.35,0,0,0-.59,1.75v1a2.33,2.33,0,0,0,.59,1.76A2,2,0,0,0,106.52,461.12Z"/><path d="M112.29,461.89h-1.07v-7.23h1.07v1.16h0a2.73,2.73,0,0,1,.68-.93,1.82,1.82,0,0,1,1.28-.4,2.62,2.62,0,0,1,1.33.35,2,2,0,0,1,.88,1.12h0a2.21,2.21,0,0,1,.74-1,2.26,2.26,0,0,1,1.47-.45,2.16,2.16,0,0,1,1.73.72,3,3,0,0,1,.62,2v4.65h-1v-4.45a2.41,2.41,0,0,0-.4-1.49,1.44,1.44,0,0,0-1.23-.5,2.41,2.41,0,0,0-.85.15,1.45,1.45,0,0,0-.64.47,1.28,1.28,0,0,0-.24.79v5h-1.07v-4.45a2.49,2.49,0,0,0-.38-1.5,1.44,1.44,0,0,0-1.21-.49,2.4,2.4,0,0,0-.84.15,1.45,1.45,0,0,0-.66.47,1.22,1.22,0,0,0-.25.79Z"/><path d="M123,464.69v-10h1.07v1.16h0a2.07,2.07,0,0,1,.83-1,2.46,2.46,0,0,1,1.3-.33,2.72,2.72,0,0,1,1.57.46,2.83,2.83,0,0,1,1,1.3,5.82,5.82,0,0,1,0,4,2.86,2.86,0,0,1-1,1.31,2.65,2.65,0,0,1-1.57.46,2.29,2.29,0,0,1-1.28-.34,2.48,2.48,0,0,1-.85-1h0v4Zm3-3.59a2,2,0,0,0,1.53-.62,2.3,2.3,0,0,0,.56-1.61v-1.19a2.29,2.29,0,0,0-.56-1.62,2,2,0,0,0-1.53-.61,2.3,2.3,0,0,0-.95.19,1.71,1.71,0,0,0-.69.5,1.1,1.1,0,0,0-.26.74v2.72a1.22,1.22,0,0,0,.26.8,1.66,1.66,0,0,0,.69.52A2.47,2.47,0,0,0,126,461.1Z"/><path d="M136.57,461.89h-.67a1.1,1.1,0,0,1-.68-.19,1,1,0,0,1-.39-.49,2.09,2.09,0,0,1-.12-.74v-.14l.41.38h-.46a1.89,1.89,0,0,1-.79,1,2.41,2.41,0,0,1-1.33.34,2.53,2.53,0,0,1-1.77-.58,2,2,0,0,1-.64-1.59,1.9,1.9,0,0,1,.33-1.14,2.13,2.13,0,0,1,1-.72,5,5,0,0,1,1.73-.25h1.47V457a1.65,1.65,0,0,0-.43-1.22,1.79,1.79,0,0,0-1.31-.42,2,2,0,0,0-1.1.3,2.51,2.51,0,0,0-.75.8l-.64-.59a2.6,2.6,0,0,1,.93-1,2.87,2.87,0,0,1,1.62-.42,3,3,0,0,1,2,.64,2.24,2.24,0,0,1,.73,1.79v4h.85Zm-1.91-3.32h-1.53a2.74,2.74,0,0,0-1.42.29,1,1,0,0,0-.46.84v.3a1,1,0,0,0,.41.84,1.76,1.76,0,0,0,1.07.3,2.57,2.57,0,0,0,1-.17,1.67,1.67,0,0,0,.68-.48,1.08,1.08,0,0,0,.26-.7Z"/><path d="M139.91,462.05a3.45,3.45,0,0,1-1.68-.37,4,4,0,0,1-1.17-1l.76-.61a3.44,3.44,0,0,0,1,.82,2.49,2.49,0,0,0,1.21.28,1.82,1.82,0,0,0,1.14-.31,1,1,0,0,0,.41-.89,1.07,1.07,0,0,0-.29-.76,1.67,1.67,0,0,0-1-.42l-.58-.09a4.26,4.26,0,0,1-1.18-.33,1.73,1.73,0,0,1-1.11-1.74,1.82,1.82,0,0,1,.73-1.59,3.08,3.08,0,0,1,1.82-.52,3.64,3.64,0,0,1,1,.14,3.06,3.06,0,0,1,.81.4,2.88,2.88,0,0,1,.65.61l-.7.65a2.18,2.18,0,0,0-1.89-.9,1.63,1.63,0,0,0-1.07.31,1,1,0,0,0-.37.84.91.91,0,0,0,.36.8,2.73,2.73,0,0,0,1,.37l.56.08a3,3,0,0,1,1.7.69,1.82,1.82,0,0,1,.5,1.34,2.18,2.18,0,0,1-.32,1.19,2.07,2.07,0,0,1-.92.77A3.33,3.33,0,0,1,139.91,462.05Z"/><path d="M146.28,462.05a3.45,3.45,0,0,1-1.68-.37,4,4,0,0,1-1.17-1l.76-.61a3.44,3.44,0,0,0,.95.82,2.49,2.49,0,0,0,1.21.28,1.82,1.82,0,0,0,1.14-.31,1,1,0,0,0,.41-.89,1.07,1.07,0,0,0-.29-.76,1.67,1.67,0,0,0-1-.42l-.58-.09a4.26,4.26,0,0,1-1.18-.33,1.73,1.73,0,0,1-1.11-1.74,1.82,1.82,0,0,1,.73-1.59,3.08,3.08,0,0,1,1.82-.52,3.64,3.64,0,0,1,1,.14,3.06,3.06,0,0,1,.81.4,2.88,2.88,0,0,1,.65.61l-.7.65a2.18,2.18,0,0,0-1.89-.9,1.63,1.63,0,0,0-1.07.31,1,1,0,0,0-.37.84.91.91,0,0,0,.36.8,2.73,2.73,0,0,0,1,.37l.56.08a3,3,0,0,1,1.7.69,1.82,1.82,0,0,1,.5,1.34,2.18,2.18,0,0,1-.32,1.19,2.07,2.07,0,0,1-.92.77A3.33,3.33,0,0,1,146.28,462.05Z"/><path d="M151,452.91a.65.65,0,0,1-.5-.17.61.61,0,0,1-.16-.43v-.17a.66.66,0,1,1,1.32,0v.17a.61.61,0,0,1-.15.43A.64.64,0,0,1,151,452.91Zm-.53,9v-7.23h1.06v7.23Z"/><path d="M156.26,462.05a3,3,0,0,1-1.69-.47,3.11,3.11,0,0,1-1.14-1.31,5.08,5.08,0,0,1,0-4,3,3,0,0,1,1.14-1.31,3.27,3.27,0,0,1,3.38,0,3,3,0,0,1,1.14,1.31,5,5,0,0,1,0,4,3.11,3.11,0,0,1-1.14,1.31A3,3,0,0,1,156.26,462.05Zm0-.93a2.07,2.07,0,0,0,1.52-.59,2.41,2.41,0,0,0,.58-1.76v-1a2.43,2.43,0,0,0-.58-1.75,2.1,2.1,0,0,0-1.52-.58,2.07,2.07,0,0,0-1.51.58,2.35,2.35,0,0,0-.59,1.75v1a2.33,2.33,0,0,0,.59,1.76A2,2,0,0,0,156.26,461.12Z"/><path d="M162,461.89H161v-7.23H162v1.16h.05a2.41,2.41,0,0,1,.75-1,2.14,2.14,0,0,1,1.31-.37,2.26,2.26,0,0,1,1.77.72,2.93,2.93,0,0,1,.65,2v4.65H165.5v-4.45a2.29,2.29,0,0,0-.42-1.5,1.55,1.55,0,0,0-1.25-.49,2.49,2.49,0,0,0-.87.15,1.57,1.57,0,0,0-.68.47,1.22,1.22,0,0,0-.25.79Z"/><path d="M174.35,461.89h-.68a1.12,1.12,0,0,1-.68-.19,1,1,0,0,1-.39-.49,2.09,2.09,0,0,1-.12-.74v-.14l.41.38h-.46a1.89,1.89,0,0,1-.79,1,2.41,2.41,0,0,1-1.33.34,2.53,2.53,0,0,1-1.77-.58,2,2,0,0,1-.63-1.59,2,2,0,0,1,.32-1.14,2.11,2.11,0,0,1,1-.72,4.89,4.89,0,0,1,1.72-.25h1.47V457a1.61,1.61,0,0,0-.43-1.22,1.79,1.79,0,0,0-1.31-.42,2,2,0,0,0-1.1.3,2.51,2.51,0,0,0-.75.8l-.64-.59a2.67,2.67,0,0,1,.93-1,2.89,2.89,0,0,1,1.62-.42,3,3,0,0,1,2,.64,2.24,2.24,0,0,1,.73,1.79v4h.86Zm-1.92-3.32H170.9a2.74,2.74,0,0,0-1.42.29,1,1,0,0,0-.45.84v.3a1,1,0,0,0,.4.84,1.76,1.76,0,0,0,1.07.3,2.57,2.57,0,0,0,1-.17,1.78,1.78,0,0,0,.69-.48,1.13,1.13,0,0,0,.25-.7Z"/><path d="M178.46,461.89h-1.4a1.08,1.08,0,0,1-.84-.33,1.16,1.16,0,0,1-.29-.81v-5.16h-1.21v-.93h.7a.64.64,0,0,0,.48-.14.81.81,0,0,0,.13-.5v-1.36h1v2h1.58v.93H177V461h1.47Z"/><path d="M182.68,462.05a3,3,0,0,1-1.71-.47,3.09,3.09,0,0,1-1.13-1.31,5.2,5.2,0,0,1,0-4A3,3,0,0,1,181,455a3.06,3.06,0,0,1,1.69-.47,2.86,2.86,0,0,1,2.73,1.7,4.32,4.32,0,0,1,.38,1.84v.51h-5.21v.34a2.31,2.31,0,0,0,.58,1.61,2,2,0,0,0,1.59.64,2.15,2.15,0,0,0,1.22-.34,2.21,2.21,0,0,0,.8-1l.77.55a3,3,0,0,1-1.09,1.2A3.19,3.19,0,0,1,182.68,462.05Zm0-6.67a2,2,0,0,0-1.09.29,1.85,1.85,0,0,0-.74.8,2.46,2.46,0,0,0-.27,1.17v.1h4.06v-.15a2.64,2.64,0,0,0-.24-1.16,1.82,1.82,0,0,0-.68-.77A1.91,1.91,0,0,0,182.66,455.38Z"/><path d="M46.25,479.89l-2-7.23h1l.81,3.22.77,3.11h0l.87-3.11.93-3.22h1l1,3.22.88,3.11h0l.74-3.11.82-3.22h1l-1.93,7.23H50.9l-1-3.54-.63-2.22h0l-.63,2.22-1,3.54Z"/><path d="M58.06,480.05a3,3,0,0,1-1.68-.47,3.11,3.11,0,0,1-1.14-1.31,5.08,5.08,0,0,1,0-4A3,3,0,0,1,56.38,473a3.27,3.27,0,0,1,3.38,0,3.18,3.18,0,0,1,1.14,1.31,5.08,5.08,0,0,1,0,4,3.25,3.25,0,0,1-1.14,1.31A3,3,0,0,1,58.06,480.05Zm0-.93a2,2,0,0,0,1.52-.59,2.36,2.36,0,0,0,.58-1.76v-1a2.39,2.39,0,0,0-.58-1.75,2.07,2.07,0,0,0-1.52-.58,2.09,2.09,0,0,0-1.51.58,2.39,2.39,0,0,0-.59,1.75v1a2.37,2.37,0,0,0,.59,1.76A2.06,2.06,0,0,0,58.06,479.12Z"/><path d="M63.83,479.89H62.77v-7.23h1.06V474h.07a2.29,2.29,0,0,1,.39-.65,2.1,2.1,0,0,1,.69-.49,2.59,2.59,0,0,1,1-.18h.44v1h-.65a2.94,2.94,0,0,0-1,.17,1.62,1.62,0,0,0-.68.45,1,1,0,0,0-.24.65Z"/><path d="M67.46,479.89V469.53h1.06v6.61h.06l1.1-1.23,2.12-2.25h1.29l-2.71,2.86,3,4.37H72.06l-2.45-3.71-1.09,1.12v2.59Z"/><path d="M77.65,479.89v-6.3H76.46v-.93h1.19v-1.54A1.69,1.69,0,0,1,78,470a1.37,1.37,0,0,1,1.13-.44h1.12v.92H78.71v2.21h1.56v.93H78.71v6.3Z"/><path d="M84,480.05a3,3,0,0,1-1.68-.47,3.11,3.11,0,0,1-1.14-1.31,5.08,5.08,0,0,1,0-4A3,3,0,0,1,82.35,473a3.27,3.27,0,0,1,3.38,0,3.18,3.18,0,0,1,1.14,1.31,5.08,5.08,0,0,1,0,4,3.25,3.25,0,0,1-1.14,1.31A3,3,0,0,1,84,480.05Zm0-.93a2,2,0,0,0,1.52-.59,2.36,2.36,0,0,0,.58-1.76v-1a2.39,2.39,0,0,0-.58-1.75,2.07,2.07,0,0,0-1.52-.58,2.09,2.09,0,0,0-1.51.58,2.39,2.39,0,0,0-.59,1.75v1a2.37,2.37,0,0,0,.59,1.76A2.06,2.06,0,0,0,84,479.12Z"/><path d="M89.8,479.89H88.74v-7.23H89.8V474h.07a2.29,2.29,0,0,1,.39-.65,2.1,2.1,0,0,1,.69-.49,2.59,2.59,0,0,1,1-.18h.44v1h-.65a2.94,2.94,0,0,0-1,.17,1.56,1.56,0,0,0-.68.45,1,1,0,0,0-.24.65Z"/><path d="M96.31,479.89V469.53h1.07v4.29h.05a2.41,2.41,0,0,1,.75-1,2.14,2.14,0,0,1,1.31-.37,2.26,2.26,0,0,1,1.77.72,2.93,2.93,0,0,1,.65,2v4.65h-1.06v-4.45a2.29,2.29,0,0,0-.42-1.5,1.55,1.55,0,0,0-1.25-.49,2.49,2.49,0,0,0-.87.15,1.57,1.57,0,0,0-.68.47,1.22,1.22,0,0,0-.25.79v5Z"/><path d="M108.29,479.89v-1.17h-.05a2.45,2.45,0,0,1-.67.92,2,2,0,0,1-1.38.41,2.31,2.31,0,0,1-1.77-.72,2.91,2.91,0,0,1-.66-2v-4.63h1.06v4.45a2.26,2.26,0,0,0,.43,1.49,1.55,1.55,0,0,0,1.27.5,2.41,2.41,0,0,0,.85-.15,1.6,1.6,0,0,0,.67-.47,1.24,1.24,0,0,0,.25-.81v-5h1.07v7.23Z"/><path d="M112.41,479.89h-1.06v-7.23h1.06v1.16h.06a2.49,2.49,0,0,1,.68-.93,1.82,1.82,0,0,1,1.28-.4,2.67,2.67,0,0,1,1.33.35,2,2,0,0,1,.88,1.12h0a2.14,2.14,0,0,1,.74-1,2.23,2.23,0,0,1,1.47-.45,2.17,2.17,0,0,1,1.73.72,3,3,0,0,1,.62,2v4.65h-1v-4.45a2.41,2.41,0,0,0-.39-1.49,1.44,1.44,0,0,0-1.23-.5,2.41,2.41,0,0,0-.85.15,1.39,1.39,0,0,0-.64.47,1.22,1.22,0,0,0-.25.79v5h-1.06v-4.45a2.42,2.42,0,0,0-.39-1.5,1.44,1.44,0,0,0-1.21-.49,2.4,2.4,0,0,0-.84.15,1.51,1.51,0,0,0-.66.47,1.22,1.22,0,0,0-.25.79Z"/><path d="M129,479.89h-.67a1.1,1.1,0,0,1-.68-.19,1,1,0,0,1-.39-.49,2.09,2.09,0,0,1-.12-.74v-.14l.41.38h-.46a1.89,1.89,0,0,1-.79,1,2.41,2.41,0,0,1-1.33.34,2.53,2.53,0,0,1-1.77-.58,2,2,0,0,1-.64-1.59,1.9,1.9,0,0,1,.33-1.14,2.13,2.13,0,0,1,1-.72,5,5,0,0,1,1.73-.25h1.47V475a1.65,1.65,0,0,0-.43-1.22,1.79,1.79,0,0,0-1.31-.42,2,2,0,0,0-1.1.3,2.51,2.51,0,0,0-.75.8l-.64-.59a2.6,2.6,0,0,1,.93-1,2.87,2.87,0,0,1,1.62-.42,3,3,0,0,1,2,.64,2.24,2.24,0,0,1,.73,1.79v4H129Zm-1.91-3.32h-1.53a2.74,2.74,0,0,0-1.42.29,1,1,0,0,0-.46.84v.3a1,1,0,0,0,.41.84,1.76,1.76,0,0,0,1.07.3,2.57,2.57,0,0,0,1-.17,1.67,1.67,0,0,0,.68-.48,1.08,1.08,0,0,0,.26-.7Z"/><path d="M131.25,479.89h-1.06v-7.23h1.06v1.16h.06a2.41,2.41,0,0,1,.75-1,2.14,2.14,0,0,1,1.31-.37,2.27,2.27,0,0,1,1.77.72,2.93,2.93,0,0,1,.65,2v4.65h-1.06v-4.45a2.29,2.29,0,0,0-.42-1.5,1.55,1.55,0,0,0-1.25-.49,2.49,2.49,0,0,0-.87.15,1.57,1.57,0,0,0-.68.47,1.23,1.23,0,0,0-.26.79Z"/><path d="M139.86,480.05a3.41,3.41,0,0,1-1.67-.37,4,4,0,0,1-1.17-1l.76-.61a3.3,3.3,0,0,0,.95.82,2.47,2.47,0,0,0,1.2.28,1.83,1.83,0,0,0,1.15-.31,1.16,1.16,0,0,0,.12-1.65,1.67,1.67,0,0,0-1-.42l-.58-.09a4.17,4.17,0,0,1-1.18-.33,1.91,1.91,0,0,1-.82-.65A2.14,2.14,0,0,1,138,473a3.13,3.13,0,0,1,1.82-.52,3.71,3.71,0,0,1,1,.14,3.06,3.06,0,0,1,.81.4,3.11,3.11,0,0,1,.65.61l-.7.65a2.45,2.45,0,0,0-.71-.63,2.32,2.32,0,0,0-1.18-.27,1.61,1.61,0,0,0-1.07.31,1,1,0,0,0-.37.84.91.91,0,0,0,.36.8,2.61,2.61,0,0,0,1.05.37l.56.08a3,3,0,0,1,1.7.69,1.82,1.82,0,0,1,.5,1.34,2.18,2.18,0,0,1-.32,1.19,2.12,2.12,0,0,1-.92.77A3.38,3.38,0,0,1,139.86,480.05Z"/></svg>