<svg id="Layer_1" data-name="Layer 1" xmlns="http://www.w3.org/2000/svg" viewBox="0 0 390 602.55"><defs><style>.cls-1{fill:#f3f4f3;}.cls-2{fill:#231f20;}.cls-3{fill:none;stroke:#ff0048;stroke-miterlimit:10;stroke-width:6px;}</style></defs><title>Artboard 1</title><rect class="cls-1" width="390" height="602.55"/><path class="cls-2" d="M44.7,87.45V52.55H57.1A15.51,15.51,0,0,1,65,54.47a12.57,12.57,0,0,1,5.15,5.8A23.13,23.13,0,0,1,71.9,70a23,23,0,0,1-1.8,9.72A12.47,12.47,0,0,1,65,85.52a15.41,15.41,0,0,1-7.85,1.93Zm5.85-5.15H57.1a9,9,0,0,0,4.53-1.1,7.56,7.56,0,0,0,3-3.2,11.28,11.28,0,0,0,1.07-5.2V67.2A11.47,11.47,0,0,0,64.63,62a7.45,7.45,0,0,0-3-3.2A9.2,9.2,0,0,0,57.1,57.7H50.55Z"/><path class="cls-2" d="M86.55,88.05a12.08,12.08,0,0,1-6.42-1.66A10.84,10.84,0,0,1,76,81.7a16.49,16.49,0,0,1-1.45-7.15,16.64,16.64,0,0,1,1.43-7.15A10.8,10.8,0,0,1,80,62.71a11.81,11.81,0,0,1,6.37-1.66,11.58,11.58,0,0,1,6.5,1.71,10.5,10.5,0,0,1,3.9,4.65,15.79,15.79,0,0,1,1.3,6.5v2H80.35v.84a6.78,6.78,0,0,0,1.73,4.78,6.48,6.48,0,0,0,5,1.88,7.36,7.36,0,0,0,4-1,9.34,9.34,0,0,0,2.77-2.76l3.25,3.28a10.84,10.84,0,0,1-4.22,3.7A13.58,13.58,0,0,1,86.55,88.05Zm0-22.65a6.06,6.06,0,0,0-3.22.84,5.84,5.84,0,0,0-2.15,2.31,7.19,7.19,0,0,0-.78,3.4v.35h11.8v-.49a7.76,7.76,0,0,0-.67-3.35,5.31,5.31,0,0,0-1.93-2.25A5.48,5.48,0,0,0,86.5,65.4Z"/><path class="cls-2" d="M110.05,88.05a13.31,13.31,0,0,1-6.17-1.3,14.23,14.23,0,0,1-4.43-3.6l3.6-3.3a11.71,11.71,0,0,0,3.23,2.67,8.31,8.31,0,0,0,4.07,1,5.86,5.86,0,0,0,3.53-.86A2.9,2.9,0,0,0,115,80.2a2.76,2.76,0,0,0-.8-2,4.6,4.6,0,0,0-2.8-1.06l-2.4-.35a15.28,15.28,0,0,1-4.6-1.27,6.91,6.91,0,0,1-3-2.51,7.1,7.1,0,0,1-1-3.92,7,7,0,0,1,2.7-5.91,11.14,11.14,0,0,1,7-2.09,16.25,16.25,0,0,1,4.15.47,10.75,10.75,0,0,1,3.13,1.4,12.92,12.92,0,0,1,2.52,2.23l-3.4,3.35a9.63,9.63,0,0,0-2.67-2.08,7.66,7.66,0,0,0-3.68-.87,5.18,5.18,0,0,0-3.25.84,2.73,2.73,0,0,0-1.05,2.26,2.52,2.52,0,0,0,.93,2.14,6.7,6.7,0,0,0,2.92,1.06l2.5.35q4.3.6,6.28,2.49a6.58,6.58,0,0,1,2,5,7.64,7.64,0,0,1-1.27,4.38,8.42,8.42,0,0,1-3.6,2.93A13.51,13.51,0,0,1,110.05,88.05Z"/><path class="cls-2" d="M127.1,57.15a3.44,3.44,0,0,1-2.55-.83,2.87,2.87,0,0,1-.8-2.07v-.9a2.84,2.84,0,0,1,.8-2.1,4.46,4.46,0,0,1,5.1,0,2.8,2.8,0,0,1,.8,2.1v.9a2.83,2.83,0,0,1-.8,2.07A3.41,3.41,0,0,1,127.1,57.15Zm-2.85,30.3V61.65h5.65v25.8Z"/><path class="cls-2" d="M158.35,89.77A7.4,7.4,0,0,1,157,94.34a8.37,8.37,0,0,1-4.3,2.78,26,26,0,0,1-7.68.93,25.26,25.26,0,0,1-6.87-.76,7.48,7.48,0,0,1-3.8-2.18,5.09,5.09,0,0,1-1.18-3.39,4.72,4.72,0,0,1,1.2-3.42,6,6,0,0,1,3.3-1.64V86.1a4.26,4.26,0,0,1-2.27-1.48,4.11,4.11,0,0,1-.78-2.52,3.6,3.6,0,0,1,1.38-3,8.35,8.35,0,0,1,3.27-1.51v-.2a8.07,8.07,0,0,1-3.52-3,8.33,8.33,0,0,1-1.23-4.55,8.46,8.46,0,0,1,1.23-4.58,8,8,0,0,1,3.57-3.06A13.46,13.46,0,0,1,145,61.05a17.78,17.78,0,0,1,2.48.17,10.64,10.64,0,0,1,2.22.58v-.73a4.36,4.36,0,0,1,.85-2.88,3.26,3.26,0,0,1,2.6-1h4v4.45h-5.35v1.2a7.3,7.3,0,0,1,2.78,2.93,8.58,8.58,0,0,1,.92,4,8.46,8.46,0,0,1-1.22,4.53,8.08,8.08,0,0,1-3.55,3.05A13.56,13.56,0,0,1,145,78.45a16,16,0,0,1-1.85-.1,12.18,12.18,0,0,1-1.65-.3,5.92,5.92,0,0,0-1.62.94,1.89,1.89,0,0,0-.73,1.56A1.5,1.5,0,0,0,140,82a6.48,6.48,0,0,0,2.67.44h6.5q4.8,0,7,1.92A6.82,6.82,0,0,1,158.35,89.77Zm-5.3.65a2.55,2.55,0,0,0-1.05-2.2,6.42,6.42,0,0,0-3.65-.77h-8.8a3.21,3.21,0,0,0-1.3,1.28,3.78,3.78,0,0,0-.4,1.74A3.1,3.1,0,0,0,139.1,93a7.19,7.19,0,0,0,4.3,1h3.35a9.72,9.72,0,0,0,4.75-.9A2.89,2.89,0,0,0,153.05,90.42Zm-8.1-16a5.74,5.74,0,0,0,3.7-1,3.78,3.78,0,0,0,1.3-3.14v-1a3.84,3.84,0,0,0-1.3-3.19,7,7,0,0,0-7.35,0,3.87,3.87,0,0,0-1.3,3.19v1a3.81,3.81,0,0,0,1.3,3.14A5.69,5.69,0,0,0,145,74.45Z"/><path class="cls-2" d="M165.75,87.45H160.1V61.65h5.65V66H166a8.59,8.59,0,0,1,2.58-3.5,7.29,7.29,0,0,1,4.72-1.4,7.73,7.73,0,0,1,6.23,2.63c1.48,1.75,2.22,4.22,2.22,7.39V87.45H176.1V71.75A7.18,7.18,0,0,0,175,67.29a4.32,4.32,0,0,0-3.65-1.49,7.74,7.74,0,0,0-2.67.47,4.76,4.76,0,0,0-2.08,1.44,3.72,3.72,0,0,0-.8,2.45Z"/><path class="cls-2" d="M189.8,57.15a3.44,3.44,0,0,1-2.55-.83,2.87,2.87,0,0,1-.8-2.07v-.9a2.84,2.84,0,0,1,.8-2.1,4.46,4.46,0,0,1,5.1,0,2.8,2.8,0,0,1,.8,2.1v.9a2.83,2.83,0,0,1-.8,2.07A3.41,3.41,0,0,1,189.8,57.15ZM187,87.45V61.65h5.65v25.8Z"/><path class="cls-2" d="M203.7,87.45h-5.65V61.65h5.65V66H204a8.59,8.59,0,0,1,2.58-3.5,7.29,7.29,0,0,1,4.72-1.4,7.73,7.73,0,0,1,6.23,2.63c1.48,1.75,2.22,4.22,2.22,7.39V87.45h-5.65V71.75a7.18,7.18,0,0,0-1.15-4.46,4.33,4.33,0,0,0-3.65-1.49,7.74,7.74,0,0,0-2.67.47,4.76,4.76,0,0,0-2.08,1.44,3.72,3.72,0,0,0-.8,2.45Z"/><path class="cls-2" d="M247.9,89.77a7.47,7.47,0,0,1-1.37,4.57,8.37,8.37,0,0,1-4.3,2.78,26,26,0,0,1-7.68.93,25.26,25.26,0,0,1-6.87-.76,7.48,7.48,0,0,1-3.8-2.18,5.09,5.09,0,0,1-1.18-3.39,4.72,4.72,0,0,1,1.2-3.42,6,6,0,0,1,3.3-1.64V86.1a4.22,4.22,0,0,1-2.27-1.48,4.11,4.11,0,0,1-.78-2.52,3.6,3.6,0,0,1,1.38-3,8.22,8.22,0,0,1,3.27-1.51v-.2a8.07,8.07,0,0,1-3.52-3,8.33,8.33,0,0,1-1.23-4.55,8.46,8.46,0,0,1,1.23-4.58,7.93,7.93,0,0,1,3.57-3.06,13.46,13.46,0,0,1,5.65-1.08,17.89,17.89,0,0,1,2.48.17,10.64,10.64,0,0,1,2.22.58v-.73a4.3,4.3,0,0,1,.85-2.88,3.24,3.24,0,0,1,2.6-1h4v4.45H241.3v1.2a7.37,7.37,0,0,1,2.78,2.93,8.7,8.7,0,0,1,.92,4,8.46,8.46,0,0,1-1.22,4.53,8.08,8.08,0,0,1-3.55,3.05,13.56,13.56,0,0,1-5.73,1.08,16,16,0,0,1-1.85-.1,12.18,12.18,0,0,1-1.65-.3,5.92,5.92,0,0,0-1.62.94,1.89,1.89,0,0,0-.73,1.56,1.5,1.5,0,0,0,.93,1.46,6.42,6.42,0,0,0,2.67.44h6.5q4.8,0,7,1.92A6.82,6.82,0,0,1,247.9,89.77Zm-5.3.65a2.55,2.55,0,0,0-1-2.2,6.45,6.45,0,0,0-3.65-.77h-8.8a3.21,3.21,0,0,0-1.3,1.28,3.66,3.66,0,0,0-.4,1.74A3.1,3.1,0,0,0,228.65,93c.83.65,2.27,1,4.3,1h3.35a9.74,9.74,0,0,0,4.75-.9A2.9,2.9,0,0,0,242.6,90.42Zm-8.1-16a5.76,5.76,0,0,0,3.7-1,3.78,3.78,0,0,0,1.3-3.14v-1a3.84,3.84,0,0,0-1.3-3.19,5.76,5.76,0,0,0-3.7-1,5.67,5.67,0,0,0-3.65,1,3.84,3.84,0,0,0-1.3,3.19v1a3.78,3.78,0,0,0,1.3,3.14A5.67,5.67,0,0,0,234.5,74.45Z"/><path class="cls-2" d="M72.5,137.45H66.4l-3-9.35H50.45l-3,9.35h-5.9l11.85-34.9h7.3ZM62,123.1l-3.3-10L57,107.9h-.25l-1.6,5.15-3.3,10Z"/><path class="cls-2" d="M91.45,137.45v-4.3h-.2a7.25,7.25,0,0,1-2.77,3.6,7.86,7.86,0,0,1-4.53,1.3,9.57,9.57,0,0,1-5.57-1.61,9.92,9.92,0,0,1-3.53-4.64,22.65,22.65,0,0,1,0-14.55,9.79,9.79,0,0,1,3.53-4.61A9.63,9.63,0,0,1,84,111.05a8.11,8.11,0,0,1,4.55,1.27A6.79,6.79,0,0,1,91.25,116h.2v-15.5H97.1v37ZM85.7,133.3a7.68,7.68,0,0,0,2.93-.54,4.86,4.86,0,0,0,2.07-1.56,4,4,0,0,0,.75-2.45v-8.6a3.64,3.64,0,0,0-.75-2.27,4.91,4.91,0,0,0-2.07-1.54,7.68,7.68,0,0,0-2.93-.54,5.88,5.88,0,0,0-4.45,1.78,6.61,6.61,0,0,0-1.7,4.75v4.44a6.64,6.64,0,0,0,1.7,4.73A5.85,5.85,0,0,0,85.7,133.3Z"/><path class="cls-2" d="M118.9,137.45v-4.3h-.2a7.25,7.25,0,0,1-2.77,3.6,7.86,7.86,0,0,1-4.53,1.3,9.57,9.57,0,0,1-5.57-1.61,9.92,9.92,0,0,1-3.53-4.64,22.65,22.65,0,0,1,0-14.55,9.79,9.79,0,0,1,3.53-4.61,9.63,9.63,0,0,1,5.57-1.59,8.11,8.11,0,0,1,4.55,1.27A6.79,6.79,0,0,1,118.7,116h.2v-15.5h5.65v37Zm-5.75-4.15a7.68,7.68,0,0,0,2.93-.54,4.86,4.86,0,0,0,2.07-1.56,4,4,0,0,0,.75-2.45v-8.6a3.64,3.64,0,0,0-.75-2.27,4.91,4.91,0,0,0-2.07-1.54,7.68,7.68,0,0,0-2.93-.54,5.88,5.88,0,0,0-4.45,1.78,6.61,6.61,0,0,0-1.7,4.75v4.44a6.64,6.64,0,0,0,1.7,4.73A5.85,5.85,0,0,0,113.15,133.3Z"/><path class="cls-2" d="M132.9,107.15a3.44,3.44,0,0,1-2.55-.83,2.87,2.87,0,0,1-.8-2.07v-.9a2.84,2.84,0,0,1,.8-2.1,4.46,4.46,0,0,1,5.1,0,2.8,2.8,0,0,1,.8,2.1v.9a2.83,2.83,0,0,1-.8,2.07A3.41,3.41,0,0,1,132.9,107.15Zm-2.85,30.3v-25.8h5.65v25.8Z"/><path class="cls-2" d="M151.25,138.05q-5.64,0-8.75-3.65t-3.1-9.85q0-6.21,3.1-9.85t8.75-3.65a11,11,0,0,1,6.43,1.75,9.74,9.74,0,0,1,3.62,4.65l-4.6,2.15a5.33,5.33,0,0,0-5.45-3.9,5.38,5.38,0,0,0-4.42,1.8,7.3,7.3,0,0,0-1.48,4.78v4.54a7.29,7.29,0,0,0,1.48,4.75,5.34,5.34,0,0,0,4.42,1.83,5.6,5.6,0,0,0,3.75-1.18,8.34,8.34,0,0,0,2.25-3l4.25,2.2a9.89,9.89,0,0,1-3.87,4.95A11.52,11.52,0,0,1,151.25,138.05Z"/><path class="cls-2" d="M176.5,137.45h-4.7a5.93,5.93,0,0,1-4.42-1.54,5.83,5.83,0,0,1-1.53-4.31V116.2h-4v-4.55H164a2.31,2.31,0,0,0,1.9-.63,3.08,3.08,0,0,0,.5-2V104.5h5.1v7.15h5.4v4.55h-5.4v16.65h5Z"/><path class="cls-2" d="M183.3,107.15a3.44,3.44,0,0,1-2.55-.83,2.87,2.87,0,0,1-.8-2.07v-.9a2.84,2.84,0,0,1,.8-2.1,4.46,4.46,0,0,1,5.1,0,2.8,2.8,0,0,1,.8,2.1v.9a2.83,2.83,0,0,1-.8,2.07A3.41,3.41,0,0,1,183.3,107.15Zm-2.85,30.3v-25.8h5.65v25.8Z"/><path class="cls-2" d="M201.75,138.05a11.7,11.7,0,0,1-6.32-1.66,11,11,0,0,1-4.15-4.69,18.06,18.06,0,0,1,0-14.32,11.09,11.09,0,0,1,4.15-4.67,12.88,12.88,0,0,1,12.65,0,11.23,11.23,0,0,1,4.15,4.67,18.17,18.17,0,0,1,0,14.32,11.16,11.16,0,0,1-4.15,4.69A11.74,11.74,0,0,1,201.75,138.05Zm0-4.65a5.82,5.82,0,0,0,4.38-1.68,6.86,6.86,0,0,0,1.62-5v-4.45a6.83,6.83,0,0,0-1.62-5,6.57,6.57,0,0,0-8.73,0,6.75,6.75,0,0,0-1.65,5v4.45a6.79,6.79,0,0,0,1.65,5A5.82,5.82,0,0,0,201.75,133.4Z"/><path class="cls-2" d="M223.05,137.45H217.4v-25.8h5.65V116h.25a8.59,8.59,0,0,1,2.58-3.5,7.29,7.29,0,0,1,4.72-1.4,7.73,7.73,0,0,1,6.23,2.63c1.48,1.75,2.22,4.22,2.22,7.39v16.38H233.4v-15.7a7.18,7.18,0,0,0-1.15-4.46,4.32,4.32,0,0,0-3.65-1.49,7.74,7.74,0,0,0-2.67.47,4.76,4.76,0,0,0-2.08,1.44,3.72,3.72,0,0,0-.8,2.45Z"/><path class="cls-2" d="M67.1,187.45v-5.3h-.2a6.62,6.62,0,0,1-2.92,4.2,11,11,0,0,1-6.43,1.7A13.42,13.42,0,0,1,50.18,186,14,14,0,0,1,45,179.9a23.14,23.14,0,0,1-1.88-9.85,22.87,22.87,0,0,1,1.93-9.88,14,14,0,0,1,5.37-6.12,15.09,15.09,0,0,1,8-2.1,13.81,13.81,0,0,1,13.1,7.85l-4.8,2.8a9.17,9.17,0,0,0-3-3.93,8.58,8.58,0,0,0-5.25-1.52,9.42,9.42,0,0,0-4.75,1.17,8.18,8.18,0,0,0-3.2,3.43,11.83,11.83,0,0,0-1.15,5.4v5.65a11.77,11.77,0,0,0,1.15,5.42,8.16,8.16,0,0,0,3.25,3.43,9.72,9.72,0,0,0,4.9,1.2,10.3,10.3,0,0,0,4-.73A6.64,6.64,0,0,0,65.5,180a5.67,5.67,0,0,0,1.1-3.55v-2.65H59.45V168.8H72.2v18.65Z"/><path class="cls-2" d="M83.05,187.45H77.4v-25.8h5.65v5.2h.25a8.27,8.27,0,0,1,1.28-2.53,6.7,6.7,0,0,1,2.3-1.92,7.48,7.48,0,0,1,3.52-.75h1.4v5.4H89.7a12.14,12.14,0,0,0-3.62.47,4.89,4.89,0,0,0-2.25,1.36,3.36,3.36,0,0,0-.78,2.28Z"/><path class="cls-2" d="M104.45,188.05A12.08,12.08,0,0,1,98,186.39a10.84,10.84,0,0,1-4.18-4.69,18.47,18.47,0,0,1,0-14.3,10.8,10.8,0,0,1,4.1-4.69,11.81,11.81,0,0,1,6.37-1.66,11.58,11.58,0,0,1,6.5,1.71,10.5,10.5,0,0,1,3.9,4.65,15.79,15.79,0,0,1,1.3,6.5v2H98.25v.84a6.78,6.78,0,0,0,1.73,4.78,6.48,6.48,0,0,0,5,1.88,7.36,7.36,0,0,0,4-1,9.34,9.34,0,0,0,2.77-2.76l3.25,3.28a10.84,10.84,0,0,1-4.22,3.7A13.58,13.58,0,0,1,104.45,188.05Zm0-22.65a6.06,6.06,0,0,0-3.22.84A5.84,5.84,0,0,0,99,168.55a7.19,7.19,0,0,0-.78,3.4v.35h11.8v-.49a7.76,7.76,0,0,0-.67-3.35,5.31,5.31,0,0,0-1.93-2.25A5.48,5.48,0,0,0,104.4,165.4Z"/><path class="cls-2" d="M130,188.05a12.08,12.08,0,0,1-6.42-1.66,10.84,10.84,0,0,1-4.18-4.69,18.47,18.47,0,0,1,0-14.3,10.8,10.8,0,0,1,4.1-4.69,11.81,11.81,0,0,1,6.37-1.66,11.58,11.58,0,0,1,6.5,1.71,10.5,10.5,0,0,1,3.9,4.65,15.79,15.79,0,0,1,1.3,6.5v2H123.75v.84a6.78,6.78,0,0,0,1.73,4.78,6.48,6.48,0,0,0,5,1.88,7.36,7.36,0,0,0,4-1,9.34,9.34,0,0,0,2.77-2.76l3.25,3.28a10.84,10.84,0,0,1-4.22,3.7A13.58,13.58,0,0,1,130,188.05Zm0-22.65a6.06,6.06,0,0,0-3.22.84,5.77,5.77,0,0,0-2.15,2.31,7.19,7.19,0,0,0-.78,3.4v.35h11.8v-.49a7.76,7.76,0,0,0-.67-3.35,5.31,5.31,0,0,0-1.93-2.25A5.48,5.48,0,0,0,129.9,165.4Z"/><path class="cls-2" d="M161.45,187.45v-4.3h-.2a7.25,7.25,0,0,1-2.77,3.6,7.88,7.88,0,0,1-4.53,1.3,9.57,9.57,0,0,1-5.57-1.61,9.92,9.92,0,0,1-3.53-4.64,22.65,22.65,0,0,1,0-14.55,9.79,9.79,0,0,1,3.53-4.61,9.63,9.63,0,0,1,5.57-1.59,8.11,8.11,0,0,1,4.55,1.27,6.79,6.79,0,0,1,2.75,3.63h.2v-15.5h5.65v37Zm-5.75-4.15a7.72,7.72,0,0,0,2.93-.54,4.86,4.86,0,0,0,2.07-1.56,4,4,0,0,0,.75-2.45v-8.6a3.64,3.64,0,0,0-.75-2.27,4.91,4.91,0,0,0-2.07-1.54,7.72,7.72,0,0,0-2.93-.54,5.88,5.88,0,0,0-4.45,1.78,6.61,6.61,0,0,0-1.7,4.75v4.44a6.64,6.64,0,0,0,1.7,4.73A5.85,5.85,0,0,0,155.7,183.3Z"/><path class="cls-2" d="M44.7,237.45v-34.9H57.1A15.51,15.51,0,0,1,65,204.47a12.57,12.57,0,0,1,5.15,5.8,27.17,27.17,0,0,1,0,19.45,12.47,12.47,0,0,1-5.15,5.8,15.41,15.41,0,0,1-7.85,1.93Zm5.85-5.15H57.1a9,9,0,0,0,4.53-1.1,7.56,7.56,0,0,0,3-3.2,11.28,11.28,0,0,0,1.07-5.2v-5.6A11.47,11.47,0,0,0,64.63,212a7.45,7.45,0,0,0-3-3.2,9.2,9.2,0,0,0-4.53-1.07H50.55Z"/><path class="cls-2" d="M79.1,207.15a3.44,3.44,0,0,1-2.55-.83,2.87,2.87,0,0,1-.8-2.07v-.9a2.84,2.84,0,0,1,.8-2.1,4.46,4.46,0,0,1,5.1,0,2.8,2.8,0,0,1,.8,2.1v.9a2.83,2.83,0,0,1-.8,2.07A3.41,3.41,0,0,1,79.1,207.15Zm-2.85,30.3v-25.8H81.9v25.8Z"/><path class="cls-2" d="M95.65,238.05a13.31,13.31,0,0,1-6.17-1.3,14.23,14.23,0,0,1-4.43-3.6l3.6-3.3a11.71,11.71,0,0,0,3.23,2.67,8.31,8.31,0,0,0,4.07,1,5.86,5.86,0,0,0,3.53-.86,2.9,2.9,0,0,0,1.12-2.44,2.76,2.76,0,0,0-.8-2A4.6,4.6,0,0,0,97,227.1l-2.4-.35a15.28,15.28,0,0,1-4.6-1.27A6.91,6.91,0,0,1,87,223a7.1,7.1,0,0,1-1-3.92,7,7,0,0,1,2.7-5.91,11.14,11.14,0,0,1,7-2.09,16.25,16.25,0,0,1,4.15.47,10.75,10.75,0,0,1,3.13,1.4,12.92,12.92,0,0,1,2.52,2.23l-3.4,3.35a9.63,9.63,0,0,0-2.67-2.08,7.66,7.66,0,0,0-3.68-.87,5.18,5.18,0,0,0-3.25.84,2.73,2.73,0,0,0-1,2.26,2.52,2.52,0,0,0,.93,2.14,6.7,6.7,0,0,0,2.92,1.06l2.5.35q4.31.6,6.28,2.49a6.58,6.58,0,0,1,2,5,7.64,7.64,0,0,1-1.27,4.38,8.42,8.42,0,0,1-3.6,2.93A13.51,13.51,0,0,1,95.65,238.05Z"/><path class="cls-2" d="M109.85,237.45v-37h5.65V216h.25a8.59,8.59,0,0,1,2.58-3.5,7.29,7.29,0,0,1,4.72-1.4,7.72,7.72,0,0,1,6.23,2.63c1.48,1.75,2.22,4.22,2.22,7.39v16.38h-5.65v-15.7a7.18,7.18,0,0,0-1.15-4.46,4.32,4.32,0,0,0-3.65-1.49,7.74,7.74,0,0,0-2.67.47,4.76,4.76,0,0,0-2.08,1.44,3.72,3.72,0,0,0-.8,2.45v17.29Z"/><path class="cls-2" d="M146.9,238.05a11.7,11.7,0,0,1-6.32-1.66,11,11,0,0,1-4.15-4.69,18.06,18.06,0,0,1,0-14.32,11.09,11.09,0,0,1,4.15-4.67,12.88,12.88,0,0,1,12.65,0,11.23,11.23,0,0,1,4.15,4.67,18.17,18.17,0,0,1,0,14.32,11.16,11.16,0,0,1-4.15,4.69A11.74,11.74,0,0,1,146.9,238.05Zm0-4.65a5.82,5.82,0,0,0,4.38-1.68,6.86,6.86,0,0,0,1.62-4.95v-4.45a6.83,6.83,0,0,0-1.62-5,6.57,6.57,0,0,0-8.73,0,6.75,6.75,0,0,0-1.65,5v4.45a6.79,6.79,0,0,0,1.65,4.95A5.82,5.82,0,0,0,146.9,233.4Z"/><path class="cls-2" d="M168.2,237.45h-5.65v-25.8h5.65V216h.25a8.59,8.59,0,0,1,2.58-3.5,7.29,7.29,0,0,1,4.72-1.4,7.73,7.73,0,0,1,6.23,2.63c1.48,1.75,2.22,4.22,2.22,7.39v16.38h-5.65v-15.7a7.18,7.18,0,0,0-1.15-4.46,4.32,4.32,0,0,0-3.65-1.49,7.74,7.74,0,0,0-2.67.47,4.76,4.76,0,0,0-2.08,1.44,3.72,3.72,0,0,0-.8,2.45Z"/><path class="cls-2" d="M199.7,238.05a12,12,0,0,1-6.42-1.66,10.84,10.84,0,0,1-4.18-4.69,18.47,18.47,0,0,1,0-14.3,10.73,10.73,0,0,1,4.1-4.69,11.79,11.79,0,0,1,6.37-1.66,11.58,11.58,0,0,1,6.5,1.71,10.56,10.56,0,0,1,3.9,4.65,15.79,15.79,0,0,1,1.3,6.5v2H193.5v.84a6.78,6.78,0,0,0,1.73,4.78,6.48,6.48,0,0,0,5,1.88,7.38,7.38,0,0,0,4-1,9.34,9.34,0,0,0,2.77-2.76l3.25,3.28a10.91,10.91,0,0,1-4.22,3.7A13.58,13.58,0,0,1,199.7,238.05Zm0-22.65a6,6,0,0,0-3.22.84,5.77,5.77,0,0,0-2.15,2.31,7.19,7.19,0,0,0-.78,3.4v.35h11.8v-.49a7.76,7.76,0,0,0-.67-3.35,5.31,5.31,0,0,0-1.93-2.25A5.48,5.48,0,0,0,199.65,215.4Z"/><path class="cls-2" d="M223.2,238.05a13.31,13.31,0,0,1-6.17-1.3,14.12,14.12,0,0,1-4.43-3.6l3.6-3.3a11.56,11.56,0,0,0,3.23,2.67,8.31,8.31,0,0,0,4.07,1,5.86,5.86,0,0,0,3.53-.86,2.9,2.9,0,0,0,1.12-2.44,2.8,2.8,0,0,0-.8-2,4.63,4.63,0,0,0-2.8-1.06l-2.4-.35a15.2,15.2,0,0,1-4.6-1.27,6.91,6.91,0,0,1-3-2.51,7.88,7.88,0,0,1,1.67-9.83,11.12,11.12,0,0,1,7-2.09,16.3,16.3,0,0,1,4.15.47,10.75,10.75,0,0,1,3.13,1.4,13.53,13.53,0,0,1,2.52,2.23l-3.4,3.35a9.63,9.63,0,0,0-2.67-2.08,7.69,7.69,0,0,0-3.68-.87,5.16,5.16,0,0,0-3.25.84,2.73,2.73,0,0,0-1.05,2.26,2.52,2.52,0,0,0,.93,2.14,6.65,6.65,0,0,0,2.92,1.06l2.5.35q4.31.6,6.28,2.49a6.62,6.62,0,0,1,2,5,7.64,7.64,0,0,1-1.27,4.38,8.42,8.42,0,0,1-3.6,2.93A13.54,13.54,0,0,1,223.2,238.05Z"/><path class="cls-2" d="M249.15,237.45h-4.7a5.93,5.93,0,0,1-4.42-1.54,5.83,5.83,0,0,1-1.53-4.31V216.2h-4v-4.55h2.15a2.33,2.33,0,0,0,1.9-.63,3.15,3.15,0,0,0,.5-2V204.5h5.1v7.15h5.4v4.55h-5.4v16.65h5Z"/><path class="cls-2" d="M264,226.11l5.1-14.46h5.35L263.6,242.53a9.42,9.42,0,0,1-1.45,2.86A5,5,0,0,1,260,247a9.73,9.73,0,0,1-3.4.5h-3.25v-4.6h4.45l1.45-4.8-9.4-26.4h5.6l5.05,14.46,1.55,5.59h.3Z"/><path class="cls-2" d="M50.55,287.45H44.7v-34.9H59.85a10.84,10.84,0,0,1,5.48,1.3,8.79,8.79,0,0,1,3.5,3.67,12,12,0,0,1,1.22,5.58,11.83,11.83,0,0,1-1.22,5.55,8.91,8.91,0,0,1-3.5,3.67,10.65,10.65,0,0,1-5.48,1.33h-9.3Zm0-29.8v10.9h8.9a5.46,5.46,0,0,0,2.4-.48,3.26,3.26,0,0,0,1.53-1.45,4.82,4.82,0,0,0,.52-2.32v-2.4a4.7,4.7,0,0,0-.52-2.33,3.51,3.51,0,0,0-1.53-1.42,5.32,5.32,0,0,0-2.4-.5Z"/><path class="cls-2" d="M78.7,287.45H73.05v-25.8H78.7v5.2H79a8.27,8.27,0,0,1,1.28-2.53,6.7,6.7,0,0,1,2.3-1.92,7.48,7.48,0,0,1,3.52-.75h1.4v5.4h-2.1a12.14,12.14,0,0,0-3.62.47,4.89,4.89,0,0,0-2.25,1.36,3.36,3.36,0,0,0-.78,2.28Z"/><path class="cls-2" d="M92.9,257.15a3.44,3.44,0,0,1-2.55-.83,2.87,2.87,0,0,1-.8-2.07v-.9a2.84,2.84,0,0,1,.8-2.1,4.46,4.46,0,0,1,5.1,0,2.8,2.8,0,0,1,.8,2.1v.9a2.83,2.83,0,0,1-.8,2.07A3.41,3.41,0,0,1,92.9,257.15Zm-2.85,30.3v-25.8H95.7v25.8Z"/><path class="cls-2" d="M117.45,287.45v-4.3h-.2a7.25,7.25,0,0,1-2.77,3.6,7.86,7.86,0,0,1-4.53,1.3,9.57,9.57,0,0,1-5.57-1.61,9.92,9.92,0,0,1-3.53-4.64,22.65,22.65,0,0,1,0-14.55,9.79,9.79,0,0,1,3.53-4.61,9.63,9.63,0,0,1,5.57-1.59,8.11,8.11,0,0,1,4.55,1.27,6.79,6.79,0,0,1,2.75,3.63h.2v-15.5h5.65v37Zm-5.75-4.15a7.68,7.68,0,0,0,2.93-.54,4.86,4.86,0,0,0,2.07-1.56,4,4,0,0,0,.75-2.45v-8.6a3.64,3.64,0,0,0-.75-2.27,4.91,4.91,0,0,0-2.07-1.54,7.68,7.68,0,0,0-2.93-.54,5.88,5.88,0,0,0-4.45,1.78,6.61,6.61,0,0,0-1.7,4.75v4.44a6.64,6.64,0,0,0,1.7,4.73A5.85,5.85,0,0,0,111.7,283.3Z"/><path class="cls-2" d="M138.9,288.05a12.08,12.08,0,0,1-6.42-1.66,10.84,10.84,0,0,1-4.18-4.69,18.47,18.47,0,0,1,0-14.3,10.8,10.8,0,0,1,4.1-4.69,11.81,11.81,0,0,1,6.37-1.66,11.58,11.58,0,0,1,6.5,1.71,10.5,10.5,0,0,1,3.9,4.65,15.79,15.79,0,0,1,1.3,6.5v2H132.7v.84a6.78,6.78,0,0,0,1.73,4.78,6.48,6.48,0,0,0,5,1.88,7.36,7.36,0,0,0,4-1,9.34,9.34,0,0,0,2.77-2.76l3.25,3.28a10.84,10.84,0,0,1-4.22,3.7A13.58,13.58,0,0,1,138.9,288.05Zm-.05-22.65a6.06,6.06,0,0,0-3.22.84,5.84,5.84,0,0,0-2.15,2.31,7.19,7.19,0,0,0-.78,3.4v.35h11.8v-.49a7.76,7.76,0,0,0-.67-3.35,5.31,5.31,0,0,0-1.93-2.25A5.48,5.48,0,0,0,138.85,265.4Z"/><path class="cls-2" d="M72.5,337.45H66.4l-3-9.35H50.45l-3,9.35h-5.9l11.85-34.9h7.3ZM62,323.1l-3.3-10.05L57,307.9h-.25l-1.6,5.15-3.3,10.05Z"/><path class="cls-2" d="M80.8,337.45H75.15v-25.8H80.8V316h.25a8.59,8.59,0,0,1,2.58-3.5,7.29,7.29,0,0,1,4.72-1.4,7.72,7.72,0,0,1,6.23,2.63c1.48,1.75,2.22,4.22,2.22,7.39v16.38H91.15v-15.7A7.18,7.18,0,0,0,90,317.29a4.32,4.32,0,0,0-3.65-1.49,7.74,7.74,0,0,0-2.67.47,4.76,4.76,0,0,0-2.08,1.44,3.72,3.72,0,0,0-.8,2.45Z"/><path class="cls-2" d="M99.15,337.45l9.1-13.05L99.4,311.65h6.45l5.75,8.88h.2l5.8-8.88h6.05l-8.9,12.7,9,13.1h-6.5l-5.9-9.28h-.15l-6.1,9.28Z"/><path class="cls-2" d="M129.25,307.15a3.44,3.44,0,0,1-2.55-.83,2.87,2.87,0,0,1-.8-2.07v-.9a2.84,2.84,0,0,1,.8-2.1,4.46,4.46,0,0,1,5.1,0,2.8,2.8,0,0,1,.8,2.1v.9a2.83,2.83,0,0,1-.8,2.07A3.41,3.41,0,0,1,129.25,307.15Zm-2.85,30.3v-25.8h5.65v25.8Z"/><path class="cls-2" d="M147.8,338.05a12.06,12.06,0,0,1-6.42-1.66,10.84,10.84,0,0,1-4.18-4.69,18.47,18.47,0,0,1,0-14.3,10.73,10.73,0,0,1,4.1-4.69,11.81,11.81,0,0,1,6.37-1.66,11.58,11.58,0,0,1,6.5,1.71,10.5,10.5,0,0,1,3.9,4.65,15.79,15.79,0,0,1,1.3,6.5v2H141.6v.84a6.78,6.78,0,0,0,1.73,4.78,6.48,6.48,0,0,0,5,1.88,7.38,7.38,0,0,0,4-1,9.34,9.34,0,0,0,2.77-2.76l3.25,3.28a10.91,10.91,0,0,1-4.22,3.7A13.58,13.58,0,0,1,147.8,338.05Zm-.05-22.65a6,6,0,0,0-3.22.84,5.77,5.77,0,0,0-2.15,2.31,7.19,7.19,0,0,0-.78,3.4v.35h11.8v-.49a7.76,7.76,0,0,0-.67-3.35,5.31,5.31,0,0,0-1.93-2.25A5.48,5.48,0,0,0,147.75,315.4Z"/><path class="cls-2" d="M175.1,337.45h-4.7a5.93,5.93,0,0,1-4.42-1.54,5.83,5.83,0,0,1-1.53-4.31V316.2h-4v-4.55h2.15a2.31,2.31,0,0,0,1.9-.63,3.15,3.15,0,0,0,.5-2V304.5h5.1v7.15h5.4v4.55h-5.4v16.65h5Z"/><path class="cls-2" d="M190,326.11l5.1-14.46h5.35l-10.85,30.88a9.42,9.42,0,0,1-1.45,2.86A4.9,4.9,0,0,1,186,347a9.73,9.73,0,0,1-3.4.5H179.3v-4.6h4.45l1.45-4.8-9.4-26.4h5.6l5,14.46L188,331.7h.3Z"/><path class="cls-2" d="M58.45,387.45H43.2V382.7h4.7V357.3H43.2v-4.75H58.45v4.75h-4.7v25.4h4.7Z"/><path class="cls-2" d="M71,388.05a13.31,13.31,0,0,1-6.17-1.3,14.23,14.23,0,0,1-4.43-3.6l3.6-3.3a11.71,11.71,0,0,0,3.23,2.67,8.31,8.31,0,0,0,4.07,1,5.86,5.86,0,0,0,3.53-.86A2.9,2.9,0,0,0,76,380.2a2.76,2.76,0,0,0-.8-2,4.6,4.6,0,0,0-2.8-1.06l-2.4-.35a15.28,15.28,0,0,1-4.6-1.27,6.91,6.91,0,0,1-3-2.51,7.1,7.1,0,0,1-1-3.92,7,7,0,0,1,2.7-5.91,11.14,11.14,0,0,1,7-2.09,16.25,16.25,0,0,1,4.15.47,10.75,10.75,0,0,1,3.13,1.4,12.92,12.92,0,0,1,2.52,2.23l-3.4,3.35a9.63,9.63,0,0,0-2.67-2.08,7.66,7.66,0,0,0-3.68-.87,5.18,5.18,0,0,0-3.25.84,2.73,2.73,0,0,0-1,2.26,2.52,2.52,0,0,0,.93,2.14,6.7,6.7,0,0,0,2.92,1.06l2.5.35q4.3.6,6.28,2.49a6.58,6.58,0,0,1,2,5,7.64,7.64,0,0,1-1.27,4.38,8.42,8.42,0,0,1-3.6,2.93A13.51,13.51,0,0,1,71,388.05Z"/><path class="cls-2" d="M95.4,388.05a11.7,11.7,0,0,1-6.32-1.66,11.1,11.1,0,0,1-4.15-4.69,18.06,18.06,0,0,1,0-14.32,11.16,11.16,0,0,1,4.15-4.67,12.88,12.88,0,0,1,12.65,0,11.16,11.16,0,0,1,4.15,4.67,18.17,18.17,0,0,1,0,14.32,11.1,11.1,0,0,1-4.15,4.69A11.72,11.72,0,0,1,95.4,388.05Zm0-4.65a5.8,5.8,0,0,0,4.38-1.68,6.86,6.86,0,0,0,1.62-5v-4.45a6.83,6.83,0,0,0-1.62-5,6.57,6.57,0,0,0-8.73,0,6.75,6.75,0,0,0-1.65,5v4.45a6.79,6.79,0,0,0,1.65,5A5.82,5.82,0,0,0,95.4,383.4Z"/><path class="cls-2" d="M120.25,387.45H116.8a5.12,5.12,0,0,1-5.75-5.6v-31.4h5.65v32.4h3.55Z"/><path class="cls-2" d="M145.35,387.45h-3.1a4.71,4.71,0,0,1-2.57-.68,4.32,4.32,0,0,1-1.65-1.92,6.9,6.9,0,0,1-.58-3v-.5l1.55,1.65h-1.75a6.22,6.22,0,0,1-2.72,3.72,9,9,0,0,1-4.88,1.28,8.68,8.68,0,0,1-6.2-2.09,7.39,7.39,0,0,1-2.2-5.61,7,7,0,0,1,1.3-4.3,8.07,8.07,0,0,1,3.75-2.61,18.15,18.15,0,0,1,6.1-.89H137v-2.07a4.93,4.93,0,0,0-1.25-3.6,5.39,5.39,0,0,0-4-1.28,6.43,6.43,0,0,0-3.7,1,8.53,8.53,0,0,0-2.4,2.46l-3.35-3a10.12,10.12,0,0,1,3.68-3.58,12.07,12.07,0,0,1,6.17-1.39q5.06,0,7.78,2.35a8.35,8.35,0,0,1,2.72,6.67v12.78h2.7ZM137,376.15h-4.45a7.93,7.93,0,0,0-4.15.86,2.84,2.84,0,0,0-1.35,2.55v.88a3,3,0,0,0,1.15,2.5,5.19,5.19,0,0,0,3.15.86,7.91,7.91,0,0,0,2.88-.49,4.83,4.83,0,0,0,2-1.39,3.18,3.18,0,0,0,.75-2.12Z"/><path class="cls-2" d="M160.4,387.45h-4.7a5.93,5.93,0,0,1-4.42-1.54,5.83,5.83,0,0,1-1.53-4.31V366.2h-4v-4.55h2.15a2.31,2.31,0,0,0,1.9-.63,3.08,3.08,0,0,0,.5-2V354.5h5.1v7.15h5.4v4.55h-5.4v16.65h5Z"/><path class="cls-2" d="M167.2,357.15a3.44,3.44,0,0,1-2.55-.83,2.87,2.87,0,0,1-.8-2.07v-.9a2.84,2.84,0,0,1,.8-2.1,4.46,4.46,0,0,1,5.1,0,2.8,2.8,0,0,1,.8,2.1v.9a2.83,2.83,0,0,1-.8,2.07A3.41,3.41,0,0,1,167.2,357.15Zm-2.85,30.3v-25.8H170v25.8Z"/><path class="cls-2" d="M185.65,388.05a11.7,11.7,0,0,1-6.32-1.66,11,11,0,0,1-4.15-4.69,18.06,18.06,0,0,1,0-14.32,11.09,11.09,0,0,1,4.15-4.67,12.88,12.88,0,0,1,12.65,0,11.23,11.23,0,0,1,4.15,4.67,18.17,18.17,0,0,1,0,14.32,11.16,11.16,0,0,1-4.15,4.69A11.74,11.74,0,0,1,185.65,388.05Zm0-4.65a5.82,5.82,0,0,0,4.38-1.68,6.86,6.86,0,0,0,1.62-5v-4.45a6.83,6.83,0,0,0-1.62-5,6.57,6.57,0,0,0-8.73,0,6.75,6.75,0,0,0-1.65,5v4.45a6.79,6.79,0,0,0,1.65,5A5.82,5.82,0,0,0,185.65,383.4Z"/><path class="cls-2" d="M207,387.45H201.3v-25.8H207V366h.25a8.59,8.59,0,0,1,2.58-3.5,7.29,7.29,0,0,1,4.72-1.4,7.73,7.73,0,0,1,6.23,2.63c1.48,1.75,2.22,4.22,2.22,7.39v16.38H217.3v-15.7a7.18,7.18,0,0,0-1.15-4.46,4.32,4.32,0,0,0-3.65-1.49,7.74,7.74,0,0,0-2.67.47,4.76,4.76,0,0,0-2.08,1.44,3.72,3.72,0,0,0-.8,2.45Z"/><path class="cls-2" d="M66.1,437.45v-15.1H50.55v15.1H44.7v-34.9h5.85v14.7H66.1v-14.7H72v34.9Z"/><path class="cls-2" d="M88,438.05a11.7,11.7,0,0,1-6.32-1.66,11.1,11.1,0,0,1-4.15-4.69,18.06,18.06,0,0,1,0-14.32,11.16,11.16,0,0,1,4.15-4.67,12.88,12.88,0,0,1,12.65,0,11.16,11.16,0,0,1,4.15,4.67,18.17,18.17,0,0,1,0,14.32,11.1,11.1,0,0,1-4.15,4.69A11.72,11.72,0,0,1,88,438.05Zm0-4.65a5.8,5.8,0,0,0,4.38-1.68,6.86,6.86,0,0,0,1.62-5v-4.45a6.83,6.83,0,0,0-1.62-5,6.57,6.57,0,0,0-8.73,0,6.75,6.75,0,0,0-1.65,5v4.45a6.79,6.79,0,0,0,1.65,5A5.82,5.82,0,0,0,88,433.4Z"/><path class="cls-2" d="M103.65,447.45v-35.8h5.65V416h.25a6.52,6.52,0,0,1,2.73-3.63,8.24,8.24,0,0,1,4.57-1.27,9.51,9.51,0,0,1,5.58,1.59,10.06,10.06,0,0,1,3.5,4.61,22.3,22.3,0,0,1,0,14.55,10.2,10.2,0,0,1-3.5,4.64,9.45,9.45,0,0,1-5.58,1.61,7.85,7.85,0,0,1-4.52-1.3,7.32,7.32,0,0,1-2.78-3.6h-.25v14.3ZM115.1,433.3a5.77,5.77,0,0,0,4.43-1.8,6.67,6.67,0,0,0,1.67-4.73v-4.44a6.64,6.64,0,0,0-1.67-4.75,5.79,5.79,0,0,0-4.43-1.78,7.67,7.67,0,0,0-2.92.54,5.14,5.14,0,0,0-2.1,1.54,3.55,3.55,0,0,0-.78,2.27v8.6a3.9,3.9,0,0,0,.78,2.45,5.09,5.09,0,0,0,2.1,1.56A7.67,7.67,0,0,0,115.1,433.3Z"/><path class="cls-2" d="M141.4,438.05a12.08,12.08,0,0,1-6.42-1.66,10.84,10.84,0,0,1-4.18-4.69,18.47,18.47,0,0,1,0-14.3,10.8,10.8,0,0,1,4.1-4.69,11.81,11.81,0,0,1,6.37-1.66,11.58,11.58,0,0,1,6.5,1.71,10.5,10.5,0,0,1,3.9,4.65,15.79,15.79,0,0,1,1.3,6.5v2H135.2v.84a6.78,6.78,0,0,0,1.73,4.78,6.48,6.48,0,0,0,5,1.88,7.36,7.36,0,0,0,4-1,9.34,9.34,0,0,0,2.77-2.76l3.25,3.28a10.84,10.84,0,0,1-4.22,3.7A13.58,13.58,0,0,1,141.4,438.05Zm-.05-22.65a6.06,6.06,0,0,0-3.22.84,5.84,5.84,0,0,0-2.15,2.31,7.19,7.19,0,0,0-.78,3.4v.35H147v-.49a7.76,7.76,0,0,0-.67-3.35,5.31,5.31,0,0,0-1.93-2.25A5.48,5.48,0,0,0,141.35,415.4Z"/><line class="cls-3" x1="36.52" y1="123.95" x2="247" y2="123.95"/><line class="cls-3" x1="36.52" y1="174.55" x2="175.19" y2="174.02"/><line class="cls-3" x1="36.52" y1="224.42" x2="281" y2="224.42"/><line class="cls-3" x1="36.52" y1="274.3" x2="158.52" y2="274.3"/><line class="cls-3" x1="36.52" y1="324.17" x2="207.28" y2="324.17"/><line class="cls-3" x1="36.52" y1="374.04" x2="230" y2="374.04"/><path d="M274.49,556.66h3.75v5.59a2.3,2.3,0,0,1-.28,1.17,2.12,2.12,0,0,1-.82.78,2.65,2.65,0,0,1-1.23.27,2.27,2.27,0,0,1-1.58-.53,2.44,2.44,0,0,1-.73-1.39l1.14-.25a1.59,1.59,0,0,0,.38.78,1.07,1.07,0,0,0,.79.29,1,1,0,0,0,.79-.31,1.29,1.29,0,0,0,.3-.94v-4.43h-2.51Z"/><path d="M281.87,564.47a2.6,2.6,0,0,1-1.41-.37,2.43,2.43,0,0,1-.92-1,4,4,0,0,1,0-3.14,2.44,2.44,0,0,1,.9-1,2.54,2.54,0,0,1,1.4-.37,2.51,2.51,0,0,1,1.41.38,2.3,2.3,0,0,1,.85,1,3.51,3.51,0,0,1,.29,1.43v.45h-3.92V562a1.46,1.46,0,0,0,.4,1.07,1.44,1.44,0,0,0,1.11.42,1.66,1.66,0,0,0,.89-.23,1.81,1.81,0,0,0,.61-.62l.71.69a2.35,2.35,0,0,1-.93.83A2.83,2.83,0,0,1,281.87,564.47Zm0-5a1.35,1.35,0,0,0-.73.19,1.21,1.21,0,0,0-.48.52,1.55,1.55,0,0,0-.18.76V561h2.67v-.11a1.81,1.81,0,0,0-.16-.76,1.08,1.08,0,0,0-.44-.5A1.25,1.25,0,0,0,281.86,559.47Z"/><path d="M286.54,564.34h-1.2v-5.68h1.2v1.14h0a1.79,1.79,0,0,1,.28-.55,1.51,1.51,0,0,1,.51-.42,1.7,1.7,0,0,1,.78-.17h.32v1.16H288a2.34,2.34,0,0,0-.8.11,1.06,1.06,0,0,0-.5.3.7.7,0,0,0-.17.49Z"/><path d="M291.42,564.47a2.6,2.6,0,0,1-1.41-.37,2.43,2.43,0,0,1-.92-1,4,4,0,0,1,0-3.14,2.44,2.44,0,0,1,.9-1,2.82,2.82,0,0,1,2.81,0,2.3,2.3,0,0,1,.85,1,3.51,3.51,0,0,1,.29,1.43v.45H290V562a1.5,1.5,0,0,0,.39,1.07,1.46,1.46,0,0,0,1.12.42,1.66,1.66,0,0,0,.89-.23,2,2,0,0,0,.61-.62l.71.69a2.35,2.35,0,0,1-.93.83A2.83,2.83,0,0,1,291.42,564.47Zm0-5a1.35,1.35,0,0,0-.73.19,1.29,1.29,0,0,0-.49.52,1.67,1.67,0,0,0-.17.76V561h2.66v-.11a1.81,1.81,0,0,0-.15-.76,1.08,1.08,0,0,0-.44-.5A1.25,1.25,0,0,0,291.41,559.47Z"/><path d="M296.08,564.34h-1.2v-5.68h1.2v1h.06a2,2,0,0,1,.53-.77,1.54,1.54,0,0,1,1-.31,1.86,1.86,0,0,1,1,.28,1.62,1.62,0,0,1,.66.89h0a1.75,1.75,0,0,1,1.74-1.17,1.6,1.6,0,0,1,1.33.58,2.55,2.55,0,0,1,.47,1.63v3.6h-1.2v-3.46a1.6,1.6,0,0,0-.26-1,.91.91,0,0,0-.79-.34,1.56,1.56,0,0,0-.57.11,1,1,0,0,0-.44.32.87.87,0,0,0-.17.54v3.82h-1.19v-3.46a1.6,1.6,0,0,0-.26-1,.9.9,0,0,0-.78-.34,1.56,1.56,0,0,0-.57.11,1,1,0,0,0-.45.32.87.87,0,0,0-.17.54Z"/><path d="M306.57,561.91l1.14-3.25h1.16l-2.41,6.82a2.39,2.39,0,0,1-.32.62,1,1,0,0,1-.46.34,2.42,2.42,0,0,1-.73.1h-.69v-1h1l.33-1.09-2.07-5.81h1.19l1.15,3.25.33,1.2h.05Z"/><path d="M311.77,564.34v-7.68h2.72a3.39,3.39,0,0,1,1.71.42,2.9,2.9,0,0,1,1.13,1.28,5.92,5.92,0,0,1,0,4.28,2.9,2.9,0,0,1-1.13,1.28,3.39,3.39,0,0,1-1.71.42Zm1.24-1.1h1.48a2,2,0,0,0,1-.24,1.56,1.56,0,0,0,.67-.72,2.52,2.52,0,0,0,.24-1.16v-1.24a2.52,2.52,0,0,0-.24-1.16,1.56,1.56,0,0,0-.67-.72,2,2,0,0,0-1-.24H313Z"/><path d="M319.52,564.47a.78.78,0,0,1-.6-.21.83.83,0,0,1-.19-.54v-.17a.81.81,0,0,1,.19-.54,1,1,0,0,1,1.21,0,.77.77,0,0,1,.2.54v.17a.71.71,0,0,1-.81.75Z"/><path d="M326.76,564.47A3.32,3.32,0,0,1,325,564a2.91,2.91,0,0,1-1.11-1.32,5.48,5.48,0,0,1-.38-2.17,5.67,5.67,0,0,1,.38-2.18A3,3,0,0,1,325,557a3.07,3.07,0,0,1,1.73-.47,3,3,0,0,1,1.67.44,2.91,2.91,0,0,1,1.07,1.3l-1,.57a2,2,0,0,0-.62-.88,1.93,1.93,0,0,0-2.48.3,2.61,2.61,0,0,0-.5,1.68v1.18a2.52,2.52,0,0,0,.5,1.65,1.77,1.77,0,0,0,1.4.59,1.69,1.69,0,0,0,1.12-.36,2,2,0,0,0,.65-.92l1,.61a3.07,3.07,0,0,1-1.08,1.3A2.92,2.92,0,0,1,326.76,564.47Z"/><path d="M330.38,564.34V556.2h1.2v3.41h.05a1.92,1.92,0,0,1,.57-.77,1.57,1.57,0,0,1,1-.31,1.69,1.69,0,0,1,1.37.58,2.44,2.44,0,0,1,.49,1.63v3.6h-1.2v-3.46a1.6,1.6,0,0,0-.26-1,1,1,0,0,0-.82-.34,1.71,1.71,0,0,0-.59.11,1,1,0,0,0-.47.32.82.82,0,0,0-.18.54v3.82Z"/><path d="M338.63,564.47a2.6,2.6,0,0,1-1.41-.37,2.43,2.43,0,0,1-.92-1,4,4,0,0,1,0-3.14,2.44,2.44,0,0,1,.9-1,2.82,2.82,0,0,1,2.81,0,2.3,2.3,0,0,1,.85,1,3.51,3.51,0,0,1,.29,1.43v.45h-3.92V562a1.5,1.5,0,0,0,.39,1.07,1.46,1.46,0,0,0,1.12.42,1.66,1.66,0,0,0,.89-.23,1.9,1.9,0,0,0,.61-.62l.71.69a2.35,2.35,0,0,1-.93.83A2.83,2.83,0,0,1,338.63,564.47Zm0-5a1.35,1.35,0,0,0-.73.19,1.29,1.29,0,0,0-.49.52,1.67,1.67,0,0,0-.17.76V561h2.67v-.11a1.81,1.81,0,0,0-.16-.76,1.08,1.08,0,0,0-.44-.5A1.25,1.25,0,0,0,338.62,559.47Z"/><path d="M343.29,564.34H342.1v-5.68h1.19v1.14h.06a1.79,1.79,0,0,1,.28-.55,1.51,1.51,0,0,1,.51-.42,1.67,1.67,0,0,1,.78-.17h.32v1.16h-.47a2.44,2.44,0,0,0-.81.11,1.17,1.17,0,0,0-.5.3.75.75,0,0,0-.17.49Z"/><path d="M347.12,564.34h-1.2v-5.68h1.2v1.14h.06a1.79,1.79,0,0,1,.28-.55,1.51,1.51,0,0,1,.51-.42,1.67,1.67,0,0,1,.78-.17h.32v1.16h-.47a2.4,2.4,0,0,0-.81.11,1.12,1.12,0,0,0-.5.3.75.75,0,0,0-.17.49Z"/><path d="M352.12,561.91l1.14-3.25h1.16L352,565.48a2.39,2.39,0,0,1-.32.62,1,1,0,0,1-.46.34,2.42,2.42,0,0,1-.73.1h-.69v-1h1l.33-1.09L349,558.66h1.19l1.15,3.25.33,1.2h.05Z"/><path d="M47.6,470.05a3.73,3.73,0,0,1-2.09-.56,3.63,3.63,0,0,1-1.35-1.68,7.14,7.14,0,0,1-.47-2.75,7.45,7.45,0,0,1,.47-2.8,3.77,3.77,0,0,1,1.35-1.73A3.66,3.66,0,0,1,47.6,460a3.54,3.54,0,0,1,2,.56,3.61,3.61,0,0,1,1.28,1.56l-.87.52a2.77,2.77,0,0,0-.92-1.22,2.69,2.69,0,0,0-3.55.48,4.05,4.05,0,0,0-.72,2.52v1.36a3.82,3.82,0,0,0,.72,2.47,2.48,2.48,0,0,0,2,.89,2.59,2.59,0,0,0,1.59-.48,2.9,2.9,0,0,0,.94-1.3l.86.53a3.8,3.8,0,0,1-1.32,1.61A3.56,3.56,0,0,1,47.6,470.05Z"/><path d="M53.37,469.89h-1v-7.23h1V464h.07a2.33,2.33,0,0,1,.4-.65,2.23,2.23,0,0,1,.69-.48,2.56,2.56,0,0,1,1-.19H56v1h-.65a2.94,2.94,0,0,0-1,.17,1.67,1.67,0,0,0-.69.46,1,1,0,0,0-.24.67Z"/><path d="M59.7,470.05a3,3,0,0,1-1.69-.46,3.07,3.07,0,0,1-1.12-1.31,5.23,5.23,0,0,1,0-4A3.12,3.12,0,0,1,58,463a3.05,3.05,0,0,1,1.7-.47,3,3,0,0,1,1.64.46,3,3,0,0,1,1.07,1.26,4.23,4.23,0,0,1,.38,1.82v.5H57.55v.33a2.4,2.4,0,0,0,.59,1.65,2.07,2.07,0,0,0,1.63.65,2.18,2.18,0,0,0,1.22-.34,2.14,2.14,0,0,0,.81-1l.74.51a3,3,0,0,1-1.09,1.22A3.19,3.19,0,0,1,59.7,470.05Zm0-6.69a2.2,2.2,0,0,0-1.12.29,2,2,0,0,0-.75.82,2.58,2.58,0,0,0-.28,1.19v.1h4.13v-.14a2.72,2.72,0,0,0-.24-1.19,1.86,1.86,0,0,0-.7-.79A2,2,0,0,0,59.7,463.36Z"/><path d="M70.1,469.89h-.67a1.16,1.16,0,0,1-.68-.18.9.9,0,0,1-.37-.47,2,2,0,0,1-.12-.71v-.18l.4.37h-.45a1.9,1.9,0,0,1-.79,1,2.41,2.41,0,0,1-1.33.34,2.5,2.5,0,0,1-1.77-.58,2,2,0,0,1-.63-1.57A1.82,1.82,0,0,1,65,466a4.88,4.88,0,0,1,1.71-.26h1.5V465a1.64,1.64,0,0,0-.43-1.24,1.79,1.79,0,0,0-1.31-.42,2,2,0,0,0-1.12.3,2.25,2.25,0,0,0-.75.81l-.62-.56a2.6,2.6,0,0,1,.92-1,2.78,2.78,0,0,1,1.61-.43,3,3,0,0,1,2,.64,2.3,2.3,0,0,1,.71,1.79V469h.87Zm-1.89-3.34H66.67a2.57,2.57,0,0,0-1.44.31,1,1,0,0,0-.47.84V468a1,1,0,0,0,.42.87,1.76,1.76,0,0,0,1.07.31,2.46,2.46,0,0,0,1-.19,1.67,1.67,0,0,0,.7-.49,1.17,1.17,0,0,0,.25-.72Z"/><path d="M74.19,469.89h-1.4a1.08,1.08,0,0,1-.82-.31,1.13,1.13,0,0,1-.29-.79v-5.23h-1.2v-.9h.71a.59.59,0,0,0,.47-.14.72.72,0,0,0,.12-.47v-1.39h.92v2h1.6v.9H72.7V469h1.49Z"/><path d="M76.23,460.9a.65.65,0,0,1-.49-.17.6.6,0,0,1-.15-.42v-.18a.6.6,0,0,1,.15-.42.79.79,0,0,1,1,0,.6.6,0,0,1,.15.42v.18a.6.6,0,0,1-.15.42A.65.65,0,0,1,76.23,460.9Zm-.52,9v-7.23h1v7.23Z"/><path d="M79.79,469.89h-1v-7.23h1v1.16h0a2.34,2.34,0,0,1,.76-1,2.14,2.14,0,0,1,1.31-.37,2.26,2.26,0,0,1,1.78.73,3,3,0,0,1,.65,2v4.63h-1v-4.45a2.3,2.3,0,0,0-.43-1.52,1.6,1.6,0,0,0-1.27-.5,2.64,2.64,0,0,0-.89.15,1.59,1.59,0,0,0-.68.48,1.26,1.26,0,0,0-.25.81Z"/><path d="M92.32,470.76a1.77,1.77,0,0,1-.4,1.18,2.32,2.32,0,0,1-1.17.69,7,7,0,0,1-1.92.22,6.51,6.51,0,0,1-1.81-.2,2,2,0,0,1-1-.59,1.39,1.39,0,0,1-.32-.92,1.28,1.28,0,0,1,.31-.92,1.83,1.83,0,0,1,.87-.48v-.13a1.15,1.15,0,0,1-.49-.39,1,1,0,0,1-.17-.62,1,1,0,0,1,.35-.84,2.25,2.25,0,0,1,.89-.44v-.05a2.28,2.28,0,0,1-1-.89,2.53,2.53,0,0,1-.35-1.36,2.59,2.59,0,0,1,.33-1.32,2.42,2.42,0,0,1,.94-.88,2.88,2.88,0,0,1,1.41-.33,3.67,3.67,0,0,1,.75.08,2.71,2.71,0,0,1,.64.23v-.19a1,1,0,0,1,.19-.64.7.7,0,0,1,.59-.25h1.12v.9H90.68v.52a2.42,2.42,0,0,1,.59.82,2.77,2.77,0,0,1-.12,2.37,2.4,2.4,0,0,1-.94.9,3.06,3.06,0,0,1-1.42.32l-.38,0-.34,0a2.2,2.2,0,0,0-.68.3.64.64,0,0,0-.31.55.46.46,0,0,0,.3.46,2,2,0,0,0,.82.13h1.58a3,3,0,0,1,1.93.49A1.66,1.66,0,0,1,92.32,470.76Zm-1,.07a.83.83,0,0,0-.34-.69,2.14,2.14,0,0,0-1.21-.25H87.42a1.18,1.18,0,0,0-.59.39,1,1,0,0,0-.18.6,1,1,0,0,0,.38.81,2,2,0,0,0,1.27.32h1a3.14,3.14,0,0,0,1.51-.29A.94.94,0,0,0,91.35,470.83Zm-2.56-4.11a1.73,1.73,0,0,0,1.17-.37,1.39,1.39,0,0,0,.44-1.11v-.42A1.38,1.38,0,0,0,90,463.7a1.73,1.73,0,0,0-1.17-.38,1.75,1.75,0,0,0-1.19.38,1.38,1.38,0,0,0-.44,1.12v.42a1.39,1.39,0,0,0,.44,1.11A1.75,1.75,0,0,0,88.79,466.72Z"/><path d="M98.78,470.05a2.84,2.84,0,0,1-2.34-1,5,5,0,0,1,0-5.53,3.24,3.24,0,0,1,4-.55,2.74,2.74,0,0,1,1,1.2l-.85.43a1.89,1.89,0,0,0-.68-.88,2,2,0,0,0-1.13-.31,1.91,1.91,0,0,0-1.55.64,2.48,2.48,0,0,0-.53,1.65v1.17a2.47,2.47,0,0,0,.53,1.64,1.88,1.88,0,0,0,1.55.64,2.11,2.11,0,0,0,1.2-.32,2.17,2.17,0,0,0,.79-.94l.74.51a2.82,2.82,0,0,1-1,1.21A3,3,0,0,1,98.78,470.05Z"/><path d="M105.42,470.05a3.06,3.06,0,0,1-1.69-.46,3,3,0,0,1-1.13-1.31,5.23,5.23,0,0,1,0-4,3,3,0,0,1,1.13-1.31,3.09,3.09,0,0,1,4.5,1.31,5.11,5.11,0,0,1,0,4,3,3,0,0,1-2.81,1.77Zm0-.91a2.06,2.06,0,0,0,1.54-.59,2.45,2.45,0,0,0,.59-1.78v-1A2.45,2.45,0,0,0,107,464a2.06,2.06,0,0,0-1.54-.6,2,2,0,0,0-1.53.6,2.41,2.41,0,0,0-.6,1.78v1a2.41,2.41,0,0,0,.6,1.78A2,2,0,0,0,105.42,469.14Z"/><path d="M111.15,469.89h-1v-7.23h1v1.16h0a2.73,2.73,0,0,1,.68-.93,1.86,1.86,0,0,1,1.3-.4,2.67,2.67,0,0,1,1.33.35,2.11,2.11,0,0,1,.88,1.14h0a2.14,2.14,0,0,1,.74-1,2.23,2.23,0,0,1,1.47-.45,2.15,2.15,0,0,1,1.74.73,3,3,0,0,1,.62,2v4.63h-1v-4.47a2.36,2.36,0,0,0-.4-1.49,1.48,1.48,0,0,0-1.25-.51,2.41,2.41,0,0,0-.85.15,1.47,1.47,0,0,0-.66.48,1.32,1.32,0,0,0-.24.81v5h-1v-4.47a2.44,2.44,0,0,0-.4-1.5,1.5,1.5,0,0,0-1.23-.5,2.51,2.51,0,0,0-.86.15,1.53,1.53,0,0,0-.66.48,1.26,1.26,0,0,0-.25.81Z"/><path d="M121.94,472.69v-10h1v1.16H123a2.07,2.07,0,0,1,.82-1,2.54,2.54,0,0,1,1.32-.34,2.72,2.72,0,0,1,1.57.46,2.9,2.9,0,0,1,1,1.3,5.22,5.22,0,0,1,.36,2,5.15,5.15,0,0,1-.36,2,2.93,2.93,0,0,1-1,1.31,2.71,2.71,0,0,1-1.57.45,2.33,2.33,0,0,1-1.3-.34,2.42,2.42,0,0,1-.84-1H123v4Zm2.94-3.56a2,2,0,0,0,1.55-.62,2.36,2.36,0,0,0,.56-1.65v-1.17a2.36,2.36,0,0,0-.56-1.65,2,2,0,0,0-1.55-.62,2.27,2.27,0,0,0-.95.19,1.68,1.68,0,0,0-.7.51,1.13,1.13,0,0,0-.27.74v2.75a1.28,1.28,0,0,0,.27.81,1.63,1.63,0,0,0,.7.53A2.44,2.44,0,0,0,124.88,469.13Z"/><path d="M135.45,469.89h-.67a1.16,1.16,0,0,1-.68-.18,1,1,0,0,1-.37-.47,2,2,0,0,1-.11-.71v-.18l.39.37h-.45a1.9,1.9,0,0,1-.79,1,2.41,2.41,0,0,1-1.33.34,2.5,2.5,0,0,1-1.77-.58,2,2,0,0,1-.63-1.57,1.93,1.93,0,0,1,.32-1.15,2,2,0,0,1,1-.71,4.88,4.88,0,0,1,1.71-.26h1.5V465a1.64,1.64,0,0,0-.43-1.24,1.79,1.79,0,0,0-1.31-.42,2,2,0,0,0-1.12.3,2.25,2.25,0,0,0-.75.81l-.62-.56a2.6,2.6,0,0,1,.92-1,2.81,2.81,0,0,1,1.62-.43,3,3,0,0,1,2,.64,2.3,2.3,0,0,1,.71,1.79V469h.87Zm-1.89-3.34H132a2.61,2.61,0,0,0-1.44.31.94.94,0,0,0-.46.84V468a1,1,0,0,0,.41.87,1.76,1.76,0,0,0,1.07.31,2.46,2.46,0,0,0,1-.19,1.67,1.67,0,0,0,.7-.49,1.11,1.11,0,0,0,.25-.72Z"/><path d="M138.78,470.05a3.39,3.39,0,0,1-1.66-.37,4,4,0,0,1-1.17-1l.73-.58a3.44,3.44,0,0,0,.95.82,2.4,2.4,0,0,0,1.22.3,1.82,1.82,0,0,0,1.16-.33,1.19,1.19,0,0,0,.11-1.69,1.73,1.73,0,0,0-1-.43l-.58-.08a5,5,0,0,1-1.17-.33,1.75,1.75,0,0,1-1.12-1.75A1.82,1.82,0,0,1,137,463a3.09,3.09,0,0,1,1.81-.52,3.64,3.64,0,0,1,1,.14,3.06,3.06,0,0,1,.81.4,3.76,3.76,0,0,1,.65.61l-.68.62a2.49,2.49,0,0,0-.72-.62,2.3,2.3,0,0,0-1.17-.28,1.7,1.7,0,0,0-1.1.32,1.06,1.06,0,0,0-.37.86.92.92,0,0,0,.36.81,2.52,2.52,0,0,0,1.06.37l.56.09a3.06,3.06,0,0,1,1.69.68,1.82,1.82,0,0,1,.51,1.35,2.07,2.07,0,0,1-.32,1.18,2,2,0,0,1-.91.77A3.33,3.33,0,0,1,138.78,470.05Z"/><path d="M145.14,470.05a3.37,3.37,0,0,1-1.66-.37,3.83,3.83,0,0,1-1.17-1l.73-.58a3.3,3.3,0,0,0,1,.82,2.37,2.37,0,0,0,1.22.3,1.79,1.79,0,0,0,1.15-.33,1.21,1.21,0,0,0,.12-1.69,1.8,1.8,0,0,0-1-.43l-.59-.08a5,5,0,0,1-1.17-.33,1.91,1.91,0,0,1-.82-.65,1.93,1.93,0,0,1-.29-1.1,1.8,1.8,0,0,1,.73-1.57,3,3,0,0,1,1.8-.52,3.76,3.76,0,0,1,1,.14,3.06,3.06,0,0,1,.81.4,4.16,4.16,0,0,1,.65.61l-.69.62a2.44,2.44,0,0,0-.71-.62,2.31,2.31,0,0,0-1.18-.28,1.67,1.67,0,0,0-1.09.32,1.07,1.07,0,0,0-.38.86.91.91,0,0,0,.37.81,2.46,2.46,0,0,0,1.06.37l.56.09a3.09,3.09,0,0,1,1.69.68,1.82,1.82,0,0,1,.51,1.35,2.15,2.15,0,0,1-.32,1.18,2.09,2.09,0,0,1-.91.77A3.33,3.33,0,0,1,145.14,470.05Z"/><path d="M149.87,460.9a.65.65,0,0,1-.49-.17.61.61,0,0,1-.16-.42v-.18a.61.61,0,0,1,.16-.42.79.79,0,0,1,1,0,.6.6,0,0,1,.15.42v.18a.6.6,0,0,1-.15.42A.65.65,0,0,1,149.87,460.9Zm-.52,9v-7.23h1v7.23Z"/><path d="M155.09,470.05a3.06,3.06,0,0,1-1.69-.46,3,3,0,0,1-1.13-1.31,5.23,5.23,0,0,1,0-4A3,3,0,0,1,153.4,463a3.06,3.06,0,0,1,1.69-.47,3,3,0,0,1,2.81,1.78,5.11,5.11,0,0,1,0,4,3,3,0,0,1-2.81,1.77Zm0-.91a2,2,0,0,0,1.54-.59,2.45,2.45,0,0,0,.59-1.78v-1a2.45,2.45,0,0,0-.59-1.78,2.26,2.26,0,0,0-3.07,0,2.41,2.41,0,0,0-.6,1.78v1a2.41,2.41,0,0,0,.6,1.78A2,2,0,0,0,155.09,469.14Z"/><path d="M160.82,469.89h-1v-7.23h1v1.16h.05a2.34,2.34,0,0,1,.76-1,2.17,2.17,0,0,1,1.31-.37,2.26,2.26,0,0,1,1.78.73,3,3,0,0,1,.65,2v4.63h-1v-4.45a2.3,2.3,0,0,0-.43-1.52,1.6,1.6,0,0,0-1.27-.5,2.64,2.64,0,0,0-.89.15,1.5,1.5,0,0,0-.67.48,1.21,1.21,0,0,0-.26.81Z"/><path d="M173.15,469.89h-.67a1.16,1.16,0,0,1-.68-.18,1,1,0,0,1-.37-.47,2,2,0,0,1-.11-.71v-.18l.39.37h-.45a1.94,1.94,0,0,1-.78,1,2.46,2.46,0,0,1-1.33.34,2.51,2.51,0,0,1-1.78-.58,2,2,0,0,1-.63-1.57,2,2,0,0,1,.32-1.15,2,2,0,0,1,1-.71,4.88,4.88,0,0,1,1.71-.26h1.5V465a1.64,1.64,0,0,0-.43-1.24,1.79,1.79,0,0,0-1.31-.42,2,2,0,0,0-1.12.3,2.25,2.25,0,0,0-.75.81l-.62-.56a2.63,2.63,0,0,1,.93-1,2.76,2.76,0,0,1,1.61-.43,3,3,0,0,1,2,.64,2.3,2.3,0,0,1,.71,1.79V469h.87Zm-1.89-3.34h-1.54a2.61,2.61,0,0,0-1.44.31.94.94,0,0,0-.46.84V468a1,1,0,0,0,.41.87,1.76,1.76,0,0,0,1.07.31,2.54,2.54,0,0,0,1-.19,1.7,1.7,0,0,0,.69-.49,1.11,1.11,0,0,0,.25-.72Z"/><path d="M177.24,469.89h-1.4a1.08,1.08,0,0,1-.82-.31,1.13,1.13,0,0,1-.29-.79v-5.23h-1.2v-.9h.71c.24,0,.39,0,.47-.14a.72.72,0,0,0,.12-.47v-1.39h.92v2h1.6v.9h-1.6V469h1.49Z"/><path d="M181.44,470.05a3,3,0,0,1-1.69-.46,3.07,3.07,0,0,1-1.12-1.31,5.23,5.23,0,0,1,0-4,3.12,3.12,0,0,1,1.11-1.31,3.07,3.07,0,0,1,1.7-.47,2.87,2.87,0,0,1,2.71,1.72,4.09,4.09,0,0,1,.38,1.82v.5H179.3v.33a2.39,2.39,0,0,0,.58,1.65,2.07,2.07,0,0,0,1.63.65,2.14,2.14,0,0,0,2-1.3l.74.51a2.88,2.88,0,0,1-1.08,1.22A3.23,3.23,0,0,1,181.44,470.05Zm0-6.69a2.14,2.14,0,0,0-1.11.29,2,2,0,0,0-.76.82,2.57,2.57,0,0,0-.27,1.19v.1h4.13v-.14a2.71,2.71,0,0,0-.25-1.19,1.86,1.86,0,0,0-.7-.79A2,2,0,0,0,181.44,463.36Z"/><path d="M45.26,487.89l-2-7.23h1l.84,3.29.76,3.07h0L46.8,484l1-3.29h.93l1,3.29.88,3.07h0L51.3,484l.85-3.29h1l-1.95,7.23H49.9l-1-3.58-.63-2.22h0l-.63,2.22-1.05,3.58Z"/><path d="M57,488.05a3,3,0,0,1-2.83-1.77,5.35,5.35,0,0,1,0-4,3.1,3.1,0,0,1,5.64,0,5.11,5.11,0,0,1,0,4A3,3,0,0,1,57,488.05Zm0-.91a2.07,2.07,0,0,0,1.54-.59,2.45,2.45,0,0,0,.58-1.78v-1a2.45,2.45,0,0,0-.58-1.78,2.28,2.28,0,0,0-3.08,0,2.45,2.45,0,0,0-.59,1.78v1a2.45,2.45,0,0,0,.59,1.78A2.07,2.07,0,0,0,57,487.14Z"/><path d="M62.76,487.89h-1v-7.23h1V482h.07a2.37,2.37,0,0,1,.41-.65,2.18,2.18,0,0,1,.68-.48,2.56,2.56,0,0,1,1-.19h.45v1h-.64a3,3,0,0,0-1,.17,1.64,1.64,0,0,0-.68.46,1,1,0,0,0-.25.67Z"/><path d="M66.42,487.89V477.53h1v6.64h0L68.6,483l2.16-2.29H72l-2.71,2.88,3,4.35H71l-2.5-3.72-1.1,1.12v2.6Z"/><path d="M76.58,487.89v-6.33H75.39v-.9h1.19v-1.61a1.64,1.64,0,0,1,.36-1.1,1.33,1.33,0,0,1,1.08-.42h1.15v.89H77.6v2.24h1.57v.9H77.6v6.33Z"/><path d="M82.94,488.05a3,3,0,0,1-2.83-1.77,5.35,5.35,0,0,1,0-4,3.1,3.1,0,0,1,5.64,0,5.11,5.11,0,0,1,0,4,3,3,0,0,1-2.81,1.77Zm0-.91a2.07,2.07,0,0,0,1.54-.59,2.45,2.45,0,0,0,.58-1.78v-1a2.45,2.45,0,0,0-.58-1.78,2.28,2.28,0,0,0-3.08,0,2.45,2.45,0,0,0-.59,1.78v1a2.45,2.45,0,0,0,.59,1.78A2.07,2.07,0,0,0,82.94,487.14Z"/><path d="M88.66,487.89h-1v-7.23h1V482h.07a2.15,2.15,0,0,1,.41-.65,2.07,2.07,0,0,1,.68-.48,2.56,2.56,0,0,1,1-.19h.45v1h-.64a3,3,0,0,0-1,.17,1.64,1.64,0,0,0-.68.46,1,1,0,0,0-.25.67Z"/><path d="M95.2,487.89V477.53h1v4.29h.06a2.32,2.32,0,0,1,.75-1,2.2,2.2,0,0,1,1.32-.37,2.23,2.23,0,0,1,1.77.73,3,3,0,0,1,.65,2v4.63h-1v-4.45a2.35,2.35,0,0,0-.43-1.52,1.62,1.62,0,0,0-1.28-.5,2.58,2.58,0,0,0-.88.15,1.53,1.53,0,0,0-.68.48,1.27,1.27,0,0,0-.26.81v5Z"/><path d="M107.18,487.89v-1.17h-.05a2.31,2.31,0,0,1-.67.93,2,2,0,0,1-1.38.4,2.27,2.27,0,0,1-1.77-.72,2.91,2.91,0,0,1-.66-2v-4.63h1v4.46a2.22,2.22,0,0,0,.43,1.5,1.59,1.59,0,0,0,1.28.51,2.49,2.49,0,0,0,.87-.15,1.58,1.58,0,0,0,.67-.48,1.23,1.23,0,0,0,.26-.81v-5h1v7.23Z"/><path d="M111.26,487.89h-1v-7.23h1v1.16h0a2.73,2.73,0,0,1,.68-.93,1.87,1.87,0,0,1,1.3-.4,2.64,2.64,0,0,1,1.33.35,2.11,2.11,0,0,1,.88,1.14h0a2.19,2.19,0,0,1,2.21-1.49,2.14,2.14,0,0,1,1.74.73,3,3,0,0,1,.62,2v4.63h-1v-4.47a2.36,2.36,0,0,0-.4-1.49,1.48,1.48,0,0,0-1.25-.51,2.41,2.41,0,0,0-.85.15,1.44,1.44,0,0,0-.65.48,1.26,1.26,0,0,0-.25.81v5h-1v-4.47a2.37,2.37,0,0,0-.4-1.5,1.48,1.48,0,0,0-1.22-.5,2.57,2.57,0,0,0-.87.15,1.53,1.53,0,0,0-.66.48,1.26,1.26,0,0,0-.25.81Z"/><path d="M127.89,487.89h-.67a1.16,1.16,0,0,1-.68-.18,1,1,0,0,1-.37-.47,2,2,0,0,1-.11-.71v-.18l.39.37H126a1.9,1.9,0,0,1-.79,1,2.41,2.41,0,0,1-1.33.34,2.5,2.5,0,0,1-1.77-.58,2,2,0,0,1-.63-1.57,1.93,1.93,0,0,1,.32-1.15,2,2,0,0,1,1-.71,4.88,4.88,0,0,1,1.71-.26H126V483a1.64,1.64,0,0,0-.43-1.24,1.79,1.79,0,0,0-1.31-.42,2,2,0,0,0-1.12.3,2.25,2.25,0,0,0-.75.81l-.62-.56a2.6,2.6,0,0,1,.92-1,2.81,2.81,0,0,1,1.62-.43,3,3,0,0,1,2,.64,2.3,2.3,0,0,1,.71,1.79V487h.87ZM126,484.55h-1.54a2.61,2.61,0,0,0-1.44.31.94.94,0,0,0-.46.84V486a1,1,0,0,0,.41.87,1.76,1.76,0,0,0,1.07.31,2.46,2.46,0,0,0,1-.19,1.67,1.67,0,0,0,.7-.49,1.11,1.11,0,0,0,.25-.72Z"/><path d="M130.1,487.89h-1v-7.23h1v1.16h.06a2.32,2.32,0,0,1,.75-1,2.2,2.2,0,0,1,1.32-.37,2.23,2.23,0,0,1,1.77.73,3,3,0,0,1,.65,2v4.63h-1v-4.45a2.3,2.3,0,0,0-.44-1.52,1.58,1.58,0,0,0-1.27-.5,2.58,2.58,0,0,0-.88.15,1.53,1.53,0,0,0-.68.48,1.27,1.27,0,0,0-.26.81Z"/><path d="M138.74,488.05a3.39,3.39,0,0,1-1.66-.37,4,4,0,0,1-1.17-1l.73-.58a3.44,3.44,0,0,0,1,.82,2.4,2.4,0,0,0,1.22.3,1.79,1.79,0,0,0,1.15-.33,1.08,1.08,0,0,0,.42-.91,1.09,1.09,0,0,0-.3-.78,1.73,1.73,0,0,0-1-.43l-.59-.08a5,5,0,0,1-1.17-.33,1.91,1.91,0,0,1-.82-.65,1.93,1.93,0,0,1-.29-1.1,1.8,1.8,0,0,1,.73-1.57,3.07,3.07,0,0,1,1.81-.52,3.69,3.69,0,0,1,1,.14,3.06,3.06,0,0,1,.81.4,4.16,4.16,0,0,1,.65.61l-.69.62a2.25,2.25,0,0,0-1.89-.9,1.67,1.67,0,0,0-1.09.32,1.06,1.06,0,0,0-.37.86.92.92,0,0,0,.36.81,2.52,2.52,0,0,0,1.06.37l.56.09a3.06,3.06,0,0,1,1.69.68,1.82,1.82,0,0,1,.51,1.35,2.15,2.15,0,0,1-.32,1.18,2.09,2.09,0,0,1-.91.77A3.33,3.33,0,0,1,138.74,488.05Z"/></svg>