<svg id="Layer_1" data-name="Layer 1" xmlns="http://www.w3.org/2000/svg" xmlns:xlink="http://www.w3.org/1999/xlink" viewBox="0 0 306 495"><defs><style>.cls-1{fill:none;clip-rule:evenodd;}.cls-2{fill:#f2f3f2;}.cls-3{clip-path:url(#clip-path);}.cls-4{fill:#0e0e0e;}.cls-5{fill:#ff0048;}</style><clipPath id="clip-path"><path class="cls-1" d="M234.41,353.51h0a10,10,0,0,1,10,10h0a10,10,0,0,1-10,10h0a10,10,0,0,1-10-10h0a10,10,0,0,1,10-10Z"/></clipPath></defs><rect class="cls-2" width="306" height="495"/><path d="M31.71,66.79v-23H39.9A10.2,10.2,0,0,1,45.08,45a8.27,8.27,0,0,1,3.4,3.82,15.3,15.3,0,0,1,1.19,6.42,15.24,15.24,0,0,1-1.19,6.42,8.3,8.3,0,0,1-3.4,3.83,10.2,10.2,0,0,1-5.18,1.27Zm3.87-3.4H39.9a5.92,5.92,0,0,0,3-.72,5,5,0,0,0,2-2.12,7.35,7.35,0,0,0,.71-3.43v-3.7A7.45,7.45,0,0,0,44.86,50a4.85,4.85,0,0,0-2-2.12,6,6,0,0,0-3-.7H35.58Z"/><path d="M59.17,67.19a8,8,0,0,1-4.24-1.1A7.12,7.12,0,0,1,52.17,63a12.24,12.24,0,0,1,0-9.43,7.11,7.11,0,0,1,2.7-3.1,7.83,7.83,0,0,1,4.21-1.09,7.57,7.57,0,0,1,4.29,1.13,7,7,0,0,1,2.58,3.06,10.51,10.51,0,0,1,.85,4.3V59.2H55.08v.55a4.48,4.48,0,0,0,1.14,3.16,4.26,4.26,0,0,0,3.31,1.24,4.91,4.91,0,0,0,2.66-.68A6.38,6.38,0,0,0,64,61.64l2.15,2.17a7.25,7.25,0,0,1-2.79,2.44A9,9,0,0,1,59.17,67.19Zm0-14.95a4,4,0,0,0-2.13.55,3.81,3.81,0,0,0-1.42,1.53,4.77,4.77,0,0,0-.51,2.24v.23h7.79v-.32a5.11,5.11,0,0,0-.45-2.22,3.54,3.54,0,0,0-1.27-1.48A3.67,3.67,0,0,0,59.14,52.24Z"/><path d="M74.51,67.19a8.84,8.84,0,0,1-4.07-.86A9.23,9.23,0,0,1,67.52,64l2.37-2.18A7.68,7.68,0,0,0,72,63.54a5.49,5.49,0,0,0,2.69.64A3.84,3.84,0,0,0,77,63.61,1.91,1.91,0,0,0,77.78,62a1.79,1.79,0,0,0-.53-1.34,3,3,0,0,0-1.84-.7l-1.59-.23a9.92,9.92,0,0,1-3-.84,4.55,4.55,0,0,1-2-1.65,4.71,4.71,0,0,1-.67-2.59,4.65,4.65,0,0,1,1.78-3.91,7.4,7.4,0,0,1,4.62-1.37,10.55,10.55,0,0,1,2.74.31,7.15,7.15,0,0,1,2.06.92A9.22,9.22,0,0,1,81,52.07l-2.25,2.21A6.32,6.32,0,0,0,77,52.91a5.13,5.13,0,0,0-2.43-.57,3.39,3.39,0,0,0-2.14.55,1.79,1.79,0,0,0-.7,1.49,1.71,1.71,0,0,0,.61,1.42,4.63,4.63,0,0,0,1.93.7l1.65.23a7.36,7.36,0,0,1,4.15,1.64,4.39,4.39,0,0,1,1.3,3.31,5,5,0,0,1-.84,2.88,5.55,5.55,0,0,1-2.38,1.94A8.84,8.84,0,0,1,74.51,67.19Z"/><path d="M85.6,46.79a2.26,2.26,0,0,1-1.68-.54,1.91,1.91,0,0,1-.53-1.37v-.6a1.87,1.87,0,0,1,.53-1.38,2.3,2.3,0,0,1,1.68-.53,2.34,2.34,0,0,1,1.69.53,1.86,1.86,0,0,1,.52,1.38v.6a1.9,1.9,0,0,1-.52,1.37A2.3,2.3,0,0,1,85.6,46.79Zm-1.88,20v-17h3.73v17Z"/><path d="M106.06,68.32a4.88,4.88,0,0,1-.91,3,5.47,5.47,0,0,1-2.83,1.83,17.14,17.14,0,0,1-5.07.62,16.56,16.56,0,0,1-4.54-.51,4.91,4.91,0,0,1-2.5-1.43,3.4,3.4,0,0,1-.78-2.24,3.11,3.11,0,0,1,.79-2.26,4.06,4.06,0,0,1,2.18-1.08V65.9a2.79,2.79,0,0,1-1.5-1,2.71,2.71,0,0,1-.51-1.66,2.4,2.4,0,0,1,.9-2,5.63,5.63,0,0,1,2.17-1v-.13a5.28,5.28,0,0,1-2.33-2,5.47,5.47,0,0,1-.81-3,5.57,5.57,0,0,1,.81-3,5.34,5.34,0,0,1,2.36-2,8.8,8.8,0,0,1,3.73-.71,10.71,10.71,0,0,1,1.63.11,6.89,6.89,0,0,1,1.47.38v-.48a2.87,2.87,0,0,1,.56-1.9,2.14,2.14,0,0,1,1.72-.65h2.64v2.93h-3.53v.79a4.93,4.93,0,0,1,1.83,1.94,5.77,5.77,0,0,1,.61,2.64,5.51,5.51,0,0,1-.81,3,5.26,5.26,0,0,1-2.34,2,8.91,8.91,0,0,1-3.78.72A9.65,9.65,0,0,1,96,60.78a7.93,7.93,0,0,1-1.09-.19,3.87,3.87,0,0,0-1.07.61,1.27,1.27,0,0,0-.48,1,1,1,0,0,0,.61,1,4.25,4.25,0,0,0,1.76.29H100c2.12,0,3.65.42,4.61,1.27A4.51,4.51,0,0,1,106.06,68.32Zm-3.5.43a1.68,1.68,0,0,0-.69-1.45,4.21,4.21,0,0,0-2.41-.51H93.65a2.08,2.08,0,0,0-.85.84,2.41,2.41,0,0,0-.27,1.15,2,2,0,0,0,.83,1.69,4.72,4.72,0,0,0,2.84.64h2.21a6.38,6.38,0,0,0,3.13-.59A1.91,1.91,0,0,0,102.56,68.75ZM97.22,58.21a3.81,3.81,0,0,0,2.44-.69,2.5,2.5,0,0,0,.86-2.07V54.8a2.54,2.54,0,0,0-.86-2.1A3.81,3.81,0,0,0,97.22,52a3.74,3.74,0,0,0-2.41.69A2.54,2.54,0,0,0,94,54.8v.65a2.5,2.5,0,0,0,.86,2.07A3.74,3.74,0,0,0,97.22,58.21Z"/><path d="M110.78,66.79h-3.73v-17h3.73V52.6H111a5.67,5.67,0,0,1,1.7-2.31,4.75,4.75,0,0,1,3.11-.92,5.11,5.11,0,0,1,4.11,1.73A7.35,7.35,0,0,1,121.34,56V66.79h-3.73V56.42a4.76,4.76,0,0,0-.76-2.94,2.86,2.86,0,0,0-2.41-1,5,5,0,0,0-1.76.31,3.14,3.14,0,0,0-1.37.95,2.45,2.45,0,0,0-.53,1.62Z"/><path d="M126.49,46.79a2.26,2.26,0,0,1-1.68-.54,1.87,1.87,0,0,1-.53-1.37v-.6a1.83,1.83,0,0,1,.53-1.38,2.93,2.93,0,0,1,3.36,0,1.87,1.87,0,0,1,.53,1.38v.6a1.91,1.91,0,0,1-.53,1.37A2.26,2.26,0,0,1,126.49,46.79Zm-1.88,20v-17h3.73v17Z"/><path d="M135.5,66.79h-3.73v-17h3.73V52.6h.16a5.76,5.76,0,0,1,1.7-2.31,4.79,4.79,0,0,1,3.12-.92,5.11,5.11,0,0,1,4.11,1.73A7.35,7.35,0,0,1,146.06,56V66.79h-3.73V56.42a4.76,4.76,0,0,0-.76-2.94,2.87,2.87,0,0,0-2.41-1,4.94,4.94,0,0,0-1.76.31,3.08,3.08,0,0,0-1.37.95,2.4,2.4,0,0,0-.53,1.62Z"/><path d="M164.5,68.32a4.94,4.94,0,0,1-.9,3,5.5,5.5,0,0,1-2.84,1.83,17.14,17.14,0,0,1-5.07.62,16.43,16.43,0,0,1-4.53-.51,4.9,4.9,0,0,1-2.51-1.43,3.4,3.4,0,0,1-.78-2.24,3.16,3.16,0,0,1,.79-2.26,4.06,4.06,0,0,1,2.18-1.08V65.9a2.79,2.79,0,0,1-1.5-1,2.71,2.71,0,0,1-.51-1.66,2.38,2.38,0,0,1,.91-2,5.52,5.52,0,0,1,2.16-1v-.13a5.33,5.33,0,0,1-2.33-2,5.47,5.47,0,0,1-.81-3,5.57,5.57,0,0,1,.81-3,5.34,5.34,0,0,1,2.36-2,8.8,8.8,0,0,1,3.73-.71,10.62,10.62,0,0,1,1.63.11,6.89,6.89,0,0,1,1.47.38v-.48a2.87,2.87,0,0,1,.56-1.9,2.14,2.14,0,0,1,1.72-.65h2.64v2.93h-3.53v.79A4.93,4.93,0,0,1,162,52.49a5.64,5.64,0,0,1,.61,2.64,5.51,5.51,0,0,1-.81,3,5.26,5.26,0,0,1-2.34,2,8.85,8.85,0,0,1-3.78.72,9.65,9.65,0,0,1-1.22-.07,7.93,7.93,0,0,1-1.09-.19,4,4,0,0,0-1.07.61,1.27,1.27,0,0,0-.48,1,1,1,0,0,0,.61,1,4.28,4.28,0,0,0,1.76.29h4.29c2.12,0,3.65.42,4.61,1.27A4.48,4.48,0,0,1,164.5,68.32Zm-3.49.43a1.66,1.66,0,0,0-.7-1.45,4.21,4.21,0,0,0-2.41-.51h-5.8a2.05,2.05,0,0,0-.86.84,2.41,2.41,0,0,0-.27,1.15,2,2,0,0,0,.83,1.69,4.72,4.72,0,0,0,2.84.64h2.21a6.36,6.36,0,0,0,3.13-.59A1.9,1.9,0,0,0,161,68.75Zm-5.35-10.54a3.79,3.79,0,0,0,2.44-.69,2.5,2.5,0,0,0,.86-2.07V54.8a2.54,2.54,0,0,0-.86-2.1,4.61,4.61,0,0,0-4.85,0,2.54,2.54,0,0,0-.86,2.1v.65a2.5,2.5,0,0,0,.86,2.07A3.76,3.76,0,0,0,155.66,58.21Z"/><path d="M45.84,96.79v-10H35.58v10H31.71v-23h3.87v9.7H45.84v-9.7H49.7v23Z"/><path d="M60.13,97.19A7.78,7.78,0,0,1,56,96.09,7.34,7.34,0,0,1,53.21,93a12,12,0,0,1,0-9.45A7.4,7.4,0,0,1,56,80.46a8.54,8.54,0,0,1,8.35,0A7.33,7.33,0,0,1,67,83.54,12,12,0,0,1,67,93a7.27,7.27,0,0,1-2.74,3.1A7.77,7.77,0,0,1,60.13,97.19Zm0-3.07A3.8,3.8,0,0,0,63,93a4.51,4.51,0,0,0,1.08-3.27V86.81A4.49,4.49,0,0,0,63,83.53a4.31,4.31,0,0,0-5.75,0,4.45,4.45,0,0,0-1.09,3.28v2.93A4.47,4.47,0,0,0,57.26,93,3.83,3.83,0,0,0,60.13,94.12Z"/><path d="M70.29,103.39V79.76H74V82.6h.17A4.3,4.3,0,0,1,76,80.21a5.46,5.46,0,0,1,3-.84,6.31,6.31,0,0,1,3.68,1,6.66,6.66,0,0,1,2.31,3,14.63,14.63,0,0,1,0,9.6,6.74,6.74,0,0,1-2.31,3.06A6.18,6.18,0,0,1,79,97.19a5.2,5.2,0,0,1-3-.86A4.75,4.75,0,0,1,74.19,94H74v9.44Zm7.56-9.34a3.81,3.81,0,0,0,2.92-1.19,4.37,4.37,0,0,0,1.1-3.12V86.81a4.35,4.35,0,0,0-1.1-3.13,3.81,3.81,0,0,0-2.92-1.18,5,5,0,0,0-1.93.36,3.32,3.32,0,0,0-1.39,1,2.39,2.39,0,0,0-.51,1.5v5.68a2.56,2.56,0,0,0,.51,1.61,3.2,3.2,0,0,0,1.39,1A5,5,0,0,0,77.85,94.05Z"/><path d="M95,97.19a8,8,0,0,1-4.24-1.1A7.12,7.12,0,0,1,88,93a12.24,12.24,0,0,1,0-9.43,7.18,7.18,0,0,1,2.7-3.1,7.83,7.83,0,0,1,4.21-1.09,7.57,7.57,0,0,1,4.29,1.13,7,7,0,0,1,2.58,3.06,10.51,10.51,0,0,1,.85,4.3V89.2H91v.55a4.48,4.48,0,0,0,1.14,3.16,4.26,4.26,0,0,0,3.31,1.24,4.89,4.89,0,0,0,2.66-.68,6.26,6.26,0,0,0,1.83-1.83L102,93.81a7.25,7.25,0,0,1-2.79,2.44A9,9,0,0,1,95,97.19Zm0-15a4,4,0,0,0-2.13.55,3.81,3.81,0,0,0-1.42,1.53A4.77,4.77,0,0,0,91,86.56v.23h7.79v-.32a5.11,5.11,0,0,0-.45-2.22A3.54,3.54,0,0,0,97,82.77,3.67,3.67,0,0,0,95,82.24Z"/><path d="M205,458.07h3.41v5.08a2,2,0,0,1-.26,1.06,1.75,1.75,0,0,1-.74.71,2.34,2.34,0,0,1-1.12.25,2,2,0,0,1-1.43-.49,2.21,2.21,0,0,1-.67-1.26l1-.22a1.37,1.37,0,0,0,.35.7,1.07,1.07,0,0,0,1.43,0,1.2,1.2,0,0,0,.27-.86v-4H205Z"/><path d="M211.66,465.17a2.41,2.41,0,0,1-1.28-.33,2.17,2.17,0,0,1-.83-.94,3.17,3.17,0,0,1-.3-1.43,3.35,3.35,0,0,1,.29-1.43,2.26,2.26,0,0,1,.82-.93,2.58,2.58,0,0,1,2.56,0,2.13,2.13,0,0,1,.77.93,3.08,3.08,0,0,1,.26,1.3v.41h-3.56v.17a1.35,1.35,0,0,0,.36,1,1.31,1.31,0,0,0,1,.38,1.48,1.48,0,0,0,.81-.21,1.64,1.64,0,0,0,.55-.56l.65.63a2.19,2.19,0,0,1-.84.75A2.73,2.73,0,0,1,211.66,465.17Zm0-4.55a1.3,1.3,0,0,0-.66.17,1.2,1.2,0,0,0-.44.48,1.53,1.53,0,0,0-.16.69V462h2.42v-.1a1.52,1.52,0,0,0-.14-.69,1,1,0,0,0-.4-.46A1.12,1.12,0,0,0,211.65,460.62Z"/><path d="M215.9,465.05h-1.09v-5.16h1.09v1h0a1.84,1.84,0,0,1,.26-.5,1.44,1.44,0,0,1,.46-.38,1.55,1.55,0,0,1,.71-.15h.29v1.05h-.43a2.26,2.26,0,0,0-.73.1.92.92,0,0,0-.45.28.64.64,0,0,0-.16.44Z"/><path d="M220.34,465.17a2.41,2.41,0,0,1-1.28-.33,2.17,2.17,0,0,1-.83-.94,3.17,3.17,0,0,1-.3-1.43,3.35,3.35,0,0,1,.29-1.43,2.26,2.26,0,0,1,.82-.93,2.58,2.58,0,0,1,2.56,0,2.13,2.13,0,0,1,.77.93,3.08,3.08,0,0,1,.26,1.3v.41h-3.56v.17a1.35,1.35,0,0,0,.36,1,1.31,1.31,0,0,0,1,.38,1.48,1.48,0,0,0,.81-.21,1.64,1.64,0,0,0,.55-.56l.65.63a2.19,2.19,0,0,1-.84.75A2.73,2.73,0,0,1,220.34,465.17Zm0-4.55a1.3,1.3,0,0,0-.66.17,1.2,1.2,0,0,0-.44.48,1.41,1.41,0,0,0-.16.69V462h2.42v-.1a1.52,1.52,0,0,0-.14-.69,1,1,0,0,0-.4-.46A1.12,1.12,0,0,0,220.33,460.62Z"/><path d="M224.58,465.05h-1.09v-5.16h1.09v.86h0a1.82,1.82,0,0,1,.49-.7,1.32,1.32,0,0,1,.91-.28,1.71,1.71,0,0,1,.93.25,1.41,1.41,0,0,1,.6.81h0a1.64,1.64,0,0,1,.54-.75,1.71,1.71,0,0,1,1-.31,1.47,1.47,0,0,1,1.21.53,2.3,2.3,0,0,1,.42,1.47v3.28h-1.09v-3.14a1.46,1.46,0,0,0-.23-.91.84.84,0,0,0-.72-.3,1.54,1.54,0,0,0-.52.09.92.92,0,0,0-.4.3.77.77,0,0,0-.15.49v3.47H226.6v-3.14a1.46,1.46,0,0,0-.23-.91.83.83,0,0,0-.71-.3,1.54,1.54,0,0,0-.52.09.92.92,0,0,0-.4.3.72.72,0,0,0-.16.49Z"/><path d="M234.11,462.84l1-2.95h1L234,466.08a2,2,0,0,1-.28.57,1,1,0,0,1-.42.31,2,2,0,0,1-.67.09H232v-.89h.88l.3-1-1.89-5.28h1.09l1,2.95.3,1.09h.05Z"/><path d="M238.84,465.05v-7h2.47a3.13,3.13,0,0,1,1.56.38,2.66,2.66,0,0,1,1,1.16,4.65,4.65,0,0,1,.36,1.95,4.57,4.57,0,0,1-.36,1.94,2.63,2.63,0,0,1-1,1.17,3.13,3.13,0,0,1-1.56.38Zm1.13-1h1.34a1.84,1.84,0,0,0,.92-.22,1.48,1.48,0,0,0,.61-.65,2.41,2.41,0,0,0,.21-1.06V461a2.41,2.41,0,0,0-.21-1.06,1.48,1.48,0,0,0-.61-.65,1.84,1.84,0,0,0-.92-.22H240Z"/><path d="M245.89,465.17a.65.65,0,0,1-.72-.68v-.16a.69.69,0,0,1,.18-.49.72.72,0,0,1,.54-.18.75.75,0,0,1,.56.18.73.73,0,0,1,.17.49v.16a.64.64,0,0,1-.73.68Z"/><path d="M252.47,465.17a3,3,0,0,1-1.57-.41,2.53,2.53,0,0,1-1-1.19,4.93,4.93,0,0,1-.35-2,5.13,5.13,0,0,1,.35-2,2.64,2.64,0,0,1,1-1.23,2.8,2.8,0,0,1,1.57-.43,2.52,2.52,0,0,1,2.49,1.58l-1,.52a1.77,1.77,0,0,0-.55-.8,1.6,1.6,0,0,0-1-.29,1.57,1.57,0,0,0-1.27.56,2.37,2.37,0,0,0-.46,1.53v1.07a2.28,2.28,0,0,0,.46,1.5,1.58,1.58,0,0,0,1.27.54,1.53,1.53,0,0,0,1-.33,1.79,1.79,0,0,0,.59-.83l.91.55a2.85,2.85,0,0,1-1,1.18A2.68,2.68,0,0,1,252.47,465.17Z"/><path d="M255.76,465.05v-7.4h1.09v3.1h0a1.81,1.81,0,0,1,.52-.7,1.42,1.42,0,0,1,.94-.28,1.55,1.55,0,0,1,1.25.53,2.24,2.24,0,0,1,.44,1.47v3.28H259v-3.14a1.52,1.52,0,0,0-.23-.91.9.9,0,0,0-.75-.3,1.7,1.7,0,0,0-.54.09,1,1,0,0,0-.42.3.73.73,0,0,0-.17.49v3.47Z"/><path d="M263.26,465.17a2.41,2.41,0,0,1-1.28-.33,2.17,2.17,0,0,1-.83-.94,3.17,3.17,0,0,1-.3-1.43,3.35,3.35,0,0,1,.29-1.43,2.43,2.43,0,0,1,3.38-.93,2.13,2.13,0,0,1,.77.93,3.24,3.24,0,0,1,.26,1.3v.41H262v.17a1.35,1.35,0,0,0,.36,1,1.31,1.31,0,0,0,1,.38,1.48,1.48,0,0,0,.81-.21,1.64,1.64,0,0,0,.55-.56l.65.63a2.19,2.19,0,0,1-.84.75A2.73,2.73,0,0,1,263.26,465.17Zm0-4.55a1.3,1.3,0,0,0-.66.17,1.2,1.2,0,0,0-.44.48,1.41,1.41,0,0,0-.16.69V462h2.42v-.1a1.52,1.52,0,0,0-.14-.69,1.06,1.06,0,0,0-.4-.46A1.12,1.12,0,0,0,263.25,460.62Z"/><path d="M267.5,465.05h-1.09v-5.16h1.09v1h.05a1.84,1.84,0,0,1,.26-.5,1.34,1.34,0,0,1,.46-.38,1.52,1.52,0,0,1,.71-.15h.29v1.05h-.43a2.22,2.22,0,0,0-.73.1.92.92,0,0,0-.45.28.6.6,0,0,0-.16.44Z"/><path d="M271,465.05h-1.09v-5.16H271v1h0a1.84,1.84,0,0,1,.26-.5,1.34,1.34,0,0,1,.46-.38,1.55,1.55,0,0,1,.71-.15h.29v1.05h-.43a2.26,2.26,0,0,0-.73.1.92.92,0,0,0-.45.28.64.64,0,0,0-.16.44Z"/><path d="M275.52,462.84l1-2.95h1.05l-2.19,6.19a2,2,0,0,1-.28.57,1,1,0,0,1-.42.31,2,2,0,0,1-.67.09h-.63v-.89h.88l.3-1-1.89-5.28h1.09l1,2.95.3,1.09h.05Z"/><path d="M32.3,120.46a2.73,2.73,0,0,1-1.51-.41,2.6,2.6,0,0,1-1-1.2,5.11,5.11,0,0,1-.33-2,5.35,5.35,0,0,1,.33-2,2.77,2.77,0,0,1,1-1.24,2.65,2.65,0,0,1,1.51-.42,2.57,2.57,0,0,1,1.47.4,2.61,2.61,0,0,1,.93,1.13l-.68.41a2,2,0,0,0-.64-.87A1.8,1.8,0,0,0,32.3,114a1.7,1.7,0,0,0-1.41.65,2.82,2.82,0,0,0-.5,1.73v1a2.61,2.61,0,0,0,.5,1.68,1.74,1.74,0,0,0,1.41.62,1.78,1.78,0,0,0,1.12-.35,2,2,0,0,0,.66-.91l.67.42a2.74,2.74,0,0,1-1,1.16A2.52,2.52,0,0,1,32.3,120.46Z"/><path d="M36.52,120.34h-.8v-5.16h.8v.95h0a1.43,1.43,0,0,1,.28-.47,1.5,1.5,0,0,1,.49-.35,1.75,1.75,0,0,1,.72-.13h.31v.8H37.9a2.31,2.31,0,0,0-.74.11,1.14,1.14,0,0,0-.48.31.65.65,0,0,0-.16.44Z"/><path d="M41.08,120.46a2.16,2.16,0,0,1-2-1.28,3.27,3.27,0,0,1-.29-1.42,3.35,3.35,0,0,1,.29-1.43,2.25,2.25,0,0,1,.81-.94,2.23,2.23,0,0,1,1.22-.33,2,2,0,0,1,2,1.22,3,3,0,0,1,.27,1.3V118H39.6v.24a1.56,1.56,0,0,0,.4,1.11,1.45,1.45,0,0,0,1.13.45,1.56,1.56,0,0,0,.85-.23,1.42,1.42,0,0,0,.57-.66l.57.41a2.05,2.05,0,0,1-.78.85A2.32,2.32,0,0,1,41.08,120.46Zm0-4.73a1.52,1.52,0,0,0-.77.2,1.45,1.45,0,0,0-.52.55,1.67,1.67,0,0,0-.19.81v.07h2.85v-.11a1.81,1.81,0,0,0-.17-.8,1.23,1.23,0,0,0-.48-.53A1.34,1.34,0,0,0,41.08,115.73Z"/><path d="M48.58,120.34h-.45a.91.91,0,0,1-.52-.14.77.77,0,0,1-.29-.37,1.55,1.55,0,0,1-.09-.55v-.07l.31.29h-.35a1.29,1.29,0,0,1-.56.71,1.66,1.66,0,0,1-.93.25,1.83,1.83,0,0,1-1.28-.42A1.48,1.48,0,0,1,44,118.9a1.4,1.4,0,0,1,.24-.83,1.52,1.52,0,0,1,.72-.51,4,4,0,0,1,1.24-.17h1v-.51a1.1,1.1,0,0,0-.3-.84,1.3,1.3,0,0,0-.92-.29,1.38,1.38,0,0,0-.78.21,1.78,1.78,0,0,0-.53.56l-.48-.45a1.88,1.88,0,0,1,.67-.71,2.46,2.46,0,0,1,2.61.16A1.62,1.62,0,0,1,48,116.8v2.84h.59ZM47.19,118H46.13a2,2,0,0,0-1,.2.65.65,0,0,0-.32.58V119a.69.69,0,0,0,.28.59,1.2,1.2,0,0,0,.74.21,1.68,1.68,0,0,0,.7-.13,1,1,0,0,0,.48-.34.71.71,0,0,0,.18-.47Z"/><path d="M51.61,120.34h-1a.81.81,0,0,1-.63-.24.85.85,0,0,1-.22-.61v-3.61h-.85v-.7h.48a.46.46,0,0,0,.35-.11.5.5,0,0,0,.1-.36v-1h.72v1.43h1.13v.7H50.56v3.76h1Z"/><path d="M53.13,114a.46.46,0,0,1-.37-.13.44.44,0,0,1-.12-.32v-.13a.48.48,0,0,1,.12-.33.5.5,0,0,1,.37-.12.42.42,0,0,1,.49.45v.13a.44.44,0,0,1-.12.32A.45.45,0,0,1,53.13,114Zm-.4,6.37v-5.16h.8v5.16Z"/><path d="M55.78,120.34H55v-5.16h.8V116h0a1.72,1.72,0,0,1,.53-.7,1.53,1.53,0,0,1,.93-.26,1.62,1.62,0,0,1,1.26.51A2.12,2.12,0,0,1,59,117v3.31h-.8v-3.17a1.56,1.56,0,0,0-.3-1,1.07,1.07,0,0,0-.87-.35,1.77,1.77,0,0,0-.61.1,1.06,1.06,0,0,0-.47.33.85.85,0,0,0-.18.55Z"/><path d="M64.76,120.94a1.31,1.31,0,0,1-.28.86,1.73,1.73,0,0,1-.84.5,5.34,5.34,0,0,1-1.38.16,4.77,4.77,0,0,1-1.31-.15,1.5,1.5,0,0,1-.73-.42,1,1,0,0,1-.23-.67.9.9,0,0,1,.22-.65,1.13,1.13,0,0,1,.6-.33v-.11a.81.81,0,0,1-.34-.29.76.76,0,0,1-.12-.44.7.7,0,0,1,.25-.59,1.66,1.66,0,0,1,.64-.31v0a1.66,1.66,0,0,1-.72-.64,2,2,0,0,1,0-1.9,1.66,1.66,0,0,1,.68-.63,2.08,2.08,0,0,1,1-.23,2.78,2.78,0,0,1,.52,0,1.66,1.66,0,0,1,.46.15v-.09a.87.87,0,0,1,.14-.5.52.52,0,0,1,.46-.19h.77v.7h-1v.33a1.58,1.58,0,0,1,.43.59,1.73,1.73,0,0,1,.16.76,1.79,1.79,0,0,1-.24.93,1.62,1.62,0,0,1-.68.64,2.23,2.23,0,0,1-1,.23l-.26,0-.24,0a1.65,1.65,0,0,0-.47.21.42.42,0,0,0-.21.37.31.31,0,0,0,.22.32,1.82,1.82,0,0,0,.57.08h1.1a2.16,2.16,0,0,1,1.39.36A1.22,1.22,0,0,1,64.76,120.94ZM64,121a.57.57,0,0,0-.24-.48,1.39,1.39,0,0,0-.83-.18H61.22a.83.83,0,0,0-.37.27.78.78,0,0,0-.11.41.75.75,0,0,0,.25.56,1.31,1.31,0,0,0,.87.23h.74a2.29,2.29,0,0,0,1-.2A.66.66,0,0,0,64,121Zm-1.79-3a1.21,1.21,0,0,0,.81-.25,1,1,0,0,0,.3-.77v-.28A.93.93,0,0,0,63,116a1.44,1.44,0,0,0-1.62,0,.93.93,0,0,0-.3.77V117a1,1,0,0,0,.3.77A1.21,1.21,0,0,0,62.22,118Z"/><path d="M69.47,120.46a2.08,2.08,0,0,1-1.7-.73,3.53,3.53,0,0,1,0-3.94,2.08,2.08,0,0,1,1.7-.73,2,2,0,0,1,1.24.34,2.09,2.09,0,0,1,.69.87l-.67.34a1.18,1.18,0,0,0-.47-.62,1.55,1.55,0,0,0-1.87.21,1.71,1.71,0,0,0-.36,1.12v.88a1.68,1.68,0,0,0,.36,1.11,1.35,1.35,0,0,0,1.08.44,1.51,1.51,0,0,0,.84-.23,1.63,1.63,0,0,0,.56-.67l.58.39a2.08,2.08,0,0,1-.75.88A2.1,2.1,0,0,1,69.47,120.46Z"/><path d="M74.28,120.46a2.18,2.18,0,0,1-1.22-.34,2.22,2.22,0,0,1-.82-.94,3.27,3.27,0,0,1-.29-1.42,3.35,3.35,0,0,1,.29-1.43,2.35,2.35,0,0,1,.82-.94,2.25,2.25,0,0,1,1.22-.33,2.22,2.22,0,0,1,1.21.33,2.28,2.28,0,0,1,.82.94,3.2,3.2,0,0,1,.3,1.43,3.13,3.13,0,0,1-.3,1.42,2.19,2.19,0,0,1-2,1.28Zm0-.71a1.46,1.46,0,0,0,1.06-.4,1.65,1.65,0,0,0,.41-1.22v-.74a1.65,1.65,0,0,0-.41-1.22,1.6,1.6,0,0,0-2.12,0,1.65,1.65,0,0,0-.41,1.22v.74a1.65,1.65,0,0,0,.41,1.22A1.46,1.46,0,0,0,74.28,119.75Z"/><path d="M78.48,120.34h-.8v-5.16h.8V116h0a1.83,1.83,0,0,1,.48-.68,1.31,1.31,0,0,1,.91-.28,1.91,1.91,0,0,1,.94.24,1.51,1.51,0,0,1,.64.81h0a1.52,1.52,0,0,1,1.57-1,1.54,1.54,0,0,1,1.23.51,2.16,2.16,0,0,1,.45,1.46v3.31H84v-3.17a1.72,1.72,0,0,0-.27-1,1,1,0,0,0-.86-.35,1.66,1.66,0,0,0-.59.1,1,1,0,0,0-.45.33.9.9,0,0,0-.17.55v3.58h-.8v-3.17a1.68,1.68,0,0,0-.27-1,1,1,0,0,0-.84-.35,1.72,1.72,0,0,0-.6.1,1,1,0,0,0-.46.33.9.9,0,0,0-.17.55Z"/><path d="M86.16,122.34v-7.16H87V116h0a1.45,1.45,0,0,1,.59-.73,1.82,1.82,0,0,1,.92-.23,1.92,1.92,0,0,1,1.12.33,2.13,2.13,0,0,1,.72.93,3.74,3.74,0,0,1,.26,1.44,3.69,3.69,0,0,1-.26,1.43,2.1,2.1,0,0,1-.72.94,1.92,1.92,0,0,1-1.12.33,1.54,1.54,0,0,1-1.51-1h0v2.84Zm2.13-2.6a1.37,1.37,0,0,0,1.07-.43,1.57,1.57,0,0,0,.39-1.11v-.88a1.61,1.61,0,0,0-.39-1.12,1.39,1.39,0,0,0-1.07-.42,1.67,1.67,0,0,0-.67.13,1.25,1.25,0,0,0-.48.35.79.79,0,0,0-.18.51v1.92a.87.87,0,0,0,.18.56,1.09,1.09,0,0,0,.48.36A1.67,1.67,0,0,0,88.29,119.74Z"/><path d="M95.91,120.34h-.45a.91.91,0,0,1-.52-.14.77.77,0,0,1-.29-.37,1.55,1.55,0,0,1-.09-.55v-.07l.31.29h-.35a1.29,1.29,0,0,1-.56.71,1.66,1.66,0,0,1-.93.25,1.83,1.83,0,0,1-1.28-.42,1.48,1.48,0,0,1-.45-1.14,1.4,1.4,0,0,1,.24-.83,1.52,1.52,0,0,1,.72-.51,4,4,0,0,1,1.24-.17h1v-.51a1.1,1.1,0,0,0-.3-.84,1.3,1.3,0,0,0-.92-.29,1.38,1.38,0,0,0-.78.21,1.78,1.78,0,0,0-.53.56l-.48-.45a1.88,1.88,0,0,1,.67-.71,2.06,2.06,0,0,1,1.16-.3,2.1,2.1,0,0,1,1.45.46,1.62,1.62,0,0,1,.53,1.28v2.84h.59ZM94.52,118H93.46a2,2,0,0,0-1,.2.65.65,0,0,0-.32.58V119a.69.69,0,0,0,.28.59,1.18,1.18,0,0,0,.74.21,1.71,1.71,0,0,0,.7-.13,1,1,0,0,0,.48-.34.71.71,0,0,0,.18-.47Z"/><path d="M98.35,120.46a2.34,2.34,0,0,1-1.2-.28,2.55,2.55,0,0,1-.84-.73l.57-.46a2.28,2.28,0,0,0,.67.58,1.69,1.69,0,0,0,.86.21,1.24,1.24,0,0,0,.79-.22.74.74,0,0,0,.29-.62.77.77,0,0,0-.2-.52,1.12,1.12,0,0,0-.7-.29l-.41-.06a3.4,3.4,0,0,1-.85-.24,1.35,1.35,0,0,1-.6-.47,1.54,1.54,0,0,1,.31-1.93,2.21,2.21,0,0,1,1.32-.37,2.37,2.37,0,0,1,.74.1,2.29,2.29,0,0,1,.59.28,2.85,2.85,0,0,1,.47.45l-.53.48a1.68,1.68,0,0,0-.5-.44,1.62,1.62,0,0,0-.83-.19,1.16,1.16,0,0,0-.75.21.74.74,0,0,0-.26.59.59.59,0,0,0,.25.54,1.77,1.77,0,0,0,.74.26l.4.06a2.2,2.2,0,0,1,1.22.49,1.33,1.33,0,0,1,.36,1,1.6,1.6,0,0,1-.23.86,1.5,1.5,0,0,1-.66.55A2.47,2.47,0,0,1,98.35,120.46Z"/><path d="M103,120.46a2.34,2.34,0,0,1-1.2-.28,2.55,2.55,0,0,1-.84-.73l.57-.46a2.28,2.28,0,0,0,.67.58,1.71,1.71,0,0,0,.86.21,1.24,1.24,0,0,0,.79-.22.74.74,0,0,0,.29-.62.77.77,0,0,0-.2-.52,1.12,1.12,0,0,0-.7-.29l-.41-.06a3.4,3.4,0,0,1-.85-.24,1.35,1.35,0,0,1-.6-.47,1.54,1.54,0,0,1,.31-1.93,2.21,2.21,0,0,1,1.32-.37,2.37,2.37,0,0,1,.74.1,2.29,2.29,0,0,1,.59.28,2.85,2.85,0,0,1,.47.45l-.53.48a1.68,1.68,0,0,0-.5-.44,1.62,1.62,0,0,0-.83-.19,1.16,1.16,0,0,0-.75.21.74.74,0,0,0-.26.59.59.59,0,0,0,.25.54,1.77,1.77,0,0,0,.74.26l.4.06a2.2,2.2,0,0,1,1.22.49,1.33,1.33,0,0,1,.36,1,1.6,1.6,0,0,1-.23.86,1.5,1.5,0,0,1-.66.55A2.47,2.47,0,0,1,103,120.46Z"/><path d="M106.44,114a.46.46,0,0,1-.37-.13.44.44,0,0,1-.12-.32v-.13a.48.48,0,0,1,.12-.33.5.5,0,0,1,.37-.12.42.42,0,0,1,.49.45v.13a.44.44,0,0,1-.12.32A.45.45,0,0,1,106.44,114Zm-.4,6.37v-5.16h.8v5.16Z"/><path d="M110.24,120.46a2.18,2.18,0,0,1-1.22-.34,2.22,2.22,0,0,1-.82-.94,3.27,3.27,0,0,1-.29-1.42,3.35,3.35,0,0,1,.29-1.43,2.35,2.35,0,0,1,.82-.94,2.25,2.25,0,0,1,1.22-.33,2.22,2.22,0,0,1,1.21.33,2.28,2.28,0,0,1,.82.94,3.2,3.2,0,0,1,.3,1.43,3.13,3.13,0,0,1-.3,1.42,2.19,2.19,0,0,1-2,1.28Zm0-.71a1.46,1.46,0,0,0,1.06-.4,1.65,1.65,0,0,0,.41-1.22v-.74a1.65,1.65,0,0,0-.41-1.22,1.6,1.6,0,0,0-2.12,0,1.65,1.65,0,0,0-.41,1.22v.74a1.65,1.65,0,0,0,.41,1.22A1.46,1.46,0,0,0,110.24,119.75Z"/><path d="M114.44,120.34h-.8v-5.16h.8V116h0a1.63,1.63,0,0,1,.53-.7,1.53,1.53,0,0,1,.93-.26,1.62,1.62,0,0,1,1.26.51,2.12,2.12,0,0,1,.47,1.46v3.31h-.8v-3.17a1.56,1.56,0,0,0-.3-1,1.08,1.08,0,0,0-.87-.35,1.74,1.74,0,0,0-.61.1,1,1,0,0,0-.47.33.85.85,0,0,0-.18.55Z"/><path d="M123.27,120.34h-.45a.89.89,0,0,1-.52-.14.77.77,0,0,1-.29-.37,1.55,1.55,0,0,1-.09-.55v-.07l.31.29h-.35a1.29,1.29,0,0,1-.56.71,1.66,1.66,0,0,1-.93.25,1.83,1.83,0,0,1-1.28-.42,1.48,1.48,0,0,1-.45-1.14,1.4,1.4,0,0,1,.24-.83,1.52,1.52,0,0,1,.72-.51,4,4,0,0,1,1.24-.17h1v-.51a1.1,1.1,0,0,0-.3-.84,1.3,1.3,0,0,0-.92-.29,1.38,1.38,0,0,0-.78.21,1.78,1.78,0,0,0-.53.56l-.48-.45a1.88,1.88,0,0,1,.67-.71,2.06,2.06,0,0,1,1.16-.3,2.1,2.1,0,0,1,1.45.46,1.62,1.62,0,0,1,.53,1.28v2.84h.59ZM121.88,118h-1.06a2,2,0,0,0-1,.2.63.63,0,0,0-.32.58V119a.69.69,0,0,0,.28.59,1.18,1.18,0,0,0,.74.21,1.71,1.71,0,0,0,.7-.13,1,1,0,0,0,.48-.34.71.71,0,0,0,.18-.47Z"/><path d="M126.3,120.34h-1a.79.79,0,0,1-.63-.24.85.85,0,0,1-.22-.61v-3.61h-.85v-.7h.48a.46.46,0,0,0,.35-.11.5.5,0,0,0,.1-.36v-1h.72v1.43h1.13v.7h-1.13v3.76h1Z"/><path d="M129.36,120.46a2.16,2.16,0,0,1-2-1.28,3.13,3.13,0,0,1-.29-1.42,3.2,3.2,0,0,1,.29-1.43,2.25,2.25,0,0,1,.81-.94,2.17,2.17,0,0,1,3.18.89,3,3,0,0,1,.27,1.3V118h-3.71v.24a1.56,1.56,0,0,0,.4,1.11,1.45,1.45,0,0,0,1.13.45,1.59,1.59,0,0,0,.85-.23,1.48,1.48,0,0,0,.57-.66l.57.41a2.05,2.05,0,0,1-.78.85A2.34,2.34,0,0,1,129.36,120.46Zm0-4.73a1.52,1.52,0,0,0-.77.2,1.38,1.38,0,0,0-.52.55,1.67,1.67,0,0,0-.19.81v.07h2.85v-.11a1.81,1.81,0,0,0-.17-.8,1.3,1.3,0,0,0-.48-.53A1.34,1.34,0,0,0,129.36,115.73Z"/><path d="M30.6,133.34l-1.38-5.16H30l.55,2.23.55,2.26h0l.63-2.26.65-2.23h.71l.67,2.23.64,2.26h0l.53-2.26.56-2.23h.75l-1.37,5.16h-1l-.72-2.48-.45-1.57h0l-.44,1.57-.72,2.48Z"/><path d="M39.14,133.46a2.18,2.18,0,0,1-1.22-.34,2.22,2.22,0,0,1-.82-.94,3.27,3.27,0,0,1-.29-1.42,3.35,3.35,0,0,1,.29-1.43,2.35,2.35,0,0,1,.82-.94,2.25,2.25,0,0,1,1.22-.33,2.22,2.22,0,0,1,1.21.33,2.28,2.28,0,0,1,.82.94,3.2,3.2,0,0,1,.3,1.43,3.13,3.13,0,0,1-.3,1.42,2.19,2.19,0,0,1-2,1.28Zm0-.71a1.44,1.44,0,0,0,1.06-.4,1.65,1.65,0,0,0,.41-1.22v-.74a1.65,1.65,0,0,0-.41-1.22,1.44,1.44,0,0,0-1.06-.4,1.46,1.46,0,0,0-1.06.4,1.65,1.65,0,0,0-.41,1.22v.74a1.65,1.65,0,0,0,.41,1.22A1.46,1.46,0,0,0,39.14,132.75Z"/><path d="M43.34,133.34h-.8v-5.16h.8v.95h0a1.43,1.43,0,0,1,.28-.47,1.5,1.5,0,0,1,.49-.35,1.75,1.75,0,0,1,.72-.13h.31v.8h-.47a2.31,2.31,0,0,0-.74.11,1.14,1.14,0,0,0-.48.31.65.65,0,0,0-.16.44Z"/><path d="M46,133.34v-7.4h.8v4.69h0l.79-.88,1.46-1.57h1l-1.91,2,2.1,3.12h-1l-1.71-2.63-.77.79v1.84Z"/><path d="M53.37,133.34v-4.46h-.84v-.7h.84v-1a1.32,1.32,0,0,1,.28-.87,1.06,1.06,0,0,1,.85-.33h.78v.7H54.17v1.54h1.11v.7H54.17v4.46Z"/><path d="M58,133.46a2.18,2.18,0,0,1-1.22-.34,2.22,2.22,0,0,1-.82-.94,3.27,3.27,0,0,1-.29-1.42,3.35,3.35,0,0,1,.29-1.43,2.35,2.35,0,0,1,.82-.94,2.25,2.25,0,0,1,1.22-.33,2.22,2.22,0,0,1,1.21.33,2.28,2.28,0,0,1,.82.94,3.2,3.2,0,0,1,.3,1.43,3.13,3.13,0,0,1-.3,1.42,2.19,2.19,0,0,1-2,1.28Zm0-.71a1.46,1.46,0,0,0,1.06-.4,1.65,1.65,0,0,0,.41-1.22v-.74a1.65,1.65,0,0,0-.41-1.22,1.6,1.6,0,0,0-2.12,0,1.65,1.65,0,0,0-.41,1.22v.74a1.65,1.65,0,0,0,.41,1.22A1.46,1.46,0,0,0,58,132.75Z"/><path d="M62.23,133.34h-.8v-5.16h.8v.95h.05a1.43,1.43,0,0,1,.28-.47,1.5,1.5,0,0,1,.49-.35,1.75,1.75,0,0,1,.72-.13h.31v.8h-.47a2.31,2.31,0,0,0-.74.11,1.14,1.14,0,0,0-.48.31.65.65,0,0,0-.16.44Z"/><path d="M67,133.34v-7.4h.8V129h0a1.63,1.63,0,0,1,.53-.7,1.53,1.53,0,0,1,.93-.26,1.62,1.62,0,0,1,1.26.51A2.12,2.12,0,0,1,71,130v3.31h-.8v-3.17a1.56,1.56,0,0,0-.3-1,1.08,1.08,0,0,0-.87-.35,1.77,1.77,0,0,0-.61.1,1,1,0,0,0-.47.33.85.85,0,0,0-.18.55v3.58Z"/><path d="M75.57,133.34v-.84h0a1.7,1.7,0,0,1-.48.66,1.37,1.37,0,0,1-1,.3,1.63,1.63,0,0,1-1.27-.52,2.07,2.07,0,0,1-.47-1.45v-3.31h.8v3.17a1.56,1.56,0,0,0,.3,1,1.1,1.1,0,0,0,.88.35,1.73,1.73,0,0,0,.6-.11,1,1,0,0,0,.47-.32.86.86,0,0,0,.18-.56v-3.57h.8v5.16Z"/><path d="M78.62,133.34h-.8v-5.16h.8V129h0a1.83,1.83,0,0,1,.48-.68,1.29,1.29,0,0,1,.91-.28,1.91,1.91,0,0,1,.94.24,1.56,1.56,0,0,1,.64.81h0a1.52,1.52,0,0,1,1.57-1.05,1.54,1.54,0,0,1,1.23.51A2.16,2.16,0,0,1,84.9,130v3.31h-.8v-3.17a1.72,1.72,0,0,0-.27-1,1,1,0,0,0-.86-.35,1.63,1.63,0,0,0-.59.1,1,1,0,0,0-.45.33.84.84,0,0,0-.17.55v3.58H81v-3.17a1.68,1.68,0,0,0-.27-1,1,1,0,0,0-.84-.35,1.72,1.72,0,0,0-.6.1,1,1,0,0,0-.46.33.9.9,0,0,0-.17.55Z"/><path d="M90.5,133.34h-.45a.89.89,0,0,1-.52-.14.77.77,0,0,1-.29-.37,1.55,1.55,0,0,1-.09-.55v-.07l.31.29h-.35a1.29,1.29,0,0,1-.56.71,1.66,1.66,0,0,1-.93.25,1.83,1.83,0,0,1-1.28-.42,1.48,1.48,0,0,1-.45-1.14,1.4,1.4,0,0,1,.24-.83,1.52,1.52,0,0,1,.72-.51,4,4,0,0,1,1.24-.17h1v-.51a1.1,1.1,0,0,0-.3-.84,1.3,1.3,0,0,0-.92-.29,1.38,1.38,0,0,0-.78.21,1.78,1.78,0,0,0-.53.56l-.48-.45a1.88,1.88,0,0,1,.67-.71,2.06,2.06,0,0,1,1.16-.3,2.1,2.1,0,0,1,1.45.46,1.62,1.62,0,0,1,.53,1.28v2.84h.59ZM89.11,131H88.05a2,2,0,0,0-1,.2.63.63,0,0,0-.32.58V132a.69.69,0,0,0,.28.59,1.18,1.18,0,0,0,.74.21,1.71,1.71,0,0,0,.7-.13,1,1,0,0,0,.48-.34.71.71,0,0,0,.18-.47Z"/><path d="M92.19,133.34h-.8v-5.16h.8V129h0a1.63,1.63,0,0,1,.53-.7,1.53,1.53,0,0,1,.93-.26,1.62,1.62,0,0,1,1.26.51,2.12,2.12,0,0,1,.47,1.46v3.31h-.8v-3.17a1.56,1.56,0,0,0-.3-1,1.08,1.08,0,0,0-.87-.35,1.74,1.74,0,0,0-.61.1,1,1,0,0,0-.47.33.85.85,0,0,0-.18.55Z"/><path d="M98.37,133.46a2.34,2.34,0,0,1-1.2-.28,2.55,2.55,0,0,1-.84-.73l.57-.46a2.28,2.28,0,0,0,.67.58,1.69,1.69,0,0,0,.86.21,1.24,1.24,0,0,0,.79-.22.74.74,0,0,0,.29-.62.77.77,0,0,0-.2-.52,1.12,1.12,0,0,0-.7-.29l-.41-.06a3.4,3.4,0,0,1-.85-.24,1.35,1.35,0,0,1-.6-.47,1.54,1.54,0,0,1,.31-1.93,2.21,2.21,0,0,1,1.32-.37,2.37,2.37,0,0,1,.74.1,2.29,2.29,0,0,1,.59.28,2.85,2.85,0,0,1,.47.45l-.53.48a1.68,1.68,0,0,0-.5-.44,1.62,1.62,0,0,0-.83-.19,1.16,1.16,0,0,0-.75.21.74.74,0,0,0-.26.59.59.59,0,0,0,.25.54,1.77,1.77,0,0,0,.74.26l.4.06a2.2,2.2,0,0,1,1.22.49,1.33,1.33,0,0,1,.36,1,1.6,1.6,0,0,1-.23.86,1.5,1.5,0,0,1-.66.55A2.47,2.47,0,0,1,98.37,133.46Z"/><g class="cls-3"><path class="cls-4" d="M234.41,373.91a10.4,10.4,0,1,1,10.4-10.4A10.42,10.42,0,0,1,234.41,373.91Zm0-20a9.6,9.6,0,1,0,9.6,9.6A9.62,9.62,0,0,0,234.41,353.91Z"/></g><path class="cls-5" d="M63.44,223.26h0a10,10,0,0,1,10,10h0a10,10,0,0,1-10,10h0a10,10,0,0,1-10-10h0a10,10,0,0,1,10-10Z"/><path d="M133,391.73a74.19,74.19,0,0,1-28.11-5.48l.15-.37c19.54,7.92,40.92,7.2,63.54-2.15,17.34-7.17,35.61-19.49,54.31-36.62l.27.29c-18.73,17.16-37,29.51-54.43,36.69C156.4,389.18,144.45,391.73,133,391.73Zm-2.13-5.14a82.44,82.44,0,0,1-26.6-4.35l.13-.38c34.93,11.84,75.06-.63,119.25-37.06l.26.31C190.39,372.71,159.22,386.59,130.84,386.59Zm-2.91-5.15a91.5,91.5,0,0,1-24.31-3.21l.11-.39c19.42,5.34,40.86,4,63.7-4,17.83-6.25,36.95-16.72,56.81-31.12l-2.28,1c-20,11.82-38,20.2-55,25.58-23.21,7.35-44.74,9-64,4.93l.08-.39c19.19,4.06,40.65,2.41,63.79-4.92,16.22-5.13,33.37-13,52.24-24l-1.53.64c-19.82,10-36.46,16.27-53,20a270.82,270.82,0,0,1-30.46,4.62c-12.83,1.36-22.93,1.38-31.79,0l.06-.4c8.83,1.33,18.9,1.32,31.68,0a267.14,267.14,0,0,0,30.42-4.61c14.58-3.29,29.28-8.57,46.2-16.68a181.6,181.6,0,0,1-44.21,12.93c-5.65.84-11.42,1.35-17,1.84-4.75.42-9.66.85-14.46,1.49-8.67,1.14-21.55,2.54-33.31,1.45l0-.4c11.71,1.09,24.57-.31,33.22-1.45,4.81-.63,9.72-1.07,14.47-1.49,5.58-.49,11.34-1,17-1.84a174.4,174.4,0,0,0,37.85-10.35q-1.66.59-3.33,1.14c-10.85,3.6-22.65,4.74-32.87,5.52-4.38.34-8.78.48-13.05.61a179.8,179.8,0,0,0-20.56,1.45,71.81,71.81,0,0,1-7.56.57,60.28,60.28,0,0,0-8.86.8,69.88,69.88,0,0,1-17,1.42v-.4A69.64,69.64,0,0,0,118,360.35a60,60,0,0,1,8.92-.81,70.47,70.47,0,0,0,7.52-.57,183.14,183.14,0,0,1,20.61-1.45c4.26-.13,8.66-.27,13-.6,10.19-.79,22-1.93,32.77-5.51,4.85-1.61,9.56-3.38,14.4-5.35,1.34-.59,2.65-1.19,4-1.79l.19-.1c-5.34,1.74-10.59,3.34-16,4.78-10.74,2.89-22,3.47-34.54,3.89-4,.13-7.95.1-11.8.07-8.05-.06-15.66-.13-23.55,1.16a64.73,64.73,0,0,1-7,.62,47.73,47.73,0,0,0-9.22,1.06,68,68,0,0,1-16.75,2.4v-.4a68.31,68.31,0,0,0,16.66-2.38,47.21,47.21,0,0,1,9.3-1.08,66.31,66.31,0,0,0,7-.61c7.92-1.3,15.9-1.23,23.61-1.17,3.85,0,7.82.06,11.78-.07,12.52-.42,23.76-1,34.46-3.87,6.16-1.66,12.14-3.52,18.3-5.55l.46-.24c-7.17,1.82-14.53,3.59-22.21,5.37-10.72,2.46-21.92,1.93-32.74,1.42-5.52-.26-11.23-.75-17.46-1.49s-10.34-.09-16.52.89l-.37.06c-2.09.33-4.24.45-6.33.57a38.57,38.57,0,0,0-9.84,1.39,63.25,63.25,0,0,1-16.73,3.14l0-.4a62.75,62.75,0,0,0,16.62-3.12,39.18,39.18,0,0,1,10-1.41c2.07-.12,4.22-.24,6.29-.56l.37-.06c6.21-1,10.32-1.64,16.63-.89s11.92,1.22,17.43,1.48c10.8.51,22,1,32.63-1.41,8.21-1.9,16-3.79,23.68-5.75l-8.12,1.77c-5.76,1.25-11.71,2.55-17.56,3.88-10.35,2.35-20.21,1.16-31.09-.51-5-.77-10.31-1.8-16.14-3.16-.61-.14-1.28-.35-2-.58a13.08,13.08,0,0,0-4-.87,25.16,25.16,0,0,0-5.69,1.09,31.17,31.17,0,0,1-4.57,1c-1.93.23-3.91.3-5.83.38-3.77.15-7.67.3-11.31,1.59a66.23,66.23,0,0,1-17.91,3.5l0-.4a65.42,65.42,0,0,0,17.82-3.48c3.7-1.31,7.63-1.46,11.43-1.61,1.9-.07,3.88-.15,5.8-.37a33.81,33.81,0,0,0,4.51-1,25.22,25.22,0,0,1,5.78-1.11,13.42,13.42,0,0,1,4.13.89c.69.22,1.35.44,2,.57,5.82,1.36,11.09,2.39,16.11,3.16,10.84,1.66,20.66,2.84,30.94.51,5.85-1.33,11.8-2.63,17.56-3.88,3.19-.69,6.42-1.39,9.67-2.11l1.94-1,.15.28,1.27-.63-5.75.9c-8.57,1.34-17.42,2.72-26.08,4.32-10.54,2-19.83.31-29.21-1.72-4.32-.93-9-2.15-14.31-3.72-.53-.16-1.11-.38-1.73-.62a11.9,11.9,0,0,0-3.57-1,25.2,25.2,0,0,0-6.3,1.09,35.7,35.7,0,0,1-4.77,1c-2,.19-4.08.23-6.09.27-4.17.08-8.48.16-12.42,1.67-6.37,2.44-11.94,3.32-19.42,4l0-.39c7.44-.7,13-1.58,19.31-4,4-1.53,8.36-1.62,12.56-1.7,2,0,4.07-.08,6.06-.27a33.66,33.66,0,0,0,4.71-1,25.36,25.36,0,0,1,6.41-1.1,12.38,12.38,0,0,1,3.7,1c.61.24,1.19.46,1.71.62,5.29,1.56,10,2.78,14.28,3.71,9.33,2,18.58,3.67,29,1.72,8.66-1.61,17.52-3,26.09-4.32,5.14-.8,10.45-1.63,15.66-2.5l.06.4-7.56,1.22.13.3-.71.31.32-.07,2.28-.78.08.25,1.42-.32.5-.14v0l1.84-.43.09.39-2.34.54q-2.82.76-5.66,1.5l-3,1-1.28.56.22.31c-19.92,14.45-39.1,25-57,31.22C153.8,379,140.54,381.44,127.93,381.44Zm100.77-41.6.13.25-1.23.61.48-.11,2.26-1ZM98,342.08l-.05-.4c7.33-.86,13-1.67,19-4.36,4.21-1.87,8.87-1.93,13.38-2,2.2,0,4.47-.06,6.65-.3,1.28-.14,2.47-.31,3.62-.47,4.22-.6,7.86-1.11,12.61.23,5.47,1.55,10,2.7,14.36,3.62,10.05,2.15,19.15,3.82,28.76,2.51,10.22-1.4,20.7-2.29,30.83-3.15,4-.34,8.19-.69,12.27-1.07l0,.39c-4.09.38-8.25.74-12.27,1.08-10.13.86-20.6,1.75-30.81,3.15-9.68,1.32-18.82-.36-28.9-2.52-4.34-.92-8.91-2.08-14.39-3.62-4.67-1.32-8.1-.84-12.44-.23-1.15.16-2.35.33-3.63.48-2.2.24-4.48.27-6.69.3-4.47.06-9.1.12-13.23,2C111.05,340.4,105.37,341.22,98,342.08Zm-.63-4,0-.4c6.51-.87,12-1.77,17.87-4.62,4-1.93,8.45-1.91,12.74-1.88a60.74,60.74,0,0,0,6.18-.18c1.21-.12,2.34-.25,3.43-.38,4.37-.52,8.15-1,13.07.19,6.37,1.51,11.55,2.61,16.31,3.49l1,.19c9.88,1.81,20.1,3.68,30.22,2.64,10.46-1.08,21.19-1.36,31.57-1.64,3.37-.09,6.86-.18,10.28-.3l0,.4c-3.43.12-6.92.21-10.29.3-10.37.28-21.1.56-31.53,1.64-10.19,1.05-20.43-.83-30.34-2.65l-1-.19c-4.77-.87-10-2-16.33-3.49-4.85-1.15-8.6-.7-12.93-.19-1.1.13-2.23.27-3.44.39a61.61,61.61,0,0,1-6.22.18c-4.25,0-8.64-.05-12.56,1.84C109.41,336.28,103.93,337.18,97.38,338.06Zm96.71-3.95c-8.27,0-16.62-1.3-24.76-2.57l-3.7-.57c-6.56-1-12.95-2.21-18.33-3.26-4.85-.94-8.69-.6-13.13-.21-1.1.1-2.24.2-3.44.29-1.95.14-3.88.08-5.74,0-4-.1-7.86-.21-11.66,1.53A55.79,55.79,0,0,1,96.75,334l-.06-.4A55.13,55.13,0,0,0,113.17,329c3.88-1.77,7.74-1.67,11.83-1.56,1.85.05,3.77.1,5.7,0,1.2-.09,2.34-.19,3.44-.29,4.47-.39,8.33-.74,13.23.22,5.38,1.05,11.77,2.25,18.32,3.25l3.71.57c9.9,1.55,20.15,3.14,30.13,2.36,10.42-.81,21.12-.55,31.46-.29,3,.07,6,.15,9.06.19v.4c-3,0-6.09-.12-9.07-.19-10.33-.26-21-.52-31.42.29C197.74,334.05,195.92,334.11,194.09,334.11Zm45.49-2.24c-8.32-.61-16.75-1-24.9-1.34-16-.71-32.55-1.44-48.84-4-6.48-1-12.94-2.22-18.48-3.28-4.75-.9-8.54-.59-12.94-.23-1.23.1-2.51.21-3.86.29-1.95.11-3.88,0-5.74,0-4.12-.17-8-.33-11.89,1.55a20,20,0,0,0-2.22,1.37,13.06,13.06,0,0,1-3.26,1.82,42.32,42.32,0,0,1-8,1.51c-1.17.15-2.27.29-3.33.46l-.06-.39c1.06-.18,2.17-.32,3.34-.46a42.77,42.77,0,0,0,7.92-1.5,13.53,13.53,0,0,0,3.17-1.76,15.69,15.69,0,0,1,2.27-1.4c4-1.93,7.9-1.77,12.08-1.6a56.87,56.87,0,0,0,5.7,0c1.34-.08,2.62-.19,3.85-.29,4.42-.36,8.24-.68,13,.24,5.54,1.06,12,2.27,18.48,3.27,16.26,2.52,32.8,3.26,48.79,4,8.15.36,16.58.73,24.91,1.34Zm-.78-2c-2.7-.32-5.45-.68-8.12-1-10.45-1.35-21.26-2.75-31.84-2.48-9.14.22-18.52-.79-27.6-1.77l-3.49-.37c-5.34-.57-10.58-1.28-16.39-2.09a61,61,0,0,0-10.71-.28c-2.06.07-4.2.14-6.37.08a53.48,53.48,0,0,1-6.28-.65c-4.55-.64-9.26-1.31-13.51.64-6.5,3-12.58,3.53-19,4.12l0-.4c6.4-.58,12.44-1.13,18.88-4.08,4.37-2,9.13-1.32,13.74-.67a55,55,0,0,0,6.23.64c2.16.06,4.29,0,6.34-.08a63.36,63.36,0,0,1,10.79.28c5.8.81,11,1.52,16.37,2.09l3.49.37c9.07,1,18.44,2,27.55,1.77,10.61-.27,21.43,1.13,31.9,2.48,2.67.34,5.42.7,8.12,1Zm-.93-2.07c-2.73-.37-5.52-.78-8.21-1.17-11-1.6-22.28-3.25-33.39-3-8.34.18-16.89-.68-25.17-1.51l-2.4-.24c-4.19-.42-8.43-1-12.52-1.52l-1.15-.15a69.9,69.9,0,0,0-9.55-.38c-2.46,0-5,0-7.53-.17a63,63,0,0,1-6.82-1.07c-5.1-1-10.36-2-15.12-.05-6.68,2.75-12.88,3.07-20.05,3.44l-1.12.06,0-.4,1.12-.06c7.13-.37,13.3-.68,19.92-3.41,4.87-2,10.19-1,15.34,0a60.28,60.28,0,0,0,6.78,1.06c2.52.2,5.05.18,7.49.17a69.22,69.22,0,0,1,9.61.39l1.15.15c4.09.54,8.33,1.09,12.51,1.51l2.4.24c8.26.83,16.8,1.69,25.12,1.51,11.13-.25,22.48,1.41,33.46,3,2.69.39,5.48.8,8.2,1.17Zm-1-2c-2.84-.37-5.73-.78-8.53-1.17-11.78-1.66-24-3.37-35.9-3-8.21.27-16.42-1-24.35-2.23-2-.32-4.12-.71-6.12-1.08-1.59-.3-3.23-.6-4.86-.87a64.14,64.14,0,0,0-9.43-.64c-2.4,0-4.88-.08-7.35-.34a68.35,68.35,0,0,1-7.21-1.31c-5.45-1.2-11.09-2.44-16.26-.46-7.14,2.73-13.72,3-21.34,3.28L94.2,318v-.4l1.37-.05c7.58-.3,14.13-.55,21.21-3.26,5.28-2,11-.76,16.48.44a66.06,66.06,0,0,0,7.17,1.31c2.45.26,4.92.3,7.32.34a65.14,65.14,0,0,1,9.49.64c1.62.27,3.27.58,4.86.88,2,.37,4.07.75,6.11,1.07,7.92,1.23,16.1,2.5,24.28,2.23,12-.39,24.16,1.33,36,3,2.79.39,5.69.8,8.52,1.17Zm-.85-1.93c-2.8-.47-5.66-1-8.43-1.49-11.77-2.12-23.94-4.33-35.92-4.15-7.54.11-15.07-1.14-22.35-2.35l-1.58-.26c-1.83-.31-3.69-.67-5.48-1s-3.46-.67-5.2-1a63.93,63.93,0,0,0-9.21-.67c-2.5-.07-5.08-.13-7.63-.44a67.66,67.66,0,0,1-7.21-1.45c-5.55-1.33-11.3-2.7-16.52-.61-7.12,2.85-13.7,3.14-21.31,3.48l-1.66.07,0-.4,1.66-.07c7.58-.34,14.12-.63,21.18-3.45,5.34-2.14,11.15-.75,16.76.59a65.29,65.29,0,0,0,7.16,1.44c2.54.31,5.11.37,7.6.44a63.56,63.56,0,0,1,9.27.68c1.74.29,3.5.63,5.2,1s3.65.7,5.48,1l1.58.26c7.26,1.21,14.76,2.46,22.28,2.35,12-.17,24.2,2,36,4.16,2.77.5,5.63,1,8.43,1.49Zm-.68-1.92c-2.65-.6-5.37-1.25-8-1.88-11.16-2.68-22.7-5.45-34.13-5.57-6.94-.07-14-1.2-20.77-2.3-1.76-.29-3.57-.58-5.35-.85-2.36-.36-4.76-.76-7.08-1.15-1.82-.3-3.64-.61-5.47-.9a71.41,71.41,0,0,0-9-.64,78,78,0,0,1-8.16-.51,58.41,58.41,0,0,1-6.78-1.51c-5.37-1.41-10.93-2.87-15.82-.6-6.62,3.08-12.76,3.46-19.87,3.9L93,310l0-.4,2-.13c7.07-.44,13.18-.82,19.73-3.86,5-2.33,10.65-.85,16.09.58a58.37,58.37,0,0,0,6.73,1.49,79.94,79.94,0,0,0,8.12.52,68.69,68.69,0,0,1,9,.64q2.74.44,5.48.9c2.32.39,4.71.79,7.07,1.14,1.78.27,3.6.57,5.35.85,6.79,1.1,13.81,2.23,20.72,2.3,11.47.12,23,2.9,34.21,5.58,2.63.63,5.35,1.28,8,1.88Zm-.59-2.33c-2.51-.71-5.08-1.47-7.56-2.21-10.49-3.13-21.34-6.37-32.19-6.69a155,155,0,0,1-20.35-2.44c-2.58-.43-5.24-.86-7.84-1.24-2.29-.33-4.62-.69-6.86-1-2.46-.38-5-.77-7.5-1.13a77,77,0,0,0-8.54-.57,75.21,75.21,0,0,1-8.69-.59,48.67,48.67,0,0,1-6.3-1.53c-5.15-1.47-10.47-3-15-.51-6,3.34-11.7,3.83-18.27,4.4l-2.22.19,0-.39,2.21-.2c6.53-.57,12.16-1.06,18.12-4.35,4.63-2.57,10-1,15.25.48a48.88,48.88,0,0,0,6.24,1.51,74.38,74.38,0,0,0,8.65.59,78.1,78.1,0,0,1,8.59.58c2.5.35,5,.75,7.5,1.13,2.24.34,4.57.7,6.85,1,2.61.38,5.28.82,7.86,1.25a156,156,0,0,0,20.3,2.43c10.89.32,21.76,3.57,32.28,6.7,2.48.74,5.05,1.51,7.56,2.22Zm-.28-2.34c-2.39-.82-4.84-1.71-7.2-2.57-9.87-3.57-20.07-7.27-30.39-7.8a161.38,161.38,0,0,1-20.37-2.8c-3.14-.56-6.39-1.15-9.55-1.63l-6.31-1c-3.13-.5-6.36-1-9.56-1.47a74.59,74.59,0,0,0-8.66-.55,73.8,73.8,0,0,1-8.74-.56,45.76,45.76,0,0,1-6-1.46c-4.87-1.41-9.9-2.87-14.19-.26a22,22,0,0,0-2,1.37,13.08,13.08,0,0,1-4,2.29,43.23,43.23,0,0,1-9.19,1.36c-1.54.12-3,.23-4.32.41l0-.4c1.34-.18,2.8-.29,4.34-.41a42.84,42.84,0,0,0,9.1-1.34,12.69,12.69,0,0,0,3.85-2.23c.63-.47,1.28-1,2-1.4,4.44-2.7,9.56-1.21,14.51.22a43,43,0,0,0,6,1.45,72.83,72.83,0,0,0,8.69.56,73.57,73.57,0,0,1,8.71.56c3.19.45,6.43,1,9.57,1.46l6.3,1c3.17.48,6.42,1.06,9.56,1.63A162.67,162.67,0,0,0,197,306.43c10.38.53,20.61,4.24,30.5,7.82,2.37.86,4.82,1.75,7.2,2.57Zm0-2.36c-2.25-.91-4.56-1.9-6.8-2.86-4.09-1.75-8.33-3.55-12.46-5.05-5.62-2-10-3.51-15.66-3.9a172.09,172.09,0,0,1-21.4-3.32c-3.58-.72-7.28-1.45-10.9-2l-5.77-1c-3.59-.61-7.3-1.24-11-1.79a67,67,0,0,0-9.32-.55,78.12,78.12,0,0,1-8-.38,42.92,42.92,0,0,1-6.43-1.48c-4.61-1.31-9.37-2.66-13.26-.71a14.72,14.72,0,0,0-3,2.22,12.55,12.55,0,0,1-4.09,2.69,44.27,44.27,0,0,1-8.76,1.61c-1.55.18-3,.35-4.36.59l-.07-.4c1.36-.23,2.83-.41,4.39-.59a43.24,43.24,0,0,0,8.67-1.59,12.3,12.3,0,0,0,4-2.61,15.07,15.07,0,0,1,3.13-2.28c4-2,8.87-.65,13.55.68a41.24,41.24,0,0,0,6.37,1.47,77.09,77.09,0,0,0,8,.38,67.93,67.93,0,0,1,9.37.55c3.66.56,7.37,1.19,11,1.79l5.78,1c3.62.59,7.32,1.33,10.9,2a170,170,0,0,0,21.35,3.32c5.69.39,10.13,1.87,15.78,3.92,4.14,1.5,8.38,3.31,12.48,5.07,2.23.95,4.54,1.94,6.79,2.85Zm.24-2.34c-2.22-1.05-4.51-2.19-6.72-3.28-3.91-2-7.95-4-11.89-5.62-4.78-2-9.3-3.92-15.17-4.48a178.86,178.86,0,0,1-21.42-3.8c-4-.88-8.11-1.78-12.15-2.5l-5-.91c-4.17-.76-8.48-1.54-12.74-2.22a66.72,66.72,0,0,0-9.89-.58,79.13,79.13,0,0,1-7.94-.32,40.81,40.81,0,0,1-6.4-1.41c-4.64-1.27-9.43-2.59-13.26-.46a14.56,14.56,0,0,0-3,2.44,12.13,12.13,0,0,1-4,2.95,42.94,42.94,0,0,1-8.75,1.94c-1.57.23-3.07.46-4.42.75l-.08-.39c1.36-.29,2.86-.52,4.44-.76a42.43,42.43,0,0,0,8.66-1.91,11.8,11.8,0,0,0,3.9-2.87,15.1,15.1,0,0,1,3.08-2.5c4-2.21,8.85-.87,13.57.43a41.63,41.63,0,0,0,6.33,1.4c2.66.27,5.33.3,7.9.31a66.49,66.49,0,0,1,10,.59c4.26.67,8.57,1.46,12.74,2.22l5,.91c4.05.72,8.17,1.62,12.16,2.5A181.47,181.47,0,0,0,201,298.72c5.94.56,10.49,2.48,15.29,4.51,4,1.67,8,3.68,11.92,5.63,2.21,1.1,4.49,2.23,6.71,3.28Zm.44-2.32c-2.27-1.21-4.6-2.51-6.84-3.76-3.66-2.05-7.45-4.16-11.15-6l-.51-.26c-4.68-2.32-8.73-4.32-14-5-7.14-.87-14.36-2.45-21.34-4-4.7-1-9.56-2.09-14.35-2.92l-4.28-.76c-2.94-.52-5.94-1.05-9-1.55-2.65-.15-5.31-.29-8-.38-1.84-.07-3.77-.07-5.63-.07-5.14,0-10.45,0-15.3-1.39a37.22,37.22,0,0,1-4.5-1.85l-1.54-.7c-3-.58-6-.6-8.53,1.07a15.08,15.08,0,0,0-2.67,2.41,11.47,11.47,0,0,1-4.07,3.15,44,44,0,0,1-8.35,2c-1.59.28-3.1.54-4.47.87l-.1-.39c1.39-.33,2.9-.59,4.51-.87a43.63,43.63,0,0,0,8.26-2,11,11,0,0,0,3.93-3.05,15.26,15.26,0,0,1,2.75-2.47,10.42,10.42,0,0,1,7.26-1.38c-3.08-1.27-6.22-2.15-8.69-1a8,8,0,0,0-3,2.58,7.91,7.91,0,0,1-4.09,3,39.25,39.25,0,0,1-7.66,1.2c-1.52.14-3,.27-4.27.48l-.06-.39c1.32-.22,2.77-.35,4.3-.49a40,40,0,0,0,7.58-1.18,7.5,7.5,0,0,0,3.89-2.91,8.45,8.45,0,0,1,3.16-2.7c3-1.36,6.85.05,10.45,1.66,1.57.3,3.15.75,4.72,1.19a42.12,42.12,0,0,0,5.58,1.32,71.14,71.14,0,0,0,9.41.48,71,71,0,0,1,10.11.58c1.67.25,3.35.52,5,.8l7.1.44,4.11.25a357.76,357.76,0,0,1,37,4.3c5.88,1,10.19,3,16.08,6.33,3.45,2,7,4.1,10.41,6.16,2.46,1.49,5,3,7.5,4.49l-.2.34c-2.5-1.46-5-3-7.51-4.49-3.42-2.06-6.95-4.19-10.4-6.15-5.85-3.33-10.12-5.32-15.95-6.29a357.06,357.06,0,0,0-37-4.29l-4.12-.25-3.44-.22,5.35.94,4.28.75c4.79.84,9.66,1.9,14.36,2.93,7,1.53,14.19,3.11,21.31,4,5.37.65,9.44,2.67,14.15,5l.52.26c3.71,1.83,7.5,3.95,11.16,6,2.25,1.25,4.57,2.55,6.84,3.76Zm-93.77-25c1.46,0,2.94,0,4.37.07l4.25.18-1.35-.21a71.4,71.4,0,0,0-10-.57,71.9,71.9,0,0,1-9.46-.48,43.34,43.34,0,0,1-5.63-1.33c-1-.27-1.89-.54-2.84-.77a33.22,33.22,0,0,0,4.26,1.73c4.79,1.4,10.07,1.39,15.18,1.38Zm95.1,20.54c-2.61-1.49-5.28-3.06-7.86-4.58-3.66-2.15-7.44-4.37-11.13-6.41-6-3.34-10.72-5.45-16.83-6.41-12.06-1.88-25-3.74-38.33-4.65L159,283.4c-5.39-.37-11-.76-16.46-1-1.67-.07-3.41-.08-5.09-.1-5.24,0-10.65-.09-15.64-1.67a29.75,29.75,0,0,1-4.35-2c-3.75-2-8-4.21-11-2.66a7.19,7.19,0,0,0-2.69,2.61,7,7,0,0,1-3.73,3.1,32.52,32.52,0,0,1-7.41,1.2c-1.45.13-2.82.25-4,.45l-.06-.4c1.19-.19,2.56-.32,4-.45a32.42,32.42,0,0,0,7.31-1.17,6.61,6.61,0,0,0,3.55-3,7.53,7.53,0,0,1,2.83-2.73c3.17-1.65,7.52.64,11.35,2.65a29,29,0,0,0,4.29,2c4.93,1.56,10.31,1.61,15.52,1.65,1.68,0,3.43,0,5.11.1,5.49.22,11.07.61,16.47,1l3.34.23c6.58.45,13.08,1.14,19.43,1.94-2.22-.42-4.42-.86-6.6-1.3-5.09-1-10.34-2.07-15.5-2.81l-2-.28c-6.09-.87-12.4-1.78-18.62-2.43-1.86-.19-3.83-.29-5.74-.38-4.2-.21-8.56-.43-12.45-1.66a30.55,30.55,0,0,1-4.53-2.13c-4-2.09-8.42-4.46-11.49-2.53a6.49,6.49,0,0,0-2.38,2.68,6,6,0,0,1-3.66,3.22,32.47,32.47,0,0,1-7,1.29c-1.46.17-2.83.32-4,.56l-.08-.4c1.2-.23,2.58-.39,4-.56a32.55,32.55,0,0,0,6.9-1.26,5.66,5.66,0,0,0,3.45-3,6.9,6.9,0,0,1,2.51-2.83c3.27-2.06,7.85.38,11.9,2.52a30.12,30.12,0,0,0,4.46,2.1c3.85,1.22,8.17,1.43,12.35,1.64,1.91.09,3.89.19,5.76.39,6.23.65,12.54,1.55,18.64,2.43l2,.28c5.16.74,10.43,1.79,15.51,2.81A204.44,204.44,0,0,0,197.13,287c6.57.57,12.32,2.31,19.83,6l7,3.42,13.51,6.6-.17.36-13.52-6.6-7-3.43a66.72,66.72,0,0,0-10.82-4.3,59.09,59.09,0,0,1,11.76,5.28c3.7,2,7.48,4.27,11.14,6.42,2.58,1.51,5.25,3.08,7.86,4.57Zm-36.82-18,1.06.17.28,0Zm38.34,13.36c-2.32-1.14-4.68-2.27-7-3.36-4.87-2.32-9.91-4.72-14.72-7.38a51.63,51.63,0,0,0-20.72-6.41c-7.53-.71-15.15-2.49-22.51-4.21-4.86-1.14-9.87-2.31-14.79-3.16l-1.15-.2c-6.25-1.08-12.7-2.19-19.09-3-2-.26-4.19-.39-6.29-.5-4-.23-8.06-.46-11.73-1.6a29.56,29.56,0,0,1-4.47-2.09c-4-2.08-8.43-4.44-11.44-2.38a6.38,6.38,0,0,0-2.3,2.9,6,6,0,0,1-3.57,3.49,31.71,31.71,0,0,1-7,1.53c-1.47.22-2.86.43-4,.71l-.1-.39c1.2-.28,2.6-.49,4.08-.71a32.26,32.26,0,0,0,6.86-1.51,5.52,5.52,0,0,0,3.36-3.3,6.76,6.76,0,0,1,2.43-3.05c3.22-2.2,7.8.22,11.85,2.36a28.51,28.51,0,0,0,4.41,2.05c3.62,1.13,7.69,1.36,11.64,1.59,2.1.12,4.27.24,6.31.5,6.4.81,12.86,1.93,19.1,3l1.16.2c4.93.85,10,2,14.81,3.16,7.35,1.71,15,3.49,22.45,4.21A51.94,51.94,0,0,1,216.56,290c4.8,2.65,9.83,5.05,14.69,7.37,2.29,1.09,4.65,2.22,7,3.37Zm.75-2.3c-2.43-1.29-4.91-2.53-7.31-3.74-4.82-2.41-9.81-4.91-14.46-7.83a48.36,48.36,0,0,0-20.51-7.37,187,187,0,0,1-23-4.64c-5.18-1.27-10.53-2.58-15.81-3.54l-.24-.05c-6.47-1.18-13.16-2.4-19.78-3.28-2.24-.3-4.61-.42-6.9-.55a55.17,55.17,0,0,1-10.91-1.29,26.59,26.59,0,0,1-5.06-2.28c-4-2.1-8.44-4.49-11.59-2a6.2,6.2,0,0,0-2.08,3,5.54,5.54,0,0,1-3.54,3.65A31,31,0,0,1,91,270.53c-1.47.26-2.86.5-4.14.85l-.11-.38c1.3-.36,2.7-.61,4.18-.87a30.43,30.43,0,0,0,6.48-1.63,5.12,5.12,0,0,0,3.32-3.42A6.64,6.64,0,0,1,103,261.9c3.34-2.65,8-.2,12,2a25.79,25.79,0,0,0,5,2.26,55.7,55.7,0,0,0,10.83,1.28c2.3.12,4.68.24,6.93.54,6.63.88,13.33,2.11,19.8,3.29l.24,0c5.29,1,10.65,2.28,15.83,3.55a186.67,186.67,0,0,0,23,4.63,48.8,48.8,0,0,1,20.67,7.43c4.64,2.91,9.61,5.4,14.43,7.82,2.4,1.2,4.89,2.45,7.31,3.74Zm.74-2.3c-2.8-1.61-5.62-3.19-8.42-4.78-4.94-2.79-10-5.67-15-8.55-5.72-3.33-11.44-6.4-18.53-7.39-7.24-1-14.51-2.6-21.55-4.14-6.52-1.42-13.26-2.9-20-3.91l-.3,0c-6.66-1-13.54-2-20.35-2.73-1.92-.19-4-.27-6-.34-4.43-.16-9-.33-13-1.78a26.35,26.35,0,0,1-4.5-2.41c-3.69-2.29-7.51-4.65-10.64-1.9a5.89,5.89,0,0,0-1.62,2.71A5.42,5.42,0,0,1,96.29,265a29.42,29.42,0,0,1-6,1.51c-1.43.26-2.77.51-4,.86l-.11-.38c1.27-.36,2.68-.62,4.06-.87a28.86,28.86,0,0,0,5.89-1.49,5,5,0,0,0,3.16-3.55A6.34,6.34,0,0,1,101,258.2c2.44-2.15,5.29-1.37,8.07.08l-.37-.3c-3.25-2.55-6.94-5.44-9.73-2.77a5.05,5.05,0,0,0-1.35,2.52,5.3,5.3,0,0,1-2.75,3.66c-1.42.82-3.57,1.08-5.66,1.34a26.47,26.47,0,0,0-3.58.61l-.11-.38a23.24,23.24,0,0,1,3.64-.62,16.3,16.3,0,0,0,5.51-1.29,4.93,4.93,0,0,0,2.56-3.43,5.49,5.49,0,0,1,1.46-2.7c3-2.91,6.87.1,10.26,2.75a23,23,0,0,0,3.83,2.65c4.29,2,9.35,2.06,14.24,2.08,1.55,0,3,0,4.48.08,7.45.34,15.1,1.08,21.85,1.73,9.8,1,19.5,2.72,28.88,4.43,4.81.88,9.79,1.78,14.73,2.57,7.35,1.18,13.31,4.53,19.28,8.16,5.27,3.21,10.7,6.43,15.95,9.54l8.28,4.92-.21.34L232,289.25c-5.25-3.11-10.68-6.33-15.95-9.53-5.93-3.61-11.86-7-19.13-8.11-5-.79-9.93-1.7-14.75-2.58-9.36-1.71-19.05-3.47-28.83-4.42-6.75-.65-14.4-1.39-21.83-1.73-1.45-.07-2.92-.07-4.47-.08-4.3,0-8.72,0-12.67-1.4a14.28,14.28,0,0,0,2.19,1c4,1.43,8.52,1.6,12.91,1.76,2,.07,4.05.15,6,.34,6.82.69,13.7,1.73,20.37,2.74l.3,0c6.72,1,13.46,2.49,20,3.92,7,1.54,14.29,3.13,21.51,4.13s12.93,4.09,18.69,7.44c4.95,2.88,10,5.76,15,8.55l8.43,4.78Zm1.5-4.61L233.13,287c-5.48-3.4-11.16-6.91-16.65-10.47-7.52-4.86-13.13-7.79-21.22-9.36-13.83-2.67-28.12-5.43-43.15-6.51-7.86-.57-15.56-1.08-23.37-1.19-1,0-2.1,0-3.13,0-5,0-10.25.08-14.88-2.51a24.39,24.39,0,0,1-3.54-2.69c-3.24-2.76-6.59-5.61-9.31-2.72a4.78,4.78,0,0,0-1.19,2.43A4.67,4.67,0,0,1,94,257.48a16.13,16.13,0,0,1-5.41,1.25,23.31,23.31,0,0,0-3.52.6l-.11-.39a24.26,24.26,0,0,1,3.59-.61,15.5,15.5,0,0,0,5.25-1.2,4.27,4.27,0,0,0,2.54-3.28,5.24,5.24,0,0,1,1.28-2.61c3-3.17,6.65-.06,9.87,2.69a24.57,24.57,0,0,0,3.47,2.64c4.54,2.54,9.7,2.49,14.69,2.46,1,0,2.09,0,3.13,0,7.83.11,15.54.63,23.4,1.19,15.05,1.09,29.36,3.85,43.19,6.52,8.16,1.58,13.81,4.53,21.37,9.42,5.49,3.55,11.16,7.06,16.65,10.46,2.63,1.64,5.27,3.27,7.9,4.92Zm.75-2.31c-5.23-3.51-9.87-6.47-14.19-9.07a66,66,0,0,1-6.34-4.48c-1.28-1-2.59-2-4-3-6.34-4.41-12.31-8.21-21.16-10.14-2.36-.51-4.7-1.09-7-1.64a122.71,122.71,0,0,0-14.51-3c-6.32-.78-12.85-1.35-20-1.76s-14.6-.8-22.17-.74c-.76,0-1.51,0-2.26,0-5.71.1-11.1.19-16.34-2.58a28.84,28.84,0,0,1-4-2.84c-3.68-2.92-7.49-5.95-10.7-3A4.94,4.94,0,0,0,97.81,250c-.4,1.32-.77,2.58-3.41,3.51a29,29,0,0,1-5.9,1.16c-1.39.18-2.83.36-4.11.66l-.09-.39c1.3-.3,2.75-.49,4.15-.67a29.31,29.31,0,0,0,5.81-1.13c2.45-.87,2.79-2,3.17-3.26A5.38,5.38,0,0,1,99,247.14c3.48-3.2,7.6.08,11.23,3a27.4,27.4,0,0,0,3.92,2.79c5.14,2.73,10.48,2.64,16.14,2.54l2.27,0c7.58-.07,15.12.33,22.2.74s13.67,1,20,1.77a121.13,121.13,0,0,1,14.56,3c2.25.56,4.59,1.13,6.94,1.64,8.93,1.94,14.93,5.77,21.3,10.2,1.39,1,2.71,2,4,3a67.19,67.19,0,0,0,6.3,4.46c4.33,2.6,9,5.57,14.21,9.08Zm.74-2.3c-3.79-2.71-8.31-5.89-13.12-8.92a47.63,47.63,0,0,1-5.68-4.44,44.91,44.91,0,0,0-5.22-4.13l-.09-.06c-6.72-4.37-11.58-7.53-19.72-9.17-3-.59-5.89-1.36-8.72-2.1a119.08,119.08,0,0,0-11.62-2.61c-6.11-1-12.51-1.73-19.55-2.35-6.39-.56-13.2-1.13-20-1.29-1.36,0-2.76,0-4.12,0-5.7,0-11.61,0-17-2.6a32.63,32.63,0,0,1-4.15-2.73c-4.16-3-9.34-6.71-12.3-4.41A7.31,7.31,0,0,0,99,245.59a5.67,5.67,0,0,1-4.4,3.83,51.79,51.79,0,0,1-6,1.07c-1.62.22-3.3.45-4.9.8l-.08-.39c1.61-.35,3.29-.58,4.93-.81A50.36,50.36,0,0,0,94.51,249a5.32,5.32,0,0,0,4.15-3.61,7.71,7.71,0,0,1,2.39-3.32c3.2-2.48,8.51,1.34,12.78,4.41a34.11,34.11,0,0,0,4.1,2.69c5.29,2.58,11.14,2.57,16.8,2.56,1.36,0,2.76,0,4.13,0,6.77.16,13.59.73,20,1.29,7.05.62,13.45,1.39,19.57,2.35a119.25,119.25,0,0,1,11.66,2.63c2.83.73,5.75,1.5,8.7,2.09,8.21,1.65,13.1,4.83,19.86,9.22l.09.06a46.93,46.93,0,0,1,5.26,4.16,46.75,46.75,0,0,0,5.64,4.41c4.81,3,9.34,6.22,13.14,8.93Zm.75-2.31c-4.47-3.46-9.25-7.12-14.27-10.43a30.24,30.24,0,0,1-4.73-4.14,33.76,33.76,0,0,0-3.82-3.5c-6.39-4.78-11.47-8.29-18.71-9.87-2.93-.64-5.83-1.47-8.62-2.27A108.24,108.24,0,0,0,182,252c-6.62-1.16-13.31-2.06-20.45-2.75-6.36-.62-13.74-1.28-21-1.44l-3.29,0c-5.49,0-11.16-.08-16.44-2.21a33.58,33.58,0,0,1-5.44-3.31c-4.7-3.23-10-6.89-13.41-4.08a9.52,9.52,0,0,0-2.2,2.85,7.71,7.71,0,0,1-3.48,3.62c-2.44,1.19-5.55,1.57-8.56,1.94-1.67.2-3.24.4-4.68.72l-.09-.39c1.46-.33,3-.52,4.72-.73,3-.37,6.06-.74,8.43-1.9a7.34,7.34,0,0,0,3.32-3.46,10,10,0,0,1,2.28-3c3.63-3,9.08.75,13.89,4.06a34.06,34.06,0,0,0,5.37,3.27c5.2,2.1,10.84,2.14,16.3,2.18l3.29,0c7.25.16,14.64.82,21,1.44,7.16.69,13.86,1.59,20.49,2.76a111,111,0,0,1,11.13,2.76c2.79.8,5.67,1.63,8.59,2.27,7.33,1.6,12.44,5.13,18.87,9.94a35.6,35.6,0,0,1,3.87,3.54,29.36,29.36,0,0,0,4.66,4.09c5,3.32,9.82,7,14.29,10.44Zm.75-2.3c-5.1-4.17-9.37-7.61-14.05-10.85a31.45,31.45,0,0,1-4.95-4.54,41.23,41.23,0,0,0-3.46-3.39c-5.23-4.44-10.95-8.91-18.2-10.66-3-.73-6-1.6-8.84-2.43a124.58,124.58,0,0,0-13.85-3.46c-5.84-1-12-1.8-18.73-2.45s-13.71-1.23-20.77-1.35c-1.18,0-2.38,0-3.55,0-5.91,0-12,0-17.62-2.6a34.3,34.3,0,0,1-4.9-3.19c-4.18-3-9.39-6.79-12.91-4.87a7.42,7.42,0,0,0-2.76,3.44c-.84,1.62-1.7,3.29-3.72,4.24a30.07,30.07,0,0,1-8.43,2c-1.71.23-3.32.45-4.8.8l-.09-.39c1.5-.35,3.12-.57,4.83-.81a29.39,29.39,0,0,0,8.32-1.92c1.89-.88,2.73-2.49,3.54-4a7.59,7.59,0,0,1,2.92-3.61c3.74-2,9.06,1.8,13.33,4.9a34.57,34.57,0,0,0,4.84,3.15c5.52,2.55,11.59,2.56,17.45,2.56l3.56,0c7.07.12,14.17.72,20.8,1.36s12.91,1.44,18.75,2.44a123.83,123.83,0,0,1,13.9,3.48c2.86.83,5.82,1.69,8.82,2.42,7.34,1.77,13.1,6.28,18.37,10.74a43.67,43.67,0,0,1,3.49,3.43,30.8,30.8,0,0,0,4.89,4.48c4.69,3.25,9,6.7,14.07,10.87Zm.75-2.31c-4.11-3.46-9.22-7.77-14.42-11.5a33.28,33.28,0,0,1-5.07-4.8,44.62,44.62,0,0,0-3.56-3.6c-5.39-4.71-11.27-9.46-18.64-11.38-2.91-.76-5.76-1.63-8.51-2.48a118.17,118.17,0,0,0-14.52-3.78c-5.88-1-12-1.83-18.83-2.46-6.6-.62-13.7-1.21-20.9-1.29-1.17,0-2.37,0-3.53,0-5.93,0-12.06.06-17.69-2.6a34.35,34.35,0,0,1-4.83-3.22c-4.18-3.09-9.38-6.94-12.89-4.95-1.35.76-2,2.12-2.67,3.56-.79,1.69-1.6,3.43-3.63,4.43-2.41,1.19-5.46,1.65-8.42,2.09-1.71.26-3.33.5-4.81.88l-.09-.39c1.49-.38,3.12-.62,4.85-.88,2.92-.44,5.94-.9,8.29-2.06,1.9-.94,2.69-2.61,3.45-4.24s1.37-2.91,2.83-3.74c3.74-2.12,9,1.82,13.33,5a34.13,34.13,0,0,0,4.76,3.17c5.55,2.63,11.63,2.59,17.52,2.57,1.16,0,2.36,0,3.54,0,7.21.08,14.32.67,20.93,1.29,6.8.64,13,1.44,18.86,2.46a120.83,120.83,0,0,1,14.57,3.8c2.75.84,5.59,1.72,8.49,2.47,7.46,1.94,13.38,6.73,18.81,11.47a45.37,45.37,0,0,1,3.59,3.63,31.75,31.75,0,0,0,5,4.74c5.21,3.74,10.33,8.06,14.44,11.53Zm.75-2.3c-4.73-4.06-9.61-8.25-14.71-12a37.51,37.51,0,0,1-5.65-5.36c-1-1.1-2-2.24-3.22-3.35-1.35-1.27-2.78-2.44-4.17-3.57-1.57-1.27-3.18-2.58-4.67-4.05-2.68-2.64-6.4-3.66-10-4.64l-1.82-.5c-2.47-.71-4.91-1.52-7.27-2.29a106.16,106.16,0,0,0-14-3.9c-6.32-1.17-12.84-2.05-19.93-2.71-6.09-.56-13.29-1.15-20.42-1.23-1.28,0-2.57,0-3.82,0-6.4,0-12.45.09-18.44-2.93a32.46,32.46,0,0,1-4.33-3c-4-3.06-9-6.86-12.77-4.61a22.09,22.09,0,0,0-2.28,5.2,5,5,0,0,1-3.82,3,30.88,30.88,0,0,1-8.1,2.14c-1.72.29-3.34.57-4.83,1l-.11-.38c1.51-.42,3.15-.7,4.87-1a30.45,30.45,0,0,0,8-2.11l.06,0A4.49,4.49,0,0,0,97.61,229a22.23,22.23,0,0,1,2.35-5.31l0,0,0,0c4-2.45,9.12,1.47,13.26,4.61a31.91,31.91,0,0,0,4.27,2.94c5.91,3,11.91,2.94,18.26,2.89,1.25,0,2.54,0,3.83,0,7.14.08,14.35.67,20.45,1.24,7.1.65,13.63,1.54,20,2.7a109.18,109.18,0,0,1,14.09,3.92c2.35.77,4.79,1.57,7.25,2.29l1.82.5c3.64,1,7.41,2,10.17,4.74,1.47,1.45,3.08,2.76,4.64,4,1.39,1.14,2.84,2.31,4.2,3.59,1.17,1.12,2.22,2.27,3.24,3.37a37.71,37.71,0,0,0,5.59,5.31c5.11,3.74,10,7.94,14.73,12Zm.74-2.31-.24-.21c-4.53-4.09-9.22-8.32-14.12-12.09a38.41,38.41,0,0,1-6.08-6c-.8-.92-1.63-1.88-2.62-2.93a31.33,31.33,0,0,0-6.59-4.72l-.07,0,0-.07a9.11,9.11,0,0,0-3.28-4.18c-2.86-2.53-6.56-3.56-10.13-4.57l-1.66-.47c-2.59-.76-5.11-1.62-7.55-2.46a94.06,94.06,0,0,0-13.46-3.89c-6.33-1.19-12.9-2.1-20.1-2.79-6.57-.63-14.36-1.28-22.23-1.31l-3.38,0c-5.28.08-10.75.16-15.86-1.9a30.56,30.56,0,0,1-5.5-3.57c-4.63-3.41-10.38-7.65-14-4.84a6.25,6.25,0,0,0-1.77,3.41c-.46,1.58-.95,3.22-2.43,4.22-2.39,1.62-6,2.24-9.55,2.84a44.41,44.41,0,0,0-5,1l-.11-.39a45.69,45.69,0,0,1,5.08-1c3.48-.6,7.08-1.21,9.39-2.78,1.37-.92,1.83-2.49,2.28-4s.81-2.78,1.9-3.62c3.9-3,9.78,1.35,14.51,4.84a30,30,0,0,0,5.42,3.51c5,2,10.46,2,15.7,1.88l3.4,0c7.88,0,15.67.68,22.26,1.31,7.21.69,13.79,1.61,20.13,2.8a94.4,94.4,0,0,1,13.52,3.9c2.44.84,4.95,1.7,7.54,2.46l1.65.47c3.62,1,7.35,2.06,10.27,4.64a9.59,9.59,0,0,1,3.38,4.27,31.65,31.65,0,0,1,6.62,4.75c1,1.08,1.84,2,2.64,3a38.07,38.07,0,0,0,6,5.92c4.92,3.78,9.61,8,14.15,12.11l.24.22Zm.75-2.3c-2.3-2.2-4.67-4.34-7-6.41-5.35-4.83-10.41-9.39-14.94-14.87a16.71,16.71,0,0,0-6.28-4.79l-.07,0,0-.07a14.67,14.67,0,0,0-4.21-5.47c-2.45-1.92-5.6-2.85-8.64-3.74l-1.14-.34c-2.8-.83-5.52-1.8-8.15-2.72a101.66,101.66,0,0,0-14.18-4.24c-6.46-1.29-13.12-2.3-20.37-3.08-7.74-.83-14.25-1.42-20.83-1.57-1.59,0-3.22,0-4.8,0-6,0-12.18.09-17.85-2.42a33,33,0,0,1-5-3.31c-4.93-3.63-11.07-8.14-14.47-4.68a6.56,6.56,0,0,0-1.65,3.41,6,6,0,0,1-2.72,4.27c-2.44,1.56-6,2.19-9.55,2.8a45.16,45.16,0,0,0-5.22,1.1l-.11-.39a46.41,46.41,0,0,1,5.26-1.1c3.46-.61,7-1.23,9.4-2.75A5.63,5.63,0,0,0,97,219a7,7,0,0,1,1.75-3.59c3.65-3.71,9.94.92,15,4.63a31.6,31.6,0,0,0,5,3.27c5.59,2.48,11.74,2.43,17.69,2.39,1.58,0,3.21,0,4.81,0,6.6.15,13.11.74,20.86,1.57,7.26.79,13.94,1.79,20.4,3.08a104,104,0,0,1,14.24,4.26c2.63.93,5.35,1.88,8.13,2.72l1.14.34c3.08.9,6.26,1.84,8.78,3.8a15.25,15.25,0,0,1,4.3,5.55,17.34,17.34,0,0,1,6.35,4.87c4.51,5.46,9.56,10,14.9,14.83,2.3,2.08,4.67,4.22,7,6.42Zm.75-2.31c-2.16-2.19-4.39-4.33-6.54-6.4-5.11-4.91-9.93-9.54-14.18-15.11a15.46,15.46,0,0,0-6-4.82l-.07,0,0-.08a13.94,13.94,0,0,0-3.86-5.51c-2.31-1.92-5.35-2.83-8.29-3.71l-1.06-.33c-2.88-.88-5.68-1.9-8.39-2.89A104.58,104.58,0,0,0,185.77,228c-6.54-1.41-13.29-2.53-20.64-3.42-6.76-.82-14-1.61-21.11-1.84-1.65-.06-3.37-.06-5-.06-6.22,0-12.66,0-18.4-2.7a37.9,37.9,0,0,1-5-3.31c-5.36-3.87-12-8.68-15.72-5.14A7.26,7.26,0,0,0,98,215a6.42,6.42,0,0,1-3,4.31c-2.62,1.6-6.42,2.21-10.1,2.8a52,52,0,0,0-5.55,1.09l-.11-.38a48.34,48.34,0,0,1,5.6-1.1c3.64-.59,7.4-1.19,10-2.75a6,6,0,0,0,2.81-4.08,7.37,7.37,0,0,1,2-3.64c3.92-3.78,10.74,1.14,16.23,5.1a37.63,37.63,0,0,0,5,3.27c5.66,2.65,12,2.66,18.23,2.66,1.66,0,3.38,0,5,.06,7.12.23,14.37,1,21.14,1.84,7.36.89,14.12,2,20.67,3.43a105,105,0,0,1,13.68,4.28c2.7,1,5.5,2,8.36,2.88l1.06.32c3,.89,6.06,1.82,8.44,3.8a14.12,14.12,0,0,1,3.94,5.59,15.94,15.94,0,0,1,6,4.91c4.23,5.55,9,10.17,14.14,15.06,2.15,2.07,4.38,4.21,6.54,6.41Zm.75-2.3c-2.06-2.24-4.25-4.42-6.36-6.53-4.56-4.56-9.29-9.27-12.89-14.78a11.09,11.09,0,0,0-5.47-4.87l-.07,0,0-.08a23.57,23.57,0,0,0-3.45-5.52c-2.27-2.13-5.3-3.11-8.24-4l-.31-.11C209,232,206.31,231,203.74,230a106.05,106.05,0,0,0-13.33-4.34,222.54,222.54,0,0,0-22.11-3.89c-6.75-.85-14.72-1.75-22.69-2-1.32,0-2.67-.05-4-.06-6.63-.07-13.49-.14-19.76-3.39a45,45,0,0,1-5-3.39c-5.53-4-12.41-9.07-16.43-5a8,8,0,0,0-1.91,3.35,6.22,6.22,0,0,1-3.45,4.21c-2.86,1.46-6.63,2-10.28,2.53a58.55,58.55,0,0,0-6,1.08l-.1-.39a57.7,57.7,0,0,1,6-1.08c3.62-.53,7.35-1.07,10.16-2.5a5.81,5.81,0,0,0,3.26-4,8.25,8.25,0,0,1,2-3.51c4.26-4.29,11.29.86,17,5a44.33,44.33,0,0,0,5,3.35c6.19,3.21,13,3.28,19.59,3.35,1.3,0,2.65,0,4,.06,8,.22,16,1.13,22.73,2a220.5,220.5,0,0,1,22.15,3.89,104.21,104.21,0,0,1,13.38,4.36c2.57,1,5.22,2,7.93,2.83l.31.1c3,1,6.06,2,8.41,4.16a24.5,24.5,0,0,1,3.5,5.57,11.46,11.46,0,0,1,5.58,5c3.58,5.47,8.28,10.16,12.84,14.71,2.11,2.11,4.3,4.29,6.36,6.54Zm.74-2.31c-3.71-4.28-7.37-8.45-11.38-12.42a38.67,38.67,0,0,1-5-6.32c-.88-1.31-1.79-2.66-2.87-4l0,0a7.12,7.12,0,0,0-4-3.5l-.07,0,0-.06c-1.11-1.82-2.2-3.68-3.25-5.53-2.38-2.5-5.38-3.5-8.54-4.56l-.87-.29c-2.79-.94-5.51-2-8.15-3a113.39,113.39,0,0,0-12.88-4.47,229.27,229.27,0,0,0-22.66-4.64,240.93,240.93,0,0,0-24.94-2.82c-1.28-.07-2.59-.11-3.85-.15-6.74-.23-13.71-.47-19.94-3.84-1.94-1.05-3.79-2.32-5.59-3.54-1.13-.78-2.29-1.58-3.47-2.31l-.73-.46c-4.21-2.65-7.53-4.74-11.3-1.08a7.9,7.9,0,0,0-1.83,3.25,6.88,6.88,0,0,1-3.58,4.51c-2.86,1.43-6.51,2.06-10,2.66a59.35,59.35,0,0,0-6.18,1.28l-.11-.38a58.62,58.62,0,0,1,6.22-1.29c3.5-.6,7.13-1.23,9.93-2.63,2.23-1.12,2.79-2.66,3.39-4.29a8.24,8.24,0,0,1,1.92-3.4c4-3.88,7.61-1.6,11.79,1l.73.46c1.18.74,2.36,1.54,3.49,2.32a63.47,63.47,0,0,0,5.55,3.52c6.15,3.32,13.07,3.56,19.76,3.79,1.27,0,2.58.08,3.86.15a244.76,244.76,0,0,1,25,2.82c8.06,1.26,15.48,2.78,22.69,4.65a113.58,113.58,0,0,1,12.93,4.48c2.63,1,5.35,2.11,8.13,3l.86.29c3.23,1.07,6.27,2.08,8.73,4.68l0,0c1,1.84,2.12,3.68,3.22,5.48a7.46,7.46,0,0,1,4.14,3.65c1.08,1.37,2,2.72,2.87,4a38.1,38.1,0,0,0,4.91,6.25c4,4,7.69,8.16,11.41,12.45Zm.76-2.3c-3.3-3.76-7.26-8.19-11.55-12.46-1.87-1.73-3.68-3.57-5.38-5.47l0-.05a39,39,0,0,0-3.56-6.37c-2-2.12-3.53-3.82-5.15-5.87l-1-.91-.05-.06-.46-1c-2.07-2.69-5.29-3.71-8.42-4.69-.75-.24-1.53-.49-2.28-.75l-6.83-2.46c-12.15-4.39-23.62-8.53-36.33-11-7.17-1.41-14.88-2.83-22.78-3.6-2.12-.2-4.36-.3-6.53-.41-5.83-.27-11.86-.55-17.16-2.75a41.69,41.69,0,0,1-6.25-3.86c-5.57-3.85-12.51-8.65-16.4-5.09a9.48,9.48,0,0,0-2.36,4.13c-.68,1.92-1.39,3.9-4,5.22a40.57,40.57,0,0,1-9.75,2.88,58.92,58.92,0,0,0-6.31,1.54l-.13-.38a62.23,62.23,0,0,1,6.36-1.56,39.84,39.84,0,0,0,9.64-2.84c2.47-1.24,3.12-3.07,3.8-5a9.83,9.83,0,0,1,2.47-4.28c4.12-3.78,11.21,1.12,16.9,5a41,41,0,0,0,6.17,3.82c5.23,2.18,11.23,2.46,17,2.72,2.17.11,4.42.21,6.55.42,7.91.77,15.64,2.18,22.82,3.6,12.73,2.52,24.22,6.67,36.38,11.07,2.27.82,4.54,1.64,6.84,2.45.73.26,1.51.51,2.26.75,2.58.81,5.24,1.65,7.29,3.42l-.75-1.43c-2.36-2.58-5.91-3.62-9.35-4.62l-1-.3c-6.55-1.94-13-4.47-19.18-6.92-7.76-3.06-15.78-6.23-24.15-8.29a212.71,212.71,0,0,0-23.15-4.63c-2.18-.29-4.49-.45-6.73-.62-5.52-.39-11.22-.81-16.17-3a39,39,0,0,1-5.71-3.61c-5.1-3.58-11.43-8-15.73-5.67-1.75,1-2.36,2.87-3,4.89-.74,2.36-1.51,4.79-4.14,6.12a44.82,44.82,0,0,1-9.47,3,65.23,65.23,0,0,0-6.48,1.78l-.13-.38A66,66,0,0,1,83.22,205a44.18,44.18,0,0,0,9.38-3c2.48-1.25,3.22-3.6,3.94-5.88.67-2.1,1.29-4.08,3.19-5.12,4.51-2.49,11,2.05,16.15,5.7a38.48,38.48,0,0,0,5.64,3.56c4.89,2.14,10.56,2.55,16,2.95,2.24.16,4.56.33,6.75.61a212.94,212.94,0,0,1,23.19,4.64c8.4,2.07,16.44,5.24,24.21,8.31,6.2,2.44,12.61,5,19.14,6.91l1,.29c3,.87,6.24,1.82,8.67,3.91l-.32-.6c-2.59-3.37-7.06-4.55-11-5.59l-.89-.24c-7.76-2.08-15.27-5.46-22.54-8.73a169.92,169.92,0,0,0-20.09-8,189.14,189.14,0,0,0-22.16-5.61c-2.48-.44-5.14-.69-7.72-.94-5.06-.47-10.3-1-14.82-2.88a37.33,37.33,0,0,1-5.43-3.36c-5.44-3.73-12.21-8.38-16.14-5.65-1.8,1.26-2.34,3.18-2.92,5.22-.67,2.4-1.37,4.87-4.18,6.38a44.32,44.32,0,0,1-9.54,3.29c-2.23.6-4.53,1.21-6.57,2l-.14-.37a65.11,65.11,0,0,1,6.6-2,44.85,44.85,0,0,0,9.46-3.26c2.66-1.43,3.33-3.82,4-6.13.57-2,1.15-4.11,3.07-5.44,4.16-2.89,11,1.84,16.59,5.64a38.65,38.65,0,0,0,5.36,3.32c4.47,1.89,9.67,2.38,14.7,2.85,2.59.25,5.27.5,7.76.94a192,192,0,0,1,22.21,5.62,171.71,171.71,0,0,1,20.13,8.06c7.26,3.26,14.76,6.63,22.48,8.7l.89.24c4,1.06,8.55,2.26,11.24,5.77l.89,1.71a8.36,8.36,0,0,1,.75.92l.41.88a48.74,48.74,0,0,0,5.55,4.17l.05.05c1.5,2.09,2.91,4.28,4.21,6.5l6.21,5.45c4,3.51,8.15,7.52,13.2,12.6l-.28.29c-5.05-5.08-9.24-9.08-13.18-12.59l-6.24-5.47,0-.05c-1.29-2.21-2.69-4.39-4.18-6.47a48.67,48.67,0,0,1-4.88-3.6l.18.39a.64.64,0,0,1,.1.13c.46.62.9,1.2,1.34,1.76a43.67,43.67,0,0,0,4.55,3.58l.06,0c1.36,2.07,2.65,4.23,3.81,6.43,1.9,1.79,3.84,3.61,5.76,5.39,3.68,3.48,7.57,7.45,12.26,12.47l-.3.27c-4.67-5-8.56-9-12.23-12.45-1.93-1.79-3.88-3.61-5.79-5.41l0-.06c-1.15-2.18-2.43-4.33-3.79-6.39-1-.66-1.92-1.37-2.84-2.12,1.14,1.34,2.32,2.63,3.72,4.13a39.14,39.14,0,0,1,3.61,6.43c1.68,1.88,3.48,3.7,5.33,5.42,4.31,4.29,8.27,8.72,11.58,12.49Zm2.26-6.9c-5.17-5.13-9.46-9.18-13.5-12.74-2.11-1.87-4.29-3.73-6.47-5.51l0-.05c-1.41-2.19-2.85-4.4-4.29-6.57a55.19,55.19,0,0,0-6.29-4.58l-.06,0,0-.07a11.46,11.46,0,0,0-3.89-5.56c-2.56-2-6-3-9.08-3.79l-.48-.13c-8.38-2.27-16.36-6.13-24.08-9.86A178.31,178.31,0,0,0,164.82,200a190.7,190.7,0,0,0-19.89-5.86,87,87,0,0,0-9.58-1.38c-5.31-.56-10.8-1.15-15.52-3.25a39.92,39.92,0,0,1-4.62-2.8c-5.5-3.61-13-8.57-16.6-5.23C97,183,96.48,185,96,186.83c-.63,2.43-1.28,4.95-4.42,6.63a50.39,50.39,0,0,1-9.26,3.39,68.24,68.24,0,0,0-6.74,2.24l-.16-.37a68.35,68.35,0,0,1,6.79-2.25,49.72,49.72,0,0,0,9.18-3.36c3-1.6,3.59-3.92,4.22-6.38.49-1.92,1-3.9,2.72-5.52,3.79-3.56,11.48,1.5,17.1,5.19a40.42,40.42,0,0,0,4.57,2.76c4.66,2.08,10.12,2.66,15.39,3.22a88.58,88.58,0,0,1,9.63,1.39A191.39,191.39,0,0,1,165,199.65a177.29,177.29,0,0,1,19.29,8.4c7.71,3.72,15.67,7.57,24,9.83l.49.13c3.09.84,6.6,1.78,9.22,3.87a11.83,11.83,0,0,1,4,5.68,55.72,55.72,0,0,1,6.3,4.59l0,0c1.44,2.18,2.88,4.39,4.29,6.58,2.17,1.78,4.35,3.63,6.46,5.5,4,3.56,8.34,7.62,13.51,12.76Z"/></svg>