<svg id="Layer_1" data-name="Layer 1" xmlns="http://www.w3.org/2000/svg" viewBox="0 0 390 602.55"><defs><style>.cls-1{fill:#f3f4f3;}.cls-2{fill:#231f20;}.cls-3{fill:none;stroke:#ff0048;stroke-miterlimit:10;stroke-width:5px;}</style></defs><title>Artboard 1</title><rect class="cls-1" width="390" height="602.55"/><path class="cls-2" d="M44.24,87.36V56.64H55.11A13.4,13.4,0,0,1,62,58.34a11.22,11.22,0,0,1,4.53,5.1A20.12,20.12,0,0,1,68.09,72a20.08,20.08,0,0,1-1.61,8.56A11.22,11.22,0,0,1,62,85.66a13.4,13.4,0,0,1-6.84,1.7Zm5-4.4h5.9a8.19,8.19,0,0,0,4-1,6.54,6.54,0,0,0,2.69-2.86,10.39,10.39,0,0,0,.94-4.67V69.54a10.39,10.39,0,0,0-.94-4.67A6.54,6.54,0,0,0,59.13,62a8.19,8.19,0,0,0-4-1h-5.9Z"/><path class="cls-2" d="M81.15,87.88a10.49,10.49,0,0,1-5.63-1.46,9.65,9.65,0,0,1-3.67-4.13A14.13,14.13,0,0,1,70.55,76a14.27,14.27,0,0,1,1.28-6.26,9.87,9.87,0,0,1,3.6-4.13A10.21,10.21,0,0,1,81,64.12a10,10,0,0,1,5.66,1.51,9.43,9.43,0,0,1,3.41,4.09,14,14,0,0,1,1.14,5.72v1.8H75.57V78a6,6,0,0,0,1.56,4.28,5.79,5.79,0,0,0,4.46,1.67A6.58,6.58,0,0,0,85.16,83a7.62,7.62,0,0,0,2.42-2.47l2.86,2.75a9.73,9.73,0,0,1-3.72,3.33A11.79,11.79,0,0,1,81.15,87.88Zm0-20a5.63,5.63,0,0,0-2.93.76,5.12,5.12,0,0,0-1.93,2.09,6.5,6.5,0,0,0-.68,3.05v.31H86.21v-.44a7,7,0,0,0-.61-3,4.7,4.7,0,0,0-1.76-2A5,5,0,0,0,81.11,67.86Z"/><path class="cls-2" d="M102.05,87.88a11,11,0,0,1-9.28-4.31l3.08-2.81a10.52,10.52,0,0,0,2.84,2.37,7.23,7.23,0,0,0,3.63.88,5.11,5.11,0,0,0,3.14-.8,2.68,2.68,0,0,0,1-2.23,2.5,2.5,0,0,0-.73-1.83,4.4,4.4,0,0,0-2.53-1l-2.11-.26a15.36,15.36,0,0,1-4-1.14,6,6,0,0,1-2.62-2.16,6.25,6.25,0,0,1-.9-3.48A6.15,6.15,0,0,1,96,66a9.73,9.73,0,0,1,6.14-1.84,13.36,13.36,0,0,1,3.61.44,9.58,9.58,0,0,1,2.72,1.26,11.25,11.25,0,0,1,2.2,2l-2.94,2.81a7.81,7.81,0,0,0-2.31-1.82A6.76,6.76,0,0,0,102.1,68a4.73,4.73,0,0,0-2.91.75,2.5,2.5,0,0,0-1,2.06,2.32,2.32,0,0,0,.85,2,6.22,6.22,0,0,0,2.67,1l2.11.26a10.18,10.18,0,0,1,5.52,2.21,5.75,5.75,0,0,1,1.74,4.39A6.67,6.67,0,0,1,110,84.41,7.52,7.52,0,0,1,106.85,87,11.58,11.58,0,0,1,102.05,87.88Z"/><path class="cls-2" d="M117.19,60.56a2.93,2.93,0,0,1-2.18-.7,2.51,2.51,0,0,1-.68-1.81V57.3a2.5,2.5,0,0,1,.68-1.8,2.93,2.93,0,0,1,2.18-.7,2.85,2.85,0,0,1,2.16.7,2.53,2.53,0,0,1,.66,1.8v.75a2.54,2.54,0,0,1-.66,1.81A2.85,2.85,0,0,1,117.19,60.56Zm-2.42,26.8V64.65h4.8V87.36Z"/><path class="cls-2" d="M144.78,89.47a6.51,6.51,0,0,1-1.21,4,7.26,7.26,0,0,1-3.76,2.42,23.18,23.18,0,0,1-6.69.79,22.45,22.45,0,0,1-6-.66,6.63,6.63,0,0,1-3.34-1.91,4.5,4.5,0,0,1-1-3,4.19,4.19,0,0,1,1-3,5.26,5.26,0,0,1,2.88-1.44v-.49a3.61,3.61,0,0,1-1.94-1.31,3.64,3.64,0,0,1-.66-2.19A3.24,3.24,0,0,1,125.26,80a7.33,7.33,0,0,1,2.89-1.33v-.18A7.07,7.07,0,0,1,125,75.83a8,8,0,0,1,0-8,7.22,7.22,0,0,1,3.12-2.71,11.34,11.34,0,0,1,4.91-1,13,13,0,0,1,2.22.18,10.27,10.27,0,0,1,2,.53v-.65A3.69,3.69,0,0,1,138,61.7a2.79,2.79,0,0,1,2.24-.88h3.48v3.83h-4.62v1.1a7,7,0,0,1,2.35,2.6,7.51,7.51,0,0,1,.82,3.51,7.35,7.35,0,0,1-1.08,4A7.09,7.09,0,0,1,138,78.53a11.72,11.72,0,0,1-5,1,13.78,13.78,0,0,1-1.6-.09,8.41,8.41,0,0,1-1.39-.26,5,5,0,0,0-1.49.85,1.73,1.73,0,0,0-.66,1.41,1.35,1.35,0,0,0,.81,1.31,5.61,5.61,0,0,0,2.35.39h5.64c2.81,0,4.86.56,6.13,1.68A5.92,5.92,0,0,1,144.78,89.47Zm-4.49.52a2.27,2.27,0,0,0-.95-1.94,5.75,5.75,0,0,0-3.27-.69h-7.75a2.72,2.72,0,0,0-1.16,1.14,3.17,3.17,0,0,0-.38,1.54,2.8,2.8,0,0,0,1.1,2.27,6.09,6.09,0,0,0,3.79.9h3a8.69,8.69,0,0,0,4.22-.81A2.6,2.6,0,0,0,140.29,90Zm-7.22-13.94a5.09,5.09,0,0,0,3.28-1,3.4,3.4,0,0,0,1.17-2.83v-.9a3.43,3.43,0,0,0-1.17-2.83,6.18,6.18,0,0,0-6.55,0,3.43,3.43,0,0,0-1.17,2.83v.9a3.4,3.4,0,0,0,1.17,2.83A5.06,5.06,0,0,0,133.07,76.05Z"/><path class="cls-2" d="M151.38,87.36h-4.8V64.65h4.8v3.79h.22a7.5,7.5,0,0,1,2.26-3.08A6.45,6.45,0,0,1,158,64.12a6.8,6.8,0,0,1,5.48,2.32,9.81,9.81,0,0,1,2,6.51V87.36h-4.8V73.54a6.41,6.41,0,0,0-1-4,3.88,3.88,0,0,0-3.28-1.33,6.89,6.89,0,0,0-2.38.41,4.37,4.37,0,0,0-1.87,1.29,3.29,3.29,0,0,0-.72,2.18Z"/><path class="cls-2" d="M172.76,60.56a2.93,2.93,0,0,1-2.18-.7,2.51,2.51,0,0,1-.68-1.81V57.3a2.5,2.5,0,0,1,.68-1.8,2.93,2.93,0,0,1,2.18-.7,2.85,2.85,0,0,1,2.16.7,2.53,2.53,0,0,1,.66,1.8v.75a2.54,2.54,0,0,1-.66,1.81A2.85,2.85,0,0,1,172.76,60.56Zm-2.42,26.8V64.65h4.8V87.36Z"/><path class="cls-2" d="M185,87.36h-4.8V64.65H185v3.79h.22a7.5,7.5,0,0,1,2.26-3.08,6.45,6.45,0,0,1,4.16-1.24,6.8,6.8,0,0,1,5.48,2.32,9.81,9.81,0,0,1,2,6.51V87.36h-4.8V73.54a6.41,6.41,0,0,0-1-4A3.9,3.9,0,0,0,190,68.22a6.89,6.89,0,0,0-2.38.41,4.37,4.37,0,0,0-1.87,1.29A3.29,3.29,0,0,0,185,72.1Z"/><path class="cls-2" d="M224.11,89.47a6.45,6.45,0,0,1-1.21,4,7.26,7.26,0,0,1-3.76,2.42,23.14,23.14,0,0,1-6.69.79,22.45,22.45,0,0,1-6-.66,6.63,6.63,0,0,1-3.34-1.91,4.5,4.5,0,0,1-1-3,4.19,4.19,0,0,1,1-3A5.26,5.26,0,0,1,206,86.7v-.49A3.61,3.61,0,0,1,204,84.9a3.64,3.64,0,0,1-.66-2.19A3.24,3.24,0,0,1,204.59,80a7.33,7.33,0,0,1,2.89-1.33v-.18a7.07,7.07,0,0,1-3.15-2.68,8,8,0,0,1,0-8,7.22,7.22,0,0,1,3.12-2.71,11.34,11.34,0,0,1,4.91-1,13,13,0,0,1,2.22.18,10.27,10.27,0,0,1,2,.53v-.65a3.69,3.69,0,0,1,.75-2.48,2.81,2.81,0,0,1,2.24-.88H223v3.83h-4.62v1.1a7,7,0,0,1,2.35,2.6,7.9,7.9,0,0,1-.26,7.49,7.09,7.09,0,0,1-3.13,2.69,11.72,11.72,0,0,1-4.95,1,13.78,13.78,0,0,1-1.6-.09,8.61,8.61,0,0,1-1.39-.26,5,5,0,0,0-1.49.85,1.73,1.73,0,0,0-.66,1.41,1.35,1.35,0,0,0,.81,1.31,5.61,5.61,0,0,0,2.35.39h5.64c2.81,0,4.86.56,6.13,1.68A5.92,5.92,0,0,1,224.11,89.47Zm-4.49.52a2.27,2.27,0,0,0-1-1.94,5.75,5.75,0,0,0-3.27-.69h-7.75a2.77,2.77,0,0,0-1.16,1.14,3.17,3.17,0,0,0-.38,1.54,2.8,2.8,0,0,0,1.1,2.27,6.11,6.11,0,0,0,3.79.9h3a8.66,8.66,0,0,0,4.22-.81A2.6,2.6,0,0,0,219.62,90ZM212.4,76.05a5.07,5.07,0,0,0,3.28-1,3.4,3.4,0,0,0,1.17-2.83v-.9a3.43,3.43,0,0,0-1.17-2.83,6.18,6.18,0,0,0-6.55,0A3.43,3.43,0,0,0,208,71.37v.9a3.4,3.4,0,0,0,1.17,2.83A5.06,5.06,0,0,0,212.4,76.05Z"/><path class="cls-2" d="M68.53,131.36h-5.2L60.65,123H49.17l-2.73,8.32h-5L51.9,100.64h6.2Zm-9.11-12.59-3-9.11L55,105.22h-.23l-1.4,4.44-3,9.11Z"/><path class="cls-2" d="M85.55,131.36v-3.79h-.22a6.64,6.64,0,0,1-2.46,3.17,6.84,6.84,0,0,1-4,1.14A8.38,8.38,0,0,1,74,130.46a8.81,8.81,0,0,1-3.12-4.08,19.41,19.41,0,0,1,0-12.77A8.88,8.88,0,0,1,74,109.54a8.46,8.46,0,0,1,4.91-1.42,7.11,7.11,0,0,1,4,1.13,5.93,5.93,0,0,1,2.42,3.19h.22V98.8h4.8v32.56Zm-5.19-3.52a6.65,6.65,0,0,0,2.62-.5,4.69,4.69,0,0,0,1.87-1.4,3.4,3.4,0,0,0,.7-2.19v-7.66a3.17,3.17,0,0,0-.7-2A4.59,4.59,0,0,0,83,112.69a7,7,0,0,0-2.62-.47,5.19,5.19,0,0,0-4,1.61,5.9,5.9,0,0,0-1.52,4.22V122a6,6,0,0,0,1.52,4.24A5.18,5.18,0,0,0,80.36,127.84Z"/><path class="cls-2" d="M109.84,131.36v-3.79h-.22a6.7,6.7,0,0,1-2.46,3.17,6.88,6.88,0,0,1-4,1.14,8.38,8.38,0,0,1-4.91-1.42,8.81,8.81,0,0,1-3.12-4.08,19.41,19.41,0,0,1,0-12.77,8.88,8.88,0,0,1,3.12-4.07,8.46,8.46,0,0,1,4.91-1.42,7.13,7.13,0,0,1,4,1.13,5.93,5.93,0,0,1,2.42,3.19h.22V98.8h4.8v32.56Zm-5.19-3.52a6.65,6.65,0,0,0,2.62-.5,4.69,4.69,0,0,0,1.87-1.4,3.4,3.4,0,0,0,.7-2.19v-7.66a3.17,3.17,0,0,0-.7-2,4.59,4.59,0,0,0-1.87-1.35,7,7,0,0,0-2.62-.47,5.19,5.19,0,0,0-4,1.61,5.9,5.9,0,0,0-1.52,4.22V122a6,6,0,0,0,1.52,4.24A5.18,5.18,0,0,0,104.65,127.84Z"/><path class="cls-2" d="M122.16,104.56a2.93,2.93,0,0,1-2.18-.7,2.51,2.51,0,0,1-.68-1.81v-.75a2.5,2.5,0,0,1,.68-1.8,2.93,2.93,0,0,1,2.18-.7,2.85,2.85,0,0,1,2.16.7,2.53,2.53,0,0,1,.66,1.8v.75a2.54,2.54,0,0,1-.66,1.81A2.85,2.85,0,0,1,122.16,104.56Zm-2.42,26.8V108.65h4.8v22.71Z"/><path class="cls-2" d="M138.49,131.88a9.53,9.53,0,0,1-7.7-3.21q-2.73-3.21-2.73-8.67t2.73-8.67a9.53,9.53,0,0,1,7.7-3.21,9.67,9.67,0,0,1,5.63,1.54,8.72,8.72,0,0,1,3.17,4.1l-4,1.84a5,5,0,0,0-1.72-2.53,5.71,5.71,0,0,0-7.13.69,6.39,6.39,0,0,0-1.36,4.24v4a6.46,6.46,0,0,0,1.36,4.26,4.91,4.91,0,0,0,4,1.65,5.14,5.14,0,0,0,3.34-1,7.17,7.17,0,0,0,2-2.75l3.61,1.94a8.8,8.8,0,0,1-3.39,4.31A10,10,0,0,1,138.49,131.88Z"/><path class="cls-2" d="M160.79,131.36h-4.18a4.57,4.57,0,0,1-5.06-5V112.57H148v-3.92h1.94a2.09,2.09,0,0,0,1.67-.53,2.68,2.68,0,0,0,.44-1.71v-4h4.31v6.25h4.8v3.92h-4.8v14.87h4.44Z"/><path class="cls-2" d="M167,104.56a2.91,2.91,0,0,1-2.18-.7,2.47,2.47,0,0,1-.68-1.81v-.75a2.46,2.46,0,0,1,.68-1.8,2.91,2.91,0,0,1,2.18-.7,2.84,2.84,0,0,1,2.15.7,2.53,2.53,0,0,1,.66,1.8v.75a2.54,2.54,0,0,1-.66,1.81A2.84,2.84,0,0,1,167,104.56Zm-2.42,26.8V108.65h4.79v22.71Z"/><path class="cls-2" d="M183.41,131.88a10.31,10.31,0,0,1-5.57-1.46,9.74,9.74,0,0,1-3.65-4.13,15.87,15.87,0,0,1,0-12.58,9.77,9.77,0,0,1,3.65-4.12,10.31,10.31,0,0,1,5.57-1.47,10.21,10.21,0,0,1,5.52,1.47,9.71,9.71,0,0,1,3.65,4.12,15.87,15.87,0,0,1,0,12.58,9.68,9.68,0,0,1-3.65,4.13A10.2,10.2,0,0,1,183.41,131.88Zm0-4a5.29,5.29,0,0,0,3.94-1.5,6.13,6.13,0,0,0,1.47-4.46v-3.83a6.13,6.13,0,0,0-1.47-4.46,5.29,5.29,0,0,0-3.94-1.5,5.37,5.37,0,0,0-3.94,1.5,6,6,0,0,0-1.52,4.46v3.83a6,6,0,0,0,1.52,4.46A5.37,5.37,0,0,0,183.41,127.88Z"/><path class="cls-2" d="M202.24,131.36h-4.79V108.65h4.79v3.79h.22a7.43,7.43,0,0,1,2.27-3.08,6.4,6.4,0,0,1,4.15-1.24,6.79,6.79,0,0,1,5.48,2.32,9.75,9.75,0,0,1,2,6.51v14.41h-4.79V117.54a6.41,6.41,0,0,0-1-4,3.88,3.88,0,0,0-3.28-1.33,6.79,6.79,0,0,0-2.37.41,4.25,4.25,0,0,0-1.87,1.29,3.25,3.25,0,0,0-.73,2.18Z"/><path class="cls-2" d="M64,175.36v-4.67h-.18a5.83,5.83,0,0,1-2.59,3.7,9.75,9.75,0,0,1-5.63,1.49A11.93,11.93,0,0,1,49,174.06a12.22,12.22,0,0,1-4.51-5.35A20.64,20.64,0,0,1,42.88,160a20.23,20.23,0,0,1,1.67-8.69,12.25,12.25,0,0,1,4.7-5.39,13.32,13.32,0,0,1,7-1.84,12.68,12.68,0,0,1,7,1.84A12.39,12.39,0,0,1,67.73,151l-4,2.38a8.43,8.43,0,0,0-2.75-3.5,7.69,7.69,0,0,0-4.65-1.34A8.37,8.37,0,0,0,52,149.62a7,7,0,0,0-2.86,3,10.55,10.55,0,0,0-1,4.82v5a10.5,10.5,0,0,0,1,4.82,7.15,7.15,0,0,0,2.88,3.08,8.69,8.69,0,0,0,4.42,1.08A9.42,9.42,0,0,0,60,170.8a5.87,5.87,0,0,0,2.55-1.93,5.32,5.32,0,0,0,1-3.24v-2.37H57.22V159H68.35v16.37Z"/><path class="cls-2" d="M77.94,175.36H73.15V152.65h4.79v4.53h.22A7.36,7.36,0,0,1,79.28,155a5.94,5.94,0,0,1,2-1.7,6.73,6.73,0,0,1,3.12-.66h1.28v4.62H83.84a10.33,10.33,0,0,0-3.21.44,4.5,4.5,0,0,0-2,1.22,2.89,2.89,0,0,0-.68,2Z"/><path class="cls-2" d="M97,175.88a10.47,10.47,0,0,1-5.63-1.46,9.67,9.67,0,0,1-3.68-4.13,16,16,0,0,1,0-12.55,9.82,9.82,0,0,1,3.61-4.13,10.18,10.18,0,0,1,5.59-1.49,10,10,0,0,1,5.65,1.51,9.36,9.36,0,0,1,3.41,4.09,14,14,0,0,1,1.14,5.72v1.8H91.45V166A6,6,0,0,0,93,170.25a5.79,5.79,0,0,0,4.47,1.67A6.54,6.54,0,0,0,101,171a7.53,7.53,0,0,0,2.42-2.47l2.86,2.75a9.73,9.73,0,0,1-3.72,3.33A11.75,11.75,0,0,1,97,175.88Zm0-20a5.58,5.58,0,0,0-2.93.76,5.15,5.15,0,0,0-1.94,2.09,6.62,6.62,0,0,0-.68,3v.31H102.1v-.44a7,7,0,0,0-.62-3,4.63,4.63,0,0,0-1.76-2A5,5,0,0,0,97,155.86Z"/><path class="cls-2" d="M119.7,175.88a10.47,10.47,0,0,1-5.63-1.46,9.67,9.67,0,0,1-3.68-4.13,15.91,15.91,0,0,1,0-12.55,9.82,9.82,0,0,1,3.61-4.13,10.18,10.18,0,0,1,5.59-1.49,10,10,0,0,1,5.65,1.51,9.36,9.36,0,0,1,3.41,4.09,14,14,0,0,1,1.14,5.72v1.8H114.11V166a6,6,0,0,0,1.56,4.28,5.79,5.79,0,0,0,4.47,1.67,6.54,6.54,0,0,0,3.56-.91,7.53,7.53,0,0,0,2.42-2.47l2.86,2.75a9.73,9.73,0,0,1-3.72,3.33A11.75,11.75,0,0,1,119.7,175.88Zm0-20a5.57,5.57,0,0,0-2.92.76,5.15,5.15,0,0,0-1.94,2.09,6.62,6.62,0,0,0-.68,3v.31h10.65v-.44a7,7,0,0,0-.62-3,4.63,4.63,0,0,0-1.76-2A5,5,0,0,0,119.65,155.86Z"/><path class="cls-2" d="M147.73,175.36v-3.79h-.22a6.65,6.65,0,0,1-2.47,3.17,6.84,6.84,0,0,1-4,1.14,8.35,8.35,0,0,1-4.9-1.42,8.76,8.76,0,0,1-3.13-4.08,19.41,19.41,0,0,1,0-12.77,8.84,8.84,0,0,1,3.13-4.07,8.42,8.42,0,0,1,4.9-1.42,7.16,7.16,0,0,1,4,1.13,6,6,0,0,1,2.42,3.19h.22V142.8h4.79v32.56Zm-5.2-3.52a6.65,6.65,0,0,0,2.62-.5,4.69,4.69,0,0,0,1.87-1.4,3.41,3.41,0,0,0,.71-2.19v-7.66A3.17,3.17,0,0,0,147,158a4.59,4.59,0,0,0-1.87-1.35,7,7,0,0,0-2.62-.47,5.19,5.19,0,0,0-4,1.61,5.9,5.9,0,0,0-1.52,4.22V166a6,6,0,0,0,1.52,4.24A5.18,5.18,0,0,0,142.53,171.84Z"/><path class="cls-2" d="M44.24,219.36V188.64H55.11a13.4,13.4,0,0,1,6.84,1.7,11.22,11.22,0,0,1,4.53,5.1,23.56,23.56,0,0,1,0,17.12,11.22,11.22,0,0,1-4.53,5.1,13.4,13.4,0,0,1-6.84,1.7Zm5-4.4h5.9a8.19,8.19,0,0,0,4-1,6.54,6.54,0,0,0,2.69-2.86,10.39,10.39,0,0,0,.94-4.67v-4.92a10.39,10.39,0,0,0-.94-4.67A6.54,6.54,0,0,0,59.13,194a8.19,8.19,0,0,0-4-1h-5.9Z"/><path class="cls-2" d="M74.55,192.56a2.9,2.9,0,0,1-2.17-.7,2.47,2.47,0,0,1-.69-1.81v-.75a2.47,2.47,0,0,1,.69-1.8,2.9,2.9,0,0,1,2.17-.7,2.85,2.85,0,0,1,2.16.7,2.53,2.53,0,0,1,.66,1.8v.75a2.54,2.54,0,0,1-.66,1.81A2.85,2.85,0,0,1,74.55,192.56Zm-2.42,26.8V196.65h4.8v22.71Z"/><path class="cls-2" d="M89.29,219.88a11.78,11.78,0,0,1-5.43-1.14A11.92,11.92,0,0,1,80,215.57l3.08-2.81a10.52,10.52,0,0,0,2.84,2.37,7.23,7.23,0,0,0,3.63.88,5.09,5.09,0,0,0,3.14-.8,2.68,2.68,0,0,0,1-2.23,2.5,2.5,0,0,0-.73-1.83,4.37,4.37,0,0,0-2.53-1l-2.11-.26a15.47,15.47,0,0,1-4-1.14,6,6,0,0,1-2.62-2.16,6.25,6.25,0,0,1-.9-3.48A6.15,6.15,0,0,1,83.2,198a9.73,9.73,0,0,1,6.14-1.84,13.36,13.36,0,0,1,3.61.44,9.58,9.58,0,0,1,2.72,1.26,11.25,11.25,0,0,1,2.2,2l-2.94,2.81a7.81,7.81,0,0,0-2.31-1.82,6.76,6.76,0,0,0-3.28-.77,4.73,4.73,0,0,0-2.91.75,2.5,2.5,0,0,0-1,2.06,2.32,2.32,0,0,0,.85,2,6.22,6.22,0,0,0,2.67.95l2.11.26a10.18,10.18,0,0,1,5.52,2.21,5.75,5.75,0,0,1,1.74,4.39,6.67,6.67,0,0,1-1.12,3.83A7.52,7.52,0,0,1,94.09,219,11.58,11.58,0,0,1,89.29,219.88Z"/><path class="cls-2" d="M102,219.36V186.8h4.8v13.64H107a7.41,7.41,0,0,1,2.26-3.08,6.43,6.43,0,0,1,4.16-1.24,6.8,6.8,0,0,1,5.48,2.32,9.81,9.81,0,0,1,2,6.51v14.41h-4.8V205.54a6.41,6.41,0,0,0-1-4,3.9,3.9,0,0,0-3.28-1.33,6.85,6.85,0,0,0-2.38.41,4.37,4.37,0,0,0-1.87,1.29,3.29,3.29,0,0,0-.72,2.18v15.26Z"/><path class="cls-2" d="M134.7,219.88a10.25,10.25,0,0,1-5.56-1.46,9.76,9.76,0,0,1-3.66-4.13,16,16,0,0,1,0-12.58,9.79,9.79,0,0,1,3.66-4.12,11.17,11.17,0,0,1,11.08,0,9.79,9.79,0,0,1,3.66,4.12,16,16,0,0,1,0,12.58,9.76,9.76,0,0,1-3.66,4.13A10.2,10.2,0,0,1,134.7,219.88Zm0-4a5.28,5.28,0,0,0,3.94-1.5,6.13,6.13,0,0,0,1.47-4.46v-3.83a6.13,6.13,0,0,0-1.47-4.46,5.28,5.28,0,0,0-3.94-1.5,5.39,5.39,0,0,0-3.94,1.5,6,6,0,0,0-1.51,4.46v3.83a6,6,0,0,0,1.51,4.46A5.39,5.39,0,0,0,134.7,215.88Z"/><path class="cls-2" d="M153.53,219.36h-4.79V196.65h4.79v3.79h.22a7.52,7.52,0,0,1,2.27-3.08,6.43,6.43,0,0,1,4.16-1.24,6.82,6.82,0,0,1,5.48,2.32,9.81,9.81,0,0,1,2,6.51v14.41h-4.79V205.54a6.41,6.41,0,0,0-1-4,3.88,3.88,0,0,0-3.27-1.33,6.81,6.81,0,0,0-2.38.41,4.31,4.31,0,0,0-1.87,1.29,3.3,3.3,0,0,0-.73,2.18Z"/><path class="cls-2" d="M181.52,219.88a10.53,10.53,0,0,1-5.64-1.46,9.72,9.72,0,0,1-3.67-4.13,15.91,15.91,0,0,1,0-12.55,9.82,9.82,0,0,1,3.61-4.13,10.15,10.15,0,0,1,5.58-1.49,10,10,0,0,1,5.66,1.51,9.36,9.36,0,0,1,3.41,4.09,14,14,0,0,1,1.14,5.72v1.8H175.93V210a6,6,0,0,0,1.56,4.28,5.79,5.79,0,0,0,4.47,1.67,6.57,6.57,0,0,0,3.56-.91,7.53,7.53,0,0,0,2.42-2.47l2.86,2.75a9.73,9.73,0,0,1-3.72,3.33A11.78,11.78,0,0,1,181.52,219.88Zm-.05-20a5.57,5.57,0,0,0-2.92.76,5.15,5.15,0,0,0-1.94,2.09,6.62,6.62,0,0,0-.68,3v.31h10.65v-.44a7,7,0,0,0-.62-3,4.7,4.7,0,0,0-1.76-2A5,5,0,0,0,181.47,199.86Z"/><path class="cls-2" d="M202.42,219.88a11,11,0,0,1-9.29-4.31l3.08-2.81a10.52,10.52,0,0,0,2.84,2.37,7.23,7.23,0,0,0,3.63.88,5.14,5.14,0,0,0,3.15-.8,2.67,2.67,0,0,0,1-2.23,2.5,2.5,0,0,0-.73-1.83,4.37,4.37,0,0,0-2.53-1l-2.11-.26a15.47,15.47,0,0,1-4-1.14,6,6,0,0,1-2.62-2.16,6.25,6.25,0,0,1-.9-3.48,6.15,6.15,0,0,1,2.35-5.16,9.73,9.73,0,0,1,6.14-1.84,13.36,13.36,0,0,1,3.61.44,9.77,9.77,0,0,1,2.73,1.26,11.86,11.86,0,0,1,2.2,2l-2.95,2.81a7.81,7.81,0,0,0-2.31-1.82,6.73,6.73,0,0,0-3.28-.77,4.68,4.68,0,0,0-2.9.75,2.48,2.48,0,0,0-1,2.06,2.3,2.3,0,0,0,.86,2,6.17,6.17,0,0,0,2.66.95l2.11.26a10.18,10.18,0,0,1,5.52,2.21,5.75,5.75,0,0,1,1.74,4.39,6.59,6.59,0,0,1-1.12,3.83,7.52,7.52,0,0,1-3.15,2.56A11.57,11.57,0,0,1,202.42,219.88Z"/><path class="cls-2" d="M225.34,219.36h-4.18A5,5,0,0,1,217.4,218a5,5,0,0,1-1.3-3.64V200.57h-3.56v-3.92h1.93a2.07,2.07,0,0,0,1.67-.53,2.62,2.62,0,0,0,.44-1.71v-4h4.32v6.25h4.79v3.92H220.9v14.87h4.44Z"/><path class="cls-2" d="M238.58,209.63l4.58-13h4.62l-9.64,27.26a8.61,8.61,0,0,1-1.25,2.47,4.06,4.06,0,0,1-1.85,1.36,8.48,8.48,0,0,1-2.92.42h-2.78v-3.92h3.88l1.32-4.36-8.32-23.23H231l4.57,13,1.32,4.8h.22Z"/><path class="cls-2" d="M49.21,263.36h-5V232.64h13.2a9.6,9.6,0,0,1,4.82,1.15A7.56,7.56,0,0,1,65.31,237a10.54,10.54,0,0,1,1.06,4.88,10.4,10.4,0,0,1-1.06,4.84A7.75,7.75,0,0,1,62.26,250a9.4,9.4,0,0,1-4.82,1.16H49.21Zm0-26.36v9.77h7.92a4.92,4.92,0,0,0,2.14-.44,3.1,3.1,0,0,0,1.38-1.3,4.22,4.22,0,0,0,.49-2.09v-2.11a4.17,4.17,0,0,0-.49-2.11,3.11,3.11,0,0,0-1.38-1.28,4.92,4.92,0,0,0-2.14-.44Z"/><path class="cls-2" d="M74.07,263.36H69.28V240.65h4.79v4.53h.22A7.36,7.36,0,0,1,75.41,243a5.94,5.94,0,0,1,2-1.7,6.73,6.73,0,0,1,3.12-.66h1.28v4.62H80a10.33,10.33,0,0,0-3.21.44,4.5,4.5,0,0,0-2,1.22,2.89,2.89,0,0,0-.68,2Z"/><path class="cls-2" d="M86.79,236.56a2.91,2.91,0,0,1-2.18-.7,2.47,2.47,0,0,1-.68-1.81v-.75a2.46,2.46,0,0,1,.68-1.8,2.91,2.91,0,0,1,2.18-.7,2.84,2.84,0,0,1,2.15.7,2.53,2.53,0,0,1,.66,1.8v.75a2.54,2.54,0,0,1-.66,1.81A2.84,2.84,0,0,1,86.79,236.56Zm-2.42,26.8V240.65h4.79v22.71Z"/><path class="cls-2" d="M108.65,263.36v-3.79h-.21a6.65,6.65,0,0,1-2.47,3.17,6.84,6.84,0,0,1-4,1.14,8.38,8.38,0,0,1-4.91-1.42A8.81,8.81,0,0,1,94,258.38a19.41,19.41,0,0,1,0-12.77,8.88,8.88,0,0,1,3.12-4.07,8.46,8.46,0,0,1,4.91-1.42,7.16,7.16,0,0,1,4,1.13,6,6,0,0,1,2.42,3.19h.21V230.8h4.8v32.56Zm-5.19-3.52a6.65,6.65,0,0,0,2.62-.5,4.69,4.69,0,0,0,1.87-1.4,3.4,3.4,0,0,0,.7-2.19v-7.66A3.17,3.17,0,0,0,108,246a4.59,4.59,0,0,0-1.87-1.35,7,7,0,0,0-2.62-.47,5.19,5.19,0,0,0-4,1.61A5.9,5.9,0,0,0,98,250.05V254a6,6,0,0,0,1.52,4.24A5.18,5.18,0,0,0,103.46,259.84Z"/><path class="cls-2" d="M127.58,263.88a10.51,10.51,0,0,1-5.64-1.46,9.65,9.65,0,0,1-3.67-4.13A14.13,14.13,0,0,1,117,252a14.27,14.27,0,0,1,1.28-6.26,9.87,9.87,0,0,1,3.6-4.13,10.21,10.21,0,0,1,5.59-1.49,10,10,0,0,1,5.66,1.51,9.43,9.43,0,0,1,3.41,4.09,14,14,0,0,1,1.14,5.72v1.8H122V254a6,6,0,0,0,1.56,4.28,5.79,5.79,0,0,0,4.47,1.67,6.57,6.57,0,0,0,3.56-.91,7.62,7.62,0,0,0,2.42-2.47l2.86,2.75a9.73,9.73,0,0,1-3.72,3.33A11.78,11.78,0,0,1,127.58,263.88Zm0-20a5.63,5.63,0,0,0-2.93.76,5.12,5.12,0,0,0-1.93,2.09,6.5,6.5,0,0,0-.68,3v.31h10.65v-.44a7,7,0,0,0-.62-3,4.7,4.7,0,0,0-1.76-2A5,5,0,0,0,127.53,243.86Z"/><path class="cls-2" d="M68.53,307.36h-5.2L60.65,299H49.17l-2.73,8.32h-5L51.9,276.64h6.2Zm-9.11-12.59-3-9.11L55,281.22h-.23l-1.4,4.44-3,9.11Z"/><path class="cls-2" d="M76,307.36H71.17V284.65H76v3.79h.22a7.52,7.52,0,0,1,2.27-3.08,6.43,6.43,0,0,1,4.16-1.24,6.78,6.78,0,0,1,5.47,2.32A9.75,9.75,0,0,1,90,293v14.41H85.25V293.54a6.41,6.41,0,0,0-1-4,3.88,3.88,0,0,0-3.28-1.33,6.79,6.79,0,0,0-2.37.41,4.31,4.31,0,0,0-1.87,1.29A3.25,3.25,0,0,0,76,292.1Z"/><path class="cls-2" d="M92.37,307.36l8.06-11.49-7.84-11.22h5.55l5.15,7.9h.13l5.23-7.9h5.15L106,295.83l8,11.53h-5.54l-5.28-8.26H103l-5.5,8.26Z"/><path class="cls-2" d="M118.91,280.56a2.91,2.91,0,0,1-2.18-.7,2.47,2.47,0,0,1-.68-1.81v-.75a2.46,2.46,0,0,1,.68-1.8,2.91,2.91,0,0,1,2.18-.7,2.84,2.84,0,0,1,2.15.7,2.53,2.53,0,0,1,.66,1.8v.75a2.54,2.54,0,0,1-.66,1.81A2.84,2.84,0,0,1,118.91,280.56Zm-2.42,26.8V284.65h4.79v22.71Z"/><path class="cls-2" d="M135.41,307.88a10.51,10.51,0,0,1-5.64-1.46,9.65,9.65,0,0,1-3.67-4.13,14.13,14.13,0,0,1-1.3-6.29,14.27,14.27,0,0,1,1.28-6.26,9.82,9.82,0,0,1,3.61-4.13,10.15,10.15,0,0,1,5.58-1.49,10,10,0,0,1,5.66,1.51,9.36,9.36,0,0,1,3.41,4.09,14,14,0,0,1,1.14,5.72v1.8H129.82V298a6,6,0,0,0,1.56,4.28,5.79,5.79,0,0,0,4.47,1.67,6.57,6.57,0,0,0,3.56-.91,7.62,7.62,0,0,0,2.42-2.47l2.86,2.75a9.73,9.73,0,0,1-3.72,3.33A11.78,11.78,0,0,1,135.41,307.88Zm0-20a5.57,5.57,0,0,0-2.92.76,5.08,5.08,0,0,0-1.94,2.09,6.5,6.5,0,0,0-.68,3.05v.31h10.65v-.44a7,7,0,0,0-.62-3,4.7,4.7,0,0,0-1.76-2A5,5,0,0,0,135.36,287.86Z"/><path class="cls-2" d="M159.56,307.36h-4.18a5,5,0,0,1-3.76-1.33,5,5,0,0,1-1.3-3.64V288.57h-3.56v-3.92h1.93a2.11,2.11,0,0,0,1.68-.53,2.68,2.68,0,0,0,.44-1.71v-4h4.31v6.25h4.79v3.92h-4.79v14.87h4.44Z"/><path class="cls-2" d="M172.81,297.63l4.57-13H182l-9.63,27.26a8.61,8.61,0,0,1-1.26,2.47,4.06,4.06,0,0,1-1.85,1.36,8.44,8.44,0,0,1-2.92.42h-2.78v-3.92h3.88l1.32-4.36-8.32-23.23h4.8l4.57,13,1.32,4.8h.22Z"/><path class="cls-2" d="M56.21,351.36H42.92v-4.05h4.14V324.69H42.92v-4.05H56.21v4.05H52v22.62h4.18Z"/><path class="cls-2" d="M67.51,351.88a11.78,11.78,0,0,1-5.43-1.14,11.92,11.92,0,0,1-3.85-3.17l3.08-2.81a10.52,10.52,0,0,0,2.84,2.37,7.23,7.23,0,0,0,3.63.88,5.09,5.09,0,0,0,3.14-.8A2.68,2.68,0,0,0,72,345a2.5,2.5,0,0,0-.73-1.83,4.37,4.37,0,0,0-2.53-1l-2.11-.26a15.47,15.47,0,0,1-4-1.14A6,6,0,0,1,60,338.6a6.25,6.25,0,0,1-.9-3.48A6.15,6.15,0,0,1,61.42,330a9.73,9.73,0,0,1,6.14-1.84,13.36,13.36,0,0,1,3.61.44,9.58,9.58,0,0,1,2.72,1.26,11.25,11.25,0,0,1,2.2,2l-2.94,2.81a7.81,7.81,0,0,0-2.31-1.82,6.76,6.76,0,0,0-3.28-.77,4.73,4.73,0,0,0-2.91.75,2.5,2.5,0,0,0-1,2.06,2.32,2.32,0,0,0,.85,2,6.22,6.22,0,0,0,2.67,1l2.11.26a10.18,10.18,0,0,1,5.52,2.21,5.75,5.75,0,0,1,1.74,4.39,6.67,6.67,0,0,1-1.12,3.83A7.52,7.52,0,0,1,72.31,351,11.58,11.58,0,0,1,67.51,351.88Z"/><path class="cls-2" d="M89.16,351.88a10.25,10.25,0,0,1-5.56-1.46,9.76,9.76,0,0,1-3.66-4.13,16,16,0,0,1,0-12.58,9.79,9.79,0,0,1,3.66-4.12,11.17,11.17,0,0,1,11.08,0,9.79,9.79,0,0,1,3.66,4.12,16,16,0,0,1,0,12.58,9.76,9.76,0,0,1-3.66,4.13A10.2,10.2,0,0,1,89.16,351.88Zm0-4a5.28,5.28,0,0,0,3.94-1.5,6.13,6.13,0,0,0,1.47-4.46v-3.83a6.13,6.13,0,0,0-1.47-4.46,5.28,5.28,0,0,0-3.94-1.5,5.39,5.39,0,0,0-3.94,1.5,6,6,0,0,0-1.51,4.46v3.83a6,6,0,0,0,1.51,4.46A5.39,5.39,0,0,0,89.16,347.88Z"/><path class="cls-2" d="M111.16,351.36h-3a4.41,4.41,0,0,1-4.93-4.8V318.8H108v28.64h3.17Z"/><path class="cls-2" d="M133.43,351.36h-2.69a4.12,4.12,0,0,1-2.26-.6,3.61,3.61,0,0,1-1.43-1.69,6.32,6.32,0,0,1-.49-2.6v-.39l1.37,1.45h-1.54a5.72,5.72,0,0,1-2.42,3.23,7.79,7.79,0,0,1-4.27,1.12,7.64,7.64,0,0,1-5.46-1.83,6.49,6.49,0,0,1-1.93-4.94,6.12,6.12,0,0,1,1.12-3.78,6.75,6.75,0,0,1,3.28-2.28,16.15,16.15,0,0,1,5.36-.76h4.14v-1.91a4.34,4.34,0,0,0-1.14-3.19A4.86,4.86,0,0,0,121.5,332a5.71,5.71,0,0,0-3.28.89,8.08,8.08,0,0,0-2.17,2.19l-2.86-2.58a9.09,9.09,0,0,1,3.23-3.17,10.41,10.41,0,0,1,5.39-1.25q4.39,0,6.8,2.08a7.32,7.32,0,0,1,2.4,5.86v11.38h2.42Zm-7.22-10h-4a7.12,7.12,0,0,0-3.74.78,2.51,2.51,0,0,0-1.23,2.26v.78a2.62,2.62,0,0,0,1.06,2.26,4.61,4.61,0,0,0,2.81.78,7.38,7.38,0,0,0,2.64-.43,4.35,4.35,0,0,0,1.83-1.26,2.94,2.94,0,0,0,.68-1.91Z"/><path class="cls-2" d="M146.76,351.36h-4.18a4.57,4.57,0,0,1-5.06-5V332.57H134v-3.92h1.94a2.07,2.07,0,0,0,1.67-.53,2.68,2.68,0,0,0,.44-1.71v-4h4.31v6.25h4.8v3.92h-4.8v14.87h4.45Z"/><path class="cls-2" d="M153,324.56a2.93,2.93,0,0,1-2.18-.7,2.51,2.51,0,0,1-.68-1.81v-.75a2.5,2.5,0,0,1,.68-1.8,2.93,2.93,0,0,1,2.18-.7,2.85,2.85,0,0,1,2.16.7,2.53,2.53,0,0,1,.66,1.8v.75a2.54,2.54,0,0,1-.66,1.81A2.85,2.85,0,0,1,153,324.56Zm-2.42,26.8V328.65h4.8v22.71Z"/><path class="cls-2" d="M169.37,351.88a10.27,10.27,0,0,1-5.56-1.46,9.68,9.68,0,0,1-3.65-4.13,15.87,15.87,0,0,1,0-12.58,9.71,9.71,0,0,1,3.65-4.12,11.19,11.19,0,0,1,11.09,0,9.84,9.84,0,0,1,3.65,4.12,15.87,15.87,0,0,1,0,12.58,9.81,9.81,0,0,1-3.65,4.13A10.21,10.21,0,0,1,169.37,351.88Zm0-4a5.26,5.26,0,0,0,3.94-1.5,6.14,6.14,0,0,0,1.48-4.46v-3.83a6.14,6.14,0,0,0-1.48-4.46,5.26,5.26,0,0,0-3.94-1.5,5.35,5.35,0,0,0-3.93,1.5,6,6,0,0,0-1.52,4.46v3.83a6,6,0,0,0,1.52,4.46A5.35,5.35,0,0,0,169.37,347.88Z"/><path class="cls-2" d="M188.21,351.36h-4.8V328.65h4.8v3.79h.22a7.41,7.41,0,0,1,2.26-3.08,6.43,6.43,0,0,1,4.16-1.24,6.8,6.8,0,0,1,5.48,2.32,9.81,9.81,0,0,1,2,6.51v14.41h-4.8V337.54a6.47,6.47,0,0,0-1-4,3.9,3.9,0,0,0-3.28-1.33,6.85,6.85,0,0,0-2.38.41,4.37,4.37,0,0,0-1.87,1.29,3.29,3.29,0,0,0-.72,2.18Z"/><path class="cls-2" d="M63.12,395.36V382H49.21v13.34h-5V364.64h5v13H63.12v-13h5v30.72Z"/><path class="cls-2" d="M82.47,395.88a10.27,10.27,0,0,1-5.56-1.46,9.68,9.68,0,0,1-3.65-4.13,15.87,15.87,0,0,1,0-12.58,9.71,9.71,0,0,1,3.65-4.12,11.19,11.19,0,0,1,11.09,0,9.77,9.77,0,0,1,3.65,4.12,15.87,15.87,0,0,1,0,12.58A9.74,9.74,0,0,1,88,394.42,10.21,10.21,0,0,1,82.47,395.88Zm0-4a5.26,5.26,0,0,0,3.94-1.5,6.09,6.09,0,0,0,1.48-4.46v-3.83a6.09,6.09,0,0,0-1.48-4.46,5.26,5.26,0,0,0-3.94-1.5,5.35,5.35,0,0,0-3.93,1.5A6,6,0,0,0,77,382.09v3.83a6,6,0,0,0,1.52,4.46A5.35,5.35,0,0,0,82.47,391.88Z"/><path class="cls-2" d="M96.51,404.16V372.65h4.8v3.79h.22a5.93,5.93,0,0,1,2.42-3.19,7.13,7.13,0,0,1,4-1.13,8.41,8.41,0,0,1,4.93,1.42,8.92,8.92,0,0,1,3.1,4.07,19.41,19.41,0,0,1,0,12.77,8.84,8.84,0,0,1-3.1,4.08,8.34,8.34,0,0,1-4.93,1.42,6.86,6.86,0,0,1-4-1.14,6.64,6.64,0,0,1-2.46-3.17h-.22v12.59Zm10-12.32a5.16,5.16,0,0,0,4-1.64A6,6,0,0,0,112,386v-3.91a5.94,5.94,0,0,0-1.5-4.22,5.18,5.18,0,0,0-4-1.61,7,7,0,0,0-2.62.47A4.59,4.59,0,0,0,102,378a3.17,3.17,0,0,0-.7,2v7.66a3.4,3.4,0,0,0,.7,2.19,4.69,4.69,0,0,0,1.87,1.4A6.65,6.65,0,0,0,106.5,391.84Z"/><path class="cls-2" d="M129.82,395.88a10.47,10.47,0,0,1-5.63-1.46,9.67,9.67,0,0,1-3.68-4.13,15.91,15.91,0,0,1,0-12.55,9.82,9.82,0,0,1,3.61-4.13,10.18,10.18,0,0,1,5.59-1.49,10,10,0,0,1,5.65,1.51,9.36,9.36,0,0,1,3.41,4.09,14,14,0,0,1,1.14,5.72v1.8H124.23V386a6,6,0,0,0,1.56,4.28,5.79,5.79,0,0,0,4.47,1.67,6.54,6.54,0,0,0,3.56-.91,7.53,7.53,0,0,0,2.42-2.47l2.86,2.75a9.73,9.73,0,0,1-3.72,3.33A11.75,11.75,0,0,1,129.82,395.88Zm0-20a5.57,5.57,0,0,0-2.92.76,5.15,5.15,0,0,0-1.94,2.09,6.62,6.62,0,0,0-.68,3.05v.31h10.65v-.44a7,7,0,0,0-.62-3,4.7,4.7,0,0,0-1.76-2A5,5,0,0,0,129.77,375.86Z"/><line class="cls-3" x1="36.52" y1="119.81" x2="224.68" y2="119.81"/><line class="cls-3" x1="36.52" y1="163.58" x2="160.79" y2="163.58"/><line class="cls-3" x1="36.52" y1="207.35" x2="254" y2="207.35"/><line class="cls-3" x1="36.52" y1="251.12" x2="145.26" y2="251.12"/><line class="cls-3" x1="36.52" y1="294.9" x2="187" y2="295.22"/><line class="cls-3" x1="36.52" y1="338.67" x2="208.7" y2="338.67"/><path d="M267,559H271v6.06a2.35,2.35,0,0,1-.31,1.24,2.07,2.07,0,0,1-.85.81,2.72,2.72,0,0,1-1.28.28,2.3,2.3,0,0,1-1.6-.54,2.54,2.54,0,0,1-.77-1.42l1.05-.23a1.64,1.64,0,0,0,.43.85,1.22,1.22,0,0,0,.91.33,1.2,1.2,0,0,0,.93-.36,1.55,1.55,0,0,0,.34-1.11V560H267Z"/><path d="M275.05,567.41a2.75,2.75,0,0,1-1.48-.39,2.57,2.57,0,0,1-1-1.11,4.35,4.35,0,0,1,0-3.37A2.56,2.56,0,0,1,275,561a2.47,2.47,0,0,1,2.35,1.47,3.64,3.64,0,0,1,.32,1.53v.46H273.4v.25a1.8,1.8,0,0,0,.45,1.26,1.64,1.64,0,0,0,1.28.49,1.87,1.87,0,0,0,1-.26,1.74,1.74,0,0,0,.65-.74l.72.6a2.48,2.48,0,0,1-.95.95A2.92,2.92,0,0,1,275.05,567.41Zm0-5.49a1.62,1.62,0,0,0-.86.22,1.6,1.6,0,0,0-.57.61,1.86,1.86,0,0,0-.21.89v.09h3.15v-.12a2,2,0,0,0-.18-.89,1.45,1.45,0,0,0-.53-.59A1.52,1.52,0,0,0,275,561.92Z"/><path d="M280.07,567.27H279v-6.1h1.1v1.17h.06a1.77,1.77,0,0,1,.31-.57,1.65,1.65,0,0,1,.57-.43,1.93,1.93,0,0,1,.84-.17h.36v1.08h-.53a2.49,2.49,0,0,0-.87.13,1.16,1.16,0,0,0-.55.35.73.73,0,0,0-.19.52Z"/><path d="M285.51,567.41A2.75,2.75,0,0,1,284,567a2.57,2.57,0,0,1-1-1.11,4.35,4.35,0,0,1,0-3.37A2.56,2.56,0,0,1,285.5,561a2.47,2.47,0,0,1,2.35,1.47,3.64,3.64,0,0,1,.32,1.53v.46h-4.31v.25a1.8,1.8,0,0,0,.45,1.26,1.64,1.64,0,0,0,1.28.49,1.87,1.87,0,0,0,1-.26,1.8,1.8,0,0,0,.65-.74l.72.6a2.48,2.48,0,0,1-.95.95A2.92,2.92,0,0,1,285.51,567.41Zm0-5.49a1.62,1.62,0,0,0-.86.22,1.6,1.6,0,0,0-.57.61,1.86,1.86,0,0,0-.21.89v.09H287v-.12a1.89,1.89,0,0,0-.19-.89,1.36,1.36,0,0,0-.52-.59A1.52,1.52,0,0,0,285.5,561.92Z"/><path d="M290.53,567.27h-1.1v-6.1h1.1v1h.05a2,2,0,0,1,.56-.81,1.56,1.56,0,0,1,1.08-.34,2.1,2.1,0,0,1,1.11.3,1.67,1.67,0,0,1,.73.95h0a1.9,1.9,0,0,1,.63-.88A2,2,0,0,1,296,561a1.83,1.83,0,0,1,1.45.61,2.65,2.65,0,0,1,.52,1.73v3.9h-1.09v-3.73a1.91,1.91,0,0,0-.3-1.16,1.13,1.13,0,0,0-.95-.39,1.84,1.84,0,0,0-.66.12,1.13,1.13,0,0,0-.51.37,1,1,0,0,0-.19.61v4.18h-1.09v-3.73a1.87,1.87,0,0,0-.3-1.16,1.1,1.1,0,0,0-.93-.39,1.84,1.84,0,0,0-.66.12,1.16,1.16,0,0,0-.52.37,1,1,0,0,0-.19.61Z"/><path d="M302,565l1.38-3.83h1.05l-2.66,7.44a2.3,2.3,0,0,1-.31.61,1,1,0,0,1-.45.32,2.52,2.52,0,0,1-.75.1h-.59v-.93h1l.41-1.3-2.25-6.24h1.08l1.37,3.83.31,1.1h.06Z"/><path d="M307.94,567.27V559h2.82a3.49,3.49,0,0,1,1.82.46,3,3,0,0,1,1.19,1.37,6.51,6.51,0,0,1,0,4.6,3,3,0,0,1-1.19,1.37,3.59,3.59,0,0,1-1.82.45Zm1.14-1h1.68a2.29,2.29,0,0,0,1.16-.29,2,2,0,0,0,.77-.84,2.82,2.82,0,0,0,.28-1.33v-1.32a2.93,2.93,0,0,0-.28-1.35,1.94,1.94,0,0,0-.77-.83,2.29,2.29,0,0,0-1.16-.28h-1.68Z"/><path d="M316.27,567.41a.75.75,0,0,1-.58-.21.73.73,0,0,1-.19-.52v-.16a.69.69,0,0,1,.77-.75.68.68,0,0,1,.78.75v.16a.77.77,0,0,1-.18.52A.78.78,0,0,1,316.27,567.41Z"/><path d="M324.29,567.41a3.33,3.33,0,0,1-1.81-.48,3,3,0,0,1-1.17-1.41,6.09,6.09,0,0,1-.4-2.33,6.21,6.21,0,0,1,.4-2.34,3.21,3.21,0,0,1,1.17-1.47,3.25,3.25,0,0,1,1.81-.5,3,3,0,0,1,2.89,1.83l-.95.55a2.34,2.34,0,0,0-.71-1,2.16,2.16,0,0,0-2.82.35,3.1,3.1,0,0,0-.57,2v1.24a2.93,2.93,0,0,0,.57,1.9,2,2,0,0,0,1.59.69,2,2,0,0,0,1.27-.4,2.39,2.39,0,0,0,.75-1l.91.56a3.26,3.26,0,0,1-1.14,1.39A3.16,3.16,0,0,1,324.29,567.41Z"/><path d="M328.37,567.27v-8.74h1.1v3.65h0a2,2,0,0,1,.62-.83,1.75,1.75,0,0,1,1.1-.32,1.91,1.91,0,0,1,1.49.61,2.59,2.59,0,0,1,.53,1.73v3.9h-1.08v-3.73a1.8,1.8,0,0,0-.32-1.16,1.19,1.19,0,0,0-1-.39,1.92,1.92,0,0,0-.69.12,1.19,1.19,0,0,0-.53.36,1,1,0,0,0-.2.62v4.18Z"/><path d="M337.26,567.41a2.75,2.75,0,0,1-1.48-.39,2.57,2.57,0,0,1-1-1.11,4.35,4.35,0,0,1,0-3.37,2.56,2.56,0,0,1,2.44-1.51,2.47,2.47,0,0,1,2.35,1.47,3.64,3.64,0,0,1,.32,1.53v.46h-4.31v.25a1.8,1.8,0,0,0,.45,1.26,1.64,1.64,0,0,0,1.28.49,1.87,1.87,0,0,0,1-.26,1.74,1.74,0,0,0,.65-.74l.72.6a2.48,2.48,0,0,1-.95.95A2.92,2.92,0,0,1,337.26,567.41Zm0-5.49a1.62,1.62,0,0,0-.86.22,1.6,1.6,0,0,0-.57.61,1.86,1.86,0,0,0-.21.89v.09h3.15v-.12a2,2,0,0,0-.18-.89,1.45,1.45,0,0,0-.53-.59A1.52,1.52,0,0,0,337.25,561.92Z"/><path d="M342.28,567.27h-1.1v-6.1h1.1v1.17h.06a1.77,1.77,0,0,1,.31-.57,1.65,1.65,0,0,1,.57-.43,1.93,1.93,0,0,1,.84-.17h.36v1.08h-.53a2.49,2.49,0,0,0-.87.13,1.16,1.16,0,0,0-.55.35.73.73,0,0,0-.19.52Z"/><path d="M346.46,567.27h-1.1v-6.1h1.1v1.17h.06a1.8,1.8,0,0,1,.32-.57,1.53,1.53,0,0,1,.56-.43,2,2,0,0,1,.85-.17h.35v1.08h-.53a2.49,2.49,0,0,0-.87.13,1.22,1.22,0,0,0-.55.35.77.77,0,0,0-.19.52Z"/><path d="M351.94,565l1.38-3.83h1.05l-2.66,7.44a2.3,2.3,0,0,1-.31.61,1,1,0,0,1-.45.32,2.52,2.52,0,0,1-.75.1h-.59v-.93h1l.41-1.3-2.25-6.24h1.08l1.37,3.83.31,1.1h.06Z"/><path d="M48.6,429.28a3.79,3.79,0,0,1-2.1-.57A3.49,3.49,0,0,1,45.16,427a7.14,7.14,0,0,1-.47-2.75,7.38,7.38,0,0,1,.47-2.78,3.66,3.66,0,0,1,1.34-1.74,3.72,3.72,0,0,1,2.1-.59,3.53,3.53,0,0,1,2,.56A3.62,3.62,0,0,1,52,421.3l-.91.54a2.68,2.68,0,0,0-.91-1.22,2.68,2.68,0,0,0-3.53.47,4,4,0,0,0-.72,2.49V425a3.73,3.73,0,0,0,.72,2.42,2.45,2.45,0,0,0,2,.88,2.53,2.53,0,0,0,1.59-.49,2.8,2.8,0,0,0,.93-1.29l.9.55a3.94,3.94,0,0,1-1.33,1.62A3.53,3.53,0,0,1,48.6,429.28Z"/><path d="M54.4,429.11H53.33v-7.23H54.4v1.32h.07a1.93,1.93,0,0,1,1.07-1.13,2.43,2.43,0,0,1,1-.19H57v1.05h-.64a3,3,0,0,0-1,.17,1.62,1.62,0,0,0-.68.45,1,1,0,0,0-.23.65Z"/><path d="M60.72,429.28a3,3,0,0,1-2.83-1.79,4.55,4.55,0,0,1-.4-2,4.61,4.61,0,0,1,.4-2A3,3,0,0,1,59,422.18a3.06,3.06,0,0,1,1.69-.46,3,3,0,0,1,1.66.45,2.92,2.92,0,0,1,1.07,1.25,4.26,4.26,0,0,1,.38,1.84v.5H58.61v.34a2.35,2.35,0,0,0,.57,1.61,2,2,0,0,0,1.6.64A2.23,2.23,0,0,0,62,428a2.3,2.3,0,0,0,.8-1l.77.55a3,3,0,0,1-1.09,1.2A3.21,3.21,0,0,1,60.72,429.28Zm0-6.68a2,2,0,0,0-1.09.29,1.91,1.91,0,0,0-.74.8,2.48,2.48,0,0,0-.27,1.18V425h4.06v-.15a2.64,2.64,0,0,0-.24-1.16,2,2,0,0,0-.68-.77A1.91,1.91,0,0,0,60.71,422.6Z"/><path d="M71.14,429.11h-.67a1.22,1.22,0,0,1-.69-.18,1.05,1.05,0,0,1-.38-.5,2.09,2.09,0,0,1-.12-.74v-.14l.4.38h-.46a1.92,1.92,0,0,1-.78,1,2.46,2.46,0,0,1-1.33.35,2.51,2.51,0,0,1-1.77-.59,2,2,0,0,1-.64-1.58A1.93,1.93,0,0,1,65,426a2.08,2.08,0,0,1,1-.72,5.17,5.17,0,0,1,1.72-.25h1.47v-.73a1.61,1.61,0,0,0-.43-1.22,1.78,1.78,0,0,0-1.3-.41,1.94,1.94,0,0,0-1.1.29,2.3,2.3,0,0,0-.75.8l-.65-.59a2.67,2.67,0,0,1,.93-1,2.91,2.91,0,0,1,1.62-.41,3,3,0,0,1,2,.63,2.29,2.29,0,0,1,.73,1.79v4h.85Zm-1.92-3.32H67.7a2.78,2.78,0,0,0-1.43.29,1,1,0,0,0-.45.84v.3a1,1,0,0,0,.41.84,1.67,1.67,0,0,0,1.06.31,2.57,2.57,0,0,0,1-.18,1.78,1.78,0,0,0,.69-.48,1.07,1.07,0,0,0,.25-.7Z"/><path d="M75.26,429.11h-1.4a1.08,1.08,0,0,1-.84-.32,1.17,1.17,0,0,1-.3-.82v-5.16h-1.2v-.93h.7a.63.63,0,0,0,.47-.14.75.75,0,0,0,.13-.5v-1.36h1v2h1.58v.93H73.79v5.37h1.47Z"/><path d="M77.3,420.13a.68.68,0,0,1-.5-.16.66.66,0,0,1-.16-.44v-.17a.64.64,0,0,1,.16-.44.65.65,0,0,1,.5-.17.62.62,0,0,1,.5.17.6.6,0,0,1,.16.44v.17a.61.61,0,0,1-.16.44A.65.65,0,0,1,77.3,420.13Zm-.53,9v-7.23h1.06v7.23Z"/><path d="M80.9,429.11H79.83v-7.23H80.9v1.17h0a2.37,2.37,0,0,1,.75-1,2.14,2.14,0,0,1,1.31-.36,2.25,2.25,0,0,1,1.77.71,2.91,2.91,0,0,1,.65,2v4.64H84.37v-4.45a2.26,2.26,0,0,0-.42-1.49,1.52,1.52,0,0,0-1.25-.5,2.53,2.53,0,0,0-.87.15,1.57,1.57,0,0,0-.67.47,1.18,1.18,0,0,0-.26.79Z"/><path d="M93.41,430a1.77,1.77,0,0,1-.39,1.18,2.26,2.26,0,0,1-1.17.7,7.06,7.06,0,0,1-1.94.23,6.51,6.51,0,0,1-1.81-.21,2,2,0,0,1-1-.59,1.44,1.44,0,0,1-.32-.93,1.25,1.25,0,0,1,.31-.9,1.76,1.76,0,0,1,.87-.49v-.13a1.19,1.19,0,0,1-.49-.41,1.17,1.17,0,0,1,.18-1.44,2.24,2.24,0,0,1,.89-.43v-.06a2.36,2.36,0,0,1-1-.9,2.52,2.52,0,0,1-.35-1.35,2.6,2.6,0,0,1,.33-1.33,2.31,2.31,0,0,1,1-.88,3,3,0,0,1,1.42-.31,3.51,3.51,0,0,1,.74.07,2.2,2.2,0,0,1,.64.22v-.17a1.11,1.11,0,0,1,.19-.65.72.72,0,0,1,.61-.26h1.11v.93H91.76v.49a2.24,2.24,0,0,1,.6.82,2.61,2.61,0,0,1,.21,1.06,2.64,2.64,0,0,1-.33,1.32,2.19,2.19,0,0,1-.94.89,3.11,3.11,0,0,1-1.43.32l-.36,0-.35,0a2.4,2.4,0,0,0-.67.3.62.62,0,0,0-.3.55.45.45,0,0,0,.3.45,2.23,2.23,0,0,0,.81.12h1.57a3,3,0,0,1,1.93.5A1.63,1.63,0,0,1,93.41,430Zm-1,.07a.83.83,0,0,0-.34-.68,2,2,0,0,0-1.19-.25H88.49a1.22,1.22,0,0,0-.56.39,1,1,0,0,0-.17.58,1,1,0,0,0,.38.8,1.86,1.86,0,0,0,1.24.33h1a3.16,3.16,0,0,0,1.48-.29A.93.93,0,0,0,92.41,430Zm-2.54-4.12a1.75,1.75,0,0,0,1.16-.37,1.4,1.4,0,0,0,.42-1.11V424a1.37,1.37,0,0,0-.42-1.1,1.75,1.75,0,0,0-1.16-.36,1.78,1.78,0,0,0-1.17.36,1.37,1.37,0,0,0-.42,1.1v.41a1.4,1.4,0,0,0,.42,1.11A1.78,1.78,0,0,0,89.87,425.92Z"/><path d="M99.88,429.28a2.86,2.86,0,0,1-2.36-1,4.92,4.92,0,0,1,0-5.53,2.89,2.89,0,0,1,2.36-1,2.72,2.72,0,0,1,2.67,1.66l-.89.45A1.77,1.77,0,0,0,101,423a2,2,0,0,0-1.11-.31,1.91,1.91,0,0,0-1.55.63,2.42,2.42,0,0,0-.52,1.62v1.19a2.45,2.45,0,0,0,.52,1.61,1.91,1.91,0,0,0,1.55.64,2,2,0,0,0,2-1.26l.77.52a2.82,2.82,0,0,1-1,1.21A3,3,0,0,1,99.88,429.28Z"/><path d="M106.52,429.28a3.09,3.09,0,0,1-1.69-.47,3.13,3.13,0,0,1-1.14-1.32,4.54,4.54,0,0,1-.41-2,4.61,4.61,0,0,1,.41-2,3,3,0,0,1,1.14-1.31,3.33,3.33,0,0,1,3.38,0,3,3,0,0,1,1.14,1.31,4.47,4.47,0,0,1,.42,2,4.41,4.41,0,0,1-.42,2,3.13,3.13,0,0,1-1.14,1.32A3.06,3.06,0,0,1,106.52,429.28Zm0-.94a2.1,2.1,0,0,0,1.52-.58,2.45,2.45,0,0,0,.58-1.77v-1a2.39,2.39,0,0,0-.58-1.74,2.07,2.07,0,0,0-1.52-.59,2,2,0,0,0-1.51.59,2.31,2.31,0,0,0-.59,1.74v1a2.37,2.37,0,0,0,.59,1.77A2.07,2.07,0,0,0,106.52,428.34Z"/><path d="M112.29,429.11h-1.07v-7.23h1.07v1.17h0a2.67,2.67,0,0,1,.68-.94,1.87,1.87,0,0,1,1.28-.39,2.61,2.61,0,0,1,1.33.34,2,2,0,0,1,.88,1.13h0a2.18,2.18,0,0,1,.74-1,2.26,2.26,0,0,1,1.47-.44,2.15,2.15,0,0,1,1.73.71,3,3,0,0,1,.62,2v4.64h-1v-4.45a2.43,2.43,0,0,0-.4-1.49,1.47,1.47,0,0,0-1.23-.5,2.41,2.41,0,0,0-.85.15,1.53,1.53,0,0,0-.64.47,1.28,1.28,0,0,0-.24.79v5h-1.07v-4.45a2.46,2.46,0,0,0-.38-1.49,1.42,1.42,0,0,0-1.21-.5,2.4,2.4,0,0,0-.84.15,1.53,1.53,0,0,0-.66.47,1.22,1.22,0,0,0-.25.79Z"/><path d="M123,431.91v-10h1.07v1.17h0a2,2,0,0,1,.83-1,2.56,2.56,0,0,1,1.3-.32,2.71,2.71,0,0,1,1.57.45,2.86,2.86,0,0,1,1,1.31,5.79,5.79,0,0,1,0,4,2.86,2.86,0,0,1-1,1.31,2.65,2.65,0,0,1-1.57.47,2.29,2.29,0,0,1-1.28-.35,2.48,2.48,0,0,1-.85-1h0v4Zm3-3.59a2,2,0,0,0,1.53-.61,2.35,2.35,0,0,0,.56-1.62V424.9a2.33,2.33,0,0,0-.56-1.62,2,2,0,0,0-1.53-.61,2.3,2.3,0,0,0-.95.19,1.71,1.71,0,0,0-.69.5,1.1,1.1,0,0,0-.26.74v2.72a1.22,1.22,0,0,0,.26.8,1.58,1.58,0,0,0,.69.52A2.47,2.47,0,0,0,126,428.32Z"/><path d="M136.57,429.11h-.67a1.16,1.16,0,0,1-.68-.18,1.07,1.07,0,0,1-.39-.5,2.09,2.09,0,0,1-.12-.74v-.14l.41.38h-.46a1.89,1.89,0,0,1-.79,1,2.42,2.42,0,0,1-1.33.35,2.54,2.54,0,0,1-1.77-.59,2,2,0,0,1-.64-1.58,1.93,1.93,0,0,1,.33-1.15,2.13,2.13,0,0,1,1-.72,5.24,5.24,0,0,1,1.73-.25h1.47v-.73a1.65,1.65,0,0,0-.43-1.22,1.79,1.79,0,0,0-1.31-.41,1.94,1.94,0,0,0-1.1.29,2.51,2.51,0,0,0-.75.8l-.64-.59a2.6,2.6,0,0,1,.93-1,2.87,2.87,0,0,1,1.62-.41,3,3,0,0,1,2,.63,2.26,2.26,0,0,1,.73,1.79v4h.85Zm-1.91-3.32h-1.53a2.74,2.74,0,0,0-1.42.29,1,1,0,0,0-.46.84v.3a1,1,0,0,0,.41.84,1.7,1.7,0,0,0,1.07.31,2.57,2.57,0,0,0,1-.18,1.67,1.67,0,0,0,.68-.48,1.08,1.08,0,0,0,.26-.7Z"/><path d="M139.91,429.28a3.45,3.45,0,0,1-1.68-.38,3.78,3.78,0,0,1-1.17-1l.76-.62a3.44,3.44,0,0,0,1,.82,2.49,2.49,0,0,0,1.21.29,1.82,1.82,0,0,0,1.14-.32,1,1,0,0,0,.41-.89,1.09,1.09,0,0,0-.29-.76,1.67,1.67,0,0,0-1-.42l-.58-.08a5.09,5.09,0,0,1-1.18-.33,2,2,0,0,1-.82-.66,1.9,1.9,0,0,1-.29-1.09,1.82,1.82,0,0,1,.73-1.59,3.08,3.08,0,0,1,1.82-.51,3.31,3.31,0,0,1,1,.14,2.76,2.76,0,0,1,.81.39,3.12,3.12,0,0,1,.65.61l-.7.65a2.18,2.18,0,0,0-1.89-.9,1.63,1.63,0,0,0-1.07.31,1,1,0,0,0-.37.84.89.89,0,0,0,.36.8,2.73,2.73,0,0,0,1,.37l.56.08a3,3,0,0,1,1.7.69,1.86,1.86,0,0,1,.5,1.35,2.17,2.17,0,0,1-.32,1.18,2.07,2.07,0,0,1-.92.77A3.33,3.33,0,0,1,139.91,429.28Z"/><path d="M146.28,429.28a3.45,3.45,0,0,1-1.68-.38,3.78,3.78,0,0,1-1.17-1l.76-.62a3.44,3.44,0,0,0,.95.82,2.49,2.49,0,0,0,1.21.29,1.82,1.82,0,0,0,1.14-.32,1,1,0,0,0,.41-.89,1.09,1.09,0,0,0-.29-.76,1.67,1.67,0,0,0-1-.42l-.58-.08a5.09,5.09,0,0,1-1.18-.33,2,2,0,0,1-.82-.66,1.9,1.9,0,0,1-.29-1.09,1.82,1.82,0,0,1,.73-1.59,3.08,3.08,0,0,1,1.82-.51,3.31,3.31,0,0,1,1,.14,2.76,2.76,0,0,1,.81.39,3.12,3.12,0,0,1,.65.61l-.7.65a2.18,2.18,0,0,0-1.89-.9,1.63,1.63,0,0,0-1.07.31,1,1,0,0,0-.37.84.89.89,0,0,0,.36.8,2.73,2.73,0,0,0,1,.37l.56.08a3,3,0,0,1,1.7.69,1.86,1.86,0,0,1,.5,1.35,2.17,2.17,0,0,1-.32,1.18,2.07,2.07,0,0,1-.92.77A3.33,3.33,0,0,1,146.28,429.28Z"/><path d="M151,420.13a.68.68,0,0,1-.5-.16.66.66,0,0,1-.16-.44v-.17a.64.64,0,0,1,.16-.44.84.84,0,0,1,1,0,.63.63,0,0,1,.15.44v.17a.65.65,0,0,1-.15.44A.68.68,0,0,1,151,420.13Zm-.53,9v-7.23h1.06v7.23Z"/><path d="M156.26,429.28a3.09,3.09,0,0,1-1.69-.47,3.13,3.13,0,0,1-1.14-1.32,4.54,4.54,0,0,1-.41-2,4.61,4.61,0,0,1,.41-2,3,3,0,0,1,1.14-1.31,3.33,3.33,0,0,1,3.38,0,3,3,0,0,1,1.14,1.31,4.47,4.47,0,0,1,.42,2,4.41,4.41,0,0,1-.42,2,3.13,3.13,0,0,1-1.14,1.32A3.06,3.06,0,0,1,156.26,429.28Zm0-.94a2.1,2.1,0,0,0,1.52-.58,2.45,2.45,0,0,0,.58-1.77v-1a2.39,2.39,0,0,0-.58-1.74,2.07,2.07,0,0,0-1.52-.59,2,2,0,0,0-1.51.59,2.31,2.31,0,0,0-.59,1.74v1a2.37,2.37,0,0,0,.59,1.77A2.07,2.07,0,0,0,156.26,428.34Z"/><path d="M162,429.11H161v-7.23H162v1.17h.05a2.37,2.37,0,0,1,.75-1,2.14,2.14,0,0,1,1.31-.36,2.25,2.25,0,0,1,1.77.71,3,3,0,0,1,.65,2v4.64H165.5v-4.45a2.26,2.26,0,0,0-.42-1.49,1.52,1.52,0,0,0-1.25-.5,2.49,2.49,0,0,0-.87.15,1.66,1.66,0,0,0-.68.47,1.22,1.22,0,0,0-.25.79Z"/><path d="M174.35,429.11h-.68a1.19,1.19,0,0,1-.68-.18,1.07,1.07,0,0,1-.39-.5,2.09,2.09,0,0,1-.12-.74v-.14l.41.38h-.46a1.89,1.89,0,0,1-.79,1,2.42,2.42,0,0,1-1.33.35,2.54,2.54,0,0,1-1.77-.59,2,2,0,0,1-.63-1.58,2,2,0,0,1,.32-1.15,2.11,2.11,0,0,1,1-.72A5.13,5.13,0,0,1,171,425h1.47v-.73A1.61,1.61,0,0,0,172,423a1.79,1.79,0,0,0-1.31-.41,2,2,0,0,0-1.1.29,2.51,2.51,0,0,0-.75.8l-.64-.59a2.67,2.67,0,0,1,.93-1,2.89,2.89,0,0,1,1.62-.41,3,3,0,0,1,2,.63,2.26,2.26,0,0,1,.73,1.79v4h.86Zm-1.92-3.32H170.9a2.74,2.74,0,0,0-1.42.29,1,1,0,0,0-.45.84v.3a1,1,0,0,0,.4.84,1.7,1.7,0,0,0,1.07.31,2.57,2.57,0,0,0,1-.18,1.78,1.78,0,0,0,.69-.48,1.13,1.13,0,0,0,.25-.7Z"/><path d="M178.46,429.11h-1.4a1.11,1.11,0,0,1-.84-.32,1.21,1.21,0,0,1-.29-.82v-5.16h-1.21v-.93h.7a.64.64,0,0,0,.48-.14.81.81,0,0,0,.13-.5v-1.36h1v2h1.58v.93H177v5.37h1.47Z"/><path d="M182.68,429.28a3,3,0,0,1-2.84-1.79,4.55,4.55,0,0,1-.4-2,4.61,4.61,0,0,1,.4-2,3,3,0,0,1,1.13-1.31,3.06,3.06,0,0,1,1.69-.46,3,3,0,0,1,1.66.45,2.92,2.92,0,0,1,1.07,1.25,4.26,4.26,0,0,1,.38,1.84v.5h-5.21v.34a2.31,2.31,0,0,0,.58,1.61,2,2,0,0,0,1.59.64A2.23,2.23,0,0,0,184,428a2.3,2.3,0,0,0,.8-1l.77.55a3,3,0,0,1-1.09,1.2A3.2,3.2,0,0,1,182.68,429.28Zm0-6.68a2,2,0,0,0-1.09.29,1.91,1.91,0,0,0-.74.8,2.48,2.48,0,0,0-.27,1.18V425h4.06v-.15a2.64,2.64,0,0,0-.24-1.16,1.88,1.88,0,0,0-.68-.77A1.91,1.91,0,0,0,182.66,422.6Z"/><path d="M46.25,447.11l-2-7.23h1l.81,3.22.77,3.11h0l.87-3.11.93-3.22h1l1,3.22.88,3.11h0l.74-3.11.82-3.22h1l-1.93,7.23H50.9l-1-3.54-.63-2.22h0l-.63,2.22-1,3.54Z"/><path d="M58.06,447.28a3.08,3.08,0,0,1-1.68-.47,3.13,3.13,0,0,1-1.14-1.32,4.54,4.54,0,0,1-.41-2,4.61,4.61,0,0,1,.41-2,3,3,0,0,1,2.82-1.77,3.09,3.09,0,0,1,1.7.46,3.18,3.18,0,0,1,1.14,1.31,4.61,4.61,0,0,1,.41,2,4.54,4.54,0,0,1-.41,2,3.28,3.28,0,0,1-1.14,1.32A3.1,3.1,0,0,1,58.06,447.28Zm0-.94a2.07,2.07,0,0,0,1.52-.58,2.4,2.4,0,0,0,.58-1.77v-1a2.34,2.34,0,0,0-.58-1.74,2,2,0,0,0-1.52-.59,2.06,2.06,0,0,0-1.51.59A2.35,2.35,0,0,0,56,443v1a2.41,2.41,0,0,0,.59,1.77A2.09,2.09,0,0,0,58.06,446.34Z"/><path d="M63.83,447.11H62.77v-7.23h1.06v1.32h.07a2.29,2.29,0,0,1,.39-.65,1.94,1.94,0,0,1,.69-.48,2.41,2.41,0,0,1,1-.19h.44v1.05h-.65a2.94,2.94,0,0,0-1,.17,1.62,1.62,0,0,0-.68.45,1,1,0,0,0-.24.65Z"/><path d="M67.46,447.11V436.75h1.06v6.61h.06l1.1-1.23,2.12-2.25h1.29l-2.71,2.87,3,4.36H72.06l-2.45-3.71-1.09,1.12v2.59Z"/><path d="M77.65,447.11v-6.3H76.46v-.93h1.19v-1.54a1.69,1.69,0,0,1,.37-1.15,1.37,1.37,0,0,1,1.13-.44h1.12v.92H78.71v2.21h1.56v.93H78.71v6.3Z"/><path d="M84,447.28a3.08,3.08,0,0,1-1.68-.47,3.13,3.13,0,0,1-1.14-1.32,4.41,4.41,0,0,1-.41-2,4.47,4.47,0,0,1,.41-2A3,3,0,0,1,84,439.72a3.09,3.09,0,0,1,1.7.46,3.18,3.18,0,0,1,1.14,1.31,4.61,4.61,0,0,1,.41,2,4.54,4.54,0,0,1-.41,2,3.28,3.28,0,0,1-1.14,1.32A3.1,3.1,0,0,1,84,447.28Zm0-.94a2.07,2.07,0,0,0,1.52-.58,2.4,2.4,0,0,0,.58-1.77v-1a2.34,2.34,0,0,0-.58-1.74,2,2,0,0,0-1.52-.59,2.06,2.06,0,0,0-1.51.59,2.35,2.35,0,0,0-.59,1.74v1a2.41,2.41,0,0,0,.59,1.77A2.09,2.09,0,0,0,84,446.34Z"/><path d="M89.8,447.11H88.74v-7.23H89.8v1.32h.07a2.29,2.29,0,0,1,.39-.65,1.94,1.94,0,0,1,.69-.48,2.41,2.41,0,0,1,1-.19h.44v1.05h-.65a2.94,2.94,0,0,0-1,.17,1.56,1.56,0,0,0-.68.45,1,1,0,0,0-.24.65Z"/><path d="M96.31,447.11V436.75h1.07v4.3h.05a2.37,2.37,0,0,1,.75-1,2.14,2.14,0,0,1,1.31-.36,2.25,2.25,0,0,1,1.77.71,3,3,0,0,1,.65,2v4.64h-1.06v-4.45a2.26,2.26,0,0,0-.42-1.49,1.52,1.52,0,0,0-1.25-.5,2.49,2.49,0,0,0-.87.15,1.66,1.66,0,0,0-.68.47,1.22,1.22,0,0,0-.25.79v5Z"/><path d="M108.29,447.11V446h-.05a2.5,2.5,0,0,1-.67.91,2,2,0,0,1-1.38.42,2.29,2.29,0,0,1-1.77-.73,2.91,2.91,0,0,1-.66-2v-4.63h1.06v4.45a2.29,2.29,0,0,0,.43,1.5,1.58,1.58,0,0,0,1.27.49,2.41,2.41,0,0,0,.85-.15,1.6,1.6,0,0,0,.67-.47,1.24,1.24,0,0,0,.25-.81v-5h1.07v7.23Z"/><path d="M112.41,447.11h-1.06v-7.23h1.06v1.17h.06a2.45,2.45,0,0,1,.68-.94,1.87,1.87,0,0,1,1.28-.39,2.66,2.66,0,0,1,1.33.34,2,2,0,0,1,.88,1.13h0a2.12,2.12,0,0,1,.74-1,2.22,2.22,0,0,1,1.47-.44,2.16,2.16,0,0,1,1.73.71,3.05,3.05,0,0,1,.62,2v4.64h-1v-4.45a2.43,2.43,0,0,0-.39-1.49,1.47,1.47,0,0,0-1.23-.5,2.41,2.41,0,0,0-.85.15,1.47,1.47,0,0,0-.64.47,1.22,1.22,0,0,0-.25.79v5h-1.06v-4.45a2.39,2.39,0,0,0-.39-1.49,1.42,1.42,0,0,0-1.21-.5,2.4,2.4,0,0,0-.84.15,1.59,1.59,0,0,0-.66.47,1.22,1.22,0,0,0-.25.79Z"/><path d="M129,447.11h-.67a1.16,1.16,0,0,1-.68-.18,1.07,1.07,0,0,1-.39-.5,2.09,2.09,0,0,1-.12-.74v-.14l.41.38h-.46a1.89,1.89,0,0,1-.79,1,2.42,2.42,0,0,1-1.33.35,2.54,2.54,0,0,1-1.77-.59,2,2,0,0,1-.64-1.58,1.93,1.93,0,0,1,.33-1.15,2.13,2.13,0,0,1,1-.72,5.24,5.24,0,0,1,1.73-.25h1.47v-.73a1.65,1.65,0,0,0-.43-1.22,1.79,1.79,0,0,0-1.31-.41,1.94,1.94,0,0,0-1.1.29,2.51,2.51,0,0,0-.75.8l-.64-.59a2.6,2.6,0,0,1,.93-1,2.87,2.87,0,0,1,1.62-.41,3,3,0,0,1,2,.63,2.26,2.26,0,0,1,.73,1.79v4H129Zm-1.91-3.32h-1.53a2.74,2.74,0,0,0-1.42.29,1,1,0,0,0-.46.84v.3a1,1,0,0,0,.41.84,1.7,1.7,0,0,0,1.07.31,2.57,2.57,0,0,0,1-.18,1.67,1.67,0,0,0,.68-.48,1.08,1.08,0,0,0,.26-.7Z"/><path d="M131.25,447.11h-1.06v-7.23h1.06v1.17h.06a2.37,2.37,0,0,1,.75-1,2.14,2.14,0,0,1,1.31-.36,2.26,2.26,0,0,1,1.77.71,3,3,0,0,1,.65,2v4.64h-1.06v-4.45a2.26,2.26,0,0,0-.42-1.49,1.52,1.52,0,0,0-1.25-.5,2.49,2.49,0,0,0-.87.15,1.66,1.66,0,0,0-.68.47,1.23,1.23,0,0,0-.26.79Z"/><path d="M139.86,447.28a3.41,3.41,0,0,1-1.67-.38,3.78,3.78,0,0,1-1.17-1l.76-.62a3.3,3.3,0,0,0,.95.82,2.48,2.48,0,0,0,1.2.29,1.83,1.83,0,0,0,1.15-.32,1.07,1.07,0,0,0,.41-.89,1.09,1.09,0,0,0-.29-.76,1.67,1.67,0,0,0-1-.42l-.58-.08a5,5,0,0,1-1.18-.33,2,2,0,0,1-.82-.66,2.14,2.14,0,0,1,.43-2.68,3.12,3.12,0,0,1,1.82-.51,3.38,3.38,0,0,1,1,.14,2.76,2.76,0,0,1,.81.39,3.39,3.39,0,0,1,.65.61l-.7.65a2.45,2.45,0,0,0-.71-.63,2.32,2.32,0,0,0-1.18-.27,1.61,1.61,0,0,0-1.07.31,1,1,0,0,0-.37.84.89.89,0,0,0,.36.8,2.61,2.61,0,0,0,1.05.37l.56.08a3,3,0,0,1,1.7.69,1.86,1.86,0,0,1,.5,1.35,2.17,2.17,0,0,1-.32,1.18,2.12,2.12,0,0,1-.92.77A3.38,3.38,0,0,1,139.86,447.28Z"/></svg>