<svg id="Layer_1" data-name="Layer 1" xmlns="http://www.w3.org/2000/svg" viewBox="0 0 302.25 111.18"><defs><style>.cls-1{fill:none;stroke:#ff0048;stroke-miterlimit:10;stroke-width:4.5px;}</style></defs><title>Artboard 1</title><rect class="cls-1" x="2.25" y="4.03" width="46.19" height="92.39"/><circle class="cls-1" cx="48.44" cy="50.22" r="46.19"/><path d="M140.82,44.42V26.11H121.61V44.42H115V2.52h6.6V20.35h19.21V2.52h6.61v41.9Zm24.13.73a14,14,0,0,1-7.53-2,13.39,13.39,0,0,1-5-5.65,19.43,19.43,0,0,1-1.77-8.59,19.28,19.28,0,0,1,1.77-8.57,13.34,13.34,0,0,1,5-5.61,15.19,15.19,0,0,1,15.07,0,13.34,13.34,0,0,1,5,5.61,19.28,19.28,0,0,1,1.77,8.57,19.43,19.43,0,0,1-1.77,8.59,13.39,13.39,0,0,1-5,5.65A14,14,0,0,1,165,45.15Zm0-5.29a7.34,7.34,0,0,0,5.5-2.11q2.07-2.11,2.07-6.22V26.35q0-4.17-2.07-6.26a8.26,8.26,0,0,0-11,0q-2.1,2.09-2.1,6.26v5.18q0,4.11,2.1,6.22A7.35,7.35,0,0,0,165,39.86Zm17.11,16.57v-43h6.37v5.1h.24A8.31,8.31,0,0,1,192,14.23a9.9,9.9,0,0,1,5.46-1.5,11.5,11.5,0,0,1,6.73,1.91,11.94,11.94,0,0,1,4.23,5.55,23.26,23.26,0,0,1,1.47,8.72,23.21,23.21,0,0,1-1.47,8.71,12.21,12.21,0,0,1-4.23,5.59,11.44,11.44,0,0,1-6.73,1.94,9.39,9.39,0,0,1-5.4-1.54,9.25,9.25,0,0,1-3.42-4.35h-.24V56.43Zm13.51-16.69a7.15,7.15,0,0,0,5.55-2.26,8.35,8.35,0,0,0,2.08-5.89v-5.3a8.35,8.35,0,0,0-2.08-5.93,7.2,7.2,0,0,0-5.55-2.23,9.1,9.1,0,0,0-3.6.69,6.44,6.44,0,0,0-2.58,1.87,4.32,4.32,0,0,0-1,2.8v10.6a4.81,4.81,0,0,0,1,3A6.22,6.22,0,0,0,192,39.06,9.27,9.27,0,0,0,195.57,39.74Zm31.16,5.41a14.3,14.3,0,0,1-7.63-2,13.13,13.13,0,0,1-5-5.65,19.71,19.71,0,0,1-1.74-8.59,19.9,19.9,0,0,1,1.71-8.54A12.92,12.92,0,0,1,219,14.73a14,14,0,0,1,7.6-2,13.59,13.59,0,0,1,7.65,2,12.68,12.68,0,0,1,4.66,5.51,19,19,0,0,1,1.56,7.84V30.5H219v1.07a8.49,8.49,0,0,0,2.17,6,8,8,0,0,0,6.18,2.35,8.86,8.86,0,0,0,4.89-1.28,10.43,10.43,0,0,0,3.33-3.49l3.79,3.65a12.6,12.6,0,0,1-5,4.58A15.83,15.83,0,0,1,226.73,45.15Zm-.06-27.44a7.72,7.72,0,0,0-4,1,7,7,0,0,0-2.71,2.87,8.91,8.91,0,0,0-1,4.2v.47h14.83v-.65a9.51,9.51,0,0,0-.87-4.17,6.48,6.48,0,0,0-2.46-2.78A7.15,7.15,0,0,0,226.67,17.71Zm52.05-4.26V34.38a4.52,4.52,0,0,1-1,3,6.15,6.15,0,0,1-2.52,1.79,9.13,9.13,0,0,1-3.28.59,5.55,5.55,0,0,1-4.59-1.88,8.56,8.56,0,0,1-1.53-5.51V13.45h-13V5.22h6.55V0h-5.1a7.51,7.51,0,0,0-5.83,2.16,8.45,8.45,0,0,0-2,5.93v5.36h-4.8v5.22h4.8V44.43h6.36V18.67h6.73V33.15q0,5.73,2.7,8.86a9.37,9.37,0,0,0,7.5,3.14c2.6,0,4.57-.6,5.89-1.78a10.54,10.54,0,0,0,2.88-4.11h.24v5.17h6.36v-31Zm23.53,31h-4.2a6.43,6.43,0,0,1-4.87-1.71,6.49,6.49,0,0,1-1.62-4.65V0h6.37V39.2h4.32ZM115,98.46V56.55h14.71a18.29,18.29,0,0,1,9.33,2.31,15.15,15.15,0,0,1,6.15,7,27.7,27.7,0,0,1,2.16,11.67,27.72,27.72,0,0,1-2.16,11.68,15.12,15.12,0,0,1-6.15,7,18.2,18.2,0,0,1-9.33,2.32Zm6.6-5.83h8.11a11.19,11.19,0,0,0,5.58-1.35,9.15,9.15,0,0,0,3.72-4,14.2,14.2,0,0,0,1.32-6.45V74.14A14.2,14.2,0,0,0,139,67.69a9.15,9.15,0,0,0-3.72-4,11.09,11.09,0,0,0-5.58-1.36h-8.11Zm43,6.55a14.24,14.24,0,0,1-7.62-2,13.13,13.13,0,0,1-5-5.65,19.71,19.71,0,0,1-1.74-8.59A19.9,19.9,0,0,1,152,74.4a12.92,12.92,0,0,1,4.92-5.64,14,14,0,0,1,7.59-2,13.6,13.6,0,0,1,7.66,2,12.59,12.59,0,0,1,4.65,5.51,19,19,0,0,1,1.56,7.84v2.39H156.85V85.6a8.53,8.53,0,0,0,2.16,6A8,8,0,0,0,165.2,94a8.86,8.86,0,0,0,4.89-1.28,10.43,10.43,0,0,0,3.33-3.49l3.78,3.65a12.51,12.51,0,0,1-4.95,4.58A15.84,15.84,0,0,1,164.59,99.18Zm-.06-27.44a7.72,7.72,0,0,0-4,1,7.05,7.05,0,0,0-2.7,2.87,8.91,8.91,0,0,0-1,4.2v.48h14.83v-.66a9.51,9.51,0,0,0-.87-4.17,6.48,6.48,0,0,0-2.46-2.78A7.19,7.19,0,0,0,164.53,71.74Zm28,27.44a15.79,15.79,0,0,1-7.41-1.6,16.85,16.85,0,0,1-5.26-4.29L184,89.57a14.2,14.2,0,0,0,3.91,3.24,10,10,0,0,0,4.92,1.2,7.14,7.14,0,0,0,4.38-1.1,3.69,3.69,0,0,0,1.44-3.12,3.54,3.54,0,0,0-1-2.58,6.16,6.16,0,0,0-3.54-1.4l-2.82-.35a20.74,20.74,0,0,1-5.43-1.53,8,8,0,0,1-3.55-3A8.57,8.57,0,0,1,181,76.26a8.33,8.33,0,0,1,3.21-7.05,13.23,13.23,0,0,1,8.26-2.45,18.55,18.55,0,0,1,4.89.57A12.2,12.2,0,0,1,201.09,69a16.71,16.71,0,0,1,3,2.67l-3.91,3.78A10.93,10.93,0,0,0,197,72.94a9.2,9.2,0,0,0-4.53-1.08,6.46,6.46,0,0,0-4,1.07,3.51,3.51,0,0,0-1.35,2.91,3.14,3.14,0,0,0,1.23,2.73,8.93,8.93,0,0,0,3.75,1.31l2.82.42q5.16.72,7.5,3a7.92,7.92,0,0,1,2.35,6,9.2,9.2,0,0,1-1.5,5.23A9.77,9.77,0,0,1,199,98,15.81,15.81,0,0,1,192.51,99.18Zm19.93-37.53a3.82,3.82,0,0,1-2.88-.93,3.27,3.27,0,0,1-.9-2.37v-1a3.27,3.27,0,0,1,.9-2.37,4.92,4.92,0,0,1,5.76,0,3.27,3.27,0,0,1,.9,2.37v1a3.27,3.27,0,0,1-.9,2.37A3.82,3.82,0,0,1,212.44,61.65Zm-3.18,36.81v-31h6.36v31Zm40.1,3a8.73,8.73,0,0,1-1.65,5.43,10,10,0,0,1-5.13,3.25,31.13,31.13,0,0,1-9,1.08,30.27,30.27,0,0,1-8.16-.9,9.13,9.13,0,0,1-4.54-2.59,6.12,6.12,0,0,1-1.41-4,5.64,5.64,0,0,1,1.41-4.07,7,7,0,0,1,3.88-2V97a5,5,0,0,1-2.55-1.82,5,5,0,0,1-.87-2.95A4.34,4.34,0,0,1,223,88.57a9.77,9.77,0,0,1,3.9-1.82v-.24a9.88,9.88,0,0,1-4.26-3.69,10.07,10.07,0,0,1-1.5-5.53,10.2,10.2,0,0,1,1.47-5.53,9.65,9.65,0,0,1,4.26-3.69,15.53,15.53,0,0,1,6.63-1.31,18.07,18.07,0,0,1,3,.24,14.46,14.46,0,0,1,2.68.72v-.81a5.05,5.05,0,0,1,1-3.35,3.73,3.73,0,0,1,3-1.19h4.74v5.11h-6.3V69a8.92,8.92,0,0,1,3.18,3.51,11.07,11.07,0,0,1-.36,10.23,9.69,9.69,0,0,1-4.23,3.71,15.46,15.46,0,0,1-6.7,1.34,18,18,0,0,1-2.1-.12,13.63,13.63,0,0,1-1.92-.36,8,8,0,0,0-2.1,1.16,2.34,2.34,0,0,0-1,1.93,1.88,1.88,0,0,0,1.17,1.84,8,8,0,0,0,3.21.53h7.56c3.85,0,6.64.76,8.38,2.26A8,8,0,0,1,249.36,101.42Zm-5.94.66a3.16,3.16,0,0,0-1.29-2.66c-.86-.64-2.37-1-4.54-1h-10.5a4.41,4.41,0,0,0-1.68,1.6,4.08,4.08,0,0,0-.54,2.08,3.85,3.85,0,0,0,1.5,3.15q1.5,1.21,5.16,1.21h4.14a12.16,12.16,0,0,0,5.8-1.09A3.57,3.57,0,0,0,243.42,102.08Zm-9.91-18.87a6.94,6.94,0,0,0,4.5-1.33,4.78,4.78,0,0,0,1.63-3.94v-1.3a4.85,4.85,0,0,0-1.63-4,8.28,8.28,0,0,0-9,0,4.87,4.87,0,0,0-1.62,4v1.3A4.81,4.81,0,0,0,229,81.88,6.94,6.94,0,0,0,233.51,83.21ZM257.7,98.46h-6.36v-31h6.36v5.1h.3a10.17,10.17,0,0,1,3.1-4.17,8.86,8.86,0,0,1,5.67-1.65,9.28,9.28,0,0,1,7.47,3.13c1.78,2.09,2.68,5,2.68,8.87v19.7h-6.37V79.55A8.92,8.92,0,0,0,269.11,74a5.43,5.43,0,0,0-4.56-1.85,9.54,9.54,0,0,0-3.3.57,5.7,5.7,0,0,0-2.55,1.79,4.56,4.56,0,0,0-1,3Z"/></svg>