<?xml version="1.0" encoding="utf-8"?>
<!-- Generator: Adobe Illustrator 24.2.1, SVG Export Plug-In . SVG Version: 6.00 Build 0)  -->
<svg version="1.1" id="Layer_1" xmlns="http://www.w3.org/2000/svg" xmlns:xlink="http://www.w3.org/1999/xlink" x="0px" y="0px"
	 viewBox="0 0 38 38" style="enable-background:new 0 0 38 38;" xml:space="preserve">
<style type="text/css">
	.st0{fill:#FFFFFF;}
</style>
<path class="st0" d="M20,37h0.1l0,0C20.1,37,20.1,37,20,37z M20.2,1C20.1,1,20,1,20,1H1v36h19h0.1C29.5,36.4,37,28.6,37,19
	S29.5,1.6,20.2,1z M2.9,2.9h7.9c-3.4,1.7-6.2,4.5-7.9,7.9V2.9z M2.9,35.1v-7.9c1.7,3.4,4.5,6.2,7.9,7.9H2.9z M18.2,35.1
	c0,0-0.1,0-0.2,0C9.6,34.6,2.9,27.5,2.9,19c0-8.6,6.8-15.6,15.2-16.1l0,0v32.2H18.2z M20.2,35V3c8.3,0.6,14.9,7.6,14.9,16
	C35.1,27.5,28.5,34.4,20.2,35z"/>
</svg>
