<?xml version="1.0" encoding="utf-8"?>
<!-- Generator: Adobe Illustrator 24.0.3, SVG Export Plug-In . SVG Version: 6.00 Build 0)  -->
<svg version="1.1" id="Layer_1" xmlns="http://www.w3.org/2000/svg" xmlns:xlink="http://www.w3.org/1999/xlink" x="0px" y="0px"
	 viewBox="0 0 352.9 110.2" style="enable-background:new 0 0 352.9 110.2;" xml:space="preserve">
<style type="text/css">
	.st0{fill:none;stroke:#000000;stroke-width:4.5;stroke-miterlimit:10;}
</style>
<title>Artboard 1</title>
<rect x="2.6" y="4" class="st0" width="46.1" height="92.2"/>
<circle class="st0" cx="48.7" cy="50.1" r="46.1"/>
<path d="M115.1,44.2V2.5h14.6c3.2-0.1,6.5,0.7,9.3,2.3c2.7,1.6,4.9,4,6.1,6.9c1.5,3.7,2.3,7.6,2.1,11.6c0.1,4-0.6,8-2.2,11.6
	c-1.3,2.9-3.4,5.3-6.1,6.9c-2.8,1.6-6.1,2.4-9.3,2.3L115.1,44.2z M121.7,38.4h8.1c1.9,0,3.9-0.4,5.6-1.3c1.6-0.9,2.9-2.3,3.7-3.9
	c0.9-2,1.4-4.2,1.3-6.4V20c0.1-2.2-0.4-4.4-1.3-6.4c-0.8-1.7-2.1-3-3.7-3.9c-1.7-0.9-3.6-1.4-5.6-1.3h-8.1L121.7,38.4z"/>
<path d="M164.5,45c-2.7,0.1-5.3-0.6-7.6-2c-2.2-1.3-3.9-3.3-5-5.6c-1.2-2.7-1.8-5.6-1.7-8.6c-0.1-2.9,0.5-5.8,1.7-8.5
	c1.1-2.3,2.8-4.3,4.9-5.6c2.3-1.4,4.9-2.1,7.6-2c2.7-0.1,5.3,0.6,7.6,2c2,1.3,3.7,3.3,4.6,5.5c1.1,2.5,1.6,5.1,1.6,7.8v2.4h-21.4
	v1.1c-0.1,2.2,0.7,4.4,2.1,6c1.6,1.6,3.9,2.5,6.2,2.3c1.7,0.1,3.4-0.4,4.9-1.3c1.4-0.9,2.5-2.1,3.3-3.5l3.8,3.6
	c-1.2,1.9-2.9,3.5-4.9,4.6C169.8,44.4,167.2,45,164.5,45z M164.4,17.7c-1.4,0-2.8,0.3-4,1c-1.1,0.7-2.1,1.7-2.7,2.9
	c-0.7,1.3-1,2.7-1,4.2v0.5h14.8v-0.6c0-1.4-0.3-2.9-0.9-4.2c-0.5-1.1-1.4-2.1-2.4-2.8C167.1,18,165.8,17.6,164.4,17.7L164.4,17.7z"
	/>
<path d="M192.3,45c-2.6,0.1-5.1-0.5-7.4-1.6c-2-1.1-3.8-2.5-5.2-4.3l4.1-3.7c1.1,1.3,2.4,2.4,3.9,3.2c1.5,0.8,3.2,1.2,4.9,1.2
	c1.6,0.1,3.1-0.3,4.4-1.1c1-0.7,1.5-1.9,1.4-3.1c0-1-0.3-1.9-1-2.6c-1-0.8-2.2-1.3-3.5-1.4l-2.9-0.4c-1.9-0.3-3.7-0.8-5.4-1.5
	c-1.4-0.6-2.7-1.7-3.5-3c-0.9-1.4-1.3-3-1.2-4.7c-0.1-2.7,1-5.3,3.2-7c2.4-1.7,5.3-2.6,8.2-2.4c1.6,0,3.3,0.2,4.9,0.6
	c1.3,0.4,2.5,0.9,3.7,1.7c1.1,0.8,2.1,1.6,3,2.7l-3.8,3.8c-0.9-1-2-1.9-3.1-2.5c-1.4-0.7-2.9-1.1-4.5-1.1c-1.4-0.1-2.8,0.3-4,1.1
	c-0.9,0.7-1.4,1.8-1.4,2.9c-0.1,1.1,0.4,2.1,1.2,2.7c1.1,0.7,2.4,1.1,3.7,1.3l2.8,0.4c3.4,0.5,5.9,1.4,7.5,2.9
	c1.6,1.6,2.4,3.8,2.3,6c0,1.8-0.5,3.7-1.5,5.2c-1.1,1.5-2.5,2.7-4.2,3.5C196.8,44.6,194.5,45.1,192.3,45z"/>
<path d="M212.1,7.6c-1,0.1-2.1-0.2-2.9-0.9c-0.6-0.6-0.9-1.5-0.9-2.4v-1c0-0.9,0.3-1.7,0.9-2.4c1.7-1.2,4-1.2,5.7,0
	c0.6,0.6,0.9,1.5,0.9,2.4v1c0,0.9-0.3,1.7-0.9,2.4C214.2,7.4,213.2,7.7,212.1,7.6z M209,44.2V13.4h6.3v30.9H209z"/>
<path d="M248.9,47.2c0.1,1.9-0.5,3.8-1.6,5.4c-1.3,1.6-3.1,2.7-5.1,3.2c-2.9,0.8-6,1.2-9,1.1c-2.7,0.1-5.5-0.2-8.1-0.9
	c-1.7-0.4-3.3-1.3-4.5-2.6c-0.9-1.1-1.4-2.5-1.4-4c-0.1-1.5,0.4-2.9,1.4-4.1c1-1.1,2.4-1.8,3.9-2v-0.7c-1-0.3-1.9-1-2.6-1.8
	C221.3,40,221,39,221,38c-0.1-1.4,0.5-2.7,1.6-3.6c1.1-0.9,2.5-1.5,3.9-1.8v-0.2c-1.7-0.8-3.2-2.1-4.2-3.7c-1-1.7-1.5-3.6-1.5-5.5
	c0-1.9,0.5-3.8,1.5-5.5c1-1.6,2.5-2.9,4.2-3.7c2.1-0.9,4.3-1.4,6.6-1.3c1,0,2,0.1,3,0.2c0.9,0.2,1.8,0.4,2.7,0.7v-0.8
	c-0.1-1.2,0.3-2.4,1-3.3c0.8-0.8,1.9-1.3,3-1.2h4.7v5.1h-6.3V15c1.4,0.9,2.5,2.1,3.2,3.5c0.7,1.5,1.1,3.1,1.1,4.7
	c0,1.9-0.5,3.8-1.4,5.4c-1,1.6-2.5,2.9-4.2,3.7c-2.1,0.9-4.4,1.4-6.7,1.3c-0.7,0-1.4,0-2.1-0.1c-0.6-0.1-1.3-0.2-1.9-0.4
	c-0.8,0.3-1.5,0.7-2.1,1.2c-0.6,0.4-1,1.2-1,1.9c0,0.8,0.4,1.5,1.2,1.8c1,0.4,2.1,0.6,3.2,0.5h7.6c3.8,0,6.6,0.8,8.3,2.2
	C248.1,42.5,249.1,44.8,248.9,47.2z M243,47.8c0-1-0.4-2-1.3-2.7c-0.9-0.6-2.4-1-4.5-1h-10.5c-0.7,0.4-1.3,0.9-1.7,1.6
	c-0.4,0.6-0.5,1.4-0.5,2.1c0,1.2,0.5,2.4,1.5,3.1c1,0.8,2.7,1.2,5.1,1.2h4.1c2,0.1,3.9-0.2,5.7-1C242.3,50.6,243,49.3,243,47.8
	L243,47.8z M233.1,29c1.6,0.1,3.2-0.4,4.5-1.3c1.1-1,1.7-2.4,1.6-3.9v-1.3c0.1-1.5-0.5-3-1.6-4c-2.7-1.8-6.3-1.8-9,0
	c-1.1,1-1.7,2.5-1.6,4v1.3c-0.1,1.5,0.5,2.9,1.6,3.9C229.9,28.7,231.5,29.2,233.1,29L233.1,29z"/>
<path d="M257.2,44.2h-6.3V13.4h6.3v5.1h0.3c0.6-1.6,1.7-3.1,3.1-4.1c1.6-1.2,3.6-1.8,5.6-1.6c2.8-0.2,5.6,1,7.4,3.1
	c1.8,2.1,2.7,5,2.7,8.8v19.6H270V25.4c0.1-1.9-0.4-3.9-1.4-5.5c-1.1-1.3-2.8-2-4.6-1.9c-1.1,0-2.2,0.2-3.3,0.6c-1,0.3-1.9,1-2.5,1.8
	c-0.7,0.8-1,1.9-1,3L257.2,44.2z"/>
<path d="M284.2,7.6c-1,0.1-2.1-0.2-2.9-0.9c-0.6-0.6-0.9-1.5-0.9-2.4v-1c0-0.9,0.3-1.7,0.9-2.4c1.7-1.2,4-1.2,5.7,0
	c0.6,0.6,0.9,1.5,0.9,2.4v1c0,0.9-0.3,1.7-0.9,2.4C286.3,7.4,285.2,7.7,284.2,7.6z M281,44.2V13.4h6.3v30.9H281z"/>
<path d="M300.1,44.2h-6.3V13.4h6.3v5.1h0.3c0.6-1.6,1.7-3.1,3.1-4.1c1.6-1.2,3.6-1.8,5.6-1.6c2.8-0.2,5.6,1,7.5,3.1
	c1.8,2.1,2.7,5,2.7,8.8v19.6h-6.3V25.4c0.1-1.9-0.4-3.9-1.4-5.5c-1.1-1.3-2.8-2-4.5-1.9c-1.1,0-2.2,0.2-3.3,0.6
	c-1,0.3-1.9,1-2.5,1.8c-0.7,0.8-1,1.9-1,3L300.1,44.2z"/>
<path d="M352.6,47.2c0.1,1.9-0.5,3.8-1.6,5.4c-1.3,1.6-3.1,2.7-5.1,3.2c-2.9,0.8-6,1.2-9,1.1c-2.7,0.1-5.5-0.2-8.1-0.9
	c-1.7-0.4-3.3-1.3-4.5-2.6c-0.9-1.1-1.4-2.5-1.4-4c-0.1-1.5,0.4-2.9,1.4-4.1c1-1.1,2.4-1.8,3.9-2v-0.7c-1-0.3-1.9-1-2.5-1.8
	c-0.6-0.9-0.9-1.9-0.9-2.9c-0.1-1.4,0.5-2.7,1.6-3.6c1.1-0.9,2.5-1.5,3.9-1.8v-0.2c-1.7-0.8-3.2-2.1-4.2-3.7c-1-1.7-1.5-3.6-1.5-5.5
	c0-1.9,0.5-3.8,1.5-5.5c1-1.6,2.5-2.9,4.3-3.6c2.1-0.9,4.3-1.4,6.6-1.3c1,0,2,0.1,3,0.2c0.9,0.2,1.8,0.4,2.7,0.7v-0.8
	c-0.1-1.2,0.3-2.4,1-3.3c0.8-0.8,1.9-1.3,3-1.2h4.7v5.1h-6.3V15c1.3,0.8,2.4,2,3.2,3.4c0.7,1.5,1.1,3.1,1.1,4.7
	c0,1.9-0.5,3.8-1.4,5.4c-1,1.6-2.5,2.9-4.2,3.7c-2.1,0.9-4.4,1.4-6.7,1.3c-0.7,0-1.4,0-2.1-0.1c-0.6-0.1-1.3-0.2-1.9-0.4
	c-0.8,0.3-1.5,0.7-2.1,1.2c-0.6,0.4-1,1.2-1,1.9c0,0.8,0.4,1.5,1.2,1.8c1,0.4,2.1,0.6,3.2,0.5h7.5c3.8,0,6.6,0.8,8.3,2.2
	C351.7,42.5,352.7,44.8,352.6,47.2z M346.6,47.8c0-1-0.4-2-1.3-2.7c-0.9-0.6-2.4-1-4.5-1h-10.5c-0.7,0.4-1.3,0.9-1.7,1.6
	c-0.4,0.6-0.5,1.4-0.5,2.1c0,1.2,0.5,2.4,1.5,3.1c1,0.8,2.7,1.2,5.1,1.2h4.1c2,0.1,4-0.3,5.8-1.1C345.9,50.5,346.7,49.2,346.6,47.8z
	 M336.8,29c1.6,0.1,3.2-0.4,4.5-1.3c1.1-1,1.7-2.4,1.6-3.9v-1.3c0.1-1.5-0.5-3-1.6-4c-2.7-1.8-6.3-1.8-9,0c-1.1,1-1.7,2.5-1.6,4v1.3
	c-0.1,1.5,0.5,2.9,1.6,3.9C333.6,28.7,335.2,29.2,336.8,29z"/>
<path d="M140.8,98V79.8h-19.1V98h-6.6V56.3h6.6v17.8h19.1V56.3h6.6V98H140.8z"/>
<path d="M164.9,98.8c-2.6,0.1-5.2-0.6-7.5-2c-2.2-1.4-3.9-3.3-5-5.6c-1.2-2.7-1.8-5.6-1.8-8.6c-0.1-2.9,0.5-5.9,1.8-8.5
	c1.1-2.3,2.8-4.2,5-5.6c4.6-2.6,10.4-2.6,15,0c2.2,1.3,3.9,3.3,5,5.6c1.2,2.7,1.8,5.6,1.8,8.5c0.1,2.9-0.5,5.9-1.8,8.6
	c-1.1,2.3-2.8,4.3-5,5.6C170.1,98.1,167.5,98.8,164.9,98.8z M164.9,93.5c2,0.1,4-0.7,5.5-2.1c1.4-1.4,2.1-3.5,2.1-6.2V80
	c0-2.8-0.7-4.8-2.1-6.2c-3.1-2.8-7.8-2.8-10.9,0c-1.4,1.4-2.1,3.5-2.1,6.2v5.2c0,2.7,0.7,4.8,2.1,6.2
	C160.9,92.8,162.8,93.6,164.9,93.5z"/>
<path d="M181.9,110V67.2h6.3v5.1h0.2c0.6-1.8,1.8-3.3,3.4-4.3c1.6-1,3.5-1.5,5.4-1.5c2.4-0.1,4.7,0.6,6.7,1.9
	c1.9,1.4,3.4,3.3,4.2,5.5c1,2.8,1.5,5.7,1.5,8.7c0.1,3-0.4,5.9-1.5,8.7c-0.8,2.2-2.3,4.1-4.2,5.6c-2,1.3-4.3,2-6.7,1.9
	c-1.9,0-3.8-0.5-5.4-1.5c-1.6-1.1-2.7-2.6-3.4-4.3h-0.2V110H181.9z M195.3,93.4c2.1,0.1,4.1-0.7,5.5-2.3c1.4-1.6,2.2-3.7,2.1-5.9V80
	c0.1-2.2-0.6-4.3-2.1-5.9c-1.4-1.5-3.5-2.3-5.5-2.2c-1.2,0-2.4,0.2-3.6,0.7c-1,0.4-1.9,1-2.6,1.9c-0.7,0.8-1,1.8-1,2.8v10.5
	c0,1.1,0.3,2.1,1,3c0.7,0.9,1.6,1.5,2.6,1.9C192.9,93.1,194.1,93.4,195.3,93.4z"/>
<path d="M226.4,98.8c-2.7,0.1-5.3-0.6-7.6-2c-2.2-1.3-3.9-3.3-5-5.6c-1.2-2.7-1.8-5.6-1.7-8.6c-0.1-2.9,0.5-5.8,1.7-8.5
	c1-2.3,2.8-4.3,4.9-5.6c2.3-1.4,4.9-2.1,7.6-2c2.7-0.1,5.3,0.6,7.6,2c2.1,1.3,3.7,3.3,4.7,5.5c1.1,2.5,1.6,5.1,1.6,7.8v2.4h-21.4
	v1.1c-0.1,2.2,0.7,4.4,2.1,6c1.6,1.6,3.9,2.5,6.2,2.3c1.7,0.1,3.4-0.4,4.9-1.3c1.4-0.9,2.5-2.1,3.3-3.5l3.8,3.6
	c-1.2,1.9-2.9,3.5-4.9,4.6C231.6,98.2,229,98.8,226.4,98.8z M226.3,71.4c-1.4,0-2.8,0.3-4,1c-1.1,0.7-2.1,1.7-2.7,2.9
	c-0.7,1.3-1,2.7-1,4.2V80h14.8v-0.7c0-1.4-0.3-2.9-0.9-4.2c-0.5-1.1-1.4-2.1-2.4-2.8C228.9,71.8,227.6,71.4,226.3,71.4z"/>
</svg>
