<svg id="Layer_1" data-name="Layer 1" xmlns="http://www.w3.org/2000/svg" viewBox="0 0 90.7 41.98"><defs><style>.cls-1{fill:#fff;}</style></defs><path class="cls-1" d="M0,16.87V1H5.6a7.57,7.57,0,0,1,3.6.9,5.29,5.29,0,0,1,2.3,2.6,9.55,9.55,0,0,1,.8,4.39,10.73,10.73,0,0,1-.8,4.4,5.82,5.82,0,0,1-2.3,2.6,7.29,7.29,0,0,1-3.6.9Zm2.5-2.2H5.6a4.84,4.84,0,0,0,2.1-.5,3.34,3.34,0,0,0,1.4-1.5,6.87,6.87,0,0,0,.5-2.4V7.57a6.44,6.44,0,0,0-.5-2.4A2.44,2.44,0,0,0,7.8,3.68a5,5,0,0,0-2.1-.5H2.6Z"/><path class="cls-1" d="M18.9,17.18a5.1,5.1,0,0,1-2.9-.8,5.46,5.46,0,0,1-1.9-2.1,6.1,6.1,0,0,1-.6-3.3,8.66,8.66,0,0,1,.6-3.2A4.84,4.84,0,0,1,16,5.68a6,6,0,0,1,2.9-.8,5.1,5.1,0,0,1,2.9.8,5.2,5.2,0,0,1,1.8,2.1,7.65,7.65,0,0,1,.6,3v.9H15.9V12a3.8,3.8,0,0,0,.8,2.3,3,3,0,0,0,2.4.89,4.34,4.34,0,0,0,1.9-.5,4,4,0,0,0,1.3-1.3l1.5,1.4a6.56,6.56,0,0,1-1.9,1.8A7.85,7.85,0,0,1,18.9,17.18Zm-.1-10.4a2.6,2.6,0,0,0-1.5.4,2.66,2.66,0,0,0-1,1.1,2.93,2.93,0,0,0-.4,1.6V10h5.7v-.2a4.58,4.58,0,0,0-.3-1.61,3.13,3.13,0,0,0-.9-1.1,2.87,2.87,0,0,0-1.6-.29Z"/><path class="cls-1" d="M29.5,17.18a6.71,6.71,0,0,1-2.8-.6,6.42,6.42,0,0,1-2-1.6l1.6-1.4a4.43,4.43,0,0,0,1.5,1.2,4.14,4.14,0,0,0,1.9.5,3.39,3.39,0,0,0,1.7-.4,1.15,1.15,0,0,0,.5-1.2,1.28,1.28,0,0,0-.4-1,2.11,2.11,0,0,0-1.3-.5L29.1,12a8.3,8.3,0,0,1-2.1-.6,2.76,2.76,0,0,1-1.3-1.1,3.48,3.48,0,0,1-.5-1.8,3.57,3.57,0,0,1,1.2-2.7,4.91,4.91,0,0,1,3.1-.9,13.59,13.59,0,0,1,1.9.19,6.35,6.35,0,0,1,1.4.6,5.53,5.53,0,0,1,1.1,1l-1.5,1.5a6.13,6.13,0,0,0-1.2-1,3.29,3.29,0,0,0-1.7-.4,2.6,2.6,0,0,0-1.5.4,1.63,1.63,0,0,0-.5,1.11,1.24,1.24,0,0,0,.5,1,3.5,3.5,0,0,0,1.4.5l1.1.2a5.12,5.12,0,0,1,2.9,1.1,3.34,3.34,0,0,1,.9,2.3,3.61,3.61,0,0,1-.6,2,4,4,0,0,1-1.6,1.3A8.51,8.51,0,0,1,29.5,17.18Z"/><path class="cls-1" d="M37,2.88a2,2,0,0,1-1.1-.3,1.4,1.4,0,0,1-.3-.9V1.27a1.56,1.56,0,0,1,.3-.89,1.8,1.8,0,0,1,2.2,0,1.37,1.37,0,0,1,.3.89v.4a1.59,1.59,0,0,1-.3.9A1.8,1.8,0,0,1,37,2.88Zm-1.1,14V5.07h2.4v11.8Z"/><path class="cls-1" d="M51.1,18a3.94,3.94,0,0,1-.6,2.1,3.87,3.87,0,0,1-1.9,1.2,9.91,9.91,0,0,1-3.4.4,16.28,16.28,0,0,1-3.1-.3,3.67,3.67,0,0,1-1.7-1,2.69,2.69,0,0,1-.5-1.5,3,3,0,0,1,.5-1.6,2.75,2.75,0,0,1,1.5-.8v-.3a2.29,2.29,0,0,1-1-.7,2,2,0,0,1-.3-1.1,2,2,0,0,1,.6-1.4,4.13,4.13,0,0,1,1.5-.7v-.1A2.56,2.56,0,0,1,40.9,11a4,4,0,0,1,0-4.21,4.28,4.28,0,0,1,1.6-1.4,7,7,0,0,1,2.5-.5,3.75,3.75,0,0,1,1.1.1c.3.1.7.2,1,.3V4.88a2,2,0,0,1,.4-1.3,1.61,1.61,0,0,1,1.1-.5h1.8V5H48v.59a3.11,3.11,0,0,1,1.2,1.3,3.92,3.92,0,0,1,.4,1.8,5,5,0,0,1-.5,2.1,4.28,4.28,0,0,1-1.6,1.4,7.51,7.51,0,0,1-2.6.5h-.8a1.85,1.85,0,0,1-.7-.2,2.18,2.18,0,0,0-.8.5,1.27,1.27,0,0,0-.4.7.75.75,0,0,0,.5.7,2.54,2.54,0,0,0,1.2.2h2.9a5.35,5.35,0,0,1,3.2.8A3.24,3.24,0,0,1,51.1,18Zm-2.3.29a1.24,1.24,0,0,0-.5-1,3.23,3.23,0,0,0-1.7-.4h-4c-.3.21-.5.3-.6.61a1.06,1.06,0,0,0-.2.79,1.46,1.46,0,0,0,.6,1.21,3.16,3.16,0,0,0,1.9.5h1.6a5.55,5.55,0,0,0,2.2-.4,1.48,1.48,0,0,0,.7-1.31Zm-3.7-7.19a3.37,3.37,0,0,0,1.7-.5,2,2,0,0,0,.6-1.5v-.5a2,2,0,0,0-.6-1.5,3,3,0,0,0-3.4,0,2.2,2.2,0,0,0-.6,1.5v.5a2,2,0,0,0,.6,1.5,2.46,2.46,0,0,0,1.7.5Z"/><path class="cls-1" d="M54.3,16.87H51.9V5.07h2.4V7h.1a3.11,3.11,0,0,1,1.2-1.6,2.74,2.74,0,0,1,2.1-.6A3.33,3.33,0,0,1,60.5,6a4.92,4.92,0,0,1,1,3.39v7.5H59.1V9.67a5,5,0,0,0-.5-2.1,2,2,0,0,0-1.8-.69,7.7,7.7,0,0,0-1.3.19,2.37,2.37,0,0,0-1,.7,1.52,1.52,0,0,0-.4,1.1v8Z"/><path class="cls-1" d="M64.6,2.88a2,2,0,0,1-1.1-.3,1.4,1.4,0,0,1-.3-.9V1.27a1.56,1.56,0,0,1,.3-.89,1.8,1.8,0,0,1,2.2,0,1.37,1.37,0,0,1,.3.89v.4a1.59,1.59,0,0,1-.3.9A2,2,0,0,1,64.6,2.88Zm-1.2,14V5.07h2.4v11.8Z"/><path class="cls-1" d="M70.6,16.87H68.2V5.07h2.4V7h.1a3.11,3.11,0,0,1,1.2-1.6,2.74,2.74,0,0,1,2.1-.6A3.65,3.65,0,0,1,76.9,6a4.92,4.92,0,0,1,1,3.39v7.5H75.5V9.67a5,5,0,0,0-.5-2.1,1.87,1.87,0,0,0-1.7-.69,7.7,7.7,0,0,0-1.3.19,2.37,2.37,0,0,0-1,.7,1.52,1.52,0,0,0-.4,1.1Z"/><path class="cls-1" d="M90.7,18a3.94,3.94,0,0,1-.6,2.1,3.87,3.87,0,0,1-1.9,1.2,9.91,9.91,0,0,1-3.4.4,16.28,16.28,0,0,1-3.1-.3,3.67,3.67,0,0,1-1.7-1,2.69,2.69,0,0,1-.5-1.5,3,3,0,0,1,.5-1.6,2.75,2.75,0,0,1,1.5-.8v-.3a2.29,2.29,0,0,1-1-.7,2,2,0,0,1-.3-1.1,2,2,0,0,1,.6-1.4,4.13,4.13,0,0,1,1.5-.7v-.1a4.28,4.28,0,0,1-1.6-1.4,4,4,0,0,1,0-4.2,4.28,4.28,0,0,1,1.6-1.4,7,7,0,0,1,2.5-.5,3.75,3.75,0,0,1,1.1.1c.3.1.7.2,1,.3v-.2a2,2,0,0,1,.4-1.3,1.61,1.61,0,0,1,1.1-.5h1.8V5H87.8v.59A3.93,3.93,0,0,1,89,6.87a3.92,3.92,0,0,1,.4,1.8,5,5,0,0,1-.5,2.1,4.28,4.28,0,0,1-1.6,1.4,7.51,7.51,0,0,1-2.6.5h-.8a1.85,1.85,0,0,1-.7-.2,2.18,2.18,0,0,0-.8.5,1.27,1.27,0,0,0-.4.7.75.75,0,0,0,.5.7,2.54,2.54,0,0,0,1.2.2h2.9a5.35,5.35,0,0,1,3.2.8A5.15,5.15,0,0,1,90.7,18Zm-2.3.29a1.24,1.24,0,0,0-.5-1,3.23,3.23,0,0,0-1.7-.4h-4c-.3.21-.5.3-.6.61a1.06,1.06,0,0,0-.2.79,1.46,1.46,0,0,0,.6,1.21,3.16,3.16,0,0,0,1.9.5h1.6a5.55,5.55,0,0,0,2.2-.4A1.75,1.75,0,0,0,88.4,18.27Zm-3.7-7.19a3.37,3.37,0,0,0,1.7-.5,2,2,0,0,0,.6-1.5v-.5a2,2,0,0,0-.6-1.5,3,3,0,0,0-3.4,0,2.2,2.2,0,0,0-.6,1.5v.5a2,2,0,0,0,.6,1.5A2.31,2.31,0,0,0,84.7,11.08Z"/><path class="cls-1" d="M9.8,37.38v-6.9H2.5v6.9H0V21.48H2.5v6.79H9.8V21.48h2.5v15.9Z"/><path class="cls-1" d="M19,37.68a5.1,5.1,0,0,1-2.9-.8,5.46,5.46,0,0,1-1.9-2.1,7.25,7.25,0,0,1-.7-3.3,6.83,6.83,0,0,1,.7-3.2,4.84,4.84,0,0,1,1.9-2.1,5.79,5.79,0,0,1,5.7,0,5.46,5.46,0,0,1,1.9,2.1,7.11,7.11,0,0,1,.7,3.2,7.54,7.54,0,0,1-.7,3.3,4.84,4.84,0,0,1-1.9,2.1A4.59,4.59,0,0,1,19,37.68Zm0-2a3.23,3.23,0,0,0,2.1-.8,3.29,3.29,0,0,0,.8-2.4v-2a3.45,3.45,0,0,0-.8-2.4,3.09,3.09,0,0,0-4.2,0,3.28,3.28,0,0,0-.8,2.4v2a3.67,3.67,0,0,0,.8,2.4A3.23,3.23,0,0,0,19,35.68Z"/><path class="cls-1" d="M25.5,42V25.68h2.4v1.9H28A2.6,2.6,0,0,1,29.3,26a3.7,3.7,0,0,1,2.1-.61,4.86,4.86,0,0,1,2.6.71,4.69,4.69,0,0,1,1.6,2.1,9.6,9.6,0,0,1,.6,3.3,9.18,9.18,0,0,1-.6,3.29,4.74,4.74,0,0,1-1.6,2.1,4,4,0,0,1-2.6.7A4,4,0,0,1,29.3,37a4.08,4.08,0,0,1-1.3-1.6h-.1V42Zm5.1-6.3a2.7,2.7,0,0,0,2.1-.91,3.54,3.54,0,0,0,.8-2.29v-2a3.39,3.39,0,0,0-.8-2.3,2.35,2.35,0,0,0-2.1-.8,3.53,3.53,0,0,0-1.4.3,3.59,3.59,0,0,0-1,.7,1.5,1.5,0,0,0-.4,1.1v4a1.48,1.48,0,0,0,.4,1.09,2.29,2.29,0,0,0,1,.7A4.1,4.1,0,0,0,30.6,35.68Z"/><path class="cls-1" d="M42.5,37.68a5.1,5.1,0,0,1-2.9-.8,5.46,5.46,0,0,1-1.9-2.1,6.1,6.1,0,0,1-.6-3.3,8.66,8.66,0,0,1,.6-3.2,4.84,4.84,0,0,1,1.9-2.1,6,6,0,0,1,2.9-.8,5.1,5.1,0,0,1,2.9.8,5.2,5.2,0,0,1,1.8,2.1,7.65,7.65,0,0,1,.6,3v.9H39.6v.4a3.78,3.78,0,0,0,.8,2.3,3,3,0,0,0,2.4.9,4.49,4.49,0,0,0,1.9-.5A4,4,0,0,0,46,34l1.5,1.4a10.41,10.41,0,0,1-2,1.6A6.58,6.58,0,0,1,42.5,37.68Zm0-10.41a2.6,2.6,0,0,0-1.5.4,2.66,2.66,0,0,0-1,1.1,2.93,2.93,0,0,0-.4,1.6v.21h5.7v-.3a4.53,4.53,0,0,0-.3-1.6,3.13,3.13,0,0,0-.9-1.1A4.75,4.75,0,0,0,42.5,27.27Z"/></svg>