<?xml version="1.0" encoding="UTF-8"?>
<svg width="100px" height="100px" viewBox="0 0 100 100" version="1.1" xmlns="http://www.w3.org/2000/svg" xmlns:xlink="http://www.w3.org/1999/xlink">
    <!-- Generator: Sketch 62 (91390) - https://sketch.com -->
    <title>2</title>
    <desc>Created with Sketch.</desc>
    <g id="Glyphs" stroke="none" stroke-width="1" fill="none" fill-rule="evenodd">
        <g id="GLYPHS-1" transform="translate(-691.000000, -526.000000)" fill="#FFFFFF">
            <path d="M786.75383,556.625119 C781.72611,544.5433 772.053008,534.85108 759.950159,529.823361 L786.75383,529.823361 L786.75383,556.625119 Z M775.111696,606.233225 L740.873501,574.078761 L706.635305,606.233225 C699.390037,598.108583 694.993172,587.42229 694.993172,575.70369 C694.993172,550.412158 715.58197,529.823361 740.873501,529.823361 C766.184149,529.823361 786.75383,550.412158 786.75383,575.70369 C786.75383,587.42229 782.356965,598.108583 775.111696,606.233225 L775.111696,606.233225 Z M786.75383,617.168037 L777.883633,608.852227 C781.573176,604.722998 784.593631,599.98203 786.75383,594.78226 L786.75383,617.168037 Z M740.873501,621.584018 C728.638747,621.584018 717.531884,616.785701 709.311658,608.966928 L740.873501,579.335882 L772.435344,608.966928 C764.215118,616.785701 753.106344,621.584018 740.873501,621.584018 L740.873501,621.584018 Z M694.993172,617.168037 L694.993172,594.78226 C697.153371,599.962913 700.154709,604.703881 703.863369,608.835022 L694.993172,617.168037 Z M694.993172,529.823361 L721.814048,529.823361 C709.713111,534.85108 700.020891,544.5433 694.993172,556.625119 L694.993172,529.823361 Z M691.169811,526 L691.169811,626 L706.520605,611.58593 C715.448152,620.150258 727.568206,625.407379 740.873501,625.407379 C754.197913,625.407379 766.29885,620.150258 775.226397,611.58593 L790.57719,626 L790.57719,526 L691.169811,526 Z" id="2"></path>
        </g>
    </g>
</svg>