<svg id="Layer_1" data-name="Layer 1" xmlns="http://www.w3.org/2000/svg" viewBox="0 0 74 50"><defs><style>.cls-1{fill:#ccc;}</style></defs><path class="cls-1" d="M16.2,44.05A11.18,11.18,0,0,1,9.34,42,12.65,12.65,0,0,1,5.1,35.6a35.71,35.71,0,0,1-1.43-11,35.73,35.73,0,0,1,1.43-11A12.65,12.65,0,0,1,9.34,7.14,11.18,11.18,0,0,1,16.2,5.06a11.12,11.12,0,0,1,6.88,2.08,12.69,12.69,0,0,1,4.22,6.37,35.73,35.73,0,0,1,1.43,11A35.71,35.71,0,0,1,27.3,35.6,12.69,12.69,0,0,1,23.08,42,11.12,11.12,0,0,1,16.2,44.05Zm0-1.78A9.09,9.09,0,0,0,22,40.48a10.74,10.74,0,0,0,3.46-5.29,27.68,27.68,0,0,0,1.16-8.58V22.5a27.62,27.62,0,0,0-1.16-8.61A10.82,10.82,0,0,0,22,8.62,9.15,9.15,0,0,0,16.2,6.84a9.14,9.14,0,0,0-5.72,1.78A10.72,10.72,0,0,0,7,13.89,27.62,27.62,0,0,0,5.83,22.5v4.11A27.68,27.68,0,0,0,7,35.19a10.65,10.65,0,0,0,3.49,5.29A9.08,9.08,0,0,0,16.2,42.27Z"/><path class="cls-1" d="M39.74,22.77H44.6A9.48,9.48,0,0,0,51,20.67a6.84,6.84,0,0,0,2.43-5.4V14.19a6.72,6.72,0,0,0-2.32-5.38,9.06,9.06,0,0,0-6-2,10,10,0,0,0-5.67,1.41A10,10,0,0,0,36.07,12l-1.51-.92A10.84,10.84,0,0,1,36.77,8a10.12,10.12,0,0,1,3.49-2.16,13.67,13.67,0,0,1,4.83-.78,12.28,12.28,0,0,1,5.48,1.16,8.84,8.84,0,0,1,3.67,3.27,9.16,9.16,0,0,1,1.33,5,8.58,8.58,0,0,1-2.11,6.15,9.94,9.94,0,0,1-5.4,2.87v.21a10.74,10.74,0,0,1,4.32,1.51,8.23,8.23,0,0,1,2.94,3.22,10.37,10.37,0,0,1,1.06,4.83A11,11,0,0,1,54.94,39a9.67,9.67,0,0,1-4,3.76,13.41,13.41,0,0,1-6.15,1.32,16.47,16.47,0,0,1-4.92-.7,11.94,11.94,0,0,1-3.86-2,13.75,13.75,0,0,1-2.89-3.21L34.67,37A10.93,10.93,0,0,0,38.77,41a12.68,12.68,0,0,0,6,1.3A10,10,0,0,0,51.65,40a7.67,7.67,0,0,0,2.56-6V32.71a7.61,7.61,0,0,0-2.51-6,10.14,10.14,0,0,0-7-2.24h-5Z"/><path class="cls-1" d="M66.09,44.05a1.88,1.88,0,0,1-1.4-.49,1.74,1.74,0,0,1-.48-1.29v-.49a1.74,1.74,0,0,1,.48-1.32,2.42,2.42,0,0,1,2.84,0A1.8,1.8,0,0,1,68,41.78v.49a1.81,1.81,0,0,1-.45,1.29A1.89,1.89,0,0,1,66.09,44.05Z"/></svg>