<svg id="Layer_1" data-name="Layer 1" xmlns="http://www.w3.org/2000/svg" xmlns:xlink="http://www.w3.org/1999/xlink" viewBox="0 0 306 495"><defs><style>.cls-1{fill:none;clip-rule:evenodd;}.cls-2{fill:#f2f3f2;}.cls-3{clip-path:url(#clip-path);}.cls-4{fill:#0e0e0e;}.cls-5{fill:#ff0048;}</style><clipPath id="clip-path"><path class="cls-1" d="M235,341.25h0a10,10,0,0,1,10,10h0a10,10,0,0,1-10,10h0a10,10,0,0,1-10-10h0a10,10,0,0,1,10-10Z"/></clipPath></defs><rect class="cls-2" width="306" height="495"/><path d="M33.49,66.79V43.06h8.43a10.47,10.47,0,0,1,5.34,1.31,8.46,8.46,0,0,1,3.5,3.94A15.63,15.63,0,0,1,52,54.92a15.65,15.65,0,0,1-1.23,6.62,8.5,8.5,0,0,1-3.5,3.94,10.57,10.57,0,0,1-5.34,1.31Zm4-3.5h4.45A6.08,6.08,0,0,0,45,62.54a5.13,5.13,0,0,0,2-2.18,7.66,7.66,0,0,0,.73-3.53V53A7.74,7.74,0,0,0,47,49.47a5,5,0,0,0-2-2.18,6.18,6.18,0,0,0-3.08-.73H37.47Z"/><path d="M61.78,67.2a8.24,8.24,0,0,1-4.37-1.13,7.41,7.41,0,0,1-2.84-3.19,11.09,11.09,0,0,1-1-4.86,11.39,11.39,0,0,1,1-4.86A7.37,7.37,0,0,1,57.34,50a9,9,0,0,1,8.76,0,7.26,7.26,0,0,1,2.65,3.16,10.77,10.77,0,0,1,.88,4.42V59H57.56v.57a4.61,4.61,0,0,0,1.17,3.25,4.44,4.44,0,0,0,3.42,1.28,5.09,5.09,0,0,0,2.74-.7,6.63,6.63,0,0,0,1.89-1.88L69,63.72a7.47,7.47,0,0,1-2.88,2.51A9.16,9.16,0,0,1,61.78,67.2Zm0-15.4a4.11,4.11,0,0,0-2.19.57,4,4,0,0,0-1.46,1.57,4.92,4.92,0,0,0-.53,2.31v.24h8v-.34a5.39,5.39,0,0,0-.46-2.28,3.51,3.51,0,0,0-3.39-2.07Z"/><path d="M77.59,67.2a9.06,9.06,0,0,1-4.2-.89,9.5,9.5,0,0,1-3-2.44l2.45-2.25A7.79,7.79,0,0,0,75,63.44a5.7,5.7,0,0,0,2.77.66,4,4,0,0,0,2.4-.58A2,2,0,0,0,81,61.86a1.91,1.91,0,0,0-.54-1.39,3.18,3.18,0,0,0-1.9-.72l-1.64-.24a10.14,10.14,0,0,1-3.12-.86,4.7,4.7,0,0,1-2-1.7A4.86,4.86,0,0,1,71,54.28a4.77,4.77,0,0,1,1.83-4,7.55,7.55,0,0,1,4.76-1.42,11.06,11.06,0,0,1,2.82.32,7.24,7.24,0,0,1,2.13,1,9.43,9.43,0,0,1,1.72,1.52L82,53.9a6.44,6.44,0,0,0-1.82-1.41,5.23,5.23,0,0,0-2.49-.59,3.5,3.5,0,0,0-2.21.57A1.86,1.86,0,0,0,74.73,54a1.7,1.7,0,0,0,.63,1.45,4.42,4.42,0,0,0,2,.72l1.7.24a7.58,7.58,0,0,1,4.27,1.69,4.52,4.52,0,0,1,1.34,3.41,5.2,5.2,0,0,1-.87,3,5.66,5.66,0,0,1-2.45,2A9.12,9.12,0,0,1,77.59,67.2Z"/><path d="M89,46.19a2.3,2.3,0,0,1-1.73-.57,1.91,1.91,0,0,1-.55-1.41V43.6a1.92,1.92,0,0,1,.55-1.43A2.38,2.38,0,0,1,89,41.63a2.42,2.42,0,0,1,1.74.54,2,2,0,0,1,.54,1.43v.61a1.94,1.94,0,0,1-.54,1.41A2.34,2.34,0,0,1,89,46.19Zm-1.94,20.6V49.25h3.85V66.79Z"/><path d="M110.09,68.37a5,5,0,0,1-.93,3.1,5.64,5.64,0,0,1-2.93,1.89A17.31,17.31,0,0,1,101,74a17,17,0,0,1-4.67-.52A5.14,5.14,0,0,1,93.75,72,3.5,3.5,0,0,1,93,69.69a3.21,3.21,0,0,1,.81-2.32A4.11,4.11,0,0,1,96,66.25v-.38a2.88,2.88,0,0,1-1.55-1,2.79,2.79,0,0,1-.53-1.71,2.44,2.44,0,0,1,.94-2.07,5.67,5.67,0,0,1,2.22-1v-.14a5.5,5.5,0,0,1-2.39-2.06,5.64,5.64,0,0,1-.84-3.1,5.72,5.72,0,0,1,.84-3.11,5.49,5.49,0,0,1,2.43-2.08,9.1,9.1,0,0,1,3.84-.73,11.26,11.26,0,0,1,1.68.12,7.53,7.53,0,0,1,1.52.39v-.5a3,3,0,0,1,.57-2,2.22,2.22,0,0,1,1.77-.68h2.72v3H105.6v.81a5.07,5.07,0,0,1,1.89,2,5.9,5.9,0,0,1,.63,2.73,5.75,5.75,0,0,1-.83,3.08,5.49,5.49,0,0,1-2.42,2.07,9.18,9.18,0,0,1-3.89.74,10.41,10.41,0,0,1-1.26-.07,7,7,0,0,1-1.12-.2,4.32,4.32,0,0,0-1.11.63A1.33,1.33,0,0,0,97,62.1a1,1,0,0,0,.63,1,4.37,4.37,0,0,0,1.82.3h4.42c2.18,0,3.76.44,4.74,1.3A4.64,4.64,0,0,1,110.09,68.37Zm-3.6.44a1.74,1.74,0,0,0-.72-1.5,4.33,4.33,0,0,0-2.48-.52h-6a2.14,2.14,0,0,0-.89.87,2.53,2.53,0,0,0-.27,1.18A2.09,2.09,0,0,0,97,70.58a4.9,4.9,0,0,0,2.93.66h2.27a6.6,6.6,0,0,0,3.23-.61A2,2,0,0,0,106.49,68.81ZM101,58a4,4,0,0,0,2.52-.71,2.62,2.62,0,0,0,.88-2.14v-.66a2.66,2.66,0,0,0-.88-2.17,3.9,3.9,0,0,0-2.52-.71,3.82,3.82,0,0,0-2.48.71,2.63,2.63,0,0,0-.89,2.17v.66a2.59,2.59,0,0,0,.89,2.14A3.87,3.87,0,0,0,101,58Z"/><path d="M115,66.79h-3.84V49.25H115v2.92h.17a5.87,5.87,0,0,1,1.75-2.38,5,5,0,0,1,3.22-.95,5.22,5.22,0,0,1,4.23,1.79,7.54,7.54,0,0,1,1.51,5V66.79H122V56.11a4.9,4.9,0,0,0-.78-3,3,3,0,0,0-2.48-1,5.06,5.06,0,0,0-1.82.32,3.18,3.18,0,0,0-1.41,1A2.46,2.46,0,0,0,115,55Z"/><path d="M131.14,46.19a2.31,2.31,0,0,1-1.74-.57,1.94,1.94,0,0,1-.54-1.41V43.6a2,2,0,0,1,.54-1.43,3.06,3.06,0,0,1,3.47,0,2,2,0,0,1,.54,1.43v.61a1.94,1.94,0,0,1-.54,1.41A2.3,2.3,0,0,1,131.14,46.19Zm-1.94,20.6V49.25H133V66.79Z"/><path d="M140.42,66.79h-3.84V49.25h3.84v2.92h.17a5.78,5.78,0,0,1,1.75-2.38,5,5,0,0,1,3.21-.95,5.23,5.23,0,0,1,4.24,1.79,7.6,7.6,0,0,1,1.51,5V66.79h-3.84V56.11a4.83,4.83,0,0,0-.79-3,2.94,2.94,0,0,0-2.48-1,5.09,5.09,0,0,0-1.82.32,3.24,3.24,0,0,0-1.41,1,2.51,2.51,0,0,0-.54,1.66Z"/><path d="M170.3,68.37a5,5,0,0,1-.93,3.1,5.6,5.6,0,0,1-2.93,1.89,17.29,17.29,0,0,1-5.21.64,17.08,17.08,0,0,1-4.68-.52A5.07,5.07,0,0,1,154,72a3.46,3.46,0,0,1-.8-2.31,3.21,3.21,0,0,1,.81-2.32,4.15,4.15,0,0,1,2.25-1.12v-.38a2.88,2.88,0,0,1-1.55-1,2.79,2.79,0,0,1-.53-1.71,2.47,2.47,0,0,1,.94-2.07,5.65,5.65,0,0,1,2.23-1v-.14a5.48,5.48,0,0,1-2.4-2.06,5.64,5.64,0,0,1-.83-3.1,5.72,5.72,0,0,1,.83-3.11,5.49,5.49,0,0,1,2.43-2.08,9.17,9.17,0,0,1,3.84-.73,11.49,11.49,0,0,1,1.69.12,7.44,7.44,0,0,1,1.51.39v-.5a2.89,2.89,0,0,1,.58-2,2.18,2.18,0,0,1,1.76-.68h2.72v3h-3.63v.81a5.12,5.12,0,0,1,1.88,2,5.9,5.9,0,0,1,.63,2.73,5.75,5.75,0,0,1-.83,3.08,5.49,5.49,0,0,1-2.42,2.07,9.18,9.18,0,0,1-3.89.74,10.41,10.41,0,0,1-1.26-.07,7.22,7.22,0,0,1-1.12-.2,4.26,4.26,0,0,0-1.1.63,1.31,1.31,0,0,0-.5,1.07,1,1,0,0,0,.63,1,4.37,4.37,0,0,0,1.82.3h4.42c2.18,0,3.76.44,4.74,1.3A4.64,4.64,0,0,1,170.3,68.37Zm-3.6.44a1.76,1.76,0,0,0-.71-1.5,4.39,4.39,0,0,0-2.49-.52h-6a2.11,2.11,0,0,0-.88.87,2.42,2.42,0,0,0-.28,1.18,2.11,2.11,0,0,0,.85,1.74,4.9,4.9,0,0,0,2.93.66h2.28a6.63,6.63,0,0,0,3.23-.61A2,2,0,0,0,166.7,68.81ZM161.19,58a4,4,0,0,0,2.52-.71,2.59,2.59,0,0,0,.88-2.14v-.66a2.63,2.63,0,0,0-.88-2.17,3.9,3.9,0,0,0-2.52-.71,3.83,3.83,0,0,0-2.48.71,2.63,2.63,0,0,0-.88,2.17v.66a2.59,2.59,0,0,0,.88,2.14A3.89,3.89,0,0,0,161.19,58Z"/><path d="M48,97.79V87.52H37.47V97.79h-4V74.06h4v10H48v-10h4V97.79Z"/><path d="M62.76,98.2a8,8,0,0,1-4.3-1.13,7.62,7.62,0,0,1-2.82-3.19,12.36,12.36,0,0,1,0-9.74A7.57,7.57,0,0,1,58.46,81a8.75,8.75,0,0,1,8.6,0,7.52,7.52,0,0,1,2.83,3.17,12.36,12.36,0,0,1,0,9.74,7.58,7.58,0,0,1-2.83,3.19A8,8,0,0,1,62.76,98.2Zm0-3.16a3.93,3.93,0,0,0,3-1.15,4.63,4.63,0,0,0,1.1-3.36v-3a4.61,4.61,0,0,0-1.1-3.37,4.45,4.45,0,0,0-5.93,0,4.57,4.57,0,0,0-1.13,3.37v3a4.59,4.59,0,0,0,1.13,3.36A3.91,3.91,0,0,0,62.76,95Z"/><path d="M73.24,104.59V80.25h3.84v2.92h.17a4.4,4.4,0,0,1,1.85-2.46,5.6,5.6,0,0,1,3.11-.87A6.44,6.44,0,0,1,86,80.92a6.76,6.76,0,0,1,2.38,3.14,15,15,0,0,1,0,9.89A6.89,6.89,0,0,1,86,97.1a6.38,6.38,0,0,1-3.79,1.1,5.39,5.39,0,0,1-3.08-.89,4.9,4.9,0,0,1-1.88-2.44h-.17v9.72ZM81,95a3.91,3.91,0,0,0,3-1.23,4.53,4.53,0,0,0,1.14-3.21v-3A4.49,4.49,0,0,0,84,84.28a3.93,3.93,0,0,0-3-1.21,5.15,5.15,0,0,0-2,.37,3.41,3.41,0,0,0-1.43,1A2.44,2.44,0,0,0,77.08,86v5.85a2.65,2.65,0,0,0,.52,1.66A3.44,3.44,0,0,0,79,94.6,5.34,5.34,0,0,0,81,95Z"/><path d="M98.74,98.2a8.24,8.24,0,0,1-4.37-1.13,7.41,7.41,0,0,1-2.84-3.19,11.09,11.09,0,0,1-1-4.86,11.24,11.24,0,0,1,1-4.86A7.37,7.37,0,0,1,94.3,81a8,8,0,0,1,4.33-1.13A7.9,7.9,0,0,1,103.05,81a7.21,7.21,0,0,1,2.66,3.16,10.93,10.93,0,0,1,.88,4.42V90H94.52v.57a4.61,4.61,0,0,0,1.17,3.25,4.41,4.41,0,0,0,3.42,1.28,5.09,5.09,0,0,0,2.74-.7,6.47,6.47,0,0,0,1.88-1.88l2.21,2.23a7.43,7.43,0,0,1-2.87,2.51A9.19,9.19,0,0,1,98.74,98.2Zm0-15.4a4.11,4.11,0,0,0-2.19.57,4,4,0,0,0-1.46,1.57,4.92,4.92,0,0,0-.53,2.31v.24h8v-.34a5.24,5.24,0,0,0-.46-2.28,3.64,3.64,0,0,0-1.3-1.52A3.73,3.73,0,0,0,98.7,82.8Z"/><path d="M204.38,458.07h3.24v5.17a2,2,0,0,1-.25,1,1.7,1.7,0,0,1-.71.67,2.16,2.16,0,0,1-1,.24,1.89,1.89,0,0,1-1.3-.44,2.05,2.05,0,0,1-.64-1.15l.76-.18a1.48,1.48,0,0,0,.39.73,1.1,1.1,0,0,0,.81.29,1.08,1.08,0,0,0,.84-.33,1.44,1.44,0,0,0,.3-1v-4.28h-2.4Z"/><path d="M211.09,465.17a2.18,2.18,0,0,1-1.22-.34,2.31,2.31,0,0,1-.81-.93,3.67,3.67,0,0,1,0-2.86,2.4,2.4,0,0,1,.81-.94,2.25,2.25,0,0,1,1.22-.33,2.18,2.18,0,0,1,1.19.32,2.11,2.11,0,0,1,.77.9,3,3,0,0,1,.27,1.3v.38h-3.71v.24A1.57,1.57,0,0,0,210,464a1.43,1.43,0,0,0,1.12.45,1.62,1.62,0,0,0,.86-.23,1.46,1.46,0,0,0,.56-.66l.57.41a1.93,1.93,0,0,1-.78.85A2.32,2.32,0,0,1,211.09,465.17Zm0-4.73a1.49,1.49,0,0,0-.76.2,1.4,1.4,0,0,0-.53.55,1.79,1.79,0,0,0-.19.81v.07h2.85V462a1.69,1.69,0,0,0-.17-.8,1.23,1.23,0,0,0-.48-.53A1.29,1.29,0,0,0,211.09,460.44Z"/><path d="M215.24,465.05h-.8v-5.16h.8v.95h0a1.46,1.46,0,0,1,.28-.46,1.39,1.39,0,0,1,.49-.36,1.75,1.75,0,0,1,.72-.13h.31v.8h-.47a2.35,2.35,0,0,0-.74.11,1.17,1.17,0,0,0-.47.31.66.66,0,0,0-.17.44Z"/><path d="M219.85,465.17a2.18,2.18,0,0,1-1.22-.34,2.31,2.31,0,0,1-.81-.93,3.67,3.67,0,0,1,0-2.86,2.4,2.4,0,0,1,.81-.94,2.25,2.25,0,0,1,1.22-.33,2.18,2.18,0,0,1,1.19.32,2.11,2.11,0,0,1,.77.9,3,3,0,0,1,.27,1.3v.38h-3.71v.24a1.57,1.57,0,0,0,.41,1.11,1.43,1.43,0,0,0,1.12.45,1.62,1.62,0,0,0,.86-.23,1.46,1.46,0,0,0,.56-.66l.57.41a1.93,1.93,0,0,1-.78.85A2.32,2.32,0,0,1,219.85,465.17Zm0-4.73a1.49,1.49,0,0,0-.76.2,1.4,1.4,0,0,0-.53.55,1.79,1.79,0,0,0-.19.81v.07h2.85V462a1.69,1.69,0,0,0-.17-.8,1.23,1.23,0,0,0-.48-.53A1.29,1.29,0,0,0,219.85,460.44Z"/><path d="M224,465.05h-.8v-5.16h.8v.84h0a2.09,2.09,0,0,1,.48-.68,1.31,1.31,0,0,1,.91-.28,1.88,1.88,0,0,1,.94.24,1.51,1.51,0,0,1,.64.81h0a1.54,1.54,0,0,1,1.57-1.05,1.56,1.56,0,0,1,1.24.51,2.21,2.21,0,0,1,.44,1.46v3.31h-.8v-3.17a1.72,1.72,0,0,0-.27-1,1,1,0,0,0-.86-.35,1.7,1.7,0,0,0-.59.1,1.15,1.15,0,0,0-.45.33.9.9,0,0,0-.17.55v3.58h-.8v-3.17a1.68,1.68,0,0,0-.27-1,1,1,0,0,0-.84-.35,1.7,1.7,0,0,0-.59.1,1.05,1.05,0,0,0-.46.33.85.85,0,0,0-.18.55Z"/><path d="M233.66,463.34l1.25-3.45h.79l-2.31,6.36a1.53,1.53,0,0,1-.24.48.72.72,0,0,1-.36.25,1.89,1.89,0,0,1-.6.07h-.41v-.7h.81l.39-1.18-1.93-5.28h.8l1.24,3.45.24.82h0Z"/><path d="M238.76,465.05v-7h2.34a3,3,0,0,1,1.52.38,2.52,2.52,0,0,1,1,1.16,4.66,4.66,0,0,1,.35,1.95,4.58,4.58,0,0,1-.35,1.94,2.5,2.5,0,0,1-1,1.17,3,3,0,0,1-1.52.38Zm.84-.74h1.5a2,2,0,0,0,1-.26,1.68,1.68,0,0,0,.69-.75,2.47,2.47,0,0,0,.25-1.17V461a2.54,2.54,0,0,0-.25-1.18,1.68,1.68,0,0,0-.69-.75,2.08,2.08,0,0,0-1-.25h-1.5Z"/><path d="M245.7,465.17a.6.6,0,0,1-.46-.17.56.56,0,0,1-.15-.41v-.13a.65.65,0,0,1,1.08-.42.64.64,0,0,1,.14.42v.13a.54.54,0,0,1-.61.58Z"/><path d="M252.41,465.17a2.75,2.75,0,0,1-1.51-.41,2.53,2.53,0,0,1-1-1.2,4.92,4.92,0,0,1-.34-2,5.14,5.14,0,0,1,.34-2,2.52,2.52,0,0,1,2.47-1.66,2.57,2.57,0,0,1,1.47.4,2.61,2.61,0,0,1,.93,1.13l-.68.41a2,2,0,0,0-.64-.87,1.75,1.75,0,0,0-1.08-.32,1.67,1.67,0,0,0-1.4.65,2.76,2.76,0,0,0-.51,1.73v1a2.53,2.53,0,0,0,.51,1.68,1.7,1.7,0,0,0,1.4.62,1.78,1.78,0,0,0,1.12-.35,2,2,0,0,0,.66-.91l.67.42a2.79,2.79,0,0,1-1,1.16A2.57,2.57,0,0,1,252.41,465.17Z"/><path d="M255.88,465.05v-7.4h.8v3.08h0a1.74,1.74,0,0,1,.54-.7,1.52,1.52,0,0,1,.92-.26,1.63,1.63,0,0,1,1.27.51,2.11,2.11,0,0,1,.46,1.46v3.31h-.8v-3.17a1.61,1.61,0,0,0-.29-1,1.1,1.1,0,0,0-.88-.35,1.77,1.77,0,0,0-.61.1,1.15,1.15,0,0,0-.47.33.85.85,0,0,0-.18.55v3.58Z"/><path d="M263.3,465.17a2.18,2.18,0,0,1-1.22-.34,2.31,2.31,0,0,1-.81-.93,3.67,3.67,0,0,1,0-2.86,2.4,2.4,0,0,1,.81-.94,2.25,2.25,0,0,1,1.22-.33,2.18,2.18,0,0,1,1.19.32,2.11,2.11,0,0,1,.77.9,3,3,0,0,1,.27,1.3v.38h-3.71v.24a1.57,1.57,0,0,0,.41,1.11,1.43,1.43,0,0,0,1.12.45,1.62,1.62,0,0,0,.86-.23,1.46,1.46,0,0,0,.56-.66l.57.41a1.93,1.93,0,0,1-.78.85A2.32,2.32,0,0,1,263.3,465.17Zm0-4.73a1.49,1.49,0,0,0-.76.2,1.4,1.4,0,0,0-.53.55,1.79,1.79,0,0,0-.19.81v.07h2.85V462a1.69,1.69,0,0,0-.17-.8,1.23,1.23,0,0,0-.48-.53A1.29,1.29,0,0,0,263.3,460.44Z"/><path d="M267.45,465.05h-.8v-5.16h.8v.95h.05a1.46,1.46,0,0,1,.28-.46,1.39,1.39,0,0,1,.49-.36,1.75,1.75,0,0,1,.72-.13h.31v.8h-.47a2.35,2.35,0,0,0-.74.11,1.17,1.17,0,0,0-.47.31.66.66,0,0,0-.17.44Z"/><path d="M270.92,465.05h-.8v-5.16h.8v.95H271a1.46,1.46,0,0,1,.28-.46,1.39,1.39,0,0,1,.49-.36,1.75,1.75,0,0,1,.72-.13h.31v.8h-.47a2.35,2.35,0,0,0-.74.11,1.1,1.1,0,0,0-.47.31.66.66,0,0,0-.17.44Z"/><path d="M275.52,463.34l1.25-3.45h.79l-2.31,6.36a1.53,1.53,0,0,1-.24.48.72.72,0,0,1-.36.25,1.89,1.89,0,0,1-.6.07h-.41v-.7h.81l.39-1.18-1.93-5.28h.8l1.24,3.45.24.82h.05Z"/><g class="cls-3"><path class="cls-4" d="M235,361.65a10.4,10.4,0,1,1,10.4-10.4A10.41,10.41,0,0,1,235,361.65Zm0-20a9.6,9.6,0,1,0,9.6,9.6A9.6,9.6,0,0,0,235,341.65Z"/></g><path class="cls-5" d="M64,211h0a10,10,0,0,1,10,10h0a10,10,0,0,1-10,10h0a10,10,0,0,1-10-10h0a10,10,0,0,1,10-10Z"/><path d="M133.54,379.46A74.18,74.18,0,0,1,105.43,374l.15-.37c19.53,7.92,40.91,7.19,63.54-2.16,17.33-7.17,35.61-19.49,54.31-36.62l.27.3c-18.74,17.16-37,29.51-54.43,36.69C157,376.92,145,379.46,133.54,379.46Zm-2.13-5.13A82.46,82.46,0,0,1,104.8,370l.13-.38c34.94,11.84,75.06-.63,119.26-37.07l.25.31C191,360.45,159.78,374.33,131.41,374.33Zm-2.92-5.16A91.5,91.5,0,0,1,104.18,366l.11-.38c19.43,5.33,40.86,4,63.7-4,17.84-6.24,36.95-16.71,56.81-31.11l-2.27,1c-19.95,11.82-38,20.21-55,25.59-23.2,7.35-44.73,9-64,4.93l.09-.39c19.18,4.06,40.64,2.41,63.78-4.92,16.23-5.14,33.37-13,52.25-24l-1.54.64c-19.82,10-36.46,16.27-52.95,20a265.65,265.65,0,0,1-30.46,4.62c-12.82,1.37-22.92,1.38-31.79,0l.06-.39c8.83,1.33,18.9,1.32,31.69,0a269.29,269.29,0,0,0,30.41-4.62c14.58-3.29,29.29-8.57,46.21-16.68a181.68,181.68,0,0,1-44.22,12.93c-5.65.84-11.42,1.35-17,1.85-4.74.42-9.65.85-14.45,1.48-8.67,1.15-21.56,2.55-33.32,1.46l0-.4c11.72,1.08,24.58-.31,33.23-1.45,4.81-.64,9.72-1.07,14.47-1.49,5.57-.5,11.33-1,17-1.84a175.39,175.39,0,0,0,37.85-10.35c-1.1.38-2.21.76-3.33,1.13-10.84,3.6-22.65,4.74-32.86,5.53-4.38.34-8.79.48-13.05.61a179.78,179.78,0,0,0-20.57,1.44,68.88,68.88,0,0,1-7.56.58,58.94,58.94,0,0,0-8.86.8,70.9,70.9,0,0,1-17,1.42l0-.4a70.21,70.21,0,0,0,16.86-1.42,61.09,61.09,0,0,1,8.92-.8,70.86,70.86,0,0,0,7.52-.57,178.4,178.4,0,0,1,20.6-1.45c4.26-.13,8.67-.27,13-.61,10.19-.78,22-1.92,32.77-5.51,4.84-1.6,9.55-3.37,14.4-5.34,1.33-.6,2.65-1.19,3.94-1.8l.2-.09c-5.35,1.73-10.59,3.33-16,4.78-10.75,2.89-22,3.47-34.55,3.89-4,.13-7.95.1-11.79.07-8.06-.07-15.67-.13-23.55,1.16a62.47,62.47,0,0,1-7.06.61,47.74,47.74,0,0,0-9.22,1.07,67.94,67.94,0,0,1-16.75,2.39v-.4a67.2,67.2,0,0,0,16.65-2.38A48.76,48.76,0,0,1,127,342a61.41,61.41,0,0,0,7-.61c7.92-1.29,15.9-1.23,23.62-1.16,3.84,0,7.81.06,11.78-.07,12.52-.42,23.75-1,34.45-3.88,6.16-1.65,12.14-3.51,18.3-5.55l.47-.24c-7.18,1.82-14.53,3.6-22.22,5.37-10.72,2.47-21.91,1.94-32.74,1.42-5.52-.26-11.23-.74-17.45-1.48s-10.34-.09-16.53.89l-.36.06a61.66,61.66,0,0,1-6.34.56,39.15,39.15,0,0,0-9.84,1.39,63.6,63.6,0,0,1-16.72,3.15l0-.4a62.92,62.92,0,0,0,16.63-3.13,39.11,39.11,0,0,1,9.94-1.41,60.46,60.46,0,0,0,6.29-.56l.37-.06c6.22-1,10.32-1.63,16.64-.89s11.91,1.22,17.42,1.48c10.8.52,22,1.05,32.63-1.41,8.21-1.89,16-3.79,23.68-5.74l-8.12,1.77c-5.76,1.25-11.71,2.54-17.56,3.87-10.35,2.35-20.2,1.16-31.09-.5-5-.77-10.31-1.81-16.14-3.16-.61-.14-1.28-.36-2-.58a13.35,13.35,0,0,0-4-.88,25.66,25.66,0,0,0-5.69,1.1,34.34,34.34,0,0,1-4.57,1c-1.94.22-3.92.3-5.83.38-3.77.14-7.67.3-11.32,1.58a65.73,65.73,0,0,1-17.91,3.51l0-.4A65.65,65.65,0,0,0,117.61,334c3.7-1.31,7.63-1.46,11.43-1.61,1.91-.08,3.88-.16,5.8-.38a32.31,32.31,0,0,0,4.51-1,26.31,26.31,0,0,1,5.79-1.11,13.75,13.75,0,0,1,4.12.9c.7.22,1.36.43,2,.57,5.82,1.35,11.09,2.38,16.12,3.15,10.84,1.66,20.65,2.85,30.93.51,5.85-1.33,11.81-2.62,17.57-3.87,3.18-.69,6.42-1.39,9.67-2.11l1.94-1,.15.29,1.27-.63-5.76.9c-8.56,1.33-17.42,2.71-26.07,4.32-10.55,2-19.84.3-29.21-1.72-4.33-.94-9-2.15-14.31-3.72-.54-.16-1.12-.39-1.74-.63a11.78,11.78,0,0,0-3.57-1,24.64,24.64,0,0,0-6.29,1.08,33.08,33.08,0,0,1-4.77,1c-2,.2-4.09.24-6.09.28-4.17.08-8.48.16-12.43,1.67-6.37,2.43-11.94,3.32-19.42,4l0-.4c7.45-.7,13-1.58,19.32-4,4-1.54,8.35-1.62,12.56-1.7,2,0,4.06-.08,6.06-.28a32.83,32.83,0,0,0,4.71-1,25.7,25.7,0,0,1,6.41-1.09,12.17,12.17,0,0,1,3.7,1c.61.24,1.18.46,1.7.61,5.3,1.57,10,2.79,14.28,3.72,9.34,2,18.58,3.66,29,1.72,8.66-1.61,17.52-3,26.09-4.33,5.14-.8,10.45-1.62,15.66-2.49l.07.39c-2.51.42-5,.83-7.56,1.23l.13.29-.71.32.31-.07,2.28-.78.09.25,1.42-.33.5-.13v0l1.85-.43.09.39-2.35.54-5.66,1.5-3,1-1.28.56.22.31c-19.92,14.45-39.09,24.95-57,31.22A119.91,119.91,0,0,1,128.49,369.17Zm100.78-41.59.12.24-1.23.61.49-.11,2.26-1Zm-130.7,2.23,0-.4c7.32-.85,13-1.66,19-4.35,4.2-1.87,8.87-1.93,13.38-2,2.2,0,4.47-.06,6.65-.31,1.28-.14,2.47-.31,3.62-.47,4.21-.59,7.85-1.1,12.6.24,5.48,1.54,10,2.69,14.36,3.62,10.06,2.15,19.16,3.82,28.77,2.51,10.22-1.4,20.7-2.29,30.83-3.15,4-.34,8.18-.7,12.27-1.08l0,.4c-4.08.38-8.24.73-12.27,1.08-10.13.86-20.6,1.75-30.81,3.14-9.67,1.32-18.81-.36-28.9-2.51-4.33-.93-8.9-2.08-14.39-3.63-4.67-1.32-8.09-.83-12.44-.22-1.15.16-2.34.33-3.63.47-2.2.25-4.48.28-6.69.31-4.47.06-9.09.12-13.22,1.95C111.61,328.14,105.93,329,98.57,329.81Zm-.63-4,0-.39c6.51-.88,12-1.77,17.88-4.62,4-1.93,8.44-1.91,12.73-1.89a60.66,60.66,0,0,0,6.18-.18c1.21-.11,2.34-.25,3.43-.38,4.38-.52,8.16-1,13.08.2,6.36,1.5,11.55,2.61,16.31,3.48l1.05.19c9.88,1.82,20.09,3.69,30.22,2.65,10.45-1.08,21.18-1.37,31.56-1.64l10.29-.3v.4c-3.42.11-6.91.21-10.29.3-10.37.27-21.09.56-31.53,1.63-10.19,1.06-20.43-.82-30.34-2.64l-1-.19c-4.77-.88-10-2-16.33-3.49-4.86-1.15-8.6-.71-12.94-.19-1.09.13-2.23.26-3.44.38a61.53,61.53,0,0,1-6.22.18c-4.25,0-8.64,0-12.56,1.85C110,324,104.49,324.92,97.94,325.79Zm96.71-4c-8.26,0-16.62-1.3-24.75-2.57l-3.71-.57c-6.55-1-12.94-2.2-18.33-3.25-4.84-.95-8.68-.61-13.12-.21-1.11.1-2.25.2-3.45.28-1.95.14-3.87.09-5.74,0-4-.11-7.85-.21-11.65,1.52a55.88,55.88,0,0,1-16.58,4.7l-.06-.4a55.44,55.44,0,0,0,16.47-4.66c3.88-1.77,7.75-1.67,11.84-1.56,1.85,0,3.76.1,5.69,0,1.2-.08,2.34-.18,3.44-.28,4.47-.4,8.34-.74,13.24.21,5.38,1.05,11.76,2.26,18.31,3.26l3.71.57c9.91,1.54,20.15,3.14,30.13,2.36,10.42-.82,21.12-.55,31.47-.3,3,.08,6,.15,9.06.2v.4c-3-.05-6.09-.12-9.06-.2-10.34-.25-21-.52-31.43.3C198.31,321.78,196.48,321.84,194.65,321.84Zm45.49-2.24c-8.32-.6-16.74-1-24.89-1.33-16-.71-32.56-1.44-48.84-4-6.49-1-12.94-2.22-18.49-3.28-4.74-.91-8.54-.6-12.93-.24-1.24.11-2.52.21-3.87.29-2,.12-3.87,0-5.73,0-4.13-.17-8-.33-11.89,1.55a18.34,18.34,0,0,0-2.22,1.37,13.42,13.42,0,0,1-3.27,1.81,42.21,42.21,0,0,1-8,1.52c-1.17.15-2.28.29-3.33.46l-.07-.4c1.06-.17,2.17-.31,3.35-.46a41.33,41.33,0,0,0,7.92-1.5,12.78,12.78,0,0,0,3.16-1.76,19.17,19.17,0,0,1,2.27-1.4c4-1.93,7.91-1.76,12.08-1.59a56.92,56.92,0,0,0,5.7,0c1.35-.08,2.62-.18,3.85-.28,4.43-.37,8.25-.68,13.05.23,5.54,1.06,12,2.28,18.47,3.28,16.26,2.52,32.8,3.25,48.8,4,8.15.36,16.57.73,24.9,1.33Zm-.77-2c-2.7-.32-5.46-.67-8.13-1-10.45-1.35-21.26-2.74-31.84-2.48-9.14.23-18.52-.78-27.6-1.76l-3.48-.38c-5.35-.56-10.59-1.28-16.39-2.09a61.12,61.12,0,0,0-10.72-.27c-2.06.06-4.19.13-6.36.08a58.12,58.12,0,0,1-6.28-.65c-4.55-.64-9.26-1.31-13.51.64-6.51,3-12.59,3.53-19,4.11l0-.4c6.4-.58,12.45-1.13,18.89-4.08,4.36-2,9.13-1.32,13.73-.67a57.65,57.65,0,0,0,6.24.65c2.16.06,4.28,0,6.34-.08a61.26,61.26,0,0,1,10.78.28c5.81.81,11,1.52,16.38,2.08l3.49.38c9.06,1,18.43,2,27.54,1.76,10.61-.26,21.44,1.13,31.91,2.49,2.66.34,5.42.7,8.12,1Zm-.93-2.07c-2.73-.37-5.52-.77-8.22-1.17-10.95-1.59-22.28-3.25-33.38-3-8.34.18-16.9-.68-25.17-1.52l-2.41-.24c-4.18-.41-8.42-1-12.52-1.51l-1.14-.15a71.71,71.71,0,0,0-9.56-.39c-2.46,0-5,0-7.52-.17a60.78,60.78,0,0,1-6.83-1.06c-5.09-1-10.36-2-15.11,0-6.69,2.75-12.88,3.07-20.06,3.44l-1.12.06,0-.4,1.12-.06c7.14-.37,13.3-.69,19.93-3.41,4.86-2,10.19-1,15.34,0a65.22,65.22,0,0,0,6.78,1.06c2.51.19,5,.18,7.49.16a72.59,72.59,0,0,1,9.61.39l1.14.15c4.1.54,8.33,1.1,12.51,1.52l2.41.24c8.26.83,16.8,1.69,25.12,1.51,11.13-.25,22.48,1.41,33.45,3,2.7.39,5.48.8,8.21,1.17Zm-1-2c-2.83-.37-5.73-.78-8.52-1.17-11.79-1.66-24-3.37-35.9-3-8.22.26-16.42-1-24.36-2.24-2-.32-4.12-.7-6.12-1.07-1.59-.3-3.23-.61-4.85-.88a64.35,64.35,0,0,0-9.44-.63c-2.4,0-4.88-.09-7.35-.35a66.31,66.31,0,0,1-7.21-1.31c-5.45-1.19-11.09-2.43-16.25-.46-7.14,2.73-13.72,3-21.34,3.28l-1.37.06,0-.4,1.37-.06c7.59-.29,14.14-.55,21.21-3.25,5.28-2,11-.77,16.49.44a68.1,68.1,0,0,0,7.17,1.31c2.45.26,4.92.3,7.31.34a63.77,63.77,0,0,1,9.49.64c1.63.27,3.28.58,4.87.87,2,.37,4.06.76,6.1,1.08,7.92,1.22,16.11,2.49,24.28,2.23,12-.39,24.17,1.32,36,3,2.8.39,5.69.8,8.52,1.17Zm-.84-1.93c-2.8-.48-5.67-1-8.44-1.49-11.77-2.13-23.94-4.33-35.91-4.15-7.55.11-15.07-1.14-22.35-2.36l-1.58-.26c-1.84-.3-3.69-.66-5.49-1s-3.46-.66-5.2-.95a65.41,65.41,0,0,0-9.21-.68c-2.49-.06-5.07-.13-7.63-.44a64.58,64.58,0,0,1-7.2-1.44c-5.56-1.33-11.3-2.7-16.52-.61-7.13,2.85-13.7,3.14-21.31,3.48l-1.66.07,0-.4,1.66-.07c7.57-.34,14.11-.63,21.18-3.45,5.34-2.14,11.14-.75,16.76.59a66.73,66.73,0,0,0,7.16,1.44c2.54.3,5.11.37,7.59.43a66.37,66.37,0,0,1,9.27.68c1.74.29,3.5.63,5.21,1s3.64.7,5.47,1l1.58.26c7.27,1.21,14.77,2.46,22.28,2.35,12-.18,24.2,2,36,4.15,2.77.5,5.64,1,8.44,1.49Zm-.68-1.92c-2.66-.6-5.38-1.26-8-1.89-11.16-2.67-22.69-5.44-34.12-5.56-6.94-.07-14-1.21-20.78-2.31-1.75-.28-3.57-.58-5.35-.85-2.36-.35-4.76-.75-7.07-1.14-1.83-.31-3.65-.61-5.48-.9a69.54,69.54,0,0,0-8.94-.64,75.47,75.47,0,0,1-8.17-.52,56.32,56.32,0,0,1-6.78-1.5c-5.37-1.41-10.92-2.87-15.82-.6-6.61,3.07-12.76,3.45-19.87,3.9l-2,.12,0-.4,2-.12c7.08-.44,13.19-.82,19.73-3.86,5-2.34,10.65-.86,16.09.57a58.17,58.17,0,0,0,6.74,1.5,77,77,0,0,0,8.12.51,70.73,70.73,0,0,1,9,.64l5.47.9c2.32.39,4.71.79,7.07,1.15,1.78.27,3.6.56,5.36.85,6.78,1.09,13.8,2.23,20.71,2.3,11.47.12,23,2.89,34.21,5.57,2.63.63,5.35,1.29,8,1.89Zm-.6-2.33c-2.51-.71-5.08-1.48-7.56-2.22-10.49-3.13-21.34-6.36-32.18-6.68a156.52,156.52,0,0,1-20.35-2.44c-2.58-.43-5.25-.87-7.85-1.24-2.29-.33-4.61-.69-6.86-1-2.45-.38-5-.77-7.49-1.13a77.18,77.18,0,0,0-8.54-.57,75.26,75.26,0,0,1-8.7-.6,49.37,49.37,0,0,1-6.3-1.52c-5.14-1.47-10.46-3-14.94-.52-6,3.34-11.71,3.83-18.28,4.4l-2.21.2,0-.4,2.21-.19c6.53-.57,12.17-1.06,18.12-4.36,4.63-2.56,10-1,15.25.49a50.33,50.33,0,0,0,6.25,1.51,76.64,76.64,0,0,0,8.65.59,78.4,78.4,0,0,1,8.59.57c2.5.36,5,.75,7.49,1.13,2.25.35,4.57.71,6.86,1,2.6.38,5.27.82,7.85,1.24a154.67,154.67,0,0,0,20.3,2.44c10.9.32,21.77,3.56,32.28,6.7,2.49.74,5.06,1.51,7.56,2.21Zm-.27-2.35c-2.39-.82-4.84-1.71-7.21-2.56-9.86-3.58-20.06-7.28-30.39-7.8a163.48,163.48,0,0,1-20.37-2.8c-3.14-.57-6.38-1.15-9.54-1.63q-3.17-.48-6.31-1c-3.13-.49-6.37-1-9.56-1.46a74.59,74.59,0,0,0-8.66-.55,73.67,73.67,0,0,1-8.74-.56,48,48,0,0,1-6-1.47c-4.86-1.41-9.89-2.87-14.18-.26-.7.43-1.34.91-2,1.37a13.31,13.31,0,0,1-4,2.3A43.13,43.13,0,0,1,99,289.88c-1.54.12-3,.23-4.32.4l-.06-.39c1.34-.18,2.8-.29,4.34-.41a42.64,42.64,0,0,0,9.1-1.34,12.68,12.68,0,0,0,3.85-2.24c.63-.47,1.28-.95,2-1.39,4.44-2.7,9.56-1.22,14.5.22a46.46,46.46,0,0,0,6,1.45,73,73,0,0,0,8.7.56,75.72,75.72,0,0,1,8.71.55c3.19.46,6.43,1,9.56,1.47l6.31,1c3.16.48,6.41,1.07,9.55,1.63a161.11,161.11,0,0,0,20.32,2.8c10.39.53,20.61,4.23,30.51,7.82,2.36.86,4.81,1.74,7.2,2.56Zm0-2.35c-2.26-.92-4.57-1.91-6.8-2.86-4.1-1.75-8.33-3.56-12.46-5.06-5.62-2-10-3.51-15.67-3.89a170.27,170.27,0,0,1-21.4-3.33c-3.58-.71-7.28-1.45-10.89-2l-5.78-1c-3.59-.6-7.3-1.23-11-1.78a67.15,67.15,0,0,0-9.32-.56,78,78,0,0,1-8-.37,43.12,43.12,0,0,1-6.44-1.49c-4.6-1.31-9.37-2.66-13.26-.71a15,15,0,0,0-3,2.22,12.43,12.43,0,0,1-4.1,2.69A42.77,42.77,0,0,1,98.2,286c-1.55.19-3,.36-4.37.59l-.06-.39c1.35-.24,2.82-.41,4.38-.59a43.1,43.1,0,0,0,8.67-1.6,12.35,12.35,0,0,0,4-2.61,15.65,15.65,0,0,1,3.12-2.28c4-2,8.87-.64,13.55.69a42.71,42.71,0,0,0,6.37,1.47,77.18,77.18,0,0,0,8,.37,68,68,0,0,1,9.38.56c3.66.56,7.37,1.18,11,1.79l5.77,1c3.62.59,7.33,1.33,10.91,2a171.6,171.6,0,0,0,21.35,3.32c5.69.39,10.12,1.87,15.77,3.92,4.14,1.5,8.38,3.31,12.48,5.06,2.24,1,4.55,1.94,6.8,2.86Zm.23-2.34c-2.22-1.05-4.5-2.19-6.71-3.29-3.91-1.94-8-3.95-11.9-5.62-4.78-2-9.29-3.92-15.17-4.47a181.63,181.63,0,0,1-21.42-3.81c-4-.87-8.11-1.77-12.14-2.49l-5-.91c-4.17-.76-8.49-1.55-12.74-2.22a65.45,65.45,0,0,0-9.9-.58c-2.58,0-5.25,0-7.93-.32a40.81,40.81,0,0,1-6.4-1.41c-4.64-1.28-9.44-2.59-13.27-.46a14.18,14.18,0,0,0-3,2.44,12.32,12.32,0,0,1-4,2.95A42.19,42.19,0,0,1,96.93,282c-1.58.24-3.07.47-4.42.75l-.09-.39c1.37-.29,2.86-.51,4.45-.75a42.43,42.43,0,0,0,8.66-1.91,12,12,0,0,0,3.9-2.87,14.52,14.52,0,0,1,3.08-2.5c4-2.21,8.85-.87,13.56.42a40.57,40.57,0,0,0,6.34,1.4c2.66.28,5.32.3,7.9.32a66.29,66.29,0,0,1,9.95.59c4.26.67,8.58,1.45,12.75,2.21l5,.91c4,.72,8.17,1.63,12.16,2.5a178.76,178.76,0,0,0,21.37,3.8c5.94.56,10.48,2.48,15.29,4.5,4,1.67,8,3.69,11.92,5.63,2.2,1.1,4.48,2.24,6.71,3.29Zm.44-2.32c-2.27-1.21-4.59-2.51-6.84-3.77-3.66-2-7.45-4.16-11.14-6l-.52-.25c-4.68-2.32-8.72-4.33-14-5-7.14-.87-14.36-2.45-21.35-4-4.7-1-9.56-2.09-14.34-2.93-1.43-.24-2.86-.5-4.29-.75-2.94-.52-5.94-1-8.95-1.55-2.65-.15-5.32-.29-8-.39-1.84-.07-3.77-.06-5.63-.06-5.14,0-10.45,0-15.29-1.4a36.38,36.38,0,0,1-4.5-1.84l-1.54-.7c-3-.58-6-.6-8.53,1.07a15.08,15.08,0,0,0-2.67,2.41,11.42,11.42,0,0,1-4.08,3.15,43.9,43.9,0,0,1-8.34,2c-1.6.28-3.1.54-4.48.87l-.09-.39c1.38-.33,2.9-.6,4.5-.88a43.45,43.45,0,0,0,8.26-2,10.94,10.94,0,0,0,3.93-3.05,15.65,15.65,0,0,1,2.75-2.48,10.49,10.49,0,0,1,7.26-1.37c-3.08-1.28-6.22-2.15-8.68-1a8.07,8.07,0,0,0-3,2.59,7.93,7.93,0,0,1-4.08,3,39.51,39.51,0,0,1-7.66,1.19c-1.52.14-3,.28-4.27.49l-.06-.4c1.32-.21,2.76-.34,4.29-.49a39.23,39.23,0,0,0,7.58-1.17,7.43,7.43,0,0,0,3.89-2.92,8.6,8.6,0,0,1,3.16-2.69c3-1.36,6.85.05,10.45,1.65,1.57.31,3.16.75,4.73,1.2a43.36,43.36,0,0,0,5.58,1.32,72.73,72.73,0,0,0,9.4.48,70.76,70.76,0,0,1,10.11.57c1.68.26,3.36.53,5,.81l7.1.43,4.12.26a354.86,354.86,0,0,1,37,4.3c5.89,1,10.19,3,16.08,6.32,3.46,2,7,4.1,10.41,6.17,2.47,1.49,5,3,7.51,4.48l-.2.35c-2.5-1.46-5.05-3-7.51-4.49-3.42-2.06-7-4.2-10.41-6.16-5.85-3.33-10.12-5.31-15.94-6.28a356.93,356.93,0,0,0-37-4.29l-4.11-.26L158,274c1.8.31,3.59.62,5.35.94l4.29.75c4.79.84,9.65,1.9,14.36,2.93,7,1.53,14.19,3.1,21.31,4,5.36.66,9.43,2.67,14.15,5l.51.26c3.71,1.83,7.5,3.95,11.17,6,2.24,1.26,4.57,2.56,6.83,3.77Zm-93.77-25c1.47,0,2.94,0,4.37.06s2.84.12,4.26.19l-1.36-.21a69.93,69.93,0,0,0-10-.57,72.09,72.09,0,0,1-9.46-.49,42.49,42.49,0,0,1-5.63-1.33c-.94-.26-1.89-.53-2.83-.77a35.52,35.52,0,0,0,4.25,1.74c4.79,1.4,10.07,1.39,15.18,1.38Zm95.11,20.53c-2.62-1.49-5.29-3.06-7.87-4.57-3.65-2.15-7.44-4.37-11.13-6.42-6-3.33-10.71-5.45-16.83-6.4-12.05-1.88-25-3.74-38.32-4.65l-3.35-.23c-5.39-.38-11-.77-16.45-1-1.68-.06-3.42-.08-5.1-.09-5.23-.05-10.65-.09-15.64-1.67a29.91,29.91,0,0,1-4.35-2c-3.75-2-8-4.2-11-2.65a7,7,0,0,0-2.69,2.61,7,7,0,0,1-3.74,3.1,33,33,0,0,1-7.41,1.2c-1.45.13-2.82.25-4,.45l-.07-.4c1.19-.2,2.57-.32,4-.45a32,32,0,0,0,7.31-1.18,6.56,6.56,0,0,0,3.54-3,7.47,7.47,0,0,1,2.83-2.74c3.18-1.64,7.52.64,11.36,2.66a30,30,0,0,0,4.28,2c4.93,1.56,10.32,1.6,15.53,1.65,1.68,0,3.42,0,5.1.09,5.5.22,11.08.61,16.47,1L163,271c6.57.45,13.07,1.13,19.42,1.93-2.21-.42-4.42-.86-6.6-1.29-5.08-1-10.34-2.07-15.5-2.81l-2-.28c-6.1-.88-12.4-1.78-18.63-2.43-1.86-.19-3.83-.29-5.73-.39-4.21-.21-8.56-.42-12.46-1.66a30.33,30.33,0,0,1-4.52-2.12c-4-2.09-8.43-4.47-11.5-2.54a6.64,6.64,0,0,0-2.38,2.69,6,6,0,0,1-3.66,3.22,33,33,0,0,1-7,1.29c-1.45.16-2.83.32-4,.55l-.08-.39c1.2-.24,2.58-.39,4-.56a32,32,0,0,0,6.9-1.27,5.63,5.63,0,0,0,3.45-3A6.82,6.82,0,0,1,105.3,259c3.26-2.05,7.85.38,11.89,2.53a30.49,30.49,0,0,0,4.47,2.09c3.84,1.22,8.16,1.44,12.35,1.64,1.91.1,3.88.2,5.75.39,6.24.65,12.55,1.56,18.65,2.43l2,.28c5.17.74,10.43,1.79,15.52,2.81a199.33,199.33,0,0,0,21.81,3.55c6.58.58,12.32,2.31,19.84,6l7,3.42c4.5,2.2,9,4.42,13.52,6.6l-.18.36c-4.49-2.18-9-4.4-13.51-6.6l-7-3.42a65.74,65.74,0,0,0-10.81-4.3,59.27,59.27,0,0,1,11.75,5.27c3.7,2.05,7.49,4.27,11.15,6.42,2.58,1.52,5.24,3.09,7.86,4.58Zm-36.83-18,1.06.16.28.05C201.17,275.59,200.72,275.52,200.27,275.46Zm38.34,13.36c-2.32-1.14-4.68-2.27-7-3.36-4.87-2.32-9.9-4.72-14.71-7.38a51.52,51.52,0,0,0-20.73-6.41c-7.52-.72-15.14-2.5-22.51-4.22-4.85-1.13-9.87-2.3-14.79-3.15l-1.15-.2c-6.24-1.08-12.7-2.2-19.08-3-2-.26-4.2-.38-6.29-.5a49.17,49.17,0,0,1-11.73-1.6,29,29,0,0,1-4.48-2.08c-4-2.08-8.42-4.44-11.44-2.38a6.38,6.38,0,0,0-2.29,2.89,6,6,0,0,1-3.57,3.5,32.4,32.4,0,0,1-7,1.53c-1.47.22-2.86.43-4,.71l-.09-.39c1.2-.29,2.59-.49,4.07-.71a32.5,32.5,0,0,0,6.87-1.51,5.55,5.55,0,0,0,3.36-3.3,6.73,6.73,0,0,1,2.42-3.05c3.22-2.2,7.81.22,11.86,2.36a30.46,30.46,0,0,0,4.4,2.05c3.62,1.13,7.7,1.36,11.64,1.58,2.1.12,4.27.25,6.32.51,6.39.81,12.85,1.92,19.1,3l1.15.2c4.93.86,9.95,2,14.81,3.16,7.36,1.72,15,3.5,22.46,4.21a52.06,52.06,0,0,1,20.88,6.46c4.8,2.65,9.83,5,14.7,7.37,2.28,1.09,4.65,2.22,7,3.36Zm.75-2.3c-2.42-1.29-4.91-2.54-7.31-3.74-4.82-2.42-9.8-4.91-14.46-7.83a48.32,48.32,0,0,0-20.5-7.37,188.6,188.6,0,0,1-23-4.64c-5.18-1.27-10.53-2.58-15.81-3.55l-.23,0c-6.48-1.18-13.17-2.41-19.79-3.29-2.23-.29-4.61-.42-6.9-.54a55.35,55.35,0,0,1-10.91-1.29,26.34,26.34,0,0,1-5.06-2.29c-3.95-2.1-8.44-4.48-11.58-2a6.19,6.19,0,0,0-2.09,3,5.5,5.5,0,0,1-3.54,3.64,30.39,30.39,0,0,1-6.57,1.66c-1.47.26-2.86.51-4.14.86l-.11-.39c1.3-.35,2.7-.6,4.18-.86A30.52,30.52,0,0,0,98,256.24a5.16,5.16,0,0,0,3.32-3.43,6.62,6.62,0,0,1,2.21-3.18c3.35-2.65,8-.2,12,2a26,26,0,0,0,5,2.25,55.11,55.11,0,0,0,10.83,1.28c2.3.12,4.68.25,6.93.55,6.63.88,13.33,2.1,19.81,3.29l.23,0c5.3,1,10.65,2.28,15.84,3.55a188.39,188.39,0,0,0,22.95,4.63,48.88,48.88,0,0,1,20.68,7.43c4.63,2.91,9.61,5.4,14.42,7.81,2.4,1.21,4.89,2.45,7.32,3.74Zm.75-2.31-8.43-4.77c-4.94-2.79-10-5.68-15-8.56-5.73-3.32-11.45-6.39-18.54-7.38s-14.51-2.6-21.54-4.14c-6.52-1.43-13.26-2.9-20-3.91l-.3,0c-6.66-1-13.54-2-20.34-2.73-1.93-.2-4-.27-6-.35-4.43-.16-9-.33-13-1.77a26,26,0,0,1-4.49-2.42c-3.7-2.28-7.52-4.64-10.64-1.89a6,6,0,0,0-1.63,2.71,5.41,5.41,0,0,1-3.38,3.78,29.25,29.25,0,0,1-6,1.51c-1.42.26-2.77.5-4,.86l-.11-.39c1.26-.36,2.68-.61,4-.86a29.62,29.62,0,0,0,5.9-1.49,5.06,5.06,0,0,0,3.16-3.55,6.31,6.31,0,0,1,1.73-2.87c2.44-2.15,5.3-1.38,8.08.07l-.38-.29c-3.25-2.55-6.94-5.45-9.73-2.77a5,5,0,0,0-1.35,2.52,5.26,5.26,0,0,1-2.75,3.66c-1.41.81-3.57,1.08-5.66,1.34a23.3,23.3,0,0,0-3.57.61l-.12-.38a24.53,24.53,0,0,1,3.65-.63c2-.25,4.16-.51,5.5-1.29a4.88,4.88,0,0,0,2.57-3.42,5.42,5.42,0,0,1,1.45-2.7c3-2.92,6.88.09,10.26,2.74a23.12,23.12,0,0,0,3.83,2.66c4.3,2,9.35,2.06,14.24,2.08,1.56,0,3,0,4.49.08,7.44.34,15.1,1.08,21.85,1.73,9.8.94,19.49,2.71,28.87,4.42,4.81.88,9.79,1.79,14.73,2.58,7.35,1.17,13.32,4.53,19.29,8.16,5.26,3.21,10.69,6.42,15.94,9.54l8.28,4.91-.2.35L232.58,277c-5.25-3.11-10.68-6.33-16-9.54-5.94-3.61-11.86-6.94-19.14-8.11-5-.79-9.93-1.69-14.74-2.57-9.37-1.71-19.06-3.48-28.84-4.42-6.75-.65-14.4-1.39-21.83-1.73-1.45-.07-2.92-.08-4.47-.08-4.29,0-8.71,0-12.67-1.41a15.33,15.33,0,0,0,2.19,1c4,1.43,8.52,1.59,12.92,1.75,2,.08,4,.15,6,.35,6.81.69,13.7,1.73,20.36,2.73l.3.05c6.72,1,13.47,2.49,20,3.92,7,1.53,14.3,3.12,21.52,4.13s12.92,4.09,18.68,7.44c5,2.88,10.05,5.76,15,8.55l8.43,4.77Zm1.49-4.61-7.9-4.91c-5.49-3.4-11.16-6.92-16.65-10.47-7.52-4.86-13.13-7.8-21.23-9.36-13.82-2.67-28.12-5.43-43.14-6.51-7.86-.57-15.56-1.09-23.38-1.19-1,0-2.1,0-3.12,0-5.05,0-10.26.08-14.89-2.5a25.1,25.1,0,0,1-3.53-2.69c-3.24-2.76-6.59-5.62-9.32-2.72a4.72,4.72,0,0,0-1.18,2.43,4.68,4.68,0,0,1-2.74,3.54,16.07,16.07,0,0,1-5.4,1.25,23.54,23.54,0,0,0-3.53.59l-.11-.38a23.23,23.23,0,0,1,3.59-.61,16.05,16.05,0,0,0,5.26-1.2,4.29,4.29,0,0,0,2.54-3.29,5,5,0,0,1,1.28-2.6c3-3.18,6.64-.06,9.87,2.68a24.71,24.71,0,0,0,3.47,2.65c4.53,2.53,9.69,2.49,14.68,2.45,1,0,2.09,0,3.14,0,7.82.1,15.53.62,23.4,1.19,15,1.08,29.35,3.84,43.19,6.52,8.16,1.57,13.8,4.52,21.36,9.42,5.49,3.55,11.16,7.06,16.65,10.46l7.91,4.91Zm.75-2.3c-5.22-3.51-9.87-6.48-14.19-9.07a67.28,67.28,0,0,1-6.34-4.49c-1.27-1-2.59-2-4-2.95-6.34-4.41-12.31-8.22-21.16-10.14-2.36-.51-4.69-1.09-6.95-1.65a122.43,122.43,0,0,0-14.52-2.95c-6.31-.78-12.85-1.36-20-1.77s-14.61-.8-22.17-.74l-2.27,0c-5.71.1-11.1.19-16.34-2.59a28.41,28.41,0,0,1-4-2.83c-3.68-2.93-7.49-5.95-10.71-3a5,5,0,0,0-1.41,2.54C98,239,97.6,240.3,95,241.23a29.65,29.65,0,0,1-5.9,1.16,39.63,39.63,0,0,0-4.11.66l-.09-.39A40.85,40.85,0,0,1,89,242a29.27,29.27,0,0,0,5.82-1.14c2.45-.86,2.78-2,3.16-3.25a5.41,5.41,0,0,1,1.53-2.72c3.47-3.2,7.59.08,11.23,3a28.18,28.18,0,0,0,3.91,2.79c5.15,2.73,10.49,2.64,16.14,2.54l2.27,0c7.59-.06,15.13.33,22.2.74s13.68,1,20,1.77a120.76,120.76,0,0,1,14.56,3c2.26.55,4.59,1.13,6.95,1.64,8.92,1.94,14.92,5.77,21.3,10.2,1.39,1,2.71,2,4,3a68.28,68.28,0,0,0,6.3,4.46c4.33,2.59,9,5.56,14.2,9.08Zm.75-2.31c-3.79-2.71-8.32-5.89-13.12-8.91a46.13,46.13,0,0,1-5.68-4.45,49.09,49.09,0,0,0-5.22-4.13l-.09-.06c-6.73-4.37-11.59-7.52-19.72-9.16-3-.6-5.89-1.36-8.73-2.1-3.76-1-7.65-2-11.62-2.62-6.11-1-12.5-1.73-19.54-2.34-6.4-.57-13.21-1.13-20-1.29-1.37,0-2.77,0-4.12,0-5.71,0-11.61,0-17-2.59a33,33,0,0,1-4.16-2.73c-4.16-3-9.33-6.71-12.3-4.42a7.57,7.57,0,0,0-2.28,3.17,5.68,5.68,0,0,1-4.4,3.83,49.89,49.89,0,0,1-6,1.06c-1.63.23-3.31.46-4.9.81l-.09-.39c1.61-.35,3.3-.59,4.93-.81a52.31,52.31,0,0,0,5.92-1.06,5.29,5.29,0,0,0,4.14-3.61,7.77,7.77,0,0,1,2.4-3.31c3.2-2.48,8.51,1.34,12.78,4.4a33.93,33.93,0,0,0,4.09,2.7c5.29,2.58,11.15,2.57,16.81,2.55,1.35,0,2.76,0,4.13,0,6.76.16,13.58.72,20,1.29,7.05.62,13.45,1.39,19.57,2.35a118.59,118.59,0,0,1,11.66,2.62c2.83.74,5.76,1.5,8.71,2.1,8.21,1.65,13.09,4.82,19.85,9.22l.09.06a48,48,0,0,1,5.27,4.16,46.64,46.64,0,0,0,5.63,4.41c4.81,3,9.34,6.21,13.14,8.93Zm.74-2.3c-4.47-3.46-9.25-7.12-14.27-10.43a29.71,29.71,0,0,1-4.72-4.14,35.85,35.85,0,0,0-3.83-3.51c-6.38-4.78-11.46-8.28-18.71-9.87-2.93-.64-5.82-1.47-8.62-2.27a110.22,110.22,0,0,0-11.09-2.75c-6.61-1.17-13.3-2.07-20.45-2.76-6.35-.61-13.73-1.28-21-1.43-1.1,0-2.19,0-3.29,0-5.49,0-11.17-.08-16.45-2.22A32.88,32.88,0,0,1,116,230c-4.69-3.22-10-6.88-13.41-4.07a9.52,9.52,0,0,0-2.19,2.85,7.78,7.78,0,0,1-3.49,3.62c-2.43,1.18-5.55,1.56-8.55,1.93-1.67.21-3.25.4-4.68.72l-.09-.39c1.45-.32,3-.52,4.72-.72,3-.37,6.05-.75,8.43-1.9a7.36,7.36,0,0,0,3.31-3.46,9.79,9.79,0,0,1,2.29-3c3.63-3,9.08.75,13.89,4a32.86,32.86,0,0,0,5.36,3.27c5.21,2.11,10.85,2.15,16.3,2.19,1.1,0,2.2,0,3.3,0,7.24.15,14.63.82,21,1.43,7.16.69,13.86,1.6,20.48,2.76a110.35,110.35,0,0,1,11.13,2.77c2.79.8,5.68,1.62,8.6,2.26,7.32,1.6,12.44,5.13,18.86,9.94a34.76,34.76,0,0,1,3.87,3.55,29.75,29.75,0,0,0,4.66,4.08c5,3.32,9.82,7,14.3,10.45Zm.75-2.31c-5.1-4.16-9.37-7.61-14-10.85a31.49,31.49,0,0,1-5-4.53,42.73,42.73,0,0,0-3.45-3.4c-5.24-4.43-11-8.91-18.21-10.66-3-.72-6-1.59-8.84-2.42a124,124,0,0,0-13.85-3.47c-5.84-1-12-1.8-18.73-2.44-6.61-.63-13.71-1.23-20.77-1.36-1.18,0-2.38,0-3.54,0-5.91,0-12,0-17.63-2.61a34.69,34.69,0,0,1-4.9-3.18c-4.18-3-9.39-6.8-12.91-4.87A7.25,7.25,0,0,0,100,224c-.84,1.62-1.71,3.29-3.73,4.23a30,30,0,0,1-8.43,2c-1.7.23-3.31.45-4.79.8l-.1-.39a48.78,48.78,0,0,1,4.84-.81,29.47,29.47,0,0,0,8.32-1.92c1.89-.88,2.72-2.5,3.53-4a7.6,7.6,0,0,1,2.92-3.61c3.74-2.05,9.06,1.8,13.34,4.89a33.35,33.35,0,0,0,4.83,3.15c5.53,2.56,11.59,2.56,17.46,2.57,1.16,0,2.37,0,3.55,0,7.07.13,14.18.73,20.8,1.36,6.78.65,12.91,1.45,18.76,2.45a124.2,124.2,0,0,1,13.89,3.47c2.86.84,5.82,1.7,8.83,2.42,7.33,1.78,13.09,6.28,18.36,10.75a42.14,42.14,0,0,1,3.5,3.42,30.38,30.38,0,0,0,4.89,4.48c4.68,3.25,9,6.7,14.06,10.87Zm.75-2.3c-4.11-3.47-9.22-7.78-14.42-11.51a32.69,32.69,0,0,1-5.06-4.79,44.66,44.66,0,0,0-3.56-3.6c-5.39-4.71-11.27-9.47-18.64-11.39-2.91-.75-5.76-1.63-8.52-2.47a118.18,118.18,0,0,0-14.52-3.79c-5.88-1-12-1.82-18.83-2.46-6.59-.62-13.69-1.2-20.89-1.29h-3.53c-5.93,0-12.07.06-17.69-2.6a33.51,33.51,0,0,1-4.84-3.22c-4.18-3.09-9.38-6.93-12.88-5-1.36.77-2,2.13-2.67,3.57-.79,1.68-1.61,3.42-3.63,4.42-2.42,1.2-5.47,1.65-8.42,2.1-1.71.26-3.33.5-4.81.88l-.1-.39c1.5-.38,3.13-.63,4.85-.89,2.92-.44,5.94-.89,8.3-2,1.9-.94,2.68-2.62,3.44-4.24s1.37-2.92,2.84-3.75c3.73-2.11,9,1.82,13.32,5a33.76,33.76,0,0,0,4.77,3.18c5.54,2.62,11.63,2.59,17.52,2.56h3.53c7.22.09,14.32.67,20.93,1.29,6.8.64,13,1.45,18.86,2.47a116.3,116.3,0,0,1,14.57,3.8c2.75.84,5.6,1.71,8.5,2.47,7.45,1.94,13.38,6.73,18.8,11.46a45.46,45.46,0,0,1,3.59,3.64,32.29,32.29,0,0,0,5,4.74c5.21,3.74,10.32,8.05,14.44,11.52Zm.75-2.3c-4.72-4.06-9.6-8.25-14.7-12a37.53,37.53,0,0,1-5.65-5.36c-1-1.1-2.06-2.24-3.23-3.35-1.34-1.27-2.78-2.44-4.17-3.57-1.56-1.27-3.18-2.58-4.67-4.05-2.68-2.65-6.4-3.66-10-4.64l-1.82-.5c-2.48-.72-4.92-1.52-7.28-2.29a105,105,0,0,0-14-3.91c-6.33-1.16-12.84-2-19.93-2.7-6.1-.56-13.29-1.15-20.42-1.24-1.29,0-2.57,0-3.82,0-6.41,0-12.45.09-18.44-2.94a31.65,31.65,0,0,1-4.33-3c-4-3.06-9-6.87-12.77-4.62a21.62,21.62,0,0,0-2.29,5.21,5,5,0,0,1-3.81,3,30.69,30.69,0,0,1-8.1,2.13c-1.72.3-3.35.58-4.84,1l-.11-.39a48.85,48.85,0,0,1,4.88-1,30.45,30.45,0,0,0,8-2.11l0,0a4.51,4.51,0,0,0,3.54-2.72,22.37,22.37,0,0,1,2.34-5.31l0,0,0,0c4-2.45,9.12,1.47,13.26,4.61a32.89,32.89,0,0,0,4.27,2.94c5.9,3,11.9,2.93,18.26,2.89,1.24,0,2.54,0,3.82,0,7.15.09,14.35.68,20.45,1.24,7.1.66,13.64,1.54,20,2.71a107.17,107.17,0,0,1,14.09,3.92c2.35.77,4.79,1.57,7.26,2.28l1.81.5c3.65,1,7.42,2,10.17,4.74,1.48,1.46,3.09,2.76,4.64,4,1.4,1.13,2.84,2.3,4.2,3.59,1.18,1.12,2.23,2.26,3.24,3.37a37.15,37.15,0,0,0,5.59,5.3c5.11,3.74,10,7.94,14.73,12Zm.75-2.31-.24-.22c-4.53-4.09-9.22-8.31-14.13-12.09a38.8,38.8,0,0,1-6.08-6c-.8-.93-1.62-1.88-2.62-2.94a31.13,31.13,0,0,0-6.59-4.71l-.07,0,0-.06a9.15,9.15,0,0,0-3.29-4.18c-2.86-2.53-6.55-3.57-10.12-4.57l-1.66-.47c-2.59-.76-5.12-1.63-7.56-2.47A93.66,93.66,0,0,0,181,221.87c-6.32-1.19-12.9-2.1-20.1-2.79-6.57-.64-14.35-1.28-22.22-1.31-1.13,0-2.28,0-3.39,0-5.28.07-10.74.15-15.86-1.91a31.35,31.35,0,0,1-5.5-3.56c-4.62-3.41-10.37-7.65-14-4.85a6.28,6.28,0,0,0-1.77,3.41c-.46,1.59-.94,3.23-2.43,4.23-2.39,1.62-6,2.24-9.55,2.84a46.14,46.14,0,0,0-5,1l-.12-.38a48.49,48.49,0,0,1,5.08-1.05c3.48-.59,7.08-1.2,9.4-2.77,1.37-.92,1.83-2.49,2.27-4s.82-2.78,1.91-3.61c3.89-3,9.78,1.35,14.51,4.84a30.58,30.58,0,0,0,5.41,3.51c5,2,10.46,1.95,15.71,1.88,1.11,0,2.26,0,3.39,0,7.89,0,15.68.68,22.26,1.31,7.21.69,13.8,1.6,20.13,2.79a96.67,96.67,0,0,1,13.52,3.9c2.44.84,5,1.71,7.54,2.46l1.66.47c3.61,1,7.35,2.07,10.26,4.64a9.5,9.5,0,0,1,3.38,4.28,31.71,31.71,0,0,1,6.63,4.75c1,1.07,1.83,2,2.64,2.95a37.23,37.23,0,0,0,6,5.92c4.92,3.79,9.61,8,14.14,12.12l.25.21Zm.75-2.3c-2.31-2.2-4.68-4.34-7-6.41-5.36-4.83-10.41-9.39-14.94-14.88a17,17,0,0,0-6.28-4.79l-.07,0,0-.07a14.77,14.77,0,0,0-4.21-5.47c-2.46-1.92-5.61-2.84-8.65-3.73l-1.14-.34c-2.79-.84-5.51-1.8-8.15-2.73A103.58,103.58,0,0,0,183,218.48c-6.45-1.29-13.12-2.29-20.37-3.07-7.74-.84-14.24-1.42-20.83-1.57-1.58,0-3.22,0-4.79,0-6,0-12.19.08-17.85-2.42a33.14,33.14,0,0,1-5-3.32c-4.93-3.62-11.06-8.14-14.47-4.68A6.65,6.65,0,0,0,98,206.82a6.05,6.05,0,0,1-2.73,4.26c-2.43,1.57-6,2.2-9.54,2.81A47.49,47.49,0,0,0,80.49,215l-.12-.38a48.79,48.79,0,0,1,5.27-1.11c3.46-.6,7-1.22,9.4-2.75a5.61,5.61,0,0,0,2.55-4,7,7,0,0,1,1.75-3.6c3.64-3.7,9.94.92,15,4.64a32.35,32.35,0,0,0,5,3.27c5.59,2.47,11.74,2.43,17.68,2.39,1.58,0,3.22,0,4.81,0,6.6.15,13.11.74,20.86,1.57,7.27.78,13.94,1.79,20.41,3.08a104.45,104.45,0,0,1,14.24,4.25c2.62.93,5.34,1.89,8.13,2.73l1.13.33c3.08.91,6.27,1.84,8.79,3.81a15.14,15.14,0,0,1,4.29,5.55,17.26,17.26,0,0,1,6.36,4.87c4.51,5.46,9.55,10,14.89,14.83,2.3,2.07,4.68,4.21,7,6.42Zm.74-2.31c-2.16-2.2-4.38-4.34-6.54-6.4-5.1-4.91-9.93-9.54-14.17-15.11a15.49,15.49,0,0,0-6-4.82l-.07,0,0-.07a13.67,13.67,0,0,0-3.86-5.51c-2.31-1.93-5.35-2.84-8.29-3.72l-1.06-.32c-2.88-.88-5.68-1.9-8.38-2.89a105.22,105.22,0,0,0-13.63-4.26c-6.54-1.42-13.29-2.54-20.64-3.43-6.76-.81-14-1.6-21.1-1.84-1.66,0-3.38,0-5,0-6.22,0-12.65,0-18.39-2.7a38.27,38.27,0,0,1-5-3.31c-5.37-3.87-12-8.69-15.72-5.14a7.05,7.05,0,0,0-1.85,3.47,6.42,6.42,0,0,1-3,4.3c-2.62,1.61-6.42,2.22-10.09,2.81a48.76,48.76,0,0,0-5.55,1.09l-.11-.39a53.26,53.26,0,0,1,5.59-1.1c3.64-.58,7.4-1.19,9.95-2.75a6,6,0,0,0,2.82-4.08,7.47,7.47,0,0,1,2-3.64c3.92-3.78,10.75,1.15,16.23,5.1a37.26,37.26,0,0,0,5,3.27c5.66,2.66,12,2.66,18.22,2.67,1.67,0,3.39,0,5,.05,7.12.24,14.37,1,21.14,1.85,7.36.89,14.12,2,20.68,3.43a104.39,104.39,0,0,1,13.67,4.27c2.71,1,5.5,2,8.37,2.89l1.06.32c3,.89,6,1.81,8.43,3.79a14.15,14.15,0,0,1,3.94,5.6,16,16,0,0,1,6.05,4.9c4.22,5.55,9,10.17,14.13,15.07,2.16,2.07,4.39,4.21,6.55,6.41Zm.75-2.31c-2.06-2.24-4.24-4.42-6.35-6.52-4.57-4.56-9.29-9.27-12.9-14.78a11,11,0,0,0-5.47-4.88l-.07,0,0-.07a24.18,24.18,0,0,0-3.45-5.53c-2.27-2.12-5.31-3.1-8.24-4.05l-.32-.1c-2.72-.88-5.37-1.88-7.95-2.84A102.4,102.4,0,0,0,191,213.41a216.4,216.4,0,0,0-22.11-3.89c-6.75-.85-14.72-1.75-22.68-2-1.33,0-2.67-.06-4-.07-6.64-.06-13.5-.13-19.77-3.39a45.62,45.62,0,0,1-5-3.38c-5.52-4-12.4-9.07-16.42-5A7.9,7.9,0,0,0,99.08,199a6.24,6.24,0,0,1-3.46,4.21c-2.86,1.45-6.63,2-10.28,2.53a56.87,56.87,0,0,0-6,1.08l-.1-.39a57.81,57.81,0,0,1,6.05-1.09c3.61-.52,7.35-1.06,10.15-2.49a5.85,5.85,0,0,0,3.26-4,8.3,8.3,0,0,1,2-3.51c4.26-4.29,11.3.85,17,5a45.75,45.75,0,0,0,5,3.35c6.18,3.21,13,3.28,19.58,3.34,1.3,0,2.65,0,4,.07,8,.22,16,1.12,22.72,2a220,220,0,0,1,22.15,3.9,104.85,104.85,0,0,1,13.39,4.35c2.56,1,5.22,2,7.93,2.84l.31.1c3,1,6.06,1.95,8.41,4.16a24.06,24.06,0,0,1,3.49,5.56,11.51,11.51,0,0,1,5.59,5c3.57,5.46,8.28,10.16,12.83,14.7,2.11,2.11,4.3,4.29,6.37,6.54Zm.75-2.3c-3.71-4.28-7.38-8.46-11.39-12.43a38.12,38.12,0,0,1-4.95-6.31c-.88-1.31-1.79-2.66-2.87-4l0,0a7.07,7.07,0,0,0-4-3.5l-.06,0,0-.05c-1.11-1.82-2.2-3.68-3.25-5.53-2.38-2.51-5.37-3.5-8.54-4.56l-.87-.29c-2.79-.94-5.51-2-8.14-3.05A111.61,111.61,0,0,0,192.81,210a226.17,226.17,0,0,0-22.65-4.65,246.88,246.88,0,0,0-24.94-2.82l-3.86-.15c-6.74-.23-13.7-.46-19.94-3.83a65.14,65.14,0,0,1-5.58-3.55c-1.13-.77-2.3-1.57-3.48-2.31l-.73-.46c-4.21-2.64-7.53-4.74-11.29-1.08a7.74,7.74,0,0,0-1.83,3.25c-.6,1.64-1.21,3.33-3.58,4.51-2.86,1.43-6.52,2.06-10.05,2.67a59.14,59.14,0,0,0-6.17,1.28l-.11-.39a61.09,61.09,0,0,1,6.21-1.28c3.51-.61,7.13-1.23,9.94-2.64,2.23-1.11,2.79-2.65,3.38-4.28a8.14,8.14,0,0,1,1.93-3.4c4-3.88,7.6-1.61,11.79,1l.73.45c1.18.74,2.35,1.55,3.49,2.32a63.3,63.3,0,0,0,5.54,3.52c6.16,3.33,13.07,3.56,19.77,3.79l3.86.15a244.42,244.42,0,0,1,25,2.83,227,227,0,0,1,22.69,4.65,112.9,112.9,0,0,1,12.93,4.48c2.63,1,5.35,2.1,8.13,3l.87.29c3.22,1.08,6.27,2.09,8.72,4.68l0,0c1,1.83,2.12,3.68,3.22,5.48a7.44,7.44,0,0,1,4.13,3.65c1.09,1.36,2,2.72,2.88,4a38.08,38.08,0,0,0,4.9,6.26c4,4,7.7,8.16,11.41,12.44Zm.75-2.3c-3.3-3.77-7.25-8.19-11.55-12.46-1.87-1.73-3.68-3.57-5.38-5.47l0-.05a39.82,39.82,0,0,0-3.56-6.38c-2-2.12-3.54-3.81-5.16-5.86l-1-.92,0-.06-.46-1c-2.07-2.68-5.3-3.7-8.43-4.69-.75-.23-1.53-.48-2.27-.74l-6.84-2.46c-12.15-4.39-23.62-8.54-36.33-11-7.16-1.42-14.88-2.83-22.78-3.6-2.11-.21-4.36-.31-6.52-.41-5.84-.27-11.87-.55-17.17-2.76a40.68,40.68,0,0,1-6.24-3.85c-5.58-3.86-12.52-8.66-16.4-5.09a9.3,9.3,0,0,0-2.36,4.12c-.69,1.92-1.39,3.91-4,5.23a40.48,40.48,0,0,1-9.74,2.87A61.62,61.62,0,0,0,78,198.88l-.12-.38A64.09,64.09,0,0,1,84.25,197c3.38-.71,6.87-1.43,9.65-2.84,2.46-1.25,3.11-3.07,3.8-5a9.77,9.77,0,0,1,2.47-4.29c4.12-3.78,11.2,1.12,16.9,5.06a39.51,39.51,0,0,0,6.17,3.81c5.23,2.18,11.23,2.46,17,2.73,2.18.1,4.42.21,6.55.41,7.92.77,15.65,2.19,22.82,3.61,12.74,2.52,24.23,6.67,36.39,11.06l6.83,2.46c.74.26,1.51.5,2.26.74,2.59.82,5.24,1.65,7.29,3.43l-.74-1.43c-2.37-2.59-5.92-3.62-9.36-4.63l-1-.29c-6.55-1.95-13-4.48-19.18-6.93-7.76-3.06-15.79-6.22-24.16-8.28a210.35,210.35,0,0,0-23.15-4.63c-2.18-.29-4.49-.46-6.73-.62-5.51-.4-11.22-.81-16.17-3a38.85,38.85,0,0,1-5.71-3.6c-5.09-3.58-11.43-8-15.73-5.68-1.75,1-2.35,2.88-3,4.9-.75,2.35-1.52,4.79-4.14,6.11a43.7,43.7,0,0,1-9.47,3c-2.2.53-4.47,1.07-6.48,1.78l-.14-.37a66.8,66.8,0,0,1,6.52-1.8,43.7,43.7,0,0,0,9.39-3c2.47-1.25,3.22-3.6,3.94-5.88.66-2.1,1.29-4.08,3.18-5.13,4.52-2.48,11,2.06,16.15,5.7a38.34,38.34,0,0,0,5.64,3.57c4.89,2.13,10.56,2.54,16,2.94,2.25.16,4.56.33,6.75.62a213.15,213.15,0,0,1,23.2,4.64c8.4,2.07,16.43,5.24,24.2,8.3,6.21,2.45,12.62,5,19.15,6.92l1,.29c3,.86,6.24,1.82,8.67,3.91l-.31-.6c-2.59-3.38-7.06-4.56-11-5.6l-.9-.23c-7.75-2.08-15.27-5.46-22.54-8.73a172.26,172.26,0,0,0-20.08-8,192.19,192.19,0,0,0-22.16-5.61c-2.48-.44-5.15-.69-7.73-.93-5.06-.48-10.29-1-14.82-2.89a38.43,38.43,0,0,1-5.43-3.36c-5.44-3.73-12.21-8.37-16.13-5.64-1.81,1.25-2.35,3.18-2.92,5.22-.68,2.39-1.38,4.87-4.19,6.38a45.43,45.43,0,0,1-9.54,3.29,65.33,65.33,0,0,0-6.56,2l-.14-.37a66.94,66.94,0,0,1,6.6-2,44.2,44.2,0,0,0,9.45-3.26c2.66-1.42,3.34-3.82,4-6.13.57-2,1.16-4.1,3.08-5.44,4.15-2.89,11,1.84,16.59,5.64a38.31,38.31,0,0,0,5.36,3.33c4.47,1.89,9.67,2.38,14.7,2.85,2.59.24,5.26.5,7.76.94a192.37,192.37,0,0,1,22.2,5.62,172.86,172.86,0,0,1,20.14,8c7.25,3.27,14.75,6.64,22.48,8.71l.89.24c4,1,8.54,2.25,11.23,5.76l.9,1.71a9.74,9.74,0,0,1,.74.93l.42.88a50.14,50.14,0,0,0,5.54,4.17l.06.05c1.49,2.09,2.91,4.27,4.2,6.5l6.22,5.44c3.95,3.52,8.14,7.53,13.2,12.61l-.29.28c-5-5.08-9.23-9.08-13.18-12.59-2.08-1.81-4.16-3.64-6.23-5.46l-.05-.05c-1.28-2.22-2.69-4.39-4.17-6.47a47.55,47.55,0,0,1-4.88-3.6l.18.38a1.13,1.13,0,0,0,.1.13c.45.63.9,1.21,1.33,1.76a42.49,42.49,0,0,0,4.56,3.58l.05.06c1.37,2.07,2.65,4.23,3.81,6.42,1.9,1.8,3.84,3.61,5.77,5.39,3.68,3.49,7.57,7.45,12.25,12.48l-.29.27c-4.68-5-8.56-9-12.24-12.45-1.93-1.79-3.88-3.61-5.79-5.42l0-.05c-1.16-2.18-2.43-4.33-3.79-6.39-1-.67-1.93-1.37-2.85-2.12,1.15,1.34,2.33,2.62,3.73,4.12a39.92,39.92,0,0,1,3.6,6.44c1.69,1.88,3.48,3.7,5.34,5.42,4.31,4.28,8.27,8.71,11.57,12.48Zm2.27-6.9c-5.17-5.14-9.46-9.19-13.5-12.75-2.12-1.87-4.3-3.72-6.47-5.51l0,0c-1.41-2.19-2.86-4.4-4.3-6.57a55.6,55.6,0,0,0-6.29-4.59l-.06,0,0-.07a11.52,11.52,0,0,0-3.89-5.56c-2.56-2-6-3-9.08-3.8l-.49-.13c-8.37-2.26-16.36-6.12-24.08-9.86a177.39,177.39,0,0,0-19.25-8.38,191.21,191.21,0,0,0-19.88-5.86,85.29,85.29,0,0,0-9.58-1.38c-5.31-.57-10.8-1.15-15.52-3.25a41.41,41.41,0,0,1-4.62-2.8c-5.51-3.62-13.06-8.57-16.61-5.23-1.63,1.54-2.13,3.46-2.61,5.32-.63,2.44-1.28,4.95-4.42,6.64a50.13,50.13,0,0,1-9.26,3.39,69.12,69.12,0,0,0-6.74,2.24l-.15-.37a67.31,67.31,0,0,1,6.78-2.25A49.47,49.47,0,0,0,92,180.84c3-1.6,3.59-3.92,4.22-6.38.5-1.91,1-3.9,2.73-5.51,3.78-3.56,11.48,1.49,17.1,5.18a38.53,38.53,0,0,0,4.56,2.77c4.66,2.08,10.12,2.66,15.4,3.22a85.67,85.67,0,0,1,9.62,1.39,190.76,190.76,0,0,1,19.93,5.87,177.45,177.45,0,0,1,19.3,8.4c7.7,3.73,15.67,7.58,24,9.84l.48.13c3.09.83,6.6,1.78,9.23,3.86a11.91,11.91,0,0,1,4,5.68,55.8,55.8,0,0,1,6.3,4.6l0,0c1.44,2.18,2.89,4.39,4.3,6.57,2.17,1.79,4.34,3.64,6.45,5.5,4,3.57,8.34,7.62,13.52,12.77Z"/></svg>