<svg id="Layer_1" data-name="Layer 1" xmlns="http://www.w3.org/2000/svg" viewBox="0 0 390 602.55"><defs><style>.cls-1{fill:#f3f4f3;}.cls-2{fill:#231f20;}.cls-3{fill:none;stroke:#ff0048;stroke-miterlimit:10;stroke-width:6px;}</style></defs><title>Artboard 1</title><rect class="cls-1" width="390" height="602.55"/><path class="cls-2" d="M45.16,98.31V59.22h14A17.36,17.36,0,0,1,68,61.4a14.37,14.37,0,0,1,5.79,6.53,25.24,25.24,0,0,1,2,10.83,25.29,25.29,0,0,1-2,10.84A14.34,14.34,0,0,1,68,96.12a17.26,17.26,0,0,1-8.85,2.19ZM52,92.2h7.17a10.29,10.29,0,0,0,5-1.15,7.67,7.67,0,0,0,3.28-3.47,13,13,0,0,0,1.15-5.74V75.68a13,13,0,0,0-1.15-5.77,7.75,7.75,0,0,0-3.28-3.44,10.4,10.4,0,0,0-5-1.15H52Z"/><path class="cls-2" d="M92.25,99A13.75,13.75,0,0,1,85,97.12a12.07,12.07,0,0,1-4.68-5.27,18.55,18.55,0,0,1-1.62-8,18.66,18.66,0,0,1,1.59-8,12,12,0,0,1,4.62-5.27,13.55,13.55,0,0,1,7.23-1.86,12.76,12.76,0,0,1,7.33,2A12.16,12.16,0,0,1,103.79,76a17.66,17.66,0,0,1,1.46,7.26v2.27H85.53v.83a7.47,7.47,0,0,0,1.88,5.28,7.19,7.19,0,0,0,5.52,2,8,8,0,0,0,4.48-1.16,11.58,11.58,0,0,0,3.08-2.93l3.69,3.9a12.49,12.49,0,0,1-4.79,4A15.72,15.72,0,0,1,92.25,99Zm-.11-25.15a6.83,6.83,0,0,0-3.47.88,5.92,5.92,0,0,0-2.32,2.46,8,8,0,0,0-.82,3.73v.38H98.3v-.55a8.48,8.48,0,0,0-.73-3.64,5.44,5.44,0,0,0-2.1-2.41A6.24,6.24,0,0,0,92.14,73.83Z"/><path class="cls-2" d="M118.63,99a15.1,15.1,0,0,1-7-1.46,16.57,16.57,0,0,1-5-4l4.14-3.92a12.35,12.35,0,0,0,3.61,3,9.42,9.42,0,0,0,4.51,1.07,6.36,6.36,0,0,0,3.86-.94A3.06,3.06,0,0,0,124,90.14a2.88,2.88,0,0,0-.87-2.19,5.34,5.34,0,0,0-3-1.1l-2.8-.39A18.18,18.18,0,0,1,112.19,85a7.67,7.67,0,0,1-3.33-2.81,7.85,7.85,0,0,1-1.15-4.38,8,8,0,0,1,3-6.67,12.39,12.39,0,0,1,7.9-2.39,19,19,0,0,1,4.79.53A11.93,11.93,0,0,1,127,70.84a16.69,16.69,0,0,1,2.88,2.49l-4,3.92a10.74,10.74,0,0,0-3-2.27,8.89,8.89,0,0,0-4.09-.92,5.71,5.71,0,0,0-3.5.88,2.82,2.82,0,0,0-1.15,2.36,2.75,2.75,0,0,0,1,2.3,7.26,7.26,0,0,0,3.17,1.16l2.85.38c3.21.45,5.57,1.38,7.06,2.78a7.44,7.44,0,0,1,2.24,5.67A8.69,8.69,0,0,1,129,94.51a9.21,9.21,0,0,1-4.09,3.3A15.37,15.37,0,0,1,118.63,99Z"/><path class="cls-2" d="M137.84,64.71a4,4,0,0,1-3-1,3.36,3.36,0,0,1-1-2.44v-1a3.29,3.29,0,0,1,1-2.46,5.15,5.15,0,0,1,6,0,3.36,3.36,0,0,1,.93,2.46v1a3.42,3.42,0,0,1-.93,2.44A4,4,0,0,1,137.84,64.71Zm-3.31,33.6V69.41h6.61v28.9Z"/><path class="cls-2" d="M173.12,100.76a8.59,8.59,0,0,1-1.52,5.16,9.2,9.2,0,0,1-4.84,3.18,28.9,28.9,0,0,1-8.71,1.08,29.87,29.87,0,0,1-7.81-.83,8.4,8.4,0,0,1-4.28-2.42,5.69,5.69,0,0,1-1.35-3.81A5.27,5.27,0,0,1,146,99.27a7,7,0,0,1,3.73-1.85v-.63a4.92,4.92,0,0,1-2.61-1.71,4.66,4.66,0,0,1-.92-2.88,4.07,4.07,0,0,1,1.57-3.46,9.06,9.06,0,0,1,3.69-1.64v-.22a9,9,0,0,1-3.94-3.37,9.21,9.21,0,0,1-1.38-5.07,9.36,9.36,0,0,1,1.38-5.1,9,9,0,0,1,4-3.4,15.67,15.67,0,0,1,6.47-1.2,18.93,18.93,0,0,1,2.77.19,12.74,12.74,0,0,1,2.38.59v-.88a4.77,4.77,0,0,1,1-3.28,3.72,3.72,0,0,1,3-1.16h4.54v5.21h-6.1V70.7A8.21,8.21,0,0,1,168.81,74a9.57,9.57,0,0,1,1.06,4.52,9.32,9.32,0,0,1-1.37,5,9,9,0,0,1-4,3.4A17.91,17.91,0,0,1,155.81,88c-.71-.09-1.36-.19-2-.3a6.19,6.19,0,0,0-1.68,1,2.1,2.1,0,0,0-.73,1.66,1.7,1.7,0,0,0,1,1.61,6.47,6.47,0,0,0,2.91.52h7.51c3.58,0,6.19.73,7.81,2.19A7.72,7.72,0,0,1,173.12,100.76Zm-6.22.78a2.8,2.8,0,0,0-1.17-2.37,7,7,0,0,0-4-.86h-9.85a3.46,3.46,0,0,0-1.38,1.44,4.36,4.36,0,0,0-.42,1.85,3.31,3.31,0,0,0,1.43,2.83c.95.7,2.55,1,4.79,1H160a10.75,10.75,0,0,0,5.23-1A3.19,3.19,0,0,0,166.9,101.54ZM158,83.47a6.24,6.24,0,0,0,4-1.14,4.1,4.1,0,0,0,1.4-3.39v-1a4.1,4.1,0,0,0-1.4-3.39,7.77,7.77,0,0,0-8.07,0,4.1,4.1,0,0,0-1.4,3.39v1a4.1,4.1,0,0,0,1.4,3.39A6.27,6.27,0,0,0,158,83.47Z"/><path class="cls-2" d="M181.57,98.31H175V69.41h6.61v4.87h.34a9.1,9.1,0,0,1,2.83-4,8.21,8.21,0,0,1,5.34-1.57A8.48,8.48,0,0,1,197,71.68c1.62,2,2.44,4.73,2.44,8.32V98.31h-6.61V80.76a8,8,0,0,0-1.23-4.84,4.61,4.61,0,0,0-3.92-1.64,8.29,8.29,0,0,0-2.92.53,5.42,5.42,0,0,0-2.29,1.58,3.92,3.92,0,0,0-.9,2.65Z"/><path class="cls-2" d="M208.45,64.71a4,4,0,0,1-3-1,3.4,3.4,0,0,1-.95-2.44v-1a3.33,3.33,0,0,1,.95-2.46,5.16,5.16,0,0,1,6,0,3.39,3.39,0,0,1,.92,2.46v1a3.46,3.46,0,0,1-.92,2.44A4,4,0,0,1,208.45,64.71Zm-3.3,33.6V69.41h6.61v28.9Z"/><path class="cls-2" d="M224.36,98.31h-6.61V69.41h6.61v4.87h.33a9.1,9.1,0,0,1,2.83-4,8.24,8.24,0,0,1,5.35-1.57,8.47,8.47,0,0,1,6.91,2.94q2.44,2.94,2.44,8.32V98.31h-6.61V80.76a8,8,0,0,0-1.23-4.84,4.59,4.59,0,0,0-3.92-1.64,8.2,8.2,0,0,0-2.91.53,5.39,5.39,0,0,0-2.3,1.58,3.92,3.92,0,0,0-.89,2.65Z"/><path class="cls-2" d="M273.92,100.76a8.59,8.59,0,0,1-1.52,5.16,9.2,9.2,0,0,1-4.84,3.18,28.9,28.9,0,0,1-8.71,1.08,29.81,29.81,0,0,1-7.81-.83,8.4,8.4,0,0,1-4.28-2.42,5.69,5.69,0,0,1-1.35-3.81,5.27,5.27,0,0,1,1.37-3.85,7,7,0,0,1,3.73-1.85v-.63a4.92,4.92,0,0,1-2.61-1.71A4.66,4.66,0,0,1,247,92.2a4.07,4.07,0,0,1,1.57-3.46,9,9,0,0,1,3.69-1.64v-.22a9,9,0,0,1-3.94-3.37,9.21,9.21,0,0,1-1.38-5.07,9.36,9.36,0,0,1,1.38-5.1,9,9,0,0,1,4-3.4,15.67,15.67,0,0,1,6.47-1.2,18.93,18.93,0,0,1,2.77.19,12.94,12.94,0,0,1,2.38.59v-.88a4.77,4.77,0,0,1,1-3.28,3.72,3.72,0,0,1,3-1.16h4.54v5.21h-6.1V70.7A8.19,8.19,0,0,1,269.6,74a9.46,9.46,0,0,1,1.07,4.52,9.32,9.32,0,0,1-1.37,5,9,9,0,0,1-4,3.4A17.91,17.91,0,0,1,256.61,88c-.71-.09-1.36-.19-2-.3a6.19,6.19,0,0,0-1.68,1,2.1,2.1,0,0,0-.73,1.66,1.7,1.7,0,0,0,1,1.61,6.44,6.44,0,0,0,2.91.52h7.51c3.58,0,6.19.73,7.81,2.19A7.76,7.76,0,0,1,273.92,100.76Zm-6.22.78a2.78,2.78,0,0,0-1.18-2.37,7,7,0,0,0-4-.86h-9.85a3.4,3.4,0,0,0-1.38,1.44,4.21,4.21,0,0,0-.42,1.85,3.31,3.31,0,0,0,1.43,2.83c.95.7,2.55,1,4.79,1h3.7a10.75,10.75,0,0,0,5.23-1A3.19,3.19,0,0,0,267.7,101.54Zm-8.9-18.07a6.26,6.26,0,0,0,4-1.14,4.1,4.1,0,0,0,1.4-3.39v-1a4.1,4.1,0,0,0-1.4-3.39,7.77,7.77,0,0,0-8.07,0,4.1,4.1,0,0,0-1.4,3.39v1a4.1,4.1,0,0,0,1.4,3.39A6.27,6.27,0,0,0,258.8,83.47Z"/><path class="cls-2" d="M76.57,154.31H69.41L66.1,144.06H51.88l-3.31,10.25H41.63l13.22-39.09h8.56ZM64.42,138.18,61,127.43l-1.85-5.94h-.28L57,127.43,53.5,138.18Z"/><path class="cls-2" d="M97.69,154.31v-4.82h-.23a7.87,7.87,0,0,1-3.08,4,8.73,8.73,0,0,1-5,1.49,10.75,10.75,0,0,1-6.27-1.78A11,11,0,0,1,79.15,148a22.31,22.31,0,0,1-1.34-8.19,22.07,22.07,0,0,1,1.34-8.16,11,11,0,0,1,3.92-5.16,10.82,10.82,0,0,1,6.27-1.77,9,9,0,0,1,5.07,1.45,7.51,7.51,0,0,1,3,4h.23V112.87h6.66v41.44Zm-6.28-4.88a8.4,8.4,0,0,0,3.22-.58,4.94,4.94,0,0,0,2.24-1.68,4.35,4.35,0,0,0,.82-2.65v-9.44a4,4,0,0,0-.82-2.53,5.36,5.36,0,0,0-2.24-1.66,8.22,8.22,0,0,0-3.22-.61,6.27,6.27,0,0,0-4.78,1.93,7.24,7.24,0,0,0-1.82,5.19v4.91a7.27,7.27,0,0,0,1.82,5.17A6.22,6.22,0,0,0,91.41,149.43Z"/><path class="cls-2" d="M128.54,154.31v-4.82h-.22a7.93,7.93,0,0,1-3.08,4,8.77,8.77,0,0,1-5,1.49,10.7,10.7,0,0,1-6.27-1.78A10.89,10.89,0,0,1,110,148a22.3,22.3,0,0,1-1.35-8.19,22.06,22.06,0,0,1,1.35-8.16,11,11,0,0,1,3.92-5.16,10.77,10.77,0,0,1,6.27-1.77,9,9,0,0,1,5.07,1.45,7.51,7.51,0,0,1,3,4h.22V112.87h6.67v41.44Zm-6.27-4.88a8.44,8.44,0,0,0,3.22-.58,5,5,0,0,0,2.24-1.68,4.35,4.35,0,0,0,.81-2.65v-9.44a4,4,0,0,0-.81-2.53,5.42,5.42,0,0,0-2.24-1.66,8.25,8.25,0,0,0-3.22-.61,6.3,6.3,0,0,0-4.79,1.93,7.28,7.28,0,0,0-1.82,5.19v4.91a7.31,7.31,0,0,0,1.82,5.17A6.24,6.24,0,0,0,122.27,149.43Z"/><path class="cls-2" d="M144.5,120.71a4,4,0,0,1-3-1,3.4,3.4,0,0,1-.95-2.44v-1a3.33,3.33,0,0,1,.95-2.46,5.16,5.16,0,0,1,6,0,3.39,3.39,0,0,1,.92,2.46v1a3.46,3.46,0,0,1-.92,2.44A4,4,0,0,1,144.5,120.71Zm-3.3,33.6v-28.9h6.6v28.9Z"/><path class="cls-2" d="M165.16,155q-6.37,0-9.85-4.11c-2.32-2.73-3.47-6.42-3.47-11s1.15-8.29,3.47-11,5.6-4.08,9.85-4.08a12.47,12.47,0,0,1,7.26,2,11.21,11.21,0,0,1,4.11,5.32l-5.43,2.46a6.13,6.13,0,0,0-2-3.11,6,6,0,0,0-3.9-1.2,5.83,5.83,0,0,0-4.76,2,7.85,7.85,0,0,0-1.62,5.16v5.19a7.92,7.92,0,0,0,1.62,5.11,5.77,5.77,0,0,0,4.76,2,6.08,6.08,0,0,0,4.12-1.34,9,9,0,0,0,2.38-3.36l5.1,2.52a11.61,11.61,0,0,1-4.4,5.63A12.89,12.89,0,0,1,165.16,155Z"/><path class="cls-2" d="M193.72,154.31h-5.2a7.13,7.13,0,0,1-5.24-1.8,6.74,6.74,0,0,1-1.82-5V130.73h-4.37v-5.32h2.3a2.63,2.63,0,0,0,2.15-.73,3.36,3.36,0,0,0,.59-2.18v-5.1h6v8h6v5.32h-6V149h5.6Z"/><path class="cls-2" d="M201.34,120.71a4,4,0,0,1-3-1,3.4,3.4,0,0,1-1-2.44v-1a3.33,3.33,0,0,1,1-2.46,4,4,0,0,1,3-.95,4,4,0,0,1,3,.95,3.36,3.36,0,0,1,.93,2.46v1a3.42,3.42,0,0,1-.93,2.44A4,4,0,0,1,201.34,120.71ZM198,154.31v-28.9h6.61v28.9Z"/><path class="cls-2" d="M222.11,155a13.32,13.32,0,0,1-7.11-1.86,12.37,12.37,0,0,1-4.67-5.27,18.12,18.12,0,0,1-1.66-8,17.88,17.88,0,0,1,1.66-8A12.44,12.44,0,0,1,215,126.6a14.58,14.58,0,0,1,14.25,0,12.46,12.46,0,0,1,4.65,5.21,18,18,0,0,1,1.65,8,18.26,18.26,0,0,1-1.65,8,12.39,12.39,0,0,1-4.65,5.27A13.23,13.23,0,0,1,222.11,155Zm0-5.43a6.29,6.29,0,0,0,4.74-1.83,7.33,7.33,0,0,0,1.76-5.29v-5.14a7.35,7.35,0,0,0-1.76-5.33,7.12,7.12,0,0,0-9.44,0,7.27,7.27,0,0,0-1.79,5.33v5.14a7.25,7.25,0,0,0,1.79,5.29A6.27,6.27,0,0,0,222.11,149.55Z"/><path class="cls-2" d="M246.19,154.31h-6.6v-28.9h6.6v4.87h.34a9.1,9.1,0,0,1,2.83-4,8.24,8.24,0,0,1,5.35-1.57,8.47,8.47,0,0,1,6.91,2.94q2.44,2.94,2.44,8.32v18.31h-6.61V136.76a8,8,0,0,0-1.23-4.84,4.59,4.59,0,0,0-3.92-1.64,8.2,8.2,0,0,0-2.91.53,5.39,5.39,0,0,0-2.3,1.58,3.92,3.92,0,0,0-.9,2.65Z"/><path class="cls-2" d="M70.19,210.31v-6H70a7.51,7.51,0,0,1-3.25,4.76A12.15,12.15,0,0,1,59.55,211a15.12,15.12,0,0,1-8.23-2.3,15.73,15.73,0,0,1-5.77-6.77,29.59,29.59,0,0,1,0-22.12,15.61,15.61,0,0,1,6.05-6.89,17.11,17.11,0,0,1,9-2.35,16.48,16.48,0,0,1,9,2.32,15.74,15.74,0,0,1,5.77,6.52l-5.6,3.31a10.36,10.36,0,0,0-3.36-4.37,9.38,9.38,0,0,0-5.77-1.68,10.27,10.27,0,0,0-5.21,1.29A8.74,8.74,0,0,0,52,181.66a13.15,13.15,0,0,0-1.23,6v6.27a13.11,13.11,0,0,0,1.23,6,8.66,8.66,0,0,0,3.5,3.73,10.73,10.73,0,0,0,5.4,1.28,11.61,11.61,0,0,0,4.32-.78,7.15,7.15,0,0,0,3.13-2.35,6.23,6.23,0,0,0,1.18-3.87v-2.8H61.68v-5.82H76.13v21.06Z"/><path class="cls-2" d="M88.5,210.31H81.89v-28.9H88.5v5.94h.28a9.71,9.71,0,0,1,1.4-2.92,7.19,7.19,0,0,1,2.58-2.18,8.44,8.44,0,0,1,3.92-.84h1.57v6.33H96a14,14,0,0,0-4.06.5,5.28,5.28,0,0,0-2.52,1.49,3.71,3.71,0,0,0-.87,2.54Z"/><path class="cls-2" d="M112.47,211a13.79,13.79,0,0,1-7.31-1.86,12.11,12.11,0,0,1-4.67-5.27,20.57,20.57,0,0,1,0-16,11.89,11.89,0,0,1,4.62-5.27,13.49,13.49,0,0,1,7.22-1.86,12.77,12.77,0,0,1,7.34,2A12.16,12.16,0,0,1,124,188a17.66,17.66,0,0,1,1.45,7.26v2.27H105.75v.83a7.47,7.47,0,0,0,1.88,5.28,7.18,7.18,0,0,0,5.51,2,8,8,0,0,0,4.48-1.16,11.43,11.43,0,0,0,3.08-2.93l3.7,3.9a12.49,12.49,0,0,1-4.79,4A15.72,15.72,0,0,1,112.47,211Zm-.11-25.15a6.8,6.8,0,0,0-3.47.88,5.94,5.94,0,0,0-2.33,2.46,8.14,8.14,0,0,0-.81,3.73v.38h12.77v-.55a8.48,8.48,0,0,0-.73-3.64,5.56,5.56,0,0,0-2.1-2.41A6.26,6.26,0,0,0,112.36,185.83Z"/><path class="cls-2" d="M141.09,211a13.77,13.77,0,0,1-7.31-1.86,12.07,12.07,0,0,1-4.68-5.27,20.69,20.69,0,0,1,0-16,12,12,0,0,1,4.62-5.27,13.55,13.55,0,0,1,7.23-1.86,12.74,12.74,0,0,1,7.33,2,12.16,12.16,0,0,1,4.37,5.24,17.66,17.66,0,0,1,1.46,7.26v2.27H134.37v.83a7.46,7.46,0,0,0,1.87,5.28,7.19,7.19,0,0,0,5.52,2,8,8,0,0,0,4.48-1.16,11.58,11.58,0,0,0,3.08-2.93l3.69,3.9a12.45,12.45,0,0,1-4.78,4A15.77,15.77,0,0,1,141.09,211ZM141,185.83a6.86,6.86,0,0,0-3.47.88,5.92,5.92,0,0,0-2.32,2.46,8.14,8.14,0,0,0-.81,3.73v.38h12.76v-.55a8.63,8.63,0,0,0-.72-3.64,5.56,5.56,0,0,0-2.1-2.41A6.3,6.3,0,0,0,141,185.83Z"/><path class="cls-2" d="M176.25,210.31v-4.82H176a7.87,7.87,0,0,1-3.08,4,8.77,8.77,0,0,1-5,1.49,10.72,10.72,0,0,1-6.27-1.78,10.89,10.89,0,0,1-3.92-5.18,22.3,22.3,0,0,1-1.35-8.19,22.06,22.06,0,0,1,1.35-8.16,11,11,0,0,1,3.92-5.16,10.79,10.79,0,0,1,6.27-1.77,9,9,0,0,1,5.07,1.45,7.51,7.51,0,0,1,3.05,4h.22V168.87h6.67v41.44ZM170,205.43a8.4,8.4,0,0,0,3.22-.58,5,5,0,0,0,2.24-1.68,4.35,4.35,0,0,0,.81-2.65v-9.44a4,4,0,0,0-.81-2.53,5.42,5.42,0,0,0-2.24-1.66,8.22,8.22,0,0,0-3.22-.61,6.31,6.31,0,0,0-4.79,1.93,7.28,7.28,0,0,0-1.82,5.19v4.91a7.31,7.31,0,0,0,1.82,5.17A6.26,6.26,0,0,0,170,205.43Z"/><path class="cls-2" d="M45.16,266.31V227.22h14A17.36,17.36,0,0,1,68,229.4a14.37,14.37,0,0,1,5.79,6.53,29.66,29.66,0,0,1,0,21.67A14.34,14.34,0,0,1,68,264.12a17.26,17.26,0,0,1-8.85,2.19ZM52,260.2h7.17a10.29,10.29,0,0,0,5-1.15,7.67,7.67,0,0,0,3.28-3.47,13,13,0,0,0,1.15-5.74v-6.16a13,13,0,0,0-1.15-5.77,7.75,7.75,0,0,0-3.28-3.44,10.4,10.4,0,0,0-5-1.15H52Z"/><path class="cls-2" d="M83.91,232.71a4,4,0,0,1-3-1,3.4,3.4,0,0,1-1-2.44v-1a3.33,3.33,0,0,1,1-2.46,5.16,5.16,0,0,1,6,0,3.39,3.39,0,0,1,.92,2.46v1a3.46,3.46,0,0,1-.92,2.44A4,4,0,0,1,83.91,232.71Zm-3.3,33.6v-28.9h6.6v28.9Z"/><path class="cls-2" d="M102.61,267a15.13,15.13,0,0,1-7-1.46,16.82,16.82,0,0,1-5-4l4.14-3.92a12.39,12.39,0,0,0,3.62,3,9.35,9.35,0,0,0,4.5,1.07,6.37,6.37,0,0,0,3.87-.94,3.05,3.05,0,0,0,1.23-2.58,2.88,2.88,0,0,0-.87-2.19,5.34,5.34,0,0,0-3-1.1l-2.79-.39A18.25,18.25,0,0,1,96.17,253a7.79,7.79,0,0,1-3.33-2.81,8.88,8.88,0,0,1,1.88-11.05,12.37,12.37,0,0,1,7.89-2.39,18.92,18.92,0,0,1,4.79.53,11.82,11.82,0,0,1,3.53,1.57,16,16,0,0,1,2.88,2.49l-4,3.92a10.65,10.65,0,0,0-3-2.27,8.82,8.82,0,0,0-4.08-.92,5.69,5.69,0,0,0-3.5.88,2.8,2.8,0,0,0-1.15,2.36,2.72,2.72,0,0,0,1,2.3,7.21,7.21,0,0,0,3.16,1.16l2.86.38q4.82.68,7,2.78a7.4,7.4,0,0,1,2.24,5.67,8.68,8.68,0,0,1-1.42,4.92,9.32,9.32,0,0,1-4.09,3.3A15.46,15.46,0,0,1,102.61,267Z"/><path class="cls-2" d="M118.52,266.31V224.87h6.6v17.41h.34a9.1,9.1,0,0,1,2.83-4,8.24,8.24,0,0,1,5.35-1.57,8.47,8.47,0,0,1,6.91,2.94Q143,242.62,143,248v18.31h-6.61V248.76a8,8,0,0,0-1.23-4.84,4.59,4.59,0,0,0-3.92-1.64,8.2,8.2,0,0,0-2.91.53,5.39,5.39,0,0,0-2.3,1.58,3.92,3.92,0,0,0-.9,2.65v19.27Z"/><path class="cls-2" d="M160.18,267a13.29,13.29,0,0,1-7.11-1.86,12.32,12.32,0,0,1-4.68-5.27,18.26,18.26,0,0,1-1.65-8,18,18,0,0,1,1.65-8,12.4,12.4,0,0,1,4.68-5.21,14.58,14.58,0,0,1,14.25,0,12.46,12.46,0,0,1,4.65,5.21,18,18,0,0,1,1.65,8,18.26,18.26,0,0,1-1.65,8,12.39,12.39,0,0,1-4.65,5.27A13.28,13.28,0,0,1,160.18,267Zm0-5.43a6.25,6.25,0,0,0,4.73-1.83,7.29,7.29,0,0,0,1.77-5.29v-5.14a7.31,7.31,0,0,0-1.77-5.33,7.1,7.1,0,0,0-9.43,0,7.23,7.23,0,0,0-1.79,5.33v5.14a7.21,7.21,0,0,0,1.79,5.29A6.27,6.27,0,0,0,160.18,261.55Z"/><path class="cls-2" d="M184.26,266.31h-6.61v-28.9h6.61v4.87h.34a9.08,9.08,0,0,1,2.82-4,8.26,8.26,0,0,1,5.35-1.57,8.49,8.49,0,0,1,6.92,2.94q2.43,2.94,2.43,8.32v18.31h-6.6V248.76a8,8,0,0,0-1.23-4.84,4.61,4.61,0,0,0-3.93-1.64,8.28,8.28,0,0,0-2.91.53,5.36,5.36,0,0,0-2.29,1.58,3.92,3.92,0,0,0-.9,2.65Z"/><path class="cls-2" d="M219.48,267a13.75,13.75,0,0,1-7.3-1.86,12.07,12.07,0,0,1-4.68-5.27,20.69,20.69,0,0,1,0-16,12,12,0,0,1,4.62-5.27,13.55,13.55,0,0,1,7.23-1.86,12.74,12.74,0,0,1,7.33,2A12.16,12.16,0,0,1,231,244a17.66,17.66,0,0,1,1.46,7.26v2.27H212.77v.83a7.46,7.46,0,0,0,1.87,5.28,7.19,7.19,0,0,0,5.52,2,8,8,0,0,0,4.48-1.16,11.58,11.58,0,0,0,3.08-2.93l3.69,3.9a12.41,12.41,0,0,1-4.79,4A15.72,15.72,0,0,1,219.48,267Zm-.11-25.15a6.86,6.86,0,0,0-3.47.88,5.92,5.92,0,0,0-2.32,2.46,8.14,8.14,0,0,0-.81,3.73v.38h12.76v-.55a8.63,8.63,0,0,0-.72-3.64,5.56,5.56,0,0,0-2.1-2.41A6.3,6.3,0,0,0,219.37,241.83Z"/><path class="cls-2" d="M245.86,267a15.1,15.1,0,0,1-7-1.46,16.57,16.57,0,0,1-5-4l4.14-3.92a12.35,12.35,0,0,0,3.61,3,9.42,9.42,0,0,0,4.51,1.07,6.34,6.34,0,0,0,3.86-.94,3,3,0,0,0,1.24-2.58,2.88,2.88,0,0,0-.87-2.19,5.34,5.34,0,0,0-3-1.1l-2.8-.39a18.18,18.18,0,0,1-5.15-1.47,7.67,7.67,0,0,1-3.33-2.81,7.85,7.85,0,0,1-1.15-4.38,8,8,0,0,1,3-6.67,12.39,12.39,0,0,1,7.9-2.39,19,19,0,0,1,4.79.53,11.93,11.93,0,0,1,3.53,1.57,16.69,16.69,0,0,1,2.88,2.49l-4,3.92a10.6,10.6,0,0,0-3-2.27,8.86,8.86,0,0,0-4.09-.92,5.71,5.71,0,0,0-3.5.88,2.82,2.82,0,0,0-1.15,2.36,2.75,2.75,0,0,0,1,2.3,7.26,7.26,0,0,0,3.17,1.16l2.85.38q4.83.68,7.06,2.78a7.44,7.44,0,0,1,2.24,5.67,8.61,8.61,0,0,1-1.43,4.92,9.21,9.21,0,0,1-4.09,3.3A15.37,15.37,0,0,1,245.86,267Z"/><path class="cls-2" d="M275.15,266.31h-5.21a7.15,7.15,0,0,1-5.24-1.8,6.74,6.74,0,0,1-1.82-5V242.73h-4.36v-5.32h2.29a2.64,2.64,0,0,0,2.16-.73,3.42,3.42,0,0,0,.59-2.18v-5.1h6v8h6.05v5.32h-6.05V261h5.6Z"/><path class="cls-2" d="M291.89,253l5.49-15.63h6.27l-12,34.42a11,11,0,0,1-1.65,3.26,5.71,5.71,0,0,1-2.49,1.83,10.86,10.86,0,0,1-3.87.59h-3.92v-5.32h5.16l1.51-5.21-10.53-29.57h6.61L287.86,253l1.79,6.55H290Z"/><path class="cls-2" d="M76.57,322.31H69.41L66.1,312.06H51.88l-3.31,10.25H41.63l13.22-39.09h8.56ZM64.42,306.18,61,295.43l-1.85-5.94h-.28L57,295.43,53.5,306.18Z"/><path class="cls-2" d="M86.09,322.31h-6.6v-28.9h6.6v4.87h.34a9.1,9.1,0,0,1,2.83-4,8.24,8.24,0,0,1,5.35-1.57,8.47,8.47,0,0,1,6.91,2.94Q104,298.62,104,304v18.31H97.35V304.76a8,8,0,0,0-1.23-4.84,4.59,4.59,0,0,0-3.92-1.64,8.2,8.2,0,0,0-2.91.53,5.39,5.39,0,0,0-2.3,1.58,3.92,3.92,0,0,0-.9,2.65Z"/><path class="cls-2" d="M106.48,322.31l10.13-14.65-9.85-14.25h7.61l6.28,9.82h.22l6.27-9.82h7.11l-9.91,14.25,10.08,14.65h-7.61l-6.5-10.21h-.17l-6.61,10.21Z"/><path class="cls-2" d="M140.52,288.71a4,4,0,0,1-3-1,3.36,3.36,0,0,1-1-2.44v-1a3.3,3.3,0,0,1,1-2.46,5.15,5.15,0,0,1,6,0,3.35,3.35,0,0,1,.92,2.46v1a3.42,3.42,0,0,1-.92,2.44A4,4,0,0,1,140.52,288.71Zm-3.3,33.6v-28.9h6.61v28.9Z"/><path class="cls-2" d="M161.47,323a13.77,13.77,0,0,1-7.31-1.86,12.14,12.14,0,0,1-4.68-5.27,20.63,20.63,0,0,1,0-16,11.89,11.89,0,0,1,4.62-5.27,13.49,13.49,0,0,1,7.22-1.86,12.79,12.79,0,0,1,7.34,2A12.14,12.14,0,0,1,173,300a17.66,17.66,0,0,1,1.46,7.26v2.27H154.75v.83a7.46,7.46,0,0,0,1.87,5.28,7.2,7.2,0,0,0,5.52,2,8,8,0,0,0,4.48-1.16,11.58,11.58,0,0,0,3.08-2.93l3.7,3.9a12.56,12.56,0,0,1-4.79,4A15.77,15.77,0,0,1,161.47,323Zm-.11-25.15a6.87,6.87,0,0,0-3.48.88,6,6,0,0,0-2.32,2.46,8.14,8.14,0,0,0-.81,3.73v.38h12.77v-.55a8.63,8.63,0,0,0-.73-3.64,5.56,5.56,0,0,0-2.1-2.41A6.29,6.29,0,0,0,161.36,297.83Z"/><path class="cls-2" d="M192.27,322.31h-5.21a7.15,7.15,0,0,1-5.24-1.8,6.74,6.74,0,0,1-1.82-5V298.73h-4.36v-5.32h2.29a2.64,2.64,0,0,0,2.16-.73,3.42,3.42,0,0,0,.59-2.18v-5.1h6v8h6.05v5.32h-6.05V317h5.6Z"/><path class="cls-2" d="M209,309l5.49-15.63h6.27l-12,34.42a11,11,0,0,1-1.65,3.26,5.71,5.71,0,0,1-2.49,1.83,10.86,10.86,0,0,1-3.87.59H196.8v-5.32H202l1.51-5.21-10.53-29.57h6.61L205,309l1.79,6.55h.34Z"/><path class="cls-2" d="M60.84,378.31H43.48v-5.55h5.26v-28H43.48v-5.54H60.84v5.54H55.57v28h5.27Z"/><path class="cls-2" d="M74.84,379a15.1,15.1,0,0,1-7-1.46,16.57,16.57,0,0,1-5-4L67,369.63a12.35,12.35,0,0,0,3.61,3,9.42,9.42,0,0,0,4.51,1.07,6.36,6.36,0,0,0,3.86-.94,3.06,3.06,0,0,0,1.24-2.58,2.88,2.88,0,0,0-.87-2.19,5.34,5.34,0,0,0-3-1.1l-2.8-.39A18.18,18.18,0,0,1,68.4,365a7.67,7.67,0,0,1-3.33-2.81,7.85,7.85,0,0,1-1.15-4.38,8,8,0,0,1,3-6.67,12.39,12.39,0,0,1,7.9-2.39,19,19,0,0,1,4.79.53,11.93,11.93,0,0,1,3.53,1.57A16.69,16.69,0,0,1,86,353.33l-4,3.92A10.74,10.74,0,0,0,79,355a8.89,8.89,0,0,0-4.09-.92,5.71,5.71,0,0,0-3.5.88,2.82,2.82,0,0,0-1.15,2.36,2.75,2.75,0,0,0,1,2.3,7.26,7.26,0,0,0,3.17,1.16l2.85.38c3.21.45,5.57,1.38,7.06,2.78a7.44,7.44,0,0,1,2.24,5.67,8.69,8.69,0,0,1-1.43,4.92,9.21,9.21,0,0,1-4.09,3.3A15.37,15.37,0,0,1,74.84,379Z"/><path class="cls-2" d="M102.22,379a13.32,13.32,0,0,1-7.11-1.86,12.3,12.3,0,0,1-4.67-5.27,18.12,18.12,0,0,1-1.66-8,17.88,17.88,0,0,1,1.66-8,12.37,12.37,0,0,1,4.67-5.21,14.58,14.58,0,0,1,14.25,0,12.46,12.46,0,0,1,4.65,5.21,18,18,0,0,1,1.65,8,18.26,18.26,0,0,1-1.65,8,12.39,12.39,0,0,1-4.65,5.27A13.23,13.23,0,0,1,102.22,379Zm0-5.43a6.25,6.25,0,0,0,4.73-1.83,7.29,7.29,0,0,0,1.77-5.29v-5.14A7.31,7.31,0,0,0,107,356a7.1,7.1,0,0,0-9.43,0,7.23,7.23,0,0,0-1.79,5.33v5.14a7.21,7.21,0,0,0,1.79,5.29A6.27,6.27,0,0,0,102.22,373.55Z"/><path class="cls-2" d="M130.28,378.31h-3.87a6.67,6.67,0,0,1-5.06-1.74,6.75,6.75,0,0,1-1.66-4.87V336.87h6.61V373h4Z"/><path class="cls-2" d="M158.5,378.31h-3.69a5.38,5.38,0,0,1-2.86-.76,4.8,4.8,0,0,1-1.88-2.18,8.09,8.09,0,0,1-.64-3.34v-.61l1.74,1.9h-2a7,7,0,0,1-3.06,4.23,10,10,0,0,1-5.46,1.43q-4.53,0-7-2.37a8.25,8.25,0,0,1-2.43-6.2,8,8,0,0,1,1.45-4.9,8.85,8.85,0,0,1,4.26-2.95,20.35,20.35,0,0,1,6.77-1h5.1v-2.19a5.36,5.36,0,0,0-1.34-3.89,6,6,0,0,0-4.37-1.37,7.31,7.31,0,0,0-4.12,1.07,9.76,9.76,0,0,0-2.66,2.66l-3.92-3.55a11.87,11.87,0,0,1,4.17-4,13.83,13.83,0,0,1,7-1.55c3.84,0,6.79.88,8.84,2.66a9.37,9.37,0,0,1,3.08,7.52V373h3Zm-9.63-12.6h-4.82a8.53,8.53,0,0,0-4.5.94,3.05,3.05,0,0,0-1.49,2.76v1a3.18,3.18,0,0,0,1.26,2.71,5.52,5.52,0,0,0,3.39.94,8.8,8.8,0,0,0,3.16-.52,5.16,5.16,0,0,0,2.19-1.5,3.51,3.51,0,0,0,.81-2.35Z"/><path class="cls-2" d="M175.58,378.31h-5.21a7.13,7.13,0,0,1-5.23-1.8,6.7,6.7,0,0,1-1.82-5V354.73H159v-5.32h2.3a2.63,2.63,0,0,0,2.15-.73,3.42,3.42,0,0,0,.59-2.18v-5.1h6v8H176v5.32H170V373h5.6Z"/><path class="cls-2" d="M183.2,344.71a4,4,0,0,1-3-1,3.36,3.36,0,0,1-.95-2.44v-1a3.29,3.29,0,0,1,.95-2.46,5.15,5.15,0,0,1,6,0,3.36,3.36,0,0,1,.93,2.46v1a3.42,3.42,0,0,1-.93,2.44A4,4,0,0,1,183.2,344.71Zm-3.31,33.6v-28.9h6.61v28.9Z"/><path class="cls-2" d="M204,379a13.32,13.32,0,0,1-7.11-1.86,12.3,12.3,0,0,1-4.67-5.27,18.12,18.12,0,0,1-1.66-8,17.88,17.88,0,0,1,1.66-8,12.37,12.37,0,0,1,4.67-5.21,14.58,14.58,0,0,1,14.25,0,12.46,12.46,0,0,1,4.65,5.21,18,18,0,0,1,1.65,8,18.26,18.26,0,0,1-1.65,8,12.39,12.39,0,0,1-4.65,5.27A13.23,13.23,0,0,1,204,379Zm0-5.43a6.25,6.25,0,0,0,4.73-1.83,7.29,7.29,0,0,0,1.77-5.29v-5.14A7.31,7.31,0,0,0,208.7,356a7.1,7.1,0,0,0-9.43,0,7.23,7.23,0,0,0-1.79,5.33v5.14a7.21,7.21,0,0,0,1.79,5.29A6.27,6.27,0,0,0,204,373.55Z"/><path class="cls-2" d="M228.05,378.31h-6.61v-28.9h6.61v4.87h.34a9.1,9.1,0,0,1,2.83-4,8.21,8.21,0,0,1,5.34-1.57,8.48,8.48,0,0,1,6.92,2.94c1.62,2,2.44,4.73,2.44,8.32v18.31h-6.61V360.76a8,8,0,0,0-1.23-4.84,4.61,4.61,0,0,0-3.92-1.64,8.29,8.29,0,0,0-2.92.53,5.42,5.42,0,0,0-2.29,1.58,3.92,3.92,0,0,0-.9,2.65Z"/><path class="cls-2" d="M69,434.31V417.56H52v16.75H45.16V395.22H52v16.29H69V395.22H75.9v39.09Z"/><path class="cls-2" d="M93.82,435a13.32,13.32,0,0,1-7.11-1.86A12.39,12.39,0,0,1,82,427.85a18.26,18.26,0,0,1-1.65-8,18,18,0,0,1,1.65-8,12.46,12.46,0,0,1,4.68-5.21,14.58,14.58,0,0,1,14.25,0,12.46,12.46,0,0,1,4.65,5.21,18,18,0,0,1,1.65,8,18.26,18.26,0,0,1-1.65,8,12.39,12.39,0,0,1-4.65,5.27A13.28,13.28,0,0,1,93.82,435Zm0-5.43a6.25,6.25,0,0,0,4.73-1.83,7.29,7.29,0,0,0,1.77-5.29v-5.14A7.31,7.31,0,0,0,98.55,412a7.1,7.1,0,0,0-9.43,0,7.23,7.23,0,0,0-1.79,5.33v5.14a7.21,7.21,0,0,0,1.79,5.29A6.27,6.27,0,0,0,93.82,429.55Z"/><path class="cls-2" d="M111.29,445.51v-40.1h6.61v4.82h.28a7.52,7.52,0,0,1,3-4,8.94,8.94,0,0,1,5.09-1.45,10.77,10.77,0,0,1,6.27,1.77,11,11,0,0,1,3.92,5.16,22.06,22.06,0,0,1,1.35,8.16,22.3,22.3,0,0,1-1.35,8.19,10.89,10.89,0,0,1-3.92,5.18A10.7,10.7,0,0,1,126.3,435a8.73,8.73,0,0,1-5.07-1.49,8,8,0,0,1-3-4h-.28v16Zm12.94-16.08a6.26,6.26,0,0,0,4.79-1.95,7.31,7.31,0,0,0,1.82-5.17V417.4a7.28,7.28,0,0,0-1.82-5.19,6.31,6.31,0,0,0-4.79-1.93,8.28,8.28,0,0,0-3.19.61,5.63,5.63,0,0,0-2.3,1.66,3.92,3.92,0,0,0-.84,2.53v9.44a4.24,4.24,0,0,0,.84,2.65,5.17,5.17,0,0,0,2.3,1.68A8.46,8.46,0,0,0,124.23,429.43Z"/><path class="cls-2" d="M153.8,435a13.77,13.77,0,0,1-7.31-1.86,12.14,12.14,0,0,1-4.68-5.27,20.63,20.63,0,0,1,0-16,11.89,11.89,0,0,1,4.62-5.27,13.49,13.49,0,0,1,7.22-1.86,12.79,12.79,0,0,1,7.34,2,12.14,12.14,0,0,1,4.36,5.24,17.66,17.66,0,0,1,1.46,7.26v2.27H147.08v.83a7.46,7.46,0,0,0,1.87,5.28,7.19,7.19,0,0,0,5.52,2,8,8,0,0,0,4.48-1.16,11.58,11.58,0,0,0,3.08-2.93l3.7,3.9a12.56,12.56,0,0,1-4.79,4A15.77,15.77,0,0,1,153.8,435Zm-.11-25.15a6.87,6.87,0,0,0-3.48.88,6,6,0,0,0-2.32,2.46,8.14,8.14,0,0,0-.81,3.73v.38h12.77v-.55a8.63,8.63,0,0,0-.73-3.64,5.56,5.56,0,0,0-2.1-2.41A6.29,6.29,0,0,0,153.69,409.83Z"/><line class="cls-3" x1="36.52" y1="138.81" x2="272.54" y2="139"/><line class="cls-3" x1="36.52" y1="195.04" x2="190.5" y2="194.5"/><line class="cls-3" x1="36.52" y1="250.99" x2="308" y2="250.99"/><line class="cls-3" x1="36.52" y1="306.94" x2="226.13" y2="306.94"/><line class="cls-3" x1="36.52" y1="362.9" x2="253.95" y2="362.9"/><path d="M267,559H271v6.06a2.35,2.35,0,0,1-.31,1.24,2.07,2.07,0,0,1-.85.81,2.72,2.72,0,0,1-1.28.28,2.3,2.3,0,0,1-1.6-.54,2.54,2.54,0,0,1-.77-1.42l1.05-.23a1.64,1.64,0,0,0,.43.85,1.22,1.22,0,0,0,.91.33,1.2,1.2,0,0,0,.93-.36,1.55,1.55,0,0,0,.34-1.11V560H267Z"/><path d="M275.05,567.41a2.75,2.75,0,0,1-1.48-.39,2.57,2.57,0,0,1-1-1.11,4.35,4.35,0,0,1,0-3.37A2.56,2.56,0,0,1,275,561a2.47,2.47,0,0,1,2.35,1.47,3.64,3.64,0,0,1,.32,1.53v.46H273.4v.25a1.8,1.8,0,0,0,.45,1.26,1.64,1.64,0,0,0,1.28.49,1.87,1.87,0,0,0,1-.26,1.74,1.74,0,0,0,.65-.74l.72.6a2.48,2.48,0,0,1-.95.95A2.92,2.92,0,0,1,275.05,567.41Zm0-5.49a1.62,1.62,0,0,0-.86.22,1.6,1.6,0,0,0-.57.61,1.86,1.86,0,0,0-.21.89v.09h3.15v-.12a2,2,0,0,0-.18-.89,1.45,1.45,0,0,0-.53-.59A1.52,1.52,0,0,0,275,561.92Z"/><path d="M280.07,567.27H279v-6.1h1.1v1.17h.06a1.77,1.77,0,0,1,.31-.57,1.65,1.65,0,0,1,.57-.43,1.93,1.93,0,0,1,.84-.17h.36v1.08h-.53a2.49,2.49,0,0,0-.87.13,1.16,1.16,0,0,0-.55.35.73.73,0,0,0-.19.52Z"/><path d="M285.51,567.41A2.75,2.75,0,0,1,284,567a2.57,2.57,0,0,1-1-1.11,4.35,4.35,0,0,1,0-3.37A2.56,2.56,0,0,1,285.5,561a2.47,2.47,0,0,1,2.35,1.47,3.64,3.64,0,0,1,.32,1.53v.46h-4.31v.25a1.8,1.8,0,0,0,.45,1.26,1.64,1.64,0,0,0,1.28.49,1.87,1.87,0,0,0,1-.26,1.8,1.8,0,0,0,.65-.74l.72.6a2.48,2.48,0,0,1-.95.95A2.92,2.92,0,0,1,285.51,567.41Zm0-5.49a1.62,1.62,0,0,0-.86.22,1.6,1.6,0,0,0-.57.61,1.86,1.86,0,0,0-.21.89v.09H287v-.12a1.89,1.89,0,0,0-.19-.89,1.36,1.36,0,0,0-.52-.59A1.52,1.52,0,0,0,285.5,561.92Z"/><path d="M290.53,567.27h-1.1v-6.1h1.1v1h.05a2,2,0,0,1,.56-.81,1.56,1.56,0,0,1,1.08-.34,2.1,2.1,0,0,1,1.11.3,1.67,1.67,0,0,1,.73.95h0a1.9,1.9,0,0,1,.63-.88A2,2,0,0,1,296,561a1.83,1.83,0,0,1,1.45.61,2.65,2.65,0,0,1,.52,1.73v3.9h-1.09v-3.73a1.91,1.91,0,0,0-.3-1.16,1.13,1.13,0,0,0-.95-.39,1.84,1.84,0,0,0-.66.12,1.13,1.13,0,0,0-.51.37,1,1,0,0,0-.19.61v4.18h-1.09v-3.73a1.87,1.87,0,0,0-.3-1.16,1.1,1.1,0,0,0-.93-.39,1.84,1.84,0,0,0-.66.12,1.16,1.16,0,0,0-.52.37,1,1,0,0,0-.19.61Z"/><path d="M302,565l1.38-3.83h1.05l-2.66,7.44a2.3,2.3,0,0,1-.31.61,1,1,0,0,1-.45.32,2.52,2.52,0,0,1-.75.1h-.59v-.93h1l.41-1.3-2.25-6.24h1.08l1.37,3.83.31,1.1h.06Z"/><path d="M307.94,567.27V559h2.82a3.49,3.49,0,0,1,1.82.46,3,3,0,0,1,1.19,1.37,6.51,6.51,0,0,1,0,4.6,3,3,0,0,1-1.19,1.37,3.59,3.59,0,0,1-1.82.45Zm1.14-1h1.68a2.29,2.29,0,0,0,1.16-.29,2,2,0,0,0,.77-.84,2.82,2.82,0,0,0,.28-1.33v-1.32a2.93,2.93,0,0,0-.28-1.35,1.94,1.94,0,0,0-.77-.83,2.29,2.29,0,0,0-1.16-.28h-1.68Z"/><path d="M316.27,567.41a.75.75,0,0,1-.58-.21.73.73,0,0,1-.19-.52v-.16a.69.69,0,0,1,.77-.75.68.68,0,0,1,.78.75v.16a.77.77,0,0,1-.18.52A.78.78,0,0,1,316.27,567.41Z"/><path d="M324.29,567.41a3.33,3.33,0,0,1-1.81-.48,3,3,0,0,1-1.17-1.41,6.09,6.09,0,0,1-.4-2.33,6.21,6.21,0,0,1,.4-2.34,3.21,3.21,0,0,1,1.17-1.47,3.25,3.25,0,0,1,1.81-.5,3,3,0,0,1,2.89,1.83l-.95.55a2.34,2.34,0,0,0-.71-1,2.16,2.16,0,0,0-2.82.35,3.1,3.1,0,0,0-.57,2v1.24a2.93,2.93,0,0,0,.57,1.9,2,2,0,0,0,1.59.69,2,2,0,0,0,1.27-.4,2.39,2.39,0,0,0,.75-1l.91.56a3.26,3.26,0,0,1-1.14,1.39A3.16,3.16,0,0,1,324.29,567.41Z"/><path d="M328.37,567.27v-8.74h1.1v3.65h0a2,2,0,0,1,.62-.83,1.75,1.75,0,0,1,1.1-.32,1.91,1.91,0,0,1,1.49.61,2.59,2.59,0,0,1,.53,1.73v3.9h-1.08v-3.73a1.8,1.8,0,0,0-.32-1.16,1.19,1.19,0,0,0-1-.39,1.92,1.92,0,0,0-.69.12,1.19,1.19,0,0,0-.53.36,1,1,0,0,0-.2.62v4.18Z"/><path d="M337.26,567.41a2.75,2.75,0,0,1-1.48-.39,2.57,2.57,0,0,1-1-1.11,4.35,4.35,0,0,1,0-3.37,2.56,2.56,0,0,1,2.44-1.51,2.47,2.47,0,0,1,2.35,1.47,3.64,3.64,0,0,1,.32,1.53v.46h-4.31v.25a1.8,1.8,0,0,0,.45,1.26,1.64,1.64,0,0,0,1.28.49,1.87,1.87,0,0,0,1-.26,1.74,1.74,0,0,0,.65-.74l.72.6a2.48,2.48,0,0,1-.95.95A2.92,2.92,0,0,1,337.26,567.41Zm0-5.49a1.62,1.62,0,0,0-.86.22,1.6,1.6,0,0,0-.57.61,1.86,1.86,0,0,0-.21.89v.09h3.15v-.12a2,2,0,0,0-.18-.89,1.45,1.45,0,0,0-.53-.59A1.52,1.52,0,0,0,337.25,561.92Z"/><path d="M342.28,567.27h-1.1v-6.1h1.1v1.17h.06a1.77,1.77,0,0,1,.31-.57,1.65,1.65,0,0,1,.57-.43,1.93,1.93,0,0,1,.84-.17h.36v1.08h-.53a2.49,2.49,0,0,0-.87.13,1.16,1.16,0,0,0-.55.35.73.73,0,0,0-.19.52Z"/><path d="M346.46,567.27h-1.1v-6.1h1.1v1.17h.06a1.8,1.8,0,0,1,.32-.57,1.53,1.53,0,0,1,.56-.43,2,2,0,0,1,.85-.17h.35v1.08h-.53a2.49,2.49,0,0,0-.87.13,1.22,1.22,0,0,0-.55.35.77.77,0,0,0-.19.52Z"/><path d="M351.94,565l1.38-3.83h1.05l-2.66,7.44a2.3,2.3,0,0,1-.31.61,1,1,0,0,1-.45.32,2.52,2.52,0,0,1-.75.1h-.59v-.93h1l.41-1.3-2.25-6.24h1.08l1.37,3.83.31,1.1h.06Z"/><path d="M48.6,472.05a3.79,3.79,0,0,1-2.1-.56,3.49,3.49,0,0,1-1.34-1.68,7.14,7.14,0,0,1-.47-2.75,7.34,7.34,0,0,1,.47-2.78A3.48,3.48,0,0,1,48.6,462a3.53,3.53,0,0,1,2,.56,3.65,3.65,0,0,1,1.3,1.56l-.91.55a2.68,2.68,0,0,0-.91-1.22,2.68,2.68,0,0,0-3.53.47,4,4,0,0,0-.72,2.49v1.4a3.73,3.73,0,0,0,.72,2.42,2.45,2.45,0,0,0,2,.88,2.53,2.53,0,0,0,1.59-.49,2.91,2.91,0,0,0,.93-1.29l.9.55a3.94,3.94,0,0,1-1.33,1.62A3.6,3.6,0,0,1,48.6,472.05Z"/><path d="M54.4,471.89H53.33v-7.23H54.4V466h.07a1.91,1.91,0,0,1,.39-.65,2.05,2.05,0,0,1,.68-.49,2.6,2.6,0,0,1,1-.18H57v1h-.64a3,3,0,0,0-1,.17,1.62,1.62,0,0,0-.68.45,1,1,0,0,0-.23.65Z"/><path d="M60.72,472.05a3,3,0,0,1-2.83-1.78,5.2,5.2,0,0,1,0-4A3,3,0,0,1,59,465a3.06,3.06,0,0,1,1.69-.47,2.86,2.86,0,0,1,2.73,1.7,4.32,4.32,0,0,1,.38,1.84v.51H58.61v.34a2.35,2.35,0,0,0,.57,1.61,2,2,0,0,0,1.6.64,2.15,2.15,0,0,0,1.22-.34,2.21,2.21,0,0,0,.8-1l.77.55a3,3,0,0,1-1.09,1.2A3.21,3.21,0,0,1,60.72,472.05Zm0-6.67a2,2,0,0,0-1.09.29,1.85,1.85,0,0,0-.74.8,2.46,2.46,0,0,0-.27,1.17v.1h4.06v-.15a2.64,2.64,0,0,0-.24-1.16,1.89,1.89,0,0,0-.68-.77A1.91,1.91,0,0,0,60.71,465.38Z"/><path d="M71.14,471.89h-.67a1.15,1.15,0,0,1-.69-.19,1,1,0,0,1-.38-.49,2.09,2.09,0,0,1-.12-.74v-.14l.4.38h-.46a1.92,1.92,0,0,1-.78,1,2.46,2.46,0,0,1-1.33.34,2.5,2.5,0,0,1-1.77-.58,2,2,0,0,1-.64-1.59,1.9,1.9,0,0,1,.33-1.14,2.08,2.08,0,0,1,1-.72,4.92,4.92,0,0,1,1.72-.25h1.47V467a1.61,1.61,0,0,0-.43-1.22,1.78,1.78,0,0,0-1.3-.42,2,2,0,0,0-1.1.3,2.3,2.3,0,0,0-.75.8l-.65-.59a2.67,2.67,0,0,1,.93-1,2.91,2.91,0,0,1,1.62-.42,3,3,0,0,1,2,.64,2.28,2.28,0,0,1,.73,1.79v4h.85Zm-1.92-3.32H67.7a2.78,2.78,0,0,0-1.43.29,1,1,0,0,0-.45.84v.3a1,1,0,0,0,.41.84,1.73,1.73,0,0,0,1.06.3,2.57,2.57,0,0,0,1-.17,1.78,1.78,0,0,0,.69-.48,1.07,1.07,0,0,0,.25-.7Z"/><path d="M75.26,471.89h-1.4a1,1,0,0,1-.84-.33,1.13,1.13,0,0,1-.3-.81v-5.16h-1.2v-.93h.7a.63.63,0,0,0,.47-.14.75.75,0,0,0,.13-.5v-1.36h1v2h1.58v.93H73.79V471h1.47Z"/><path d="M77.3,462.91a.65.65,0,0,1-.5-.17.61.61,0,0,1-.16-.43v-.17a.57.57,0,0,1,.66-.61.65.65,0,0,1,.5.16.64.64,0,0,1,.16.45v.17a.57.57,0,0,1-.16.43A.62.62,0,0,1,77.3,462.91Zm-.53,9v-7.23h1.06v7.23Z"/><path d="M80.9,471.89H79.83v-7.23H80.9v1.16h0a2.41,2.41,0,0,1,.75-1,2.14,2.14,0,0,1,1.31-.37,2.26,2.26,0,0,1,1.77.72,2.88,2.88,0,0,1,.65,2v4.65H84.37v-4.45a2.29,2.29,0,0,0-.42-1.5,1.55,1.55,0,0,0-1.25-.49,2.53,2.53,0,0,0-.87.15,1.49,1.49,0,0,0-.67.47,1.18,1.18,0,0,0-.26.79Z"/><path d="M93.41,472.75a1.79,1.79,0,0,1-.39,1.18,2.26,2.26,0,0,1-1.17.7,7.1,7.1,0,0,1-1.94.22,6.56,6.56,0,0,1-1.81-.2,2.08,2.08,0,0,1-1-.59,1.44,1.44,0,0,1-.32-.93,1.29,1.29,0,0,1,.31-.91,1.83,1.83,0,0,1,.87-.48v-.13a1.19,1.19,0,0,1-.49-.41,1.17,1.17,0,0,1,.18-1.44,2.25,2.25,0,0,1,.89-.44v-.05a2.36,2.36,0,0,1-1-.9,2.52,2.52,0,0,1-.35-1.35,2.6,2.6,0,0,1,.33-1.33,2.31,2.31,0,0,1,1-.88,3,3,0,0,1,1.42-.32,4.32,4.32,0,0,1,.74.07,2.55,2.55,0,0,1,.64.23v-.17a1.11,1.11,0,0,1,.19-.65.72.72,0,0,1,.61-.26h1.11v.92H91.76v.49a2.42,2.42,0,0,1,.6.82,2.82,2.82,0,0,1-.12,2.39,2.25,2.25,0,0,1-.94.89,3.1,3.1,0,0,1-1.43.31,2.17,2.17,0,0,1-.36,0l-.35-.05a2.75,2.75,0,0,0-.67.31.62.62,0,0,0-.3.55.45.45,0,0,0,.3.45,2.23,2.23,0,0,0,.81.12h1.57a3.1,3.1,0,0,1,1.93.49A1.66,1.66,0,0,1,93.41,472.75Zm-1,.07a.83.83,0,0,0-.34-.68,2,2,0,0,0-1.19-.25H88.49a1.15,1.15,0,0,0-.56.39,1,1,0,0,0-.17.58,1,1,0,0,0,.38.8,1.86,1.86,0,0,0,1.24.33h1a3.16,3.16,0,0,0,1.48-.29A.94.94,0,0,0,92.41,472.82Zm-2.54-4.13a1.75,1.75,0,0,0,1.16-.36,1.42,1.42,0,0,0,.42-1.12v-.4a1.36,1.36,0,0,0-.42-1.1,1.75,1.75,0,0,0-1.16-.36,1.78,1.78,0,0,0-1.17.36,1.36,1.36,0,0,0-.42,1.1v.4a1.42,1.42,0,0,0,.42,1.12A1.78,1.78,0,0,0,89.87,468.69Z"/><path d="M99.88,472.05a2.86,2.86,0,0,1-2.36-1,4.92,4.92,0,0,1,0-5.53,3.27,3.27,0,0,1,4.06-.55,2.83,2.83,0,0,1,1,1.2l-.89.45a1.73,1.73,0,0,0-.67-.87,2,2,0,0,0-1.11-.31,1.91,1.91,0,0,0-1.55.63,2.41,2.41,0,0,0-.52,1.62v1.19a2.45,2.45,0,0,0,.52,1.61,1.91,1.91,0,0,0,1.55.64,2.09,2.09,0,0,0,2-1.26l.77.51a2.85,2.85,0,0,1-1,1.22A3,3,0,0,1,99.88,472.05Z"/><path d="M106.52,472.05a3,3,0,0,1-1.69-.47,3.11,3.11,0,0,1-1.14-1.31,5.08,5.08,0,0,1,0-4,3,3,0,0,1,1.14-1.31,3.27,3.27,0,0,1,3.38,0,3,3,0,0,1,1.14,1.31,5,5,0,0,1,0,4,3.11,3.11,0,0,1-1.14,1.31A3,3,0,0,1,106.52,472.05Zm0-.93a2.07,2.07,0,0,0,1.52-.59,2.41,2.41,0,0,0,.58-1.76v-1A2.43,2.43,0,0,0,108,466a2.1,2.1,0,0,0-1.52-.58A2.07,2.07,0,0,0,105,466a2.35,2.35,0,0,0-.59,1.75v1a2.33,2.33,0,0,0,.59,1.76A2,2,0,0,0,106.52,471.12Z"/><path d="M112.29,471.89h-1.07v-7.23h1.07v1.16h0a2.73,2.73,0,0,1,.68-.93,1.82,1.82,0,0,1,1.28-.4,2.62,2.62,0,0,1,1.33.35,2,2,0,0,1,.88,1.12h0a2.21,2.21,0,0,1,.74-1,2.26,2.26,0,0,1,1.47-.45,2.16,2.16,0,0,1,1.73.72,3,3,0,0,1,.62,2v4.65h-1v-4.45a2.41,2.41,0,0,0-.4-1.49,1.44,1.44,0,0,0-1.23-.5,2.41,2.41,0,0,0-.85.15,1.45,1.45,0,0,0-.64.47,1.28,1.28,0,0,0-.24.79v5h-1.07v-4.45a2.49,2.49,0,0,0-.38-1.5,1.44,1.44,0,0,0-1.21-.49,2.4,2.4,0,0,0-.84.15,1.45,1.45,0,0,0-.66.47,1.22,1.22,0,0,0-.25.79Z"/><path d="M123,474.69v-10h1.07v1.16h0a2.07,2.07,0,0,1,.83-1,2.46,2.46,0,0,1,1.3-.33,2.72,2.72,0,0,1,1.57.46,2.83,2.83,0,0,1,1,1.3,5.82,5.82,0,0,1,0,4,2.86,2.86,0,0,1-1,1.31,2.65,2.65,0,0,1-1.57.46,2.29,2.29,0,0,1-1.28-.34,2.48,2.48,0,0,1-.85-1h0v4Zm3-3.59a2,2,0,0,0,1.53-.62,2.3,2.3,0,0,0,.56-1.61v-1.19a2.29,2.29,0,0,0-.56-1.62,2,2,0,0,0-1.53-.61,2.3,2.3,0,0,0-.95.19,1.71,1.71,0,0,0-.69.5,1.1,1.1,0,0,0-.26.74v2.72a1.22,1.22,0,0,0,.26.8,1.66,1.66,0,0,0,.69.52A2.47,2.47,0,0,0,126,471.1Z"/><path d="M136.57,471.89h-.67a1.1,1.1,0,0,1-.68-.19,1,1,0,0,1-.39-.49,2.09,2.09,0,0,1-.12-.74v-.14l.41.38h-.46a1.89,1.89,0,0,1-.79,1,2.41,2.41,0,0,1-1.33.34,2.53,2.53,0,0,1-1.77-.58,2,2,0,0,1-.64-1.59,1.9,1.9,0,0,1,.33-1.14,2.13,2.13,0,0,1,1-.72,5,5,0,0,1,1.73-.25h1.47V467a1.65,1.65,0,0,0-.43-1.22,1.79,1.79,0,0,0-1.31-.42,2,2,0,0,0-1.1.3,2.51,2.51,0,0,0-.75.8l-.64-.59a2.6,2.6,0,0,1,.93-1,2.87,2.87,0,0,1,1.62-.42,3,3,0,0,1,2,.64,2.24,2.24,0,0,1,.73,1.79v4h.85Zm-1.91-3.32h-1.53a2.74,2.74,0,0,0-1.42.29,1,1,0,0,0-.46.84v.3a1,1,0,0,0,.41.84,1.76,1.76,0,0,0,1.07.3,2.57,2.57,0,0,0,1-.17,1.67,1.67,0,0,0,.68-.48,1.08,1.08,0,0,0,.26-.7Z"/><path d="M139.91,472.05a3.45,3.45,0,0,1-1.68-.37,4,4,0,0,1-1.17-1l.76-.61a3.44,3.44,0,0,0,1,.82,2.49,2.49,0,0,0,1.21.28,1.82,1.82,0,0,0,1.14-.31,1,1,0,0,0,.41-.89,1.07,1.07,0,0,0-.29-.76,1.67,1.67,0,0,0-1-.42l-.58-.09a4.26,4.26,0,0,1-1.18-.33,1.73,1.73,0,0,1-1.11-1.74,1.82,1.82,0,0,1,.73-1.59,3.08,3.08,0,0,1,1.82-.52,3.64,3.64,0,0,1,1,.14,3.06,3.06,0,0,1,.81.4,2.88,2.88,0,0,1,.65.61l-.7.65a2.18,2.18,0,0,0-1.89-.9,1.63,1.63,0,0,0-1.07.31,1,1,0,0,0-.37.84.91.91,0,0,0,.36.8,2.73,2.73,0,0,0,1,.37l.56.08a3,3,0,0,1,1.7.69,1.82,1.82,0,0,1,.5,1.34,2.18,2.18,0,0,1-.32,1.19,2.07,2.07,0,0,1-.92.77A3.33,3.33,0,0,1,139.91,472.05Z"/><path d="M146.28,472.05a3.45,3.45,0,0,1-1.68-.37,4,4,0,0,1-1.17-1l.76-.61a3.44,3.44,0,0,0,.95.82,2.49,2.49,0,0,0,1.21.28,1.82,1.82,0,0,0,1.14-.31,1,1,0,0,0,.41-.89,1.07,1.07,0,0,0-.29-.76,1.67,1.67,0,0,0-1-.42l-.58-.09a4.26,4.26,0,0,1-1.18-.33,1.73,1.73,0,0,1-1.11-1.74,1.82,1.82,0,0,1,.73-1.59,3.08,3.08,0,0,1,1.82-.52,3.64,3.64,0,0,1,1,.14,3.06,3.06,0,0,1,.81.4,2.88,2.88,0,0,1,.65.61l-.7.65a2.18,2.18,0,0,0-1.89-.9,1.63,1.63,0,0,0-1.07.31,1,1,0,0,0-.37.84.91.91,0,0,0,.36.8,2.73,2.73,0,0,0,1,.37l.56.08a3,3,0,0,1,1.7.69,1.82,1.82,0,0,1,.5,1.34,2.18,2.18,0,0,1-.32,1.19,2.07,2.07,0,0,1-.92.77A3.33,3.33,0,0,1,146.28,472.05Z"/><path d="M151,462.91a.65.65,0,0,1-.5-.17.61.61,0,0,1-.16-.43v-.17a.66.66,0,1,1,1.32,0v.17a.61.61,0,0,1-.15.43A.64.64,0,0,1,151,462.91Zm-.53,9v-7.23h1.06v7.23Z"/><path d="M156.26,472.05a3,3,0,0,1-1.69-.47,3.11,3.11,0,0,1-1.14-1.31,5.08,5.08,0,0,1,0-4,3,3,0,0,1,1.14-1.31,3.27,3.27,0,0,1,3.38,0,3,3,0,0,1,1.14,1.31,5,5,0,0,1,0,4,3.11,3.11,0,0,1-1.14,1.31A3,3,0,0,1,156.26,472.05Zm0-.93a2.07,2.07,0,0,0,1.52-.59,2.41,2.41,0,0,0,.58-1.76v-1a2.43,2.43,0,0,0-.58-1.75,2.1,2.1,0,0,0-1.52-.58,2.07,2.07,0,0,0-1.51.58,2.35,2.35,0,0,0-.59,1.75v1a2.33,2.33,0,0,0,.59,1.76A2,2,0,0,0,156.26,471.12Z"/><path d="M162,471.89H161v-7.23H162v1.16h.05a2.41,2.41,0,0,1,.75-1,2.14,2.14,0,0,1,1.31-.37,2.26,2.26,0,0,1,1.77.72,2.93,2.93,0,0,1,.65,2v4.65H165.5v-4.45a2.29,2.29,0,0,0-.42-1.5,1.55,1.55,0,0,0-1.25-.49,2.49,2.49,0,0,0-.87.15,1.57,1.57,0,0,0-.68.47,1.22,1.22,0,0,0-.25.79Z"/><path d="M174.35,471.89h-.68a1.12,1.12,0,0,1-.68-.19,1,1,0,0,1-.39-.49,2.09,2.09,0,0,1-.12-.74v-.14l.41.38h-.46a1.89,1.89,0,0,1-.79,1,2.41,2.41,0,0,1-1.33.34,2.53,2.53,0,0,1-1.77-.58,2,2,0,0,1-.63-1.59,2,2,0,0,1,.32-1.14,2.11,2.11,0,0,1,1-.72,4.89,4.89,0,0,1,1.72-.25h1.47V467a1.61,1.61,0,0,0-.43-1.22,1.79,1.79,0,0,0-1.31-.42,2,2,0,0,0-1.1.3,2.51,2.51,0,0,0-.75.8l-.64-.59a2.67,2.67,0,0,1,.93-1,2.89,2.89,0,0,1,1.62-.42,3,3,0,0,1,2,.64,2.24,2.24,0,0,1,.73,1.79v4h.86Zm-1.92-3.32H170.9a2.74,2.74,0,0,0-1.42.29,1,1,0,0,0-.45.84v.3a1,1,0,0,0,.4.84,1.76,1.76,0,0,0,1.07.3,2.57,2.57,0,0,0,1-.17,1.78,1.78,0,0,0,.69-.48,1.13,1.13,0,0,0,.25-.7Z"/><path d="M178.46,471.89h-1.4a1.08,1.08,0,0,1-.84-.33,1.16,1.16,0,0,1-.29-.81v-5.16h-1.21v-.93h.7a.64.64,0,0,0,.48-.14.81.81,0,0,0,.13-.5v-1.36h1v2h1.58v.93H177V471h1.47Z"/><path d="M182.68,472.05a3,3,0,0,1-1.71-.47,3.09,3.09,0,0,1-1.13-1.31,5.2,5.2,0,0,1,0-4A3,3,0,0,1,181,465a3.06,3.06,0,0,1,1.69-.47,2.86,2.86,0,0,1,2.73,1.7,4.32,4.32,0,0,1,.38,1.84v.51h-5.21v.34a2.31,2.31,0,0,0,.58,1.61,2,2,0,0,0,1.59.64,2.15,2.15,0,0,0,1.22-.34,2.21,2.21,0,0,0,.8-1l.77.55a3,3,0,0,1-1.09,1.2A3.19,3.19,0,0,1,182.68,472.05Zm0-6.67a2,2,0,0,0-1.09.29,1.85,1.85,0,0,0-.74.8,2.46,2.46,0,0,0-.27,1.17v.1h4.06v-.15a2.64,2.64,0,0,0-.24-1.16,1.82,1.82,0,0,0-.68-.77A1.91,1.91,0,0,0,182.66,465.38Z"/><path d="M46.25,489.89l-2-7.23h1l.81,3.22.77,3.11h0l.87-3.11.93-3.22h1l1,3.22.88,3.11h0l.74-3.11.82-3.22h1l-1.93,7.23H50.9l-1-3.54-.63-2.22h0l-.63,2.22-1,3.54Z"/><path d="M58.06,490.05a3,3,0,0,1-1.68-.47,3.11,3.11,0,0,1-1.14-1.31,5.08,5.08,0,0,1,0-4A3,3,0,0,1,56.38,483a3.27,3.27,0,0,1,3.38,0,3.18,3.18,0,0,1,1.14,1.31,5.08,5.08,0,0,1,0,4,3.25,3.25,0,0,1-1.14,1.31A3,3,0,0,1,58.06,490.05Zm0-.93a2,2,0,0,0,1.52-.59,2.36,2.36,0,0,0,.58-1.76v-1a2.39,2.39,0,0,0-.58-1.75,2.07,2.07,0,0,0-1.52-.58,2.09,2.09,0,0,0-1.51.58,2.39,2.39,0,0,0-.59,1.75v1a2.37,2.37,0,0,0,.59,1.76A2.06,2.06,0,0,0,58.06,489.12Z"/><path d="M63.83,489.89H62.77v-7.23h1.06V484h.07a2.29,2.29,0,0,1,.39-.65,2.1,2.1,0,0,1,.69-.49,2.59,2.59,0,0,1,1-.18h.44v1h-.65a2.94,2.94,0,0,0-1,.17,1.62,1.62,0,0,0-.68.45,1,1,0,0,0-.24.65Z"/><path d="M67.46,489.89V479.53h1.06v6.61h.06l1.1-1.23,2.12-2.25h1.29l-2.71,2.86,3,4.37H72.06l-2.45-3.71-1.09,1.12v2.59Z"/><path d="M77.65,489.89v-6.3H76.46v-.93h1.19v-1.54A1.69,1.69,0,0,1,78,480a1.37,1.37,0,0,1,1.13-.44h1.12v.92H78.71v2.21h1.56v.93H78.71v6.3Z"/><path d="M84,490.05a3,3,0,0,1-1.68-.47,3.11,3.11,0,0,1-1.14-1.31,5.08,5.08,0,0,1,0-4A3,3,0,0,1,82.35,483a3.27,3.27,0,0,1,3.38,0,3.18,3.18,0,0,1,1.14,1.31,5.08,5.08,0,0,1,0,4,3.25,3.25,0,0,1-1.14,1.31A3,3,0,0,1,84,490.05Zm0-.93a2,2,0,0,0,1.52-.59,2.36,2.36,0,0,0,.58-1.76v-1a2.39,2.39,0,0,0-.58-1.75,2.07,2.07,0,0,0-1.52-.58,2.09,2.09,0,0,0-1.51.58,2.39,2.39,0,0,0-.59,1.75v1a2.37,2.37,0,0,0,.59,1.76A2.06,2.06,0,0,0,84,489.12Z"/><path d="M89.8,489.89H88.74v-7.23H89.8V484h.07a2.29,2.29,0,0,1,.39-.65,2.1,2.1,0,0,1,.69-.49,2.59,2.59,0,0,1,1-.18h.44v1h-.65a2.94,2.94,0,0,0-1,.17,1.56,1.56,0,0,0-.68.45,1,1,0,0,0-.24.65Z"/><path d="M96.31,489.89V479.53h1.07v4.29h.05a2.41,2.41,0,0,1,.75-1,2.14,2.14,0,0,1,1.31-.37,2.26,2.26,0,0,1,1.77.72,2.93,2.93,0,0,1,.65,2v4.65h-1.06v-4.45a2.29,2.29,0,0,0-.42-1.5,1.55,1.55,0,0,0-1.25-.49,2.49,2.49,0,0,0-.87.15,1.57,1.57,0,0,0-.68.47,1.22,1.22,0,0,0-.25.79v5Z"/><path d="M108.29,489.89v-1.17h-.05a2.45,2.45,0,0,1-.67.92,2,2,0,0,1-1.38.41,2.31,2.31,0,0,1-1.77-.72,2.91,2.91,0,0,1-.66-2v-4.63h1.06v4.45a2.26,2.26,0,0,0,.43,1.49,1.55,1.55,0,0,0,1.27.5,2.41,2.41,0,0,0,.85-.15,1.6,1.6,0,0,0,.67-.47,1.24,1.24,0,0,0,.25-.81v-5h1.07v7.23Z"/><path d="M112.41,489.89h-1.06v-7.23h1.06v1.16h.06a2.49,2.49,0,0,1,.68-.93,1.82,1.82,0,0,1,1.28-.4,2.67,2.67,0,0,1,1.33.35,2,2,0,0,1,.88,1.12h0a2.14,2.14,0,0,1,.74-1,2.23,2.23,0,0,1,1.47-.45,2.17,2.17,0,0,1,1.73.72,3,3,0,0,1,.62,2v4.65h-1v-4.45a2.41,2.41,0,0,0-.39-1.49,1.44,1.44,0,0,0-1.23-.5,2.41,2.41,0,0,0-.85.15,1.39,1.39,0,0,0-.64.47,1.22,1.22,0,0,0-.25.79v5h-1.06v-4.45a2.42,2.42,0,0,0-.39-1.5,1.44,1.44,0,0,0-1.21-.49,2.4,2.4,0,0,0-.84.15,1.51,1.51,0,0,0-.66.47,1.22,1.22,0,0,0-.25.79Z"/><path d="M129,489.89h-.67a1.1,1.1,0,0,1-.68-.19,1,1,0,0,1-.39-.49,2.09,2.09,0,0,1-.12-.74v-.14l.41.38h-.46a1.89,1.89,0,0,1-.79,1,2.41,2.41,0,0,1-1.33.34,2.53,2.53,0,0,1-1.77-.58,2,2,0,0,1-.64-1.59,1.9,1.9,0,0,1,.33-1.14,2.13,2.13,0,0,1,1-.72,5,5,0,0,1,1.73-.25h1.47V485a1.65,1.65,0,0,0-.43-1.22,1.79,1.79,0,0,0-1.31-.42,2,2,0,0,0-1.1.3,2.51,2.51,0,0,0-.75.8l-.64-.59a2.6,2.6,0,0,1,.93-1,2.87,2.87,0,0,1,1.62-.42,3,3,0,0,1,2,.64,2.24,2.24,0,0,1,.73,1.79v4H129Zm-1.91-3.32h-1.53a2.74,2.74,0,0,0-1.42.29,1,1,0,0,0-.46.84v.3a1,1,0,0,0,.41.84,1.76,1.76,0,0,0,1.07.3,2.57,2.57,0,0,0,1-.17,1.67,1.67,0,0,0,.68-.48,1.08,1.08,0,0,0,.26-.7Z"/><path d="M131.25,489.89h-1.06v-7.23h1.06v1.16h.06a2.41,2.41,0,0,1,.75-1,2.14,2.14,0,0,1,1.31-.37,2.27,2.27,0,0,1,1.77.72,2.93,2.93,0,0,1,.65,2v4.65h-1.06v-4.45a2.29,2.29,0,0,0-.42-1.5,1.55,1.55,0,0,0-1.25-.49,2.49,2.49,0,0,0-.87.15,1.57,1.57,0,0,0-.68.47,1.23,1.23,0,0,0-.26.79Z"/><path d="M139.86,490.05a3.41,3.41,0,0,1-1.67-.37,4,4,0,0,1-1.17-1l.76-.61a3.3,3.3,0,0,0,.95.82,2.47,2.47,0,0,0,1.2.28,1.83,1.83,0,0,0,1.15-.31,1.16,1.16,0,0,0,.12-1.65,1.67,1.67,0,0,0-1-.42l-.58-.09a4.17,4.17,0,0,1-1.18-.33,1.91,1.91,0,0,1-.82-.65A2.14,2.14,0,0,1,138,483a3.13,3.13,0,0,1,1.82-.52,3.71,3.71,0,0,1,1,.14,3.06,3.06,0,0,1,.81.4,3.11,3.11,0,0,1,.65.61l-.7.65a2.45,2.45,0,0,0-.71-.63,2.32,2.32,0,0,0-1.18-.27,1.61,1.61,0,0,0-1.07.31,1,1,0,0,0-.37.84.91.91,0,0,0,.36.8,2.61,2.61,0,0,0,1.05.37l.56.08a3,3,0,0,1,1.7.69,1.82,1.82,0,0,1,.5,1.34,2.18,2.18,0,0,1-.32,1.19,2.12,2.12,0,0,1-.92.77A3.38,3.38,0,0,1,139.86,490.05Z"/></svg>