<?xml version="1.0" encoding="utf-8"?>
<!-- Generator: Adobe Illustrator 24.0.3, SVG Export Plug-In . SVG Version: 6.00 Build 0)  -->
<svg version="1.1" id="Layer_1" xmlns="http://www.w3.org/2000/svg" xmlns:xlink="http://www.w3.org/1999/xlink" x="0px" y="0px"
	 viewBox="0 0 138.8 42" style="enable-background:new 0 0 138.8 42;" xml:space="preserve">
<style type="text/css">
	.st0{fill:none;stroke:#000000;stroke-width:2;stroke-miterlimit:10;}
</style>
<title>Artboard 1</title>
<g>
	<g>
		<path d="M48.1,16.9V1h5.6c1.2,0,2.5,0.3,3.6,0.9c1,0.6,1.9,1.5,2.3,2.6c0.6,1.4,0.9,2.9,0.8,4.4c0,1.5-0.2,3.1-0.8,4.4
			c-0.5,1.1-1.3,2-2.3,2.6c-1.1,0.6-2.3,0.9-3.6,0.9L48.1,16.9z M50.6,14.7h3.1c0.7,0,1.5-0.2,2.1-0.5c0.6-0.3,1.1-0.9,1.4-1.5
			c0.3-0.8,0.5-1.6,0.5-2.4V7.6c0-0.8-0.2-1.7-0.5-2.4C57,4.5,56.5,4,55.9,3.7c-0.6-0.3-1.4-0.5-2.1-0.5h-3.1L50.6,14.7z"/>
		<path d="M67,17.2c-1,0-2-0.2-2.9-0.8c-0.8-0.5-1.5-1.3-1.9-2.1c-0.5-1-0.7-2.1-0.6-3.3c0-1.1,0.2-2.2,0.6-3.2
			c0.4-0.9,1.1-1.6,1.9-2.1c0.9-0.5,1.9-0.8,2.9-0.8c1,0,2,0.2,2.9,0.8c0.8,0.5,1.4,1.3,1.8,2.1c0.4,1,0.6,1.9,0.6,3v0.9H64V12
			c0,0.8,0.3,1.7,0.8,2.3c0.6,0.6,1.5,1,2.4,0.9c0.6,0,1.3-0.2,1.9-0.5c0.5-0.3,1-0.8,1.3-1.3l1.5,1.4c-0.5,0.7-1.1,1.3-1.9,1.8
			C69,17,68,17.2,67,17.2z M66.9,6.8c-0.5,0-1.1,0.1-1.5,0.4c-0.4,0.3-0.8,0.6-1,1.1c-0.3,0.5-0.4,1-0.4,1.6V10h5.7V9.8
			c0-0.5-0.1-1.1-0.3-1.6c-0.2-0.4-0.5-0.8-0.9-1.1C68,6.9,67.5,6.7,66.9,6.8L66.9,6.8z"/>
		<path d="M77.6,17.2c-1,0-1.9-0.2-2.8-0.6c-0.8-0.4-1.5-1-2-1.6l1.6-1.4c0.4,0.5,0.9,0.9,1.5,1.2c0.6,0.3,1.2,0.5,1.9,0.5
			c0.6,0,1.2-0.1,1.7-0.4c0.4-0.3,0.6-0.7,0.5-1.2c0-0.4-0.1-0.7-0.4-1c-0.4-0.3-0.8-0.5-1.3-0.5l-1.1-0.2c-0.7-0.1-1.4-0.3-2.1-0.6
			c-0.5-0.2-1-0.6-1.3-1.1c-0.3-0.5-0.5-1.1-0.5-1.8c0-1,0.4-2,1.2-2.7c0.9-0.6,2-1,3.1-0.9c0.6,0,1.3,0.1,1.9,0.2
			c0.5,0.2,1,0.3,1.4,0.6c0.4,0.3,0.8,0.6,1.1,1l-1.5,1.5c-0.3-0.4-0.8-0.7-1.2-1c-0.5-0.3-1.1-0.4-1.7-0.4c-0.5,0-1.1,0.1-1.5,0.4
			c-0.3,0.3-0.5,0.7-0.5,1.1c0,0.4,0.2,0.8,0.5,1c0.4,0.3,0.9,0.4,1.4,0.5l1.1,0.2c1.3,0.2,2.3,0.5,2.9,1.1c0.6,0.6,0.9,1.5,0.9,2.3
			c0,0.7-0.2,1.4-0.6,2c-0.4,0.6-1,1-1.6,1.3C79.3,17,78.4,17.2,77.6,17.2z"/>
		<path d="M85.1,2.9c-0.4,0-0.8-0.1-1.1-0.3c-0.2-0.2-0.3-0.6-0.3-0.9V1.3c0-0.3,0.1-0.6,0.3-0.9c0.6-0.5,1.5-0.5,2.2,0
			c0.2,0.2,0.3,0.6,0.3,0.9v0.4c0,0.3-0.1,0.6-0.3,0.9C85.9,2.8,85.6,2.9,85.1,2.9z M84,16.9V5.1h2.4v11.8L84,16.9L84,16.9z"/>
		<path d="M99.2,18c0,0.7-0.2,1.5-0.6,2.1c-0.5,0.6-1.2,1-1.9,1.2c-1.1,0.3-2.3,0.5-3.4,0.4c-1,0-2.1-0.1-3.1-0.3
			c-0.6-0.2-1.3-0.5-1.7-1c-0.3-0.4-0.5-1-0.5-1.5c0-0.6,0.2-1.1,0.5-1.6c0.4-0.4,0.9-0.7,1.5-0.8v-0.3c-0.4-0.1-0.7-0.4-1-0.7
			c-0.2-0.3-0.3-0.7-0.3-1.1c0-0.5,0.2-1,0.6-1.4c0.4-0.3,1-0.6,1.5-0.7v-0.1C90,12.1,89.4,11.6,89,11c-0.4-0.6-0.6-1.4-0.6-2.1
			s0.2-1.5,0.6-2.1c0.4-0.6,1-1.1,1.6-1.4c0.8-0.3,1.6-0.5,2.5-0.5c0.4,0,0.8,0,1.1,0.1c0.3,0.1,0.7,0.2,1,0.3V4.9
			c0-0.5,0.1-0.9,0.4-1.3c0.3-0.3,0.7-0.5,1.1-0.5h1.8v1.9h-2.4v0.6c0.5,0.3,1,0.8,1.2,1.3c0.3,0.6,0.4,1.2,0.4,1.8
			c0,0.7-0.2,1.5-0.5,2.1c-0.4,0.6-1,1.1-1.6,1.4c-0.8,0.3-1.7,0.5-2.6,0.5c-0.3,0-0.5,0-0.8,0c-0.2,0-0.5-0.1-0.7-0.2
			c-0.3,0.1-0.6,0.3-0.8,0.5c-0.2,0.2-0.4,0.5-0.4,0.7c0,0.3,0.2,0.6,0.5,0.7c0.4,0.2,0.8,0.2,1.2,0.2h2.9c1.5,0,2.5,0.3,3.2,0.8
			C98.9,16.2,99.3,17.1,99.2,18z M96.9,18.3c0-0.4-0.2-0.8-0.5-1c-0.3-0.2-0.9-0.4-1.7-0.4h-4c-0.3,0.2-0.5,0.3-0.6,0.6
			c-0.2,0.2-0.2,0.5-0.2,0.8c0,0.5,0.2,0.9,0.6,1.2c0.4,0.3,1,0.5,1.9,0.5H94c0.8,0,1.5-0.1,2.2-0.4C96.7,19.3,96.9,18.8,96.9,18.3
			L96.9,18.3z M93.2,11.1c0.6,0,1.2-0.2,1.7-0.5c0.4-0.4,0.6-0.9,0.6-1.5V8.6c0-0.6-0.2-1.1-0.6-1.5c-1-0.7-2.4-0.7-3.4,0
			c-0.4,0.4-0.6,1-0.6,1.5v0.5c0,0.6,0.2,1.1,0.6,1.5C91.9,11,92.6,11.1,93.2,11.1L93.2,11.1z"/>
		<path d="M102.4,16.9H100V5.1h2.4v1.9h0.1c0.2-0.6,0.6-1.2,1.2-1.6c0.6-0.5,1.4-0.7,2.1-0.6c1.1-0.1,2.1,0.4,2.8,1.2
			c0.7,0.8,1,1.9,1,3.4v7.5h-2.4V9.7c0-0.7-0.2-1.5-0.5-2.1c-0.4-0.5-1.1-0.8-1.8-0.7c-0.4,0-0.8,0.1-1.3,0.2
			c-0.4,0.1-0.7,0.4-1,0.7c-0.3,0.3-0.4,0.7-0.4,1.1V16.9z"/>
		<path d="M112.7,2.9c-0.4,0-0.8-0.1-1.1-0.3c-0.2-0.2-0.3-0.6-0.3-0.9V1.3c0-0.3,0.1-0.6,0.3-0.9c0.6-0.5,1.5-0.5,2.2,0
			c0.2,0.2,0.3,0.6,0.3,0.9v0.4c0,0.3-0.1,0.6-0.3,0.9C113.5,2.8,113.1,2.9,112.7,2.9z M111.5,16.9V5.1h2.4v11.8L111.5,16.9
			L111.5,16.9z"/>
		<path d="M118.7,16.9h-2.4V5.1h2.4v1.9h0.1c0.2-0.6,0.6-1.2,1.2-1.6c0.6-0.5,1.4-0.7,2.1-0.6c1.1-0.1,2.1,0.4,2.9,1.2
			c0.7,0.8,1,1.9,1,3.4v7.5h-2.4V9.7c0-0.7-0.2-1.5-0.5-2.1c-0.4-0.5-1.1-0.8-1.7-0.7c-0.4,0-0.8,0.1-1.3,0.2
			c-0.4,0.1-0.7,0.4-1,0.7c-0.3,0.3-0.4,0.7-0.4,1.1L118.7,16.9z"/>
		<path d="M138.8,18c0,0.7-0.2,1.5-0.6,2.1c-0.5,0.6-1.2,1-1.9,1.2c-1.1,0.3-2.3,0.5-3.4,0.4c-1,0-2.1-0.1-3.1-0.3
			c-0.6-0.2-1.3-0.5-1.7-1c-0.3-0.4-0.5-1-0.5-1.5c0-0.6,0.2-1.1,0.5-1.6c0.4-0.4,0.9-0.7,1.5-0.8v-0.3c-0.4-0.1-0.7-0.4-1-0.7
			c-0.2-0.3-0.3-0.7-0.3-1.1c0-0.5,0.2-1,0.6-1.4c0.4-0.3,1-0.6,1.5-0.7v-0.1c-0.6-0.3-1.2-0.8-1.6-1.4c-0.4-0.6-0.6-1.4-0.6-2.1
			s0.2-1.5,0.6-2.1c0.4-0.6,1-1.1,1.6-1.4c0.8-0.3,1.6-0.5,2.5-0.5c0.4,0,0.8,0,1.1,0.1c0.3,0.1,0.7,0.2,1,0.3V4.9
			c0-0.5,0.1-0.9,0.4-1.3c0.3-0.3,0.7-0.5,1.1-0.5h1.8v1.9h-2.4v0.6c0.5,0.3,0.9,0.8,1.2,1.3c0.3,0.6,0.4,1.2,0.4,1.8
			c0,0.7-0.2,1.5-0.5,2.1c-0.4,0.6-1,1.1-1.6,1.4c-0.8,0.3-1.7,0.5-2.6,0.5c-0.3,0-0.5,0-0.8,0c-0.2,0-0.5-0.1-0.7-0.2
			c-0.3,0.1-0.6,0.3-0.8,0.5c-0.2,0.2-0.4,0.5-0.4,0.7c0,0.3,0.2,0.6,0.5,0.7c0.4,0.2,0.8,0.2,1.2,0.2h2.9c1.5,0,2.5,0.3,3.2,0.8
			C138.4,16.2,138.8,17.1,138.8,18z M136.5,18.3c0-0.4-0.2-0.8-0.5-1c-0.3-0.2-0.9-0.4-1.7-0.4h-4c-0.3,0.2-0.5,0.3-0.6,0.6
			c-0.2,0.2-0.2,0.5-0.2,0.8c0,0.5,0.2,0.9,0.6,1.2c0.4,0.3,1,0.5,1.9,0.5h1.6c0.8,0,1.5-0.1,2.2-0.4
			C136.2,19.3,136.5,18.8,136.5,18.3z M132.8,11.1c0.6,0,1.2-0.2,1.7-0.5c0.4-0.4,0.6-0.9,0.6-1.5V8.6c0-0.6-0.2-1.1-0.6-1.5
			c-1-0.7-2.4-0.7-3.4,0c-0.4,0.4-0.6,1-0.6,1.5v0.5c0,0.6,0.2,1.1,0.6,1.5C131.5,11,132.1,11.1,132.8,11.1z"/>
		<path d="M57.9,37.4v-6.9h-7.3v6.9h-2.5V21.5h2.5v6.8h7.3v-6.8h2.5v15.9H57.9z"/>
		<path d="M67.1,37.7c-1,0-2-0.2-2.9-0.8c-0.8-0.5-1.5-1.3-1.9-2.1c-0.5-1-0.7-2.1-0.7-3.3c0-1.1,0.2-2.3,0.7-3.2
			c0.4-0.9,1.1-1.6,1.9-2.1c1.8-1,4-1,5.7,0c0.8,0.5,1.5,1.3,1.9,2.1c0.5,1,0.7,2.1,0.7,3.2c0,1.1-0.2,2.3-0.7,3.3
			c-0.4,0.9-1.1,1.6-1.9,2.1C69.1,37.5,68.1,37.7,67.1,37.7z M67.1,35.7c0.8,0,1.5-0.3,2.1-0.8c0.5-0.5,0.8-1.3,0.8-2.4v-2
			c0-1.1-0.3-1.8-0.8-2.4c-1.2-1.1-3-1.1-4.2,0c-0.5,0.5-0.8,1.3-0.8,2.4v2c0,1,0.3,1.8,0.8,2.4C65.6,35.4,66.3,35.7,67.1,35.7z"/>
		<path d="M73.6,42V25.7H76v1.9h0.1c0.2-0.7,0.7-1.3,1.3-1.6c0.6-0.4,1.3-0.6,2.1-0.6c0.9,0,1.8,0.2,2.6,0.7
			c0.7,0.5,1.3,1.3,1.6,2.1c0.4,1.1,0.6,2.2,0.6,3.3c0,1.1-0.2,2.3-0.6,3.3c-0.3,0.8-0.9,1.6-1.6,2.1c-0.8,0.5-1.6,0.8-2.6,0.7
			c-0.7,0-1.5-0.2-2.1-0.6c-0.6-0.4-1-1-1.3-1.6H76V42H73.6z M78.7,35.7c0.8,0,1.6-0.3,2.1-0.9c0.5-0.6,0.8-1.4,0.8-2.3v-2
			c0-0.8-0.2-1.6-0.8-2.3c-0.5-0.6-1.3-0.9-2.1-0.8c-0.5,0-0.9,0.1-1.4,0.3c-0.4,0.2-0.7,0.4-1,0.7c-0.3,0.3-0.4,0.7-0.4,1.1v4
			c0,0.4,0.1,0.8,0.4,1.1c0.3,0.3,0.6,0.6,1,0.7C77.8,35.5,78.3,35.7,78.7,35.7z"/>
		<path d="M90.6,37.7c-1,0-2-0.2-2.9-0.8c-0.8-0.5-1.5-1.3-1.9-2.1c-0.5-1-0.7-2.1-0.6-3.3c0-1.1,0.2-2.2,0.6-3.2
			c0.4-0.9,1.1-1.6,1.9-2.1c0.9-0.5,1.9-0.8,2.9-0.8c1,0,2,0.2,2.9,0.8c0.8,0.5,1.4,1.3,1.8,2.1c0.4,1,0.6,1.9,0.6,3v0.9h-8.2v0.4
			c0,0.8,0.3,1.7,0.8,2.3c0.6,0.6,1.5,1,2.4,0.9c0.6,0,1.3-0.2,1.9-0.5c0.5-0.3,1-0.8,1.3-1.3l1.5,1.4C95,36,94.3,36.6,93.6,37
			C92.6,37.5,91.6,37.7,90.6,37.7z M90.6,27.3c-0.5,0-1.1,0.1-1.5,0.4c-0.4,0.3-0.8,0.6-1,1.1c-0.3,0.5-0.4,1-0.4,1.6v0.2h5.7v-0.3
			c0-0.5-0.1-1.1-0.3-1.6c-0.2-0.4-0.5-0.8-0.9-1.1C91.6,27.4,91.1,27.3,90.6,27.3z"/>
	</g>
	<g>
		<rect x="1" y="1.7" class="st0" width="18" height="36"/>
		<circle class="st0" cx="19" cy="19.7" r="18"/>
	</g>
</g>
</svg>
