<?xml version="1.0" encoding="utf-8"?>
<!-- Generator: Adobe Illustrator 24.2.1, SVG Export Plug-In . SVG Version: 6.00 Build 0)  -->
<svg version="1.1" id="Layer_1" xmlns="http://www.w3.org/2000/svg" xmlns:xlink="http://www.w3.org/1999/xlink" x="0px" y="0px"
	 viewBox="0 0 90.7 42" style="enable-background:new 0 0 90.7 42;" xml:space="preserve">
<style type="text/css">
	.st0{fill:#FFFFFF;}
</style>
<g>
	<path class="st0" d="M0,16.9V1h5.6c1.2,0,2.5,0.3,3.6,0.9c1,0.6,1.9,1.5,2.3,2.6c0.6,1.4,0.9,2.9,0.8,4.4c0,1.5-0.2,3.1-0.8,4.4
		c-0.5,1.1-1.3,2-2.3,2.6c-1.1,0.6-2.3,0.9-3.6,0.9L0,16.9z M2.5,14.7h3.1c0.7,0,1.5-0.2,2.1-0.5s1.1-0.9,1.4-1.5
		c0.3-0.8,0.5-1.6,0.5-2.4V7.6c0-0.8-0.2-1.7-0.5-2.4C8.9,4.5,8.4,4,7.8,3.7C7.2,3.4,6.4,3.2,5.7,3.2H2.6L2.5,14.7z"/>
	<path class="st0" d="M18.9,17.2c-1,0-2-0.2-2.9-0.8c-0.8-0.5-1.5-1.3-1.9-2.1c-0.5-1-0.7-2.1-0.6-3.3c0-1.1,0.2-2.2,0.6-3.2
		c0.4-0.9,1.1-1.6,1.9-2.1c0.9-0.5,1.9-0.8,2.9-0.8s2,0.2,2.9,0.8c0.8,0.5,1.4,1.3,1.8,2.1c0.4,1,0.6,1.9,0.6,3v0.9h-8.3V12
		c0,0.8,0.3,1.7,0.8,2.3c0.6,0.6,1.5,1,2.4,0.9c0.6,0,1.3-0.2,1.9-0.5c0.5-0.3,1-0.8,1.3-1.3l1.5,1.4c-0.5,0.7-1.1,1.3-1.9,1.8
		C20.9,17,19.9,17.2,18.9,17.2z M18.8,6.8c-0.5,0-1.1,0.1-1.5,0.4s-0.8,0.6-1,1.1c-0.3,0.5-0.4,1-0.4,1.6V10h5.7V9.8
		c0-0.5-0.1-1.1-0.3-1.6c-0.2-0.4-0.5-0.8-0.9-1.1C19.9,6.9,19.4,6.7,18.8,6.8L18.8,6.8z"/>
	<path class="st0" d="M29.5,17.2c-1,0-1.9-0.2-2.8-0.6c-0.8-0.4-1.5-1-2-1.6l1.6-1.4c0.4,0.5,0.9,0.9,1.5,1.2s1.2,0.5,1.9,0.5
		c0.6,0,1.2-0.1,1.7-0.4c0.4-0.3,0.6-0.7,0.5-1.2c0-0.4-0.1-0.7-0.4-1c-0.4-0.3-0.8-0.5-1.3-0.5L29.1,12c-0.7-0.1-1.4-0.3-2.1-0.6
		c-0.5-0.2-1-0.6-1.3-1.1s-0.5-1.1-0.5-1.8c0-1,0.4-2,1.2-2.7c0.9-0.6,2-1,3.1-0.9c0.6,0,1.3,0.1,1.9,0.2c0.5,0.2,1,0.3,1.4,0.6
		c0.4,0.3,0.8,0.6,1.1,1l-1.5,1.5c-0.3-0.4-0.8-0.7-1.2-1c-0.5-0.3-1.1-0.4-1.7-0.4c-0.5,0-1.1,0.1-1.5,0.4
		c-0.3,0.3-0.5,0.7-0.5,1.1c0,0.4,0.2,0.8,0.5,1c0.4,0.3,0.9,0.4,1.4,0.5l1.1,0.2c1.3,0.2,2.3,0.5,2.9,1.1s0.9,1.5,0.9,2.3
		c0,0.7-0.2,1.4-0.6,2c-0.4,0.6-1,1-1.6,1.3C31.2,17,30.3,17.2,29.5,17.2z"/>
	<path class="st0" d="M37,2.9c-0.4,0-0.8-0.1-1.1-0.3c-0.2-0.2-0.3-0.6-0.3-0.9V1.3c0-0.3,0.1-0.6,0.3-0.9c0.6-0.5,1.5-0.5,2.2,0
		c0.2,0.2,0.3,0.6,0.3,0.9v0.4c0,0.3-0.1,0.6-0.3,0.9C37.8,2.8,37.5,2.9,37,2.9z M35.9,16.9V5.1h2.4v11.8H35.9L35.9,16.9z"/>
	<path class="st0" d="M51.1,18c0,0.7-0.2,1.5-0.6,2.1c-0.5,0.6-1.2,1-1.9,1.2c-1.1,0.3-2.3,0.5-3.4,0.4c-1,0-2.1-0.1-3.1-0.3
		c-0.6-0.2-1.3-0.5-1.7-1c-0.3-0.4-0.5-1-0.5-1.5c0-0.6,0.2-1.1,0.5-1.6c0.4-0.4,0.9-0.7,1.5-0.8v-0.3c-0.4-0.1-0.7-0.4-1-0.7
		c-0.2-0.3-0.3-0.7-0.3-1.1c0-0.5,0.2-1,0.6-1.4c0.4-0.3,1-0.6,1.5-0.7v-0.1c-0.8-0.1-1.4-0.6-1.8-1.2s-0.6-1.4-0.6-2.1
		s0.2-1.5,0.6-2.1s1-1.1,1.6-1.4c0.8-0.3,1.6-0.5,2.5-0.5c0.4,0,0.8,0,1.1,0.1c0.3,0.1,0.7,0.2,1,0.3V4.9c0-0.5,0.1-0.9,0.4-1.3
		c0.3-0.3,0.7-0.5,1.1-0.5h1.8V5H48v0.6c0.5,0.3,1,0.8,1.2,1.3c0.3,0.6,0.4,1.2,0.4,1.8c0,0.7-0.2,1.5-0.5,2.1
		c-0.4,0.6-1,1.1-1.6,1.4c-0.8,0.3-1.7,0.5-2.6,0.5c-0.3,0-0.5,0-0.8,0c-0.2,0-0.5-0.1-0.7-0.2c-0.3,0.1-0.6,0.3-0.8,0.5
		c-0.2,0.2-0.4,0.5-0.4,0.7c0,0.3,0.2,0.6,0.5,0.7c0.4,0.2,0.8,0.2,1.2,0.2h2.9c1.5,0,2.5,0.3,3.2,0.8C50.8,16.2,51.2,17.1,51.1,18z
		 M48.8,18.3c0-0.4-0.2-0.8-0.5-1s-0.9-0.4-1.7-0.4h-4c-0.3,0.2-0.5,0.3-0.6,0.6c-0.2,0.2-0.2,0.5-0.2,0.8c0,0.5,0.2,0.9,0.6,1.2
		c0.4,0.3,1,0.5,1.9,0.5h1.6c0.8,0,1.5-0.1,2.2-0.4C48.6,19.3,48.8,18.8,48.8,18.3L48.8,18.3z M45.1,11.1c0.6,0,1.2-0.2,1.7-0.5
		c0.4-0.4,0.6-0.9,0.6-1.5V8.6c0-0.6-0.2-1.1-0.6-1.5c-1-0.7-2.4-0.7-3.4,0c-0.4,0.4-0.6,1-0.6,1.5v0.5c0,0.6,0.2,1.1,0.6,1.5
		C43.8,11,44.5,11.1,45.1,11.1L45.1,11.1z"/>
	<path class="st0" d="M54.3,16.9h-2.4V5.1h2.4V7h0.1c0.2-0.6,0.6-1.2,1.2-1.6c0.6-0.5,1.4-0.7,2.1-0.6c1.1-0.1,2.1,0.4,2.8,1.2
		c0.7,0.8,1,1.9,1,3.4v7.5h-2.4V9.7c0-0.7-0.2-1.5-0.5-2.1c-0.4-0.5-1.1-0.8-1.8-0.7c-0.4,0-0.8,0.1-1.3,0.2c-0.4,0.1-0.7,0.4-1,0.7
		c-0.3,0.3-0.4,0.7-0.4,1.1v8H54.3z"/>
	<path class="st0" d="M64.6,2.9c-0.4,0-0.8-0.1-1.1-0.3c-0.2-0.2-0.3-0.6-0.3-0.9V1.3c0-0.3,0.1-0.6,0.3-0.9c0.6-0.5,1.5-0.5,2.2,0
		C65.9,0.6,66,1,66,1.3v0.4c0,0.3-0.1,0.6-0.3,0.9C65.4,2.8,65,2.9,64.6,2.9z M63.4,16.9V5.1h2.4v11.8H63.4L63.4,16.9z"/>
	<path class="st0" d="M70.6,16.9h-2.4V5.1h2.4V7h0.1c0.2-0.6,0.6-1.2,1.2-1.6c0.6-0.5,1.4-0.7,2.1-0.6c1.1-0.1,2.1,0.4,2.9,1.2
		c0.7,0.8,1,1.9,1,3.4v7.5h-2.4V9.7c0-0.7-0.2-1.5-0.5-2.1c-0.4-0.5-1.1-0.8-1.7-0.7c-0.4,0-0.8,0.1-1.3,0.2c-0.4,0.1-0.7,0.4-1,0.7
		c-0.3,0.3-0.4,0.7-0.4,1.1L70.6,16.9z"/>
	<path class="st0" d="M90.7,18c0,0.7-0.2,1.5-0.6,2.1c-0.5,0.6-1.2,1-1.9,1.2c-1.1,0.3-2.3,0.5-3.4,0.4c-1,0-2.1-0.1-3.1-0.3
		c-0.6-0.2-1.3-0.5-1.7-1c-0.3-0.4-0.5-1-0.5-1.5c0-0.6,0.2-1.1,0.5-1.6c0.4-0.4,0.9-0.7,1.5-0.8v-0.3c-0.4-0.1-0.7-0.4-1-0.7
		c-0.2-0.3-0.3-0.7-0.3-1.1c0-0.5,0.2-1,0.6-1.4c0.4-0.3,1-0.6,1.5-0.7v-0.1c-0.6-0.3-1.2-0.8-1.6-1.4c-0.4-0.6-0.6-1.4-0.6-2.1
		s0.2-1.5,0.6-2.1c0.4-0.6,1-1.1,1.6-1.4c0.8-0.3,1.6-0.5,2.5-0.5c0.4,0,0.8,0,1.1,0.1s0.7,0.2,1,0.3V4.9c0-0.5,0.1-0.9,0.4-1.3
		c0.3-0.3,0.7-0.5,1.1-0.5h1.8V5h-2.4v0.6c0.5,0.3,0.9,0.8,1.2,1.3c0.3,0.6,0.4,1.2,0.4,1.8c0,0.7-0.2,1.5-0.5,2.1
		c-0.4,0.6-1,1.1-1.6,1.4c-0.8,0.3-1.7,0.5-2.6,0.5c-0.3,0-0.5,0-0.8,0c-0.2,0-0.5-0.1-0.7-0.2c-0.3,0.1-0.6,0.3-0.8,0.5
		S82,13.5,82,13.7c0,0.3,0.2,0.6,0.5,0.7c0.4,0.2,0.8,0.2,1.2,0.2h2.9c1.5,0,2.5,0.3,3.2,0.8C90.3,16.2,90.7,17.1,90.7,18z
		 M88.4,18.3c0-0.4-0.2-0.8-0.5-1s-0.9-0.4-1.7-0.4h-4c-0.3,0.2-0.5,0.3-0.6,0.6c-0.2,0.2-0.2,0.5-0.2,0.8c0,0.5,0.2,0.9,0.6,1.2
		c0.4,0.3,1,0.5,1.9,0.5h1.6c0.8,0,1.5-0.1,2.2-0.4C88.1,19.3,88.4,18.8,88.4,18.3z M84.7,11.1c0.6,0,1.2-0.2,1.7-0.5
		c0.4-0.4,0.6-0.9,0.6-1.5V8.6c0-0.6-0.2-1.1-0.6-1.5c-1-0.7-2.4-0.7-3.4,0c-0.4,0.4-0.6,1-0.6,1.5v0.5c0,0.6,0.2,1.1,0.6,1.5
		C83.4,11,84,11.1,84.7,11.1z"/>
	<path class="st0" d="M9.8,37.4v-6.9H2.5v6.9H0V21.5h2.5v6.8h7.3v-6.8h2.5v15.9H9.8z"/>
	<path class="st0" d="M19,37.7c-1,0-2-0.2-2.9-0.8c-0.8-0.5-1.5-1.3-1.9-2.1c-0.5-1-0.7-2.1-0.7-3.3c0-1.1,0.2-2.3,0.7-3.2
		c0.4-0.9,1.1-1.6,1.9-2.1c1.8-1,4-1,5.7,0c0.8,0.5,1.5,1.3,1.9,2.1c0.5,1,0.7,2.1,0.7,3.2c0,1.1-0.2,2.3-0.7,3.3
		c-0.4,0.9-1.1,1.6-1.9,2.1C21,37.5,20,37.7,19,37.7z M19,35.7c0.8,0,1.5-0.3,2.1-0.8c0.5-0.5,0.8-1.3,0.8-2.4v-2
		c0-1.1-0.3-1.8-0.8-2.4c-1.2-1.1-3-1.1-4.2,0c-0.5,0.5-0.8,1.3-0.8,2.4v2c0,1,0.3,1.8,0.8,2.4C17.5,35.4,18.2,35.7,19,35.7z"/>
	<path class="st0" d="M25.5,42V25.7h2.4v1.9H28c0.2-0.7,0.7-1.3,1.3-1.6c0.6-0.4,1.3-0.6,2.1-0.6c0.9,0,1.8,0.2,2.6,0.7
		c0.7,0.5,1.3,1.3,1.6,2.1c0.4,1.1,0.6,2.2,0.6,3.3c0,1.1-0.2,2.3-0.6,3.3c-0.3,0.8-0.9,1.6-1.6,2.1c-0.8,0.5-1.6,0.8-2.6,0.7
		c-0.7,0-1.5-0.2-2.1-0.6c-0.6-0.4-1-1-1.3-1.6h-0.1V42H25.5z M30.6,35.7c0.8,0,1.6-0.3,2.1-0.9c0.5-0.6,0.8-1.4,0.8-2.3v-2
		c0-0.8-0.2-1.6-0.8-2.3c-0.5-0.6-1.3-0.9-2.1-0.8c-0.5,0-0.9,0.1-1.4,0.3c-0.4,0.2-0.7,0.4-1,0.7c-0.3,0.3-0.4,0.7-0.4,1.1v4
		c0,0.4,0.1,0.8,0.4,1.1s0.6,0.6,1,0.7C29.7,35.5,30.2,35.7,30.6,35.7z"/>
	<path class="st0" d="M42.5,37.7c-1,0-2-0.2-2.9-0.8c-0.8-0.5-1.5-1.3-1.9-2.1c-0.5-1-0.7-2.1-0.6-3.3c0-1.1,0.2-2.2,0.6-3.2
		c0.4-0.9,1.1-1.6,1.9-2.1c0.9-0.5,1.9-0.8,2.9-0.8s2,0.2,2.9,0.8c0.8,0.5,1.4,1.3,1.8,2.1c0.4,1,0.6,1.9,0.6,3v0.9h-8.2v0.4
		c0,0.8,0.3,1.7,0.8,2.3c0.6,0.6,1.5,1,2.4,0.9c0.6,0,1.3-0.2,1.9-0.5c0.5-0.3,1-0.8,1.3-1.3l1.5,1.4c-0.6,0.6-1.3,1.2-2,1.6
		C44.5,37.5,43.5,37.7,42.5,37.7z M42.5,27.3c-0.5,0-1.1,0.1-1.5,0.4s-0.8,0.6-1,1.1c-0.3,0.5-0.4,1-0.4,1.6v0.2h5.7v-0.3
		c0-0.5-0.1-1.1-0.3-1.6c-0.2-0.4-0.5-0.8-0.9-1.1C43.5,27.4,43,27.3,42.5,27.3z"/>
</g>
<g>
	<path d="M-101.1,16.9V1h5.6c1.2,0,2.5,0.3,3.6,0.9c1,0.6,1.9,1.5,2.3,2.6c0.6,1.4,0.9,2.9,0.8,4.4c0,1.5-0.2,3.1-0.8,4.4
		c-0.5,1.1-1.3,2-2.3,2.6c-1.1,0.6-2.3,0.9-3.6,0.9L-101.1,16.9z M-98.6,14.7h3.1c0.7,0,1.5-0.2,2.1-0.5s1.1-0.9,1.4-1.5
		c0.3-0.8,0.5-1.6,0.5-2.4V7.6c0-0.8-0.2-1.7-0.5-2.4c-0.2-0.7-0.7-1.2-1.3-1.5c-0.6-0.3-1.4-0.5-2.1-0.5h-3.1L-98.6,14.7z"/>
	<path d="M-82.2,17.2c-1,0-2-0.2-2.9-0.8c-0.8-0.5-1.5-1.3-1.9-2.1c-0.5-1-0.7-2.1-0.6-3.3c0-1.1,0.2-2.2,0.6-3.2
		c0.4-0.9,1.1-1.6,1.9-2.1c0.9-0.5,1.9-0.8,2.9-0.8s2,0.2,2.9,0.8c0.8,0.5,1.4,1.3,1.8,2.1c0.4,1,0.6,1.9,0.6,3v0.9h-8.3V12
		c0,0.8,0.3,1.7,0.8,2.3c0.6,0.6,1.5,1,2.4,0.9c0.6,0,1.3-0.2,1.9-0.5c0.5-0.3,1-0.8,1.3-1.3l1.5,1.4c-0.5,0.7-1.1,1.3-1.9,1.8
		C-80.2,17-81.2,17.2-82.2,17.2z M-82.3,6.8c-0.5,0-1.1,0.1-1.5,0.4s-0.8,0.6-1,1.1c-0.3,0.5-0.4,1-0.4,1.6V10h5.7V9.8
		c0-0.5-0.1-1.1-0.3-1.6c-0.2-0.4-0.5-0.8-0.9-1.1C-81.2,6.9-81.7,6.7-82.3,6.8L-82.3,6.8z"/>
	<path d="M-71.6,17.2c-1,0-1.9-0.2-2.8-0.6c-0.8-0.4-1.5-1-2-1.6l1.6-1.4c0.4,0.5,0.9,0.9,1.5,1.2s1.2,0.5,1.9,0.5
		c0.6,0,1.2-0.1,1.7-0.4c0.4-0.3,0.6-0.7,0.5-1.2c0-0.4-0.1-0.7-0.4-1c-0.4-0.3-0.8-0.5-1.3-0.5L-72,12c-0.7-0.1-1.4-0.3-2.1-0.6
		c-0.5-0.2-1-0.6-1.3-1.1s-0.5-1.1-0.5-1.8c0-1,0.4-2,1.2-2.7c0.9-0.6,2-1,3.1-0.9c0.6,0,1.3,0.1,1.9,0.2c0.5,0.2,1,0.3,1.4,0.6
		c0.4,0.3,0.8,0.6,1.1,1l-1.5,1.5c-0.3-0.4-0.8-0.7-1.2-1c-0.5-0.3-1.1-0.4-1.7-0.4c-0.5,0-1.1,0.1-1.5,0.4
		c-0.3,0.3-0.5,0.7-0.5,1.1c0,0.4,0.2,0.8,0.5,1c0.4,0.3,0.9,0.4,1.4,0.5l1.1,0.2c1.3,0.2,2.3,0.5,2.9,1.1s0.9,1.5,0.9,2.3
		c0,0.7-0.2,1.4-0.6,2c-0.4,0.6-1,1-1.6,1.3C-69.9,17-70.8,17.2-71.6,17.2z"/>
	<path d="M-64.1,2.9c-0.4,0-0.8-0.1-1.1-0.3c-0.2-0.2-0.3-0.6-0.3-0.9V1.3c0-0.3,0.1-0.6,0.3-0.9c0.6-0.5,1.5-0.5,2.2,0
		c0.2,0.2,0.3,0.6,0.3,0.9v0.4c0,0.3-0.1,0.6-0.3,0.9C-63.3,2.8-63.6,2.9-64.1,2.9z M-65.2,16.9V5.1h2.4v11.8H-65.2L-65.2,16.9z"/>
	<path d="M-50,18c0,0.7-0.2,1.5-0.6,2.1c-0.5,0.6-1.2,1-1.9,1.2c-1.1,0.3-2.3,0.5-3.4,0.4c-1,0-2.1-0.1-3.1-0.3
		c-0.6-0.2-1.3-0.5-1.7-1c-0.3-0.4-0.5-1-0.5-1.5c0-0.6,0.2-1.1,0.5-1.6c0.4-0.4,0.9-0.7,1.5-0.8v-0.3c-0.4-0.1-0.7-0.4-1-0.7
		c-0.2-0.3-0.3-0.7-0.3-1.1c0-0.5,0.2-1,0.6-1.4c0.4-0.3,1-0.6,1.5-0.7v-0.1c-0.8-0.1-1.4-0.6-1.8-1.2s-0.6-1.4-0.6-2.1
		s0.2-1.5,0.6-2.1s1-1.1,1.6-1.4c0.8-0.3,1.6-0.5,2.5-0.5c0.4,0,0.8,0,1.1,0.1c0.3,0.1,0.7,0.2,1,0.3V4.9c0-0.5,0.1-0.9,0.4-1.3
		c0.3-0.3,0.7-0.5,1.1-0.5h1.8V5h-2.4v0.6c0.5,0.3,1,0.8,1.2,1.3c0.3,0.6,0.4,1.2,0.4,1.8c0,0.7-0.2,1.5-0.5,2.1
		c-0.4,0.6-1,1.1-1.6,1.4c-0.8,0.3-1.7,0.5-2.6,0.5c-0.3,0-0.5,0-0.8,0c-0.2,0-0.5-0.1-0.7-0.2c-0.3,0.1-0.6,0.3-0.8,0.5
		c-0.2,0.2-0.4,0.5-0.4,0.7c0,0.3,0.2,0.6,0.5,0.7c0.4,0.2,0.8,0.2,1.2,0.2h2.9c1.5,0,2.5,0.3,3.2,0.8C-50.3,16.2-49.9,17.1-50,18z
		 M-52.3,18.3c0-0.4-0.2-0.8-0.5-1s-0.9-0.4-1.7-0.4h-4c-0.3,0.2-0.5,0.3-0.6,0.6c-0.2,0.2-0.2,0.5-0.2,0.8c0,0.5,0.2,0.9,0.6,1.2
		c0.4,0.3,1,0.5,1.9,0.5h1.6c0.8,0,1.5-0.1,2.2-0.4C-52.5,19.3-52.3,18.8-52.3,18.3L-52.3,18.3z M-56,11.1c0.6,0,1.2-0.2,1.7-0.5
		c0.4-0.4,0.6-0.9,0.6-1.5V8.6c0-0.6-0.2-1.1-0.6-1.5c-1-0.7-2.4-0.7-3.4,0c-0.4,0.4-0.6,1-0.6,1.5v0.5c0,0.6,0.2,1.1,0.6,1.5
		C-57.3,11-56.6,11.1-56,11.1L-56,11.1z"/>
	<path d="M-46.8,16.9h-2.4V5.1h2.4V7h0.1c0.2-0.6,0.6-1.2,1.2-1.6c0.6-0.5,1.4-0.7,2.1-0.6c1.1-0.1,2.1,0.4,2.8,1.2
		c0.7,0.8,1,1.9,1,3.4v7.5H-42V9.7c0-0.7-0.2-1.5-0.5-2.1c-0.4-0.5-1.1-0.8-1.8-0.7c-0.4,0-0.8,0.1-1.3,0.2c-0.4,0.1-0.7,0.4-1,0.7
		C-46.9,8.1-47,8.5-47,8.9v8H-46.8z"/>
	<path d="M-36.5,2.9c-0.4,0-0.8-0.1-1.1-0.3c-0.2-0.2-0.3-0.6-0.3-0.9V1.3c0-0.3,0.1-0.6,0.3-0.9c0.6-0.5,1.5-0.5,2.2,0
		c0.2,0.2,0.3,0.6,0.3,0.9v0.4c0,0.3-0.1,0.6-0.3,0.9C-35.7,2.8-36.1,2.9-36.5,2.9z M-37.7,16.9V5.1h2.4v11.8H-37.7L-37.7,16.9z"/>
	<path d="M-30.5,16.9h-2.4V5.1h2.4V7h0.1c0.2-0.6,0.6-1.2,1.2-1.6c0.6-0.5,1.4-0.7,2.1-0.6C-26,4.7-25,5.2-24.2,6
		c0.7,0.8,1,1.9,1,3.4v7.5h-2.4V9.7c0-0.7-0.2-1.5-0.5-2.1c-0.4-0.5-1.1-0.8-1.7-0.7c-0.4,0-0.8,0.1-1.3,0.2c-0.4,0.1-0.7,0.4-1,0.7
		c-0.3,0.3-0.4,0.7-0.4,1.1L-30.5,16.9z"/>
	<path d="M-10.4,18c0,0.7-0.2,1.5-0.6,2.1c-0.5,0.6-1.2,1-1.9,1.2c-1.1,0.3-2.3,0.5-3.4,0.4c-1,0-2.1-0.1-3.1-0.3
		c-0.6-0.2-1.3-0.5-1.7-1c-0.3-0.4-0.5-1-0.5-1.5c0-0.6,0.2-1.1,0.5-1.6c0.4-0.4,0.9-0.7,1.5-0.8v-0.3c-0.4-0.1-0.7-0.4-1-0.7
		c-0.2-0.3-0.3-0.7-0.3-1.1c0-0.5,0.2-1,0.6-1.4c0.4-0.3,1-0.6,1.5-0.7v-0.1c-0.6-0.3-1.2-0.8-1.6-1.4c-0.4-0.6-0.6-1.4-0.6-2.1
		s0.2-1.5,0.6-2.1c0.4-0.6,1-1.1,1.6-1.4c0.8-0.3,1.6-0.5,2.5-0.5c0.4,0,0.8,0,1.1,0.1s0.7,0.2,1,0.3V4.9c0-0.5,0.1-0.9,0.4-1.3
		c0.3-0.3,0.7-0.5,1.1-0.5h1.8V5h-2.4v0.6c0.5,0.3,0.9,0.8,1.2,1.3c0.3,0.6,0.4,1.2,0.4,1.8c0,0.7-0.2,1.5-0.5,2.1
		c-0.4,0.6-1,1.1-1.6,1.4c-0.8,0.3-1.7,0.5-2.6,0.5c-0.3,0-0.5,0-0.8,0c-0.2,0-0.5-0.1-0.7-0.2c-0.3,0.1-0.6,0.3-0.8,0.5
		s-0.4,0.5-0.4,0.7c0,0.3,0.2,0.6,0.5,0.7c0.4,0.2,0.8,0.2,1.2,0.2h2.9c1.5,0,2.5,0.3,3.2,0.8C-10.8,16.2-10.4,17.1-10.4,18z
		 M-12.7,18.3c0-0.4-0.2-0.8-0.5-1s-0.9-0.4-1.7-0.4h-4c-0.3,0.2-0.5,0.3-0.6,0.6c-0.2,0.2-0.2,0.5-0.2,0.8c0,0.5,0.2,0.9,0.6,1.2
		c0.4,0.3,1,0.5,1.9,0.5h1.6c0.8,0,1.5-0.1,2.2-0.4C-13,19.3-12.7,18.8-12.7,18.3z M-16.4,11.1c0.6,0,1.2-0.2,1.7-0.5
		c0.4-0.4,0.6-0.9,0.6-1.5V8.6c0-0.6-0.2-1.1-0.6-1.5c-1-0.7-2.4-0.7-3.4,0c-0.4,0.4-0.6,1-0.6,1.5v0.5c0,0.6,0.2,1.1,0.6,1.5
		C-17.7,11-17.1,11.1-16.4,11.1z"/>
	<path d="M-91.3,37.4v-6.9h-7.3v6.9h-2.5V21.5h2.5v6.8h7.3v-6.8h2.5v15.9H-91.3z"/>
	<path d="M-82.1,37.7c-1,0-2-0.2-2.9-0.8c-0.8-0.5-1.5-1.3-1.9-2.1c-0.5-1-0.7-2.1-0.7-3.3c0-1.1,0.2-2.3,0.7-3.2
		c0.4-0.9,1.1-1.6,1.9-2.1c1.8-1,4-1,5.7,0c0.8,0.5,1.5,1.3,1.9,2.1c0.5,1,0.7,2.1,0.7,3.2c0,1.1-0.2,2.3-0.7,3.3
		c-0.4,0.9-1.1,1.6-1.9,2.1C-80.1,37.5-81.1,37.7-82.1,37.7z M-82.1,35.7c0.8,0,1.5-0.3,2.1-0.8c0.5-0.5,0.8-1.3,0.8-2.4v-2
		c0-1.1-0.3-1.8-0.8-2.4c-1.2-1.1-3-1.1-4.2,0c-0.5,0.5-0.8,1.3-0.8,2.4v2c0,1,0.3,1.8,0.8,2.4C-83.6,35.4-82.9,35.7-82.1,35.7z"/>
	<path d="M-75.6,42V25.7h2.4v1.9h0.1c0.2-0.7,0.7-1.3,1.3-1.6c0.6-0.4,1.3-0.6,2.1-0.6c0.9,0,1.8,0.2,2.6,0.7
		c0.7,0.5,1.3,1.3,1.6,2.1c0.4,1.1,0.6,2.2,0.6,3.3c0,1.1-0.2,2.3-0.6,3.3c-0.3,0.8-0.9,1.6-1.6,2.1c-0.8,0.5-1.6,0.8-2.6,0.7
		c-0.7,0-1.5-0.2-2.1-0.6c-0.6-0.4-1-1-1.3-1.6h-0.1V42H-75.6z M-70.5,35.7c0.8,0,1.6-0.3,2.1-0.9c0.5-0.6,0.8-1.4,0.8-2.3v-2
		c0-0.8-0.2-1.6-0.8-2.3c-0.5-0.6-1.3-0.9-2.1-0.8c-0.5,0-0.9,0.1-1.4,0.3c-0.4,0.2-0.7,0.4-1,0.7c-0.3,0.3-0.4,0.7-0.4,1.1v4
		c0,0.4,0.1,0.8,0.4,1.1s0.6,0.6,1,0.7C-71.4,35.5-70.9,35.7-70.5,35.7z"/>
	<path d="M-58.6,37.7c-1,0-2-0.2-2.9-0.8c-0.8-0.5-1.5-1.3-1.9-2.1c-0.5-1-0.7-2.1-0.6-3.3c0-1.1,0.2-2.2,0.6-3.2
		c0.4-0.9,1.1-1.6,1.9-2.1c0.9-0.5,1.9-0.8,2.9-0.8s2,0.2,2.9,0.8c0.8,0.5,1.4,1.3,1.8,2.1c0.4,1,0.6,1.9,0.6,3v0.9h-8.2v0.4
		c0,0.8,0.3,1.7,0.8,2.3c0.6,0.6,1.5,1,2.4,0.9c0.6,0,1.3-0.2,1.9-0.5c0.5-0.3,1-0.8,1.3-1.3l1.5,1.4c-0.6,0.6-1.3,1.2-2,1.6
		C-56.6,37.5-57.6,37.7-58.6,37.7z M-58.6,27.3c-0.5,0-1.1,0.1-1.5,0.4s-0.8,0.6-1,1.1c-0.3,0.5-0.4,1-0.4,1.6v0.2h5.7v-0.3
		c0-0.5-0.1-1.1-0.3-1.6c-0.2-0.4-0.5-0.8-0.9-1.1C-57.6,27.4-58.1,27.3-58.6,27.3z"/>
</g>
</svg>
